<?xml version="1.0" encoding="UTF-8" standalone="no"?>
<!DOCTYPE svg PUBLIC "-//W3C//DTD SVG 1.1//EN"
 "http://www.w3.org/Graphics/SVG/1.1/DTD/svg11.dtd">
<!-- Generated by graphviz version 8.0.3 (20230416.2022)
 -->
<!-- Pages: 1 -->
<svg width="400pt" height="260pt"
 viewBox="0.00 0.00 400.00 260.00" xmlns="http://www.w3.org/2000/svg" xmlns:xlink="http://www.w3.org/1999/xlink">
<g id="graph0" class="graph" transform="scale(1 1) rotate(0) translate(4 256)">
<polygon fill="white" stroke="none" points="-4,4 -4,-256 396,-256 396,4 -4,4"/>
<!-- 0 -->
<g id="node1" class="node">
<title>0</title>
<ellipse fill="none" stroke="black" cx="27" cy="-234" rx="27" ry="18"/>
<text text-anchor="middle" x="27" y="-230.3" font-family="Times,serif" font-size="14.00">0</text>
</g>
<!-- 1 -->
<g id="node2" class="node">
<title>1</title>
<ellipse fill="none" stroke="black" cx="99" cy="-234" rx="27" ry="18"/>
<text text-anchor="middle" x="99" y="-230.3" font-family="Times,serif" font-size="14.00">1</text>
</g>
<!-- 2 -->
<g id="node3" class="node">
<title>2</title>
<ellipse fill="none" stroke="black" cx="99" cy="-162" rx="27" ry="18"/>
<text text-anchor="middle" x="99" y="-158.3" font-family="Times,serif" font-size="14.00">2</text>
</g>
<!-- 1&#45;&#45;2 -->
<g id="edge1" class="edge">
<title>1&#45;&#45;2</title>
<path fill="none" stroke="black" d="M99,-215.7C99,-204.85 99,-190.92 99,-180.1"/>
</g>
<!-- 3 -->
<g id="node4" class="node">
<title>3</title>
<ellipse fill="none" stroke="black" cx="190" cy="-234" rx="27" ry="18"/>
<text text-anchor="middle" x="190" y="-230.3" font-family="Times,serif" font-size="14.00">3</text>
</g>
<!-- 5 -->
<g id="node5" class="node">
<title>5</title>
<ellipse fill="none" stroke="black" cx="181" cy="-90" rx="27" ry="18"/>
<text text-anchor="middle" x="181" y="-86.3" font-family="Times,serif" font-size="14.00">5</text>
</g>
<!-- 3&#45;&#45;5 -->
<g id="edge2" class="edge">
<title>3&#45;&#45;5</title>
<path fill="none" stroke="black" d="M183.11,-216.14C179.3,-205.88 174.94,-192.41 173,-180 169.12,-155.17 173.35,-126.13 176.98,-108.14"/>
</g>
<!-- 4 -->
<g id="node6" class="node">
<title>4</title>
<ellipse fill="none" stroke="black" cx="209" cy="-162" rx="27" ry="18"/>
<text text-anchor="middle" x="209" y="-158.3" font-family="Times,serif" font-size="14.00">4</text>
</g>
<!-- 3&#45;&#45;4 -->
<g id="edge3" class="edge">
<title>3&#45;&#45;4</title>
<path fill="none" stroke="black" d="M194.6,-216.05C197.59,-205.05 201.46,-190.76 204.44,-179.79"/>
</g>
<!-- 4&#45;&#45;5 -->
<g id="edge4" class="edge">
<title>4&#45;&#45;5</title>
<path fill="none" stroke="black" d="M202.36,-144.41C197.9,-133.25 192.04,-118.6 187.59,-107.47"/>
</g>
<!-- 6 -->
<g id="node7" class="node">
<title>6</title>
<ellipse fill="none" stroke="black" cx="310" cy="-234" rx="27" ry="18"/>
<text text-anchor="middle" x="310" y="-230.3" font-family="Times,serif" font-size="14.00">6</text>
</g>
<!-- 9 -->
<g id="node8" class="node">
<title>9</title>
<ellipse fill="none" stroke="black" cx="319" cy="-18" rx="27" ry="18"/>
<text text-anchor="middle" x="319" y="-14.3" font-family="Times,serif" font-size="14.00">9</text>
</g>
<!-- 6&#45;&#45;9 -->
<g id="edge5" class="edge">
<title>6&#45;&#45;9</title>
<path fill="none" stroke="black" d="M302.39,-216.68C289.71,-187.23 267.17,-123.47 283,-72 287.38,-57.75 297.04,-43.9 305.25,-33.93"/>
</g>
<!-- 8 -->
<g id="node9" class="node">
<title>8</title>
<ellipse fill="none" stroke="black" cx="319" cy="-90" rx="27" ry="18"/>
<text text-anchor="middle" x="319" y="-86.3" font-family="Times,serif" font-size="14.00">8</text>
</g>
<!-- 6&#45;&#45;8 -->
<g id="edge6" class="edge">
<title>6&#45;&#45;8</title>
<path fill="none" stroke="black" d="M311.1,-215.59C312.84,-188.19 316.19,-135.32 317.92,-108.11"/>
</g>
<!-- 7 -->
<g id="node10" class="node">
<title>7</title>
<ellipse fill="none" stroke="black" cx="365" cy="-162" rx="27" ry="18"/>
<text text-anchor="middle" x="365" y="-158.3" font-family="Times,serif" font-size="14.00">7</text>
</g>
<!-- 6&#45;&#45;7 -->
<g id="edge7" class="edge">
<title>6&#45;&#45;7</title>
<path fill="none" stroke="black" d="M322.21,-217.46C331.32,-205.86 343.72,-190.08 352.83,-178.49"/>
</g>
<!-- 8&#45;&#45;9 -->
<g id="edge10" class="edge">
<title>8&#45;&#45;9</title>
<path fill="none" stroke="black" d="M319,-71.7C319,-60.85 319,-46.92 319,-36.1"/>
</g>
<!-- 7&#45;&#45;9 -->
<g id="edge8" class="edge">
<title>7&#45;&#45;9</title>
<path fill="none" stroke="black" d="M365.48,-143.71C365.44,-125.35 363.79,-95.77 355,-72 349.83,-58.02 340.21,-44.15 332.21,-34.11"/>
</g>
<!-- 7&#45;&#45;8 -->
<g id="edge9" class="edge">
<title>7&#45;&#45;8</title>
<path fill="none" stroke="black" d="M354.56,-145.12C347.03,-133.66 336.92,-118.26 329.4,-106.82"/>
</g>
</g>
</svg>
