<?xml version="1.0" encoding="UTF-8" standalone="no"?>
<!DOCTYPE svg PUBLIC "-//W3C//DTD SVG 1.1//EN"
 "http://www.w3.org/Graphics/SVG/1.1/DTD/svg11.dtd">
<!-- Generated by graphviz version 8.0.3 (20230416.2022)
 -->
<!-- Pages: 1 -->
<svg width="225pt" height="209pt"
 viewBox="0.00 0.00 225.39 208.61" xmlns="http://www.w3.org/2000/svg" xmlns:xlink="http://www.w3.org/1999/xlink">
<g id="graph0" class="graph" transform="scale(1 1) rotate(0) translate(4 204.61)">
<polygon fill="white" stroke="none" points="-4,4 -4,-204.61 221.39,-204.61 221.39,4 -4,4"/>
<!-- 0 -->
<g id="node1" class="node">
<title>0</title>
<ellipse fill="none" stroke="black" cx="27" cy="-125.33" rx="27" ry="18"/>
<text text-anchor="middle" x="27" y="-121.63" font-family="Times,serif" font-size="14.00">0</text>
</g>
<!-- 8 -->
<g id="node2" class="node">
<title>8</title>
<ellipse fill="none" stroke="black" cx="62.4" cy="-170.16" rx="27" ry="18"/>
<text text-anchor="middle" x="62.4" y="-166.46" font-family="Times,serif" font-size="14.00">8</text>
</g>
<!-- 0&#45;&#45;8 -->
<g id="edge1" class="edge">
<title>0&#45;&#45;8</title>
<path fill="none" stroke="black" d="M39.78,-141.51C42.95,-145.53 46.35,-149.83 49.52,-153.85"/>
</g>
<!-- 3 -->
<g id="node3" class="node">
<title>3</title>
<ellipse fill="none" stroke="black" cx="29.52" cy="-68.25" rx="27" ry="18"/>
<text text-anchor="middle" x="29.52" y="-64.55" font-family="Times,serif" font-size="14.00">3</text>
</g>
<!-- 0&#45;&#45;3 -->
<g id="edge2" class="edge">
<title>0&#45;&#45;3</title>
<path fill="none" stroke="black" d="M27.81,-106.95C28.1,-100.44 28.42,-93.1 28.71,-86.59"/>
</g>
<!-- 6 -->
<g id="node4" class="node">
<title>6</title>
<ellipse fill="none" stroke="black" cx="106.68" cy="-99.56" rx="27" ry="18"/>
<text text-anchor="middle" x="106.68" y="-95.86" font-family="Times,serif" font-size="14.00">6</text>
</g>
<!-- 0&#45;&#45;6 -->
<g id="edge3" class="edge">
<title>0&#45;&#45;6</title>
<path fill="none" stroke="black" d="M51.77,-117.32C61.37,-114.21 72.33,-110.67 81.92,-107.57"/>
</g>
<!-- 3&#45;&#45;6 -->
<g id="edge10" class="edge">
<title>3&#45;&#45;6</title>
<path fill="none" stroke="black" d="M52.67,-77.64C62.35,-81.57 73.58,-86.13 83.28,-90.06"/>
</g>
<!-- 6&#45;&#45;8 -->
<g id="edge17" class="edge">
<title>6&#45;&#45;8</title>
<path fill="none" stroke="black" d="M96.19,-116.29C89.13,-127.55 79.86,-142.32 72.82,-153.55"/>
</g>
<!-- 9 -->
<g id="node9" class="node">
<title>9</title>
<ellipse fill="none" stroke="black" cx="172.62" cy="-48.37" rx="27" ry="18"/>
<text text-anchor="middle" x="172.62" y="-44.67" font-family="Times,serif" font-size="14.00">9</text>
</g>
<!-- 6&#45;&#45;9 -->
<g id="edge15" class="edge">
<title>6&#45;&#45;9</title>
<path fill="none" stroke="black" d="M124.35,-85.84C133.81,-78.5 145.43,-69.48 154.9,-62.13"/>
</g>
<!-- 7 -->
<g id="node10" class="node">
<title>7</title>
<ellipse fill="none" stroke="black" cx="190.39" cy="-102.71" rx="27" ry="18"/>
<text text-anchor="middle" x="190.39" y="-99.01" font-family="Times,serif" font-size="14.00">7</text>
</g>
<!-- 6&#45;&#45;7 -->
<g id="edge16" class="edge">
<title>6&#45;&#45;7</title>
<path fill="none" stroke="black" d="M134.09,-100.59C143.44,-100.94 153.88,-101.33 163.21,-101.69"/>
</g>
<!-- 1 -->
<g id="node5" class="node">
<title>1</title>
<ellipse fill="none" stroke="black" cx="118.16" cy="-182.61" rx="27" ry="18"/>
<text text-anchor="middle" x="118.16" y="-178.91" font-family="Times,serif" font-size="14.00">1</text>
</g>
<!-- 1&#45;&#45;8 -->
<g id="edge5" class="edge">
<title>1&#45;&#45;8</title>
<path fill="none" stroke="black" d="M92.24,-176.82C90.99,-176.54 89.73,-176.26 88.48,-175.98"/>
</g>
<!-- 1&#45;&#45;6 -->
<g id="edge6" class="edge">
<title>1&#45;&#45;6</title>
<path fill="none" stroke="black" d="M115.67,-164.59C113.76,-150.75 111.13,-131.73 109.21,-117.83"/>
</g>
<!-- 5 -->
<g id="node6" class="node">
<title>5</title>
<ellipse fill="none" stroke="black" cx="168.35" cy="-155.39" rx="27" ry="18"/>
<text text-anchor="middle" x="168.35" y="-151.69" font-family="Times,serif" font-size="14.00">5</text>
</g>
<!-- 1&#45;&#45;5 -->
<g id="edge4" class="edge">
<title>1&#45;&#45;5</title>
<path fill="none" stroke="black" d="M139.44,-171.06C142.01,-169.67 144.63,-168.25 147.19,-166.86"/>
</g>
<!-- 5&#45;&#45;6 -->
<g id="edge14" class="edge">
<title>5&#45;&#45;6</title>
<path fill="none" stroke="black" d="M152.15,-140.72C143.15,-132.58 132,-122.48 122.99,-114.32"/>
</g>
<!-- 5&#45;&#45;7 -->
<g id="edge13" class="edge">
<title>5&#45;&#45;7</title>
<path fill="none" stroke="black" d="M175.69,-137.85C178.05,-132.22 180.65,-125.99 183.01,-120.35"/>
</g>
<!-- 2 -->
<g id="node7" class="node">
<title>2</title>
<ellipse fill="none" stroke="black" cx="67.51" cy="-25.55" rx="27" ry="18"/>
<text text-anchor="middle" x="67.51" y="-21.85" font-family="Times,serif" font-size="14.00">2</text>
</g>
<!-- 2&#45;&#45;3 -->
<g id="edge7" class="edge">
<title>2&#45;&#45;3</title>
<path fill="none" stroke="black" d="M53.8,-40.97C50.48,-44.69 46.93,-48.68 43.6,-52.43"/>
</g>
<!-- 2&#45;&#45;6 -->
<g id="edge9" class="edge">
<title>2&#45;&#45;6</title>
<path fill="none" stroke="black" d="M76.6,-42.72C82.88,-54.59 91.21,-70.33 97.51,-82.23"/>
</g>
<!-- 4 -->
<g id="node8" class="node">
<title>4</title>
<ellipse fill="none" stroke="black" cx="124.19" cy="-18" rx="27" ry="18"/>
<text text-anchor="middle" x="124.19" y="-14.3" font-family="Times,serif" font-size="14.00">4</text>
</g>
<!-- 2&#45;&#45;4 -->
<g id="edge8" class="edge">
<title>2&#45;&#45;4</title>
<path fill="none" stroke="black" d="M94.19,-22C95.22,-21.86 96.26,-21.72 97.29,-21.58"/>
</g>
<!-- 4&#45;&#45;6 -->
<g id="edge12" class="edge">
<title>4&#45;&#45;6</title>
<path fill="none" stroke="black" d="M120.3,-36.1C117.4,-49.62 113.45,-68.01 110.56,-81.51"/>
</g>
<!-- 4&#45;&#45;9 -->
<g id="edge11" class="edge">
<title>4&#45;&#45;9</title>
<path fill="none" stroke="black" d="M144.17,-30.53C146.98,-32.29 149.87,-34.11 152.69,-35.87"/>
</g>
<!-- 7&#45;&#45;9 -->
<g id="edge18" class="edge">
<title>7&#45;&#45;9</title>
<path fill="none" stroke="black" d="M184.57,-84.92C182.63,-78.97 180.46,-72.35 178.51,-66.39"/>
</g>
</g>
</svg>
