<?xml version="1.0" encoding="UTF-8" standalone="no"?>
<!DOCTYPE svg PUBLIC "-//W3C//DTD SVG 1.1//EN"
 "http://www.w3.org/Graphics/SVG/1.1/DTD/svg11.dtd">
<!-- Generated by graphviz version 8.0.3 (20230416.2022)
 -->
<!-- Pages: 1 -->
<svg width="375pt" height="332pt"
 viewBox="0.00 0.00 375.00 332.00" xmlns="http://www.w3.org/2000/svg" xmlns:xlink="http://www.w3.org/1999/xlink">
<g id="graph0" class="graph" transform="scale(1 1) rotate(0) translate(4 328)">
<polygon fill="white" stroke="none" points="-4,4 -4,-328 371,-328 371,4 -4,4"/>
<!-- 0 -->
<g id="node1" class="node">
<title>0</title>
<ellipse fill="none" stroke="black" cx="310" cy="-306" rx="27" ry="18"/>
<text text-anchor="middle" x="310" y="-302.3" font-family="Times,serif" font-size="14.00">0</text>
</g>
<!-- 8 -->
<g id="node2" class="node">
<title>8</title>
<ellipse fill="none" stroke="black" cx="340" cy="-90" rx="27" ry="18"/>
<text text-anchor="middle" x="340" y="-86.3" font-family="Times,serif" font-size="14.00">8</text>
</g>
<!-- 0&#45;&#45;8 -->
<g id="edge1" class="edge">
<title>0&#45;&#45;8</title>
<path fill="none" stroke="black" d="M325.86,-291.49C336.05,-281.71 348.4,-267.52 354,-252 372.1,-201.86 355.62,-137.46 345.92,-107.59"/>
</g>
<!-- 3 -->
<g id="node3" class="node">
<title>3</title>
<ellipse fill="none" stroke="black" cx="175" cy="-234" rx="27" ry="18"/>
<text text-anchor="middle" x="175" y="-230.3" font-family="Times,serif" font-size="14.00">3</text>
</g>
<!-- 0&#45;&#45;3 -->
<g id="edge2" class="edge">
<title>0&#45;&#45;3</title>
<path fill="none" stroke="black" d="M289.2,-294.22C263.76,-281.02 220.95,-258.83 195.6,-245.68"/>
</g>
<!-- 6 -->
<g id="node4" class="node">
<title>6</title>
<ellipse fill="none" stroke="black" cx="175" cy="-162" rx="27" ry="18"/>
<text text-anchor="middle" x="175" y="-158.3" font-family="Times,serif" font-size="14.00">6</text>
</g>
<!-- 0&#45;&#45;6 -->
<g id="edge3" class="edge">
<title>0&#45;&#45;6</title>
<path fill="none" stroke="black" d="M308.81,-287.66C306.63,-268.16 300.47,-236.54 283,-216 261.36,-190.54 224.58,-176.2 200.04,-169.03"/>
</g>
<!-- 3&#45;&#45;6 -->
<g id="edge10" class="edge">
<title>3&#45;&#45;6</title>
<path fill="none" stroke="black" d="M175,-215.7C175,-204.85 175,-190.92 175,-180.1"/>
</g>
<!-- 6&#45;&#45;8 -->
<g id="edge17" class="edge">
<title>6&#45;&#45;8</title>
<path fill="none" stroke="black" d="M197.25,-151.56C228.74,-138.2 285.99,-113.91 317.57,-100.51"/>
</g>
<!-- 9 -->
<g id="node9" class="node">
<title>9</title>
<ellipse fill="none" stroke="black" cx="147" cy="-18" rx="27" ry="18"/>
<text text-anchor="middle" x="147" y="-14.3" font-family="Times,serif" font-size="14.00">9</text>
</g>
<!-- 6&#45;&#45;9 -->
<g id="edge15" class="edge">
<title>6&#45;&#45;9</title>
<path fill="none" stroke="black" d="M171.62,-143.87C166.24,-116.58 155.78,-63.52 150.39,-36.19"/>
</g>
<!-- 7 -->
<g id="node10" class="node">
<title>7</title>
<ellipse fill="none" stroke="black" cx="202" cy="-90" rx="27" ry="18"/>
<text text-anchor="middle" x="202" y="-86.3" font-family="Times,serif" font-size="14.00">7</text>
</g>
<!-- 6&#45;&#45;7 -->
<g id="edge16" class="edge">
<title>6&#45;&#45;7</title>
<path fill="none" stroke="black" d="M181.54,-144.05C185.78,-133.05 191.29,-118.76 195.52,-107.79"/>
</g>
<!-- 1 -->
<g id="node5" class="node">
<title>1</title>
<ellipse fill="none" stroke="black" cx="238" cy="-306" rx="27" ry="18"/>
<text text-anchor="middle" x="238" y="-302.3" font-family="Times,serif" font-size="14.00">1</text>
</g>
<!-- 1&#45;&#45;8 -->
<g id="edge5" class="edge">
<title>1&#45;&#45;8</title>
<path fill="none" stroke="black" d="M252.57,-290.8C262.27,-280.71 274.69,-266.44 283,-252 311.1,-203.17 328.89,-138.14 336.19,-107.85"/>
</g>
<!-- 1&#45;&#45;6 -->
<g id="edge6" class="edge">
<title>1&#45;&#45;6</title>
<path fill="none" stroke="black" d="M212.54,-299.26C188.83,-292.42 154.83,-278.43 139,-252 124.36,-227.55 145.34,-196.05 160.89,-177.83"/>
</g>
<!-- 5 -->
<g id="node6" class="node">
<title>5</title>
<ellipse fill="none" stroke="black" cx="247" cy="-234" rx="27" ry="18"/>
<text text-anchor="middle" x="247" y="-230.3" font-family="Times,serif" font-size="14.00">5</text>
</g>
<!-- 1&#45;&#45;5 -->
<g id="edge4" class="edge">
<title>1&#45;&#45;5</title>
<path fill="none" stroke="black" d="M240.22,-287.7C241.62,-276.85 243.41,-262.92 244.8,-252.1"/>
</g>
<!-- 5&#45;&#45;6 -->
<g id="edge14" class="edge">
<title>5&#45;&#45;6</title>
<path fill="none" stroke="black" d="M232.08,-218.5C219.72,-206.48 202.25,-189.49 189.9,-177.49"/>
</g>
<!-- 5&#45;&#45;7 -->
<g id="edge13" class="edge">
<title>5&#45;&#45;7</title>
<path fill="none" stroke="black" d="M241.57,-215.87C232.88,-188.43 215.93,-134.95 207.31,-107.75"/>
</g>
<!-- 2 -->
<g id="node7" class="node">
<title>2</title>
<ellipse fill="none" stroke="black" cx="82" cy="-306" rx="27" ry="18"/>
<text text-anchor="middle" x="82" y="-302.3" font-family="Times,serif" font-size="14.00">2</text>
</g>
<!-- 2&#45;&#45;3 -->
<g id="edge7" class="edge">
<title>2&#45;&#45;3</title>
<path fill="none" stroke="black" d="M99.49,-291.83C116.12,-279.32 140.98,-260.6 157.59,-248.11"/>
</g>
<!-- 2&#45;&#45;6 -->
<g id="edge9" class="edge">
<title>2&#45;&#45;6</title>
<path fill="none" stroke="black" d="M89.69,-288.32C98.44,-269.98 113.66,-239.92 130,-216 139.4,-202.25 151.74,-187.92 161.12,-177.63"/>
</g>
<!-- 4 -->
<g id="node8" class="node">
<title>4</title>
<ellipse fill="none" stroke="black" cx="27" cy="-234" rx="27" ry="18"/>
<text text-anchor="middle" x="27" y="-230.3" font-family="Times,serif" font-size="14.00">4</text>
</g>
<!-- 2&#45;&#45;4 -->
<g id="edge8" class="edge">
<title>2&#45;&#45;4</title>
<path fill="none" stroke="black" d="M69.79,-289.46C60.68,-277.86 48.28,-262.08 39.17,-250.49"/>
</g>
<!-- 4&#45;&#45;6 -->
<g id="edge12" class="edge">
<title>4&#45;&#45;6</title>
<path fill="none" stroke="black" d="M48.52,-222.82C76.58,-209.55 125.38,-186.47 153.45,-173.19"/>
</g>
<!-- 4&#45;&#45;9 -->
<g id="edge11" class="edge">
<title>4&#45;&#45;9</title>
<path fill="none" stroke="black" d="M36.02,-216.92C58.26,-177.26 115.53,-75.13 137.88,-35.27"/>
</g>
<!-- 7&#45;&#45;9 -->
<g id="edge18" class="edge">
<title>7&#45;&#45;9</title>
<path fill="none" stroke="black" d="M189.79,-73.46C180.68,-61.86 168.28,-46.08 159.17,-34.49"/>
</g>
</g>
</svg>
