<svg version="1.1" viewBox="0.0 0.0 600.0 371.0" fill="none" stroke="none" stroke-linecap="square" stroke-miterlimit="10" width="600" height="371" xmlns:xlink="http://www.w3.org/1999/xlink" xmlns="http://www.w3.org/2000/svg"><path fill="#ffffff" d="M0 0L600.0 0L600.0 371.0L0 371.0L0 0Z" fill-rule="nonzero"/><path stroke="#333333" stroke-width="1.0" stroke-linecap="butt" d="M83.5 61.5L83.5 300.5" fill-rule="nonzero"/><path stroke="#cccccc" stroke-width="1.0" stroke-linecap="butt" d="M203.5 61.5L203.5 300.5" fill-rule="nonzero"/><path stroke="#cccccc" stroke-width="1.0" stroke-linecap="butt" d="M323.5 61.5L323.5 300.5" fill-rule="nonzero"/><path stroke="#cccccc" stroke-width="1.0" stroke-linecap="butt" d="M443.5 61.5L443.5 300.5" fill-rule="nonzero"/><path stroke="#cccccc" stroke-width="1.0" stroke-linecap="butt" d="M563.5 61.5L563.5 300.5" fill-rule="nonzero"/><path stroke="#333333" stroke-width="1.0" stroke-linecap="butt" d="M77.5 300.5L581.5 300.5" fill-rule="nonzero"/><path stroke="#cccccc" stroke-width="1.0" stroke-linecap="butt" d="M77.5 240.5L581.5 240.5" fill-rule="nonzero"/><path stroke="#cccccc" stroke-width="1.0" stroke-linecap="butt" d="M77.5 181.5L581.5 181.5" fill-rule="nonzero"/><path stroke="#cccccc" stroke-width="1.0" stroke-linecap="butt" d="M77.5 121.5L581.5 121.5" fill-rule="nonzero"/><path stroke="#cccccc" stroke-width="1.0" stroke-linecap="butt" d="M77.5 61.5L581.5 61.5" fill-rule="nonzero"/><clipPath id="id_0"><path d="M77.55 61.916668L581.45 61.916668L581.45 300.45L77.55 300.45L77.55 61.916668Z" clip-rule="nonzero"/></clipPath><path fill="#4285f4" clip-path="url(#id_0)" d="M88.86077 117.53964C88.86077 120.02492 86.846054 122.03964 84.36077 122.03964C81.875496 122.03964 79.86077 120.02492 79.86077 117.53964C79.86077 115.05436 81.875496 113.03964 84.36077 113.03964C86.846054 113.03964 88.86077 115.05436 88.86077 117.53964Z" fill-rule="nonzero"/><path fill="#4285f4" clip-path="url(#id_0)" d="M89.34003 121.83616C89.34003 124.32144 87.32531 126.33616 84.84003 126.33616C82.35475 126.33616 80.34003 124.32144 80.34003 121.83616C80.34003 119.35088 82.35475 117.33616 84.84003 117.33616C87.32531 117.33616 89.34003 119.35088 89.34003 121.83616Z" fill-rule="nonzero"/><path fill="#4285f4" clip-path="url(#id_0)" d="M90.29854 116.4362C90.29854 118.921486 88.28382 120.9362 85.79854 120.9362C83.31326 120.9362 81.29854 118.921486 81.29854 116.4362C81.29854 113.95093 83.31326 111.9362 85.79854 111.9362C88.28382 111.9362 90.29854 113.95093 90.29854 116.4362Z" fill-rule="nonzero"/><path fill="#4285f4" clip-path="url(#id_0)" d="M92.21556 118.53282C92.21556 121.018105 90.20084 123.03282 87.71556 123.03282C85.230286 123.03282 83.21556 121.018105 83.21556 118.53282C83.21556 116.04755 85.230286 114.03282 87.71556 114.03282C90.20084 114.03282 92.21556 116.04755 92.21556 118.53282Z" fill-rule="nonzero"/><path fill="#4285f4" clip-path="url(#id_0)" d="M96.04961 118.34863C96.04961 120.83391 94.03489 122.84863 91.54961 122.84863C89.06432 122.84863 87.04961 120.83391 87.04961 118.34863C87.04961 115.86335 89.06432 113.84863 91.54961 113.84863C94.03489 113.84863 96.04961 115.86335 96.04961 118.34863Z" fill-rule="nonzero"/><path fill="#4285f4" clip-path="url(#id_0)" d="M103.7177 113.892845C103.7177 116.37812 101.70298 118.392845 99.2177 118.392845C96.732414 118.392845 94.7177 116.37812 94.7177 113.892845C94.7177 111.40756 96.732414 109.392845 99.2177 109.392845C101.70298 109.392845 103.7177 111.40756 103.7177 113.892845Z" fill-rule="nonzero"/><path fill="#4285f4" clip-path="url(#id_0)" d="M119.05388 116.33554C119.05388 118.82082 117.039154 120.83554 114.55388 120.83554C112.068596 120.83554 110.05388 118.82082 110.05388 116.33554C110.05388 113.85026 112.068596 111.83554 114.55388 111.83554C117.039154 111.83554 119.05388 113.85026 119.05388 116.33554Z" fill-rule="nonzero"/><path fill="#4285f4" clip-path="url(#id_0)" d="M149.72623 114.59477C149.72623 117.080055 147.71152 119.09477 145.22623 119.09477C142.74095 119.09477 140.72623 117.080055 140.72623 114.59477C140.72623 112.1095 142.74095 110.09477 145.22623 110.09477C147.71152 110.09477 149.72623 112.1095 149.72623 114.59477Z" fill-rule="nonzero"/><path fill="#4285f4" clip-path="url(#id_0)" d="M211.07094 115.376945C211.07094 117.86223 209.05623 119.876945 206.57094 119.876945C204.08566 119.876945 202.07094 117.86223 202.07094 115.376945C202.07094 112.89166 204.08566 110.876945 206.57094 110.876945C209.05623 110.876945 211.07094 112.89166 211.07094 115.376945Z" fill-rule="nonzero"/><path fill="#4285f4" clip-path="url(#id_0)" d="M333.76038 114.660934C333.76038 117.14622 331.74567 119.160934 329.26038 119.160934C326.7751 119.160934 324.76038 117.14622 324.76038 114.660934C324.76038 112.17565 326.7751 110.160934 329.26038 110.160934C331.74567 110.160934 333.76038 112.17565 333.76038 114.660934Z" fill-rule="nonzero"/><path fill="#4285f4" clip-path="url(#id_0)" d="M579.1392 112.64565C579.1392 115.130936 577.1245 117.14565 574.6392 117.14565C572.15393 117.14565 570.1392 115.130936 570.1392 112.64565C570.1392 110.16037 572.15393 108.14565 574.6392 108.14565C577.1245 108.14565 579.1392 110.16037 579.1392 112.64565Z" fill-rule="nonzero"/><path fill="#000000" d="M308.54688 346.6844L309.60938 346.59064Q309.6875 347.2469 309.96875 347.65314Q310.25 348.0594 310.82812 348.325Q311.42188 348.575 312.15625 348.575Q312.79688 348.575 313.29688 348.3875Q313.79688 348.1844 314.03125 347.85626Q314.28125 347.5125 314.28125 347.1219Q314.28125 346.71564 314.04688 346.41876Q313.8125 346.10626 313.28125 345.90314Q312.92188 345.7625 311.73438 345.48126Q310.5625 345.2 310.09375 344.95Q309.46875 344.6219 309.17188 344.15314Q308.875 343.66876 308.875 343.075Q308.875 342.4344 309.23438 341.8719Q309.60938 341.29376 310.3125 341.0125Q311.03125 340.71564 311.89062 340.71564Q312.84375 340.71564 313.57812 341.02814Q314.3125 341.325 314.70312 341.9344Q315.09375 342.52814 315.125 343.27814L314.03125 343.35626Q313.9375 342.54376 313.42188 342.1375Q312.92188 341.71564 311.9375 341.71564Q310.90625 341.71564 310.4375 342.09064Q309.96875 342.46564 309.96875 342.9969Q309.96875 343.46564 310.29688 343.7625Q310.625 344.0594 312.0 344.3719Q313.39062 344.6844 313.90625 344.91876Q314.65625 345.27814 315.01562 345.8094Q315.375 346.325 315.375 347.02814Q315.375 347.71564 314.98438 348.325Q314.59375 348.91876 313.85938 349.2625Q313.125 349.59064 312.20312 349.59064Q311.03125 349.59064 310.23438 349.2625Q309.45312 348.91876 309.0 348.23126Q308.5625 347.54376 308.54688 346.6844ZM316.79688 342.075L316.79688 340.85626L317.85938 340.85626L317.85938 342.075L316.79688 342.075ZM316.79688 349.45L316.79688 343.23126L317.85938 343.23126L317.85938 349.45L316.79688 349.45ZM319.23438 349.45L319.23438 348.59064L323.20312 344.04376Q322.51562 344.075 322.0 344.075L319.46875 344.075L319.46875 343.23126L324.5625 343.23126L324.5625 343.91876L321.1875 347.8719L320.53125 348.59064Q321.25 348.54376 321.85938 348.54376L324.75 348.54376L324.75 349.45L319.23438 349.45ZM329.04688 347.45L330.14062 347.575Q329.89062 348.52814 329.1875 349.0594Q328.48438 349.59064 327.40625 349.59064Q326.04688 349.59064 325.23438 348.7469Q324.4375 347.90314 324.4375 346.3875Q324.4375 344.825 325.25 343.96564Q326.0625 343.09064 327.34375 343.09064Q328.59375 343.09064 329.375 343.9344Q330.17188 344.77814 330.17188 346.325Q330.17188 346.41876 330.17188 346.60626L325.53125 346.60626Q325.59375 347.6375 326.10938 348.1844Q326.625 348.71564 327.40625 348.71564Q327.98438 348.71564 328.39062 348.41876Q328.8125 348.10626 329.04688 347.45ZM325.59375 345.7469L329.0625 345.7469Q329.0 344.95 328.67188 344.5594Q328.15625 343.95 327.35938 343.95Q326.625 343.95 326.125 344.4344Q325.64062 344.91876 325.59375 345.7469ZM336.8125 351.98126Q335.9375 350.8719 335.32812 349.40314Q334.73438 347.91876 334.73438 346.34064Q334.73438 344.95 335.17188 343.66876Q335.70312 342.1844 336.8125 340.71564L337.5625 340.71564Q336.85938 341.9344 336.625 342.45Q336.26562 343.2625 336.0625 344.1375Q335.8125 345.23126 335.8125 346.34064Q335.8125 349.16876 337.5625 351.98126L336.8125 351.98126ZM338.92188 349.45L338.92188 340.85626L340.07812 340.85626L344.59375 347.60626L344.59375 340.85626L345.6875 340.85626L345.6875 349.45L344.51562 349.45L340.0 342.7L340.0 349.45L338.92188 349.45ZM348.48438 351.98126L347.73438 351.98126Q349.48438 349.16876 349.48438 346.34064Q349.48438 345.2469 349.23438 344.15314Q349.03125 343.27814 348.67188 342.46564Q348.4375 341.95 347.73438 340.71564L348.48438 340.71564Q349.57812 342.1844 350.10938 343.66876Q350.5625 344.95 350.5625 346.34064Q350.5625 347.91876 349.95312 349.40314Q349.34375 350.8719 348.48438 351.98126Z" fill-rule="nonzero"/><path fill="#000000" d="M29.550013 242.07396L21.971888 242.07396L21.971888 244.90208L20.956263 244.90208L20.956263 238.08958L21.971888 238.08958L21.971888 240.93333L29.550013 240.93333L29.550013 242.07396ZM22.175013 237.38646L20.956263 237.38646L20.956263 236.32396L22.175013 236.32396L22.175013 237.38646ZM29.550013 237.38646L23.331263 237.38646L23.331263 236.32396L29.550013 236.32396L29.550013 237.38646ZM29.550013 234.38646L23.331263 234.38646L23.331263 233.44896L24.206263 233.44896Q23.737513 233.15208 23.471888 232.66771Q23.190638 232.18333 23.190638 231.55833Q23.190638 230.87083 23.471888 230.43333Q23.753138 229.98021 24.268763 229.80833Q23.190638 229.05833 23.190638 227.88646Q23.190638 226.94896 23.706263 226.46458Q24.206263 225.96458 25.284388 225.96458L29.550013 225.96458L29.550013 227.01146L25.628138 227.01146Q25.003138 227.01146 24.721888 227.12083Q24.440638 227.21458 24.268763 227.48021Q24.096888 227.74583 24.096888 228.12083Q24.096888 228.77708 24.534388 229.21458Q24.971888 229.63646 25.940638 229.63646L29.550013 229.63646L29.550013 230.69896L25.503138 230.69896Q24.800013 230.69896 24.456263 230.96458Q24.096888 231.21458 24.096888 231.79271Q24.096888 232.24583 24.331263 232.62083Q24.565638 232.99583 25.018763 233.16771Q25.471888 233.33958 26.315638 233.33958L29.550013 233.33958L29.550013 234.38646ZM27.550013 219.13646L27.675013 218.04271Q28.628138 218.29271 29.159388 218.99583Q29.690638 219.69896 29.690638 220.77708Q29.690638 222.13646 28.846888 222.94896Q28.003138 223.74583 26.487513 223.74583Q24.925013 223.74583 24.065638 222.93333Q23.190638 222.12083 23.190638 220.83958Q23.190638 219.58958 24.034388 218.80833Q24.878138 218.01146 26.425013 218.01146Q26.518763 218.01146 26.706263 218.01146L26.706263 222.65208Q27.737513 222.58958 28.284388 222.07396Q28.815638 221.55833 28.815638 220.77708Q28.815638 220.19896 28.518763 219.79271Q28.206263 219.37083 27.550013 219.13646ZM25.846888 222.58958L25.846888 219.12083Q25.050013 219.18333 24.659388 219.51146Q24.050013 220.02708 24.050013 220.82396Q24.050013 221.55833 24.534388 222.05833Q25.018763 222.54271 25.846888 222.58958ZM32.08126 211.37083Q30.971888 212.24583 29.503138 212.85521Q28.018763 213.44896 26.440638 213.44896Q25.050013 213.44896 23.768763 213.01146Q22.284388 212.48021 20.815638 211.37083L20.815638 210.62083Q22.034388 211.32396 22.550013 211.55833Q23.362513 211.91771 24.237513 212.12083Q25.331263 212.37083 26.440638 212.37083Q29.268763 212.37083 32.08126 210.62083L32.08126 211.37083ZM29.550013 209.38646L23.331263 209.38646L23.331263 208.44896L24.206263 208.44896Q23.190638 207.76146 23.190638 206.46458Q23.190638 205.90208 23.393763 205.43333Q23.596888 204.94896 23.925013 204.71458Q24.253138 204.48021 24.690638 204.38646Q24.987513 204.33958 25.721888 204.33958L29.550013 204.33958L29.550013 205.38646L25.768763 205.38646Q25.112513 205.38646 24.800013 205.51146Q24.487513 205.63646 24.300013 205.94896Q24.096888 206.26146 24.096888 206.68333Q24.096888 207.35521 24.534388 207.85521Q24.956263 208.33958 26.143763 208.33958L29.550013 208.33958L29.550013 209.38646ZM28.784388 198.32396Q29.284388 198.91771 29.487513 199.46458Q29.690638 199.99583 29.690638 200.62083Q29.690638 201.65208 29.190638 202.19896Q28.690638 202.74583 27.909388 202.74583Q27.456263 202.74583 27.081263 202.54271Q26.690638 202.33958 26.471888 201.99583Q26.237513 201.65208 26.128138 201.23021Q26.034388 200.93333 25.956263 200.29271Q25.815638 199.02708 25.596888 198.41771Q25.378138 198.41771 25.331263 198.41771Q24.675013 198.41771 24.409388 198.71458Q24.065638 199.12083 24.065638 199.91771Q24.065638 200.65208 24.331263 201.01146Q24.581263 201.37083 25.237513 201.54271L25.096888 202.57396Q24.440638 202.43333 24.034388 202.10521Q23.628138 201.77708 23.409388 201.16771Q23.190638 200.55833 23.190638 199.76146Q23.190638 198.96458 23.378138 198.46458Q23.565638 197.96458 23.846888 197.73021Q24.128138 197.49583 24.565638 197.40208Q24.831263 197.35521 25.534388 197.35521L26.940638 197.35521Q28.409388 197.35521 28.800013 197.29271Q29.190638 197.21458 29.550013 197.01146L29.550013 198.12083Q29.221888 198.27708 28.784388 198.32396ZM26.425013 198.41771Q26.659388 198.99583 26.831263 200.13646Q26.925013 200.79271 27.050013 201.05833Q27.159388 201.32396 27.378138 201.48021Q27.596888 201.62083 27.878138 201.62083Q28.300013 201.62083 28.581263 201.30833Q28.862513 200.98021 28.862513 200.37083Q28.862513 199.76146 28.596888 199.29271Q28.331263 198.80833 27.862513 198.58958Q27.503138 198.41771 26.815638 198.41771L26.425013 198.41771ZM29.550013 195.38646L23.331263 195.38646L23.331263 194.44896L24.206263 194.44896Q23.190638 193.76146 23.190638 192.46458Q23.190638 191.90208 23.393763 191.43333Q23.596888 190.94896 23.925013 190.71458Q24.253138 190.48021 24.690638 190.38646Q24.987513 190.33958 25.721888 190.33958L29.550013 190.33958L29.550013 191.38646L25.768763 191.38646Q25.112513 191.38646 24.800013 191.51146Q24.487513 191.63646 24.300013 191.94896Q24.096888 192.26146 24.096888 192.68333Q24.096888 193.35521 24.534388 193.85521Q24.956263 194.33958 26.143763 194.33958L29.550013 194.33958L29.550013 195.38646ZM26.440638 188.77708Q24.706263 188.77708 23.878138 187.82396Q23.190638 187.02708 23.190638 185.87083Q23.190638 184.58958 24.034388 183.77708Q24.862513 182.94896 26.346888 182.94896Q27.550013 182.94896 28.237513 183.30833Q28.925013 183.66771 29.315638 184.37083Q29.690638 185.05833 29.690638 185.87083Q29.690638 187.16771 28.862513 187.98021Q28.018763 188.77708 26.440638 188.77708ZM26.440638 187.69896Q27.628138 187.69896 28.221888 187.18333Q28.815638 186.65208 28.815638 185.87083Q28.815638 185.07396 28.221888 184.55833Q27.628138 184.04271 26.409388 184.04271Q25.253138 184.04271 24.659388 184.57396Q24.065638 185.08958 24.065638 185.87083Q24.065638 186.65208 24.659388 187.18333Q25.237513 187.69896 26.440638 187.69896ZM27.690638 181.80833L27.534388 180.77708Q28.159388 180.68333 28.487513 180.29271Q28.815638 179.88646 28.815638 179.15208Q28.815638 178.43333 28.534388 178.08958Q28.237513 177.73021 27.831263 177.73021Q27.471888 177.73021 27.268763 178.04271Q27.128138 178.26146 26.909388 179.12083Q26.612513 180.27708 26.409388 180.73021Q26.190638 181.16771 25.815638 181.40208Q25.440638 181.63646 24.971888 181.63646Q24.565638 181.63646 24.206263 181.44896Q23.846888 181.26146 23.612513 180.93333Q23.440638 180.68333 23.315638 180.26146Q23.190638 179.83958 23.190638 179.33958Q23.190638 178.62083 23.409388 178.07396Q23.612513 177.51146 23.971888 177.24583Q24.331263 176.98021 24.925013 176.88646L25.065638 177.91771Q24.596888 177.98021 24.331263 178.32396Q24.050013 178.65208 24.050013 179.27708Q24.050013 179.99583 24.300013 180.30833Q24.534388 180.62083 24.862513 180.62083Q25.065638 180.62083 25.221888 180.49583Q25.393763 180.35521 25.503138 180.08958Q25.565638 179.93333 25.768763 179.15208Q26.081263 178.02708 26.268763 177.58958Q26.456263 177.15208 26.815638 176.90208Q27.175013 176.65208 27.721888 176.65208Q28.253138 176.65208 28.721888 176.96458Q29.175013 177.26146 29.440638 177.83958Q29.690638 178.41771 29.690638 179.15208Q29.690638 180.37083 29.190638 181.01146Q28.675013 181.63646 27.690638 181.80833ZM27.550013 170.13646L27.675013 169.04271Q28.628138 169.29271 29.159388 169.99583Q29.690638 170.69896 29.690638 171.77708Q29.690638 173.13646 28.846888 173.94896Q28.003138 174.74583 26.487513 174.74583Q24.925013 174.74583 24.065638 173.93333Q23.190638 173.12083 23.190638 171.83958Q23.190638 170.58958 24.034388 169.80833Q24.878138 169.01146 26.425013 169.01146Q26.518763 169.01146 26.706263 169.01146L26.706263 173.65208Q27.737513 173.58958 28.284388 173.07396Q28.815638 172.55833 28.815638 171.77708Q28.815638 171.19896 28.518763 170.79271Q28.206263 170.37083 27.550013 170.13646ZM25.846888 173.58958L25.846888 170.12083Q25.050013 170.18333 24.659388 170.51146Q24.050013 171.02708 24.050013 171.82396Q24.050013 172.55833 24.534388 173.05833Q25.018763 173.54271 25.846888 173.58958ZM27.268763 163.32396L27.409388 162.29271Q28.471888 162.46458 29.081263 163.16771Q29.690638 163.87083 29.690638 164.88646Q29.690638 166.16771 28.862513 166.94896Q28.018763 167.71458 26.456263 167.71458Q25.456263 167.71458 24.706263 167.38646Q23.940638 167.04271 23.565638 166.37083Q23.190638 165.68333 23.190638 164.87083Q23.190638 163.87083 23.706263 163.23021Q24.206263 162.57396 25.159388 162.38646L25.315638 163.41771Q24.690638 163.55833 24.378138 163.93333Q24.050013 164.30833 24.050013 164.83958Q24.050013 165.63646 24.628138 166.13646Q25.190638 166.63646 26.425013 166.63646Q27.690638 166.63646 28.253138 166.15208Q28.815638 165.66771 28.815638 164.90208Q28.815638 164.27708 28.440638 163.87083Q28.065638 163.44896 27.268763 163.32396ZM26.440638 161.77708Q24.706263 161.77708 23.878138 160.82396Q23.190638 160.02708 23.190638 158.87083Q23.190638 157.58958 24.034388 156.77708Q24.862513 155.94896 26.346888 155.94896Q27.550013 155.94896 28.237513 156.30833Q28.925013 156.66771 29.315638 157.37083Q29.690638 158.05833 29.690638 158.87083Q29.690638 160.16771 28.862513 160.98021Q28.018763 161.77708 26.440638 161.77708ZM26.440638 160.69896Q27.628138 160.69896 28.221888 160.18333Q28.815638 159.65208 28.815638 158.87083Q28.815638 158.07396 28.221888 157.55833Q27.628138 157.04271 26.409388 157.04271Q25.253138 157.04271 24.659388 157.57396Q24.065638 158.08958 24.065638 158.87083Q24.065638 159.65208 24.659388 160.18333Q25.237513 160.69896 26.440638 160.69896ZM29.550013 154.38646L23.331263 154.38646L23.331263 153.44896L24.206263 153.44896Q23.190638 152.76146 23.190638 151.46458Q23.190638 150.90208 23.393763 150.43333Q23.596888 149.94896 23.925013 149.71458Q24.253138 149.48021 24.690638 149.38646Q24.987513 149.33958 25.721888 149.33958L29.550013 149.33958L29.550013 150.38646L25.768763 150.38646Q25.112513 150.38646 24.800013 150.51146Q24.487513 150.63646 24.300013 150.94896Q24.096888 151.26146 24.096888 151.68333Q24.096888 152.35521 24.534388 152.85521Q24.956263 153.33958 26.143763 153.33958L29.550013 153.33958L29.550013 154.38646ZM29.550013 143.35521L28.768763 143.35521Q29.690638 143.94896 29.690638 145.08958Q29.690638 145.83958 29.284388 146.46458Q28.862513 147.08958 28.128138 147.43333Q27.393763 147.77708 26.440638 147.77708Q25.518763 147.77708 24.753138 147.46458Q23.987513 147.15208 23.596888 146.52708Q23.190638 145.90208 23.190638 145.13646Q23.190638 144.57396 23.425013 144.13646Q23.659388 143.69896 24.034388 143.41771L20.956263 143.41771L20.956263 142.37083L29.550013 142.37083L29.550013 143.35521ZM26.440638 146.68333Q27.643763 146.68333 28.237513 146.18333Q28.815638 145.68333 28.815638 144.99583Q28.815638 144.30833 28.253138 143.82396Q27.690638 143.33958 26.534388 143.33958Q25.253138 143.33958 24.659388 143.83958Q24.065638 144.32396 24.065638 145.04271Q24.065638 145.74583 24.643763 146.21458Q25.206263 146.68333 26.440638 146.68333ZM27.690638 140.80833L27.534388 139.77708Q28.159388 139.68333 28.487513 139.29271Q28.815638 138.88646 28.815638 138.15208Q28.815638 137.43333 28.534388 137.08958Q28.237513 136.73021 27.831263 136.73021Q27.471888 136.73021 27.268763 137.04271Q27.128138 137.26146 26.909388 138.12083Q26.612513 139.27708 26.409388 139.73021Q26.190638 140.16771 25.815638 140.40208Q25.440638 140.63646 24.971888 140.63646Q24.565638 140.63646 24.206263 140.44896Q23.846888 140.26146 23.612513 139.93333Q23.440638 139.68333 23.315638 139.26146Q23.190638 138.83958 23.190638 138.33958Q23.190638 137.62083 23.409388 137.07396Q23.612513 136.51146 23.971888 136.24583Q24.331263 135.98021 24.925013 135.88646L25.065638 136.91771Q24.596888 136.98021 24.331263 137.32396Q24.050013 137.65208 24.050013 138.27708Q24.050013 138.99583 24.300013 139.30833Q24.534388 139.62083 24.862513 139.62083Q25.065638 139.62083 25.221888 139.49583Q25.393763 139.35521 25.503138 139.08958Q25.565638 138.93333 25.768763 138.15208Q26.081263 137.02708 26.268763 136.58958Q26.456263 136.15208 26.815638 135.90208Q27.175013 135.65208 27.721888 135.65208Q28.253138 135.65208 28.721888 135.96458Q29.175013 136.26146 29.440638 136.83958Q29.690638 137.41771 29.690638 138.15208Q29.690638 139.37083 29.190638 140.01146Q28.675013 140.63646 27.690638 140.80833ZM32.08126 132.69896L32.08126 133.44896Q29.268763 131.69896 26.440638 131.69896Q25.346888 131.69896 24.253138 131.94896Q23.378138 132.15208 22.565638 132.51146Q22.050013 132.74583 20.815638 133.44896L20.815638 132.69896Q22.284388 131.60521 23.768763 131.07396Q25.050013 130.62083 26.440638 130.62083Q28.018763 130.62083 29.503138 131.23021Q30.971888 131.83958 32.08126 132.69896Z" fill-rule="nonzero"/><path fill="#000000" d="M65.05 300.21564Q65.05 298.6844 65.3625 297.7625Q65.675 296.825 66.28438 296.325Q66.90938 295.825 67.84688 295.825Q68.53438 295.825 69.05 296.10626Q69.58125 296.3875 69.925 296.91876Q70.26875 297.4344 70.45625 298.1844Q70.64375 298.9344 70.64375 300.21564Q70.64375 301.73126 70.33125 302.65314Q70.03438 303.575 69.40938 304.09064Q68.8 304.59064 67.84688 304.59064Q66.6125 304.59064 65.89375 303.7Q65.05 302.6375 65.05 300.21564ZM66.12813 300.21564Q66.12813 302.325 66.62813 303.02814Q67.12813 303.73126 67.84688 303.73126Q68.58125 303.73126 69.06563 303.02814Q69.56563 302.325 69.56563 300.21564Q69.56563 298.09064 69.06563 297.40314Q68.58125 296.7 67.83125 296.7Q67.1125 296.7 66.675 297.3094Q66.12813 298.09064 66.12813 300.21564Z" fill-rule="nonzero"/><path fill="#000000" d="M62.01875 244.81667L60.971874 244.81667L60.971874 238.09792Q60.58125 238.45729 59.95625 238.83229Q59.346874 239.19167 58.8625 239.36354L58.8625 238.34792Q59.7375 237.92604 60.39375 237.34792Q61.065624 236.75417 61.346874 236.19167L62.01875 236.19167L62.01875 244.81667ZM65.05 240.58229Q65.05 239.05104 65.3625 238.12917Q65.675 237.19167 66.28438 236.69167Q66.90938 236.19167 67.84688 236.19167Q68.53438 236.19167 69.05 236.47292Q69.58125 236.75417 69.925 237.28542Q70.26875 237.80104 70.45625 238.55104Q70.64375 239.30104 70.64375 240.58229Q70.64375 242.09792 70.33125 243.01979Q70.03438 243.94167 69.40938 244.45729Q68.8 244.95729 67.84688 244.95729Q66.6125 244.95729 65.89375 244.06667Q65.05 243.00417 65.05 240.58229ZM66.12813 240.58229Q66.12813 242.69167 66.62813 243.39479Q67.12813 244.09792 67.84688 244.09792Q68.58125 244.09792 69.06563 243.39479Q69.56563 242.69167 69.56563 240.58229Q69.56563 238.45729 69.06563 237.76979Q68.58125 237.06667 67.83125 237.06667Q67.1125 237.06667 66.675 237.67604Q66.12813 238.45729 66.12813 240.58229Z" fill-rule="nonzero"/><path fill="#000000" d="M63.596874 184.16771L63.596874 185.18333L57.909374 185.18333Q57.909374 184.80833 58.034374 184.44896Q58.253124 183.87083 58.721874 183.30833Q59.20625 182.74583 60.1125 182.01146Q61.51875 180.85521 62.003124 180.18333Q62.503124 179.51146 62.503124 178.91771Q62.503124 178.29271 62.05 177.87083Q61.596874 177.43333 60.878124 177.43333Q60.1125 177.43333 59.659374 177.88646Q59.20625 178.33958 59.190624 179.15208L58.1125 179.04271Q58.221874 177.82396 58.940624 177.19896Q59.675 176.55833 60.909374 176.55833Q62.14375 176.55833 62.8625 177.24583Q63.58125 177.93333 63.58125 178.94896Q63.58125 179.46458 63.3625 179.96458Q63.159374 180.44896 62.659374 181.01146Q62.175 181.55833 61.05 182.51146Q60.096874 183.30833 59.815624 183.60521Q59.55 183.88646 59.378124 184.16771L63.596874 184.16771ZM65.05 180.94896Q65.05 179.41771 65.3625 178.49583Q65.675 177.55833 66.28438 177.05833Q66.90938 176.55833 67.84688 176.55833Q68.53438 176.55833 69.05 176.83958Q69.58125 177.12083 69.925 177.65208Q70.26875 178.16771 70.45625 178.91771Q70.64375 179.66771 70.64375 180.94896Q70.64375 182.46458 70.33125 183.38646Q70.03438 184.30833 69.40938 184.82396Q68.8 185.32396 67.84688 185.32396Q66.6125 185.32396 65.89375 184.43333Q65.05 183.37083 65.05 180.94896ZM66.12813 180.94896Q66.12813 183.05833 66.62813 183.76146Q67.12813 184.46458 67.84688 184.46458Q68.58125 184.46458 69.06563 183.76146Q69.56563 183.05833 69.56563 180.94896Q69.56563 178.82396 69.06563 178.13646Q68.58125 177.43333 67.83125 177.43333Q67.1125 177.43333 66.675 178.04271Q66.12813 178.82396 66.12813 180.94896Z" fill-rule="nonzero"/><path fill="#000000" d="M58.05 123.28438L59.1125 123.14375Q59.284374 124.03438 59.721874 124.44063Q60.159374 124.83125 60.784374 124.83125Q61.534374 124.83125 62.05 124.31563Q62.565624 123.8 62.565624 123.03438Q62.565624 122.31563 62.08125 121.84688Q61.6125 121.3625 60.878124 121.3625Q60.58125 121.3625 60.128124 121.4875L60.253124 120.55Q60.3625 120.56563 60.425 120.56563Q61.096874 120.56563 61.628124 120.22188Q62.175 119.8625 62.175 119.12813Q62.175 118.55 61.784374 118.175Q61.39375 117.78438 60.76875 117.78438Q60.159374 117.78438 59.7375 118.175Q59.33125 118.56563 59.221874 119.33125L58.159374 119.14375Q58.346874 118.09688 59.034374 117.51875Q59.721874 116.925 60.7375 116.925Q61.440624 116.925 62.034374 117.2375Q62.628124 117.53438 62.940624 118.05Q63.253124 118.56563 63.253124 119.15938Q63.253124 119.70625 62.95625 120.175Q62.659374 120.62813 62.08125 120.89375Q62.83125 121.06563 63.253124 121.62813Q63.675 122.175 63.675 123.01875Q63.675 124.14375 62.846874 124.925Q62.034374 125.70625 60.784374 125.70625Q59.659374 125.70625 58.909374 125.03438Q58.159374 124.34688 58.05 123.28438ZM65.05 121.31563Q65.05 119.78438 65.3625 118.8625Q65.675 117.925 66.28438 117.425Q66.90938 116.925 67.84688 116.925Q68.53438 116.925 69.05 117.20625Q69.58125 117.4875 69.925 118.01875Q70.26875 118.53438 70.45625 119.28438Q70.64375 120.03438 70.64375 121.31563Q70.64375 122.83125 70.33125 123.75313Q70.03438 124.675 69.40938 125.19063Q68.8 125.69063 67.84688 125.69063Q66.6125 125.69063 65.89375 124.8Q65.05 123.7375 65.05 121.31563ZM66.12813 121.31563Q66.12813 123.425 66.62813 124.12813Q67.12813 124.83125 67.84688 124.83125Q68.58125 124.83125 69.06563 124.12813Q69.56563 123.425 69.56563 121.31563Q69.56563 119.19063 69.06563 118.50313Q68.58125 117.8 67.83125 117.8Q67.1125 117.8 66.675 118.40938Q66.12813 119.19063 66.12813 121.31563Z" fill-rule="nonzero"/><path fill="#000000" d="M61.425 65.916664L61.425 63.854164L57.70625 63.854164L57.70625 62.885414L61.628124 57.322914L62.4875 57.322914L62.4875 62.885414L63.64375 62.885414L63.64375 63.854164L62.4875 63.854164L62.4875 65.916664L61.425 65.916664ZM61.425 62.885414L61.425 59.02604L58.7375 62.885414L61.425 62.885414ZM65.05 61.68229Q65.05 60.15104 65.3625 59.229164Q65.675 58.291664 66.28438 57.791664Q66.90938 57.291664 67.84688 57.291664Q68.53438 57.291664 69.05 57.572914Q69.58125 57.854164 69.925 58.385414Q70.26875 58.90104 70.45625 59.65104Q70.64375 60.40104 70.64375 61.68229Q70.64375 63.197914 70.33125 64.11979Q70.03438 65.041664 69.40938 65.55729Q68.8 66.05729 67.84688 66.05729Q66.6125 66.05729 65.89375 65.166664Q65.05 64.104164 65.05 61.68229ZM66.12813 61.68229Q66.12813 63.791664 66.62813 64.49479Q67.12813 65.197914 67.84688 65.197914Q68.58125 65.197914 69.06563 64.49479Q69.56563 63.791664 69.56563 61.68229Q69.56563 59.55729 69.06563 58.86979Q68.58125 58.166664 67.83125 58.166664Q67.1125 58.166664 66.675 58.77604Q66.12813 59.55729 66.12813 61.68229Z" fill-rule="nonzero"/><path fill="#000000" d="M80.881516 313.21564Q80.881516 311.6844 81.194016 310.7625Q81.506516 309.825 82.11589 309.325Q82.74089 308.825 83.67839 308.825Q84.36589 308.825 84.881516 309.10626Q85.412766 309.3875 85.756516 309.91876Q86.100266 310.4344 86.287766 311.1844Q86.475266 311.9344 86.475266 313.21564Q86.475266 314.73126 86.162766 315.65314Q85.86589 316.575 85.24089 317.09064Q84.631516 317.59064 83.67839 317.59064Q82.444016 317.59064 81.725266 316.7Q80.881516 315.6375 80.881516 313.21564ZM81.95964 313.21564Q81.95964 315.325 82.45964 316.02814Q82.95964 316.73126 83.67839 316.73126Q84.412766 316.73126 84.89714 316.02814Q85.39714 315.325 85.39714 313.21564Q85.39714 311.09064 84.89714 310.40314Q84.412766 309.7 83.662766 309.7Q82.944016 309.7 82.506516 310.3094Q81.95964 311.09064 81.95964 313.21564Z" fill-rule="nonzero"/><path fill="#000000" d="M186.7423 316.4344L186.7423 317.45L181.0548 317.45Q181.0548 317.075 181.1798 316.71564Q181.39854 316.1375 181.8673 315.575Q182.35167 315.0125 183.25792 314.27814Q184.66417 313.1219 185.14854 312.45Q185.64854 311.77814 185.64854 311.1844Q185.64854 310.5594 185.19542 310.1375Q184.7423 309.7 184.02354 309.7Q183.25792 309.7 182.8048 310.15314Q182.35167 310.60626 182.33604 311.41876L181.25792 311.3094Q181.3673 310.09064 182.08604 309.46564Q182.82042 308.825 184.0548 308.825Q185.28917 308.825 186.00792 309.5125Q186.72667 310.2 186.72667 311.21564Q186.72667 311.73126 186.50792 312.23126Q186.3048 312.71564 185.8048 313.27814Q185.32042 313.825 184.19542 314.77814Q183.2423 315.575 182.96104 315.8719Q182.69542 316.15314 182.52354 316.4344L186.7423 316.4344ZM188.78917 317.45L188.78917 316.2469L189.9923 316.2469L189.9923 317.45L188.78917 317.45ZM191.19542 315.2L192.3048 315.10626Q192.4298 315.91876 192.8673 316.325Q193.32042 316.73126 193.96104 316.73126Q194.71104 316.73126 195.2423 316.15314Q195.77354 315.575 195.77354 314.6375Q195.77354 313.73126 195.25792 313.21564Q194.75792 312.6844 193.9298 312.6844Q193.4298 312.6844 193.00792 312.91876Q192.60167 313.15314 192.3673 313.5125L191.38292 313.3875L192.21104 308.98126L196.4923 308.98126L196.4923 309.98126L193.0548 309.98126L192.60167 312.29376Q193.3673 311.7469 194.21104 311.7469Q195.33604 311.7469 196.10167 312.52814Q196.88292 313.3094 196.88292 314.54376Q196.88292 315.7 196.21104 316.5594Q195.38292 317.59064 193.96104 317.59064Q192.78917 317.59064 192.03917 316.9344Q191.3048 316.27814 191.19542 315.2ZM198.19542 313.21564Q198.19542 311.6844 198.50792 310.7625Q198.82042 309.825 199.4298 309.325Q200.0548 308.825 200.9923 308.825Q201.6798 308.825 202.19542 309.10626Q202.72667 309.3875 203.07042 309.91876Q203.41417 310.4344 203.60167 311.1844Q203.78917 311.9344 203.78917 313.21564Q203.78917 314.73126 203.47667 315.65314Q203.1798 316.575 202.5548 317.09064Q201.94542 317.59064 200.9923 317.59064Q199.75792 317.59064 199.03917 316.7Q198.19542 315.6375 198.19542 313.21564ZM199.27354 313.21564Q199.27354 315.325 199.77354 316.02814Q200.27354 316.73126 200.9923 316.73126Q201.72667 316.73126 202.21104 316.02814Q202.71104 315.325 202.71104 313.21564Q202.71104 311.09064 202.21104 310.40314Q201.72667 309.7 200.97667 309.7Q200.25792 309.7 199.82042 310.3094Q199.27354 311.09064 199.27354 313.21564ZM205.64854 317.45L205.64854 308.85626L211.85167 308.85626L211.85167 309.8719L206.78917 309.8719L206.78917 312.4969L211.53917 312.4969L211.53917 313.5125L206.78917 313.5125L206.78917 316.4344L212.0548 316.4344L212.0548 317.45L205.64854 317.45ZM215.69542 316.0594L215.69542 313.7L213.3673 313.7L213.3673 312.71564L215.69542 312.71564L215.69542 310.3875L216.69542 310.3875L216.69542 312.71564L219.03917 312.71564L219.03917 313.7L216.69542 313.7L216.69542 316.0594L215.69542 316.0594ZM225.66417 310.96564L224.6173 311.04376Q224.47667 310.41876 224.22667 310.1375Q223.78917 309.6844 223.16417 309.6844Q222.66417 309.6844 222.27354 309.96564Q221.78917 310.34064 221.4923 311.04376Q221.21104 311.73126 221.19542 313.0125Q221.57042 312.4344 222.1173 312.15314Q222.6798 311.8719 223.28917 311.8719Q224.33604 311.8719 225.07042 312.65314Q225.82042 313.4344 225.82042 314.65314Q225.82042 315.46564 225.46104 316.16876Q225.1173 316.85626 224.50792 317.23126Q223.89854 317.59064 223.13292 317.59064Q221.8048 317.59064 220.97667 316.6219Q220.14854 315.65314 220.14854 313.4344Q220.14854 310.9344 221.07042 309.8094Q221.8673 308.825 223.22667 308.825Q224.2423 308.825 224.88292 309.40314Q225.53917 309.96564 225.66417 310.96564ZM221.3673 314.66876Q221.3673 315.21564 221.58604 315.71564Q221.82042 316.2 222.22667 316.46564Q222.64854 316.73126 223.1173 316.73126Q223.77354 316.73126 224.25792 316.2Q224.7423 315.65314 224.7423 314.73126Q224.7423 313.84064 224.25792 313.325Q223.78917 312.8094 223.07042 312.8094Q222.35167 312.8094 221.85167 313.325Q221.3673 313.84064 221.3673 314.66876Z" fill-rule="nonzero"/><path fill="#000000" d="M301.0093 315.2L302.11868 315.10626Q302.24368 315.91876 302.68118 316.325Q303.1343 316.73126 303.77493 316.73126Q304.52493 316.73126 305.05618 316.15314Q305.58743 315.575 305.58743 314.6375Q305.58743 313.73126 305.0718 313.21564Q304.5718 312.6844 303.74368 312.6844Q303.24368 312.6844 302.8218 312.91876Q302.41556 313.15314 302.18118 313.5125L301.1968 313.3875L302.02493 308.98126L306.30618 308.98126L306.30618 309.98126L302.86868 309.98126L302.41556 312.29376Q303.18118 311.7469 304.02493 311.7469Q305.14993 311.7469 305.91556 312.52814Q306.6968 313.3094 306.6968 314.54376Q306.6968 315.7 306.02493 316.5594Q305.1968 317.59064 303.77493 317.59064Q302.60306 317.59064 301.85306 316.9344Q301.11868 316.27814 301.0093 315.2ZM308.60306 317.45L308.60306 316.2469L309.80618 316.2469L309.80618 317.45L308.60306 317.45ZM311.0093 313.21564Q311.0093 311.6844 311.3218 310.7625Q311.6343 309.825 312.24368 309.325Q312.86868 308.825 313.80618 308.825Q314.49368 308.825 315.0093 309.10626Q315.54056 309.3875 315.8843 309.91876Q316.22806 310.4344 316.41556 311.1844Q316.60306 311.9344 316.60306 313.21564Q316.60306 314.73126 316.29056 315.65314Q315.99368 316.575 315.36868 317.09064Q314.7593 317.59064 313.80618 317.59064Q312.5718 317.59064 311.85306 316.7Q311.0093 315.6375 311.0093 313.21564ZM312.08743 313.21564Q312.08743 315.325 312.58743 316.02814Q313.08743 316.73126 313.80618 316.73126Q314.54056 316.73126 315.02493 316.02814Q315.52493 315.325 315.52493 313.21564Q315.52493 311.09064 315.02493 310.40314Q314.54056 309.7 313.79056 309.7Q313.0718 309.7 312.6343 310.3094Q312.08743 311.09064 312.08743 313.21564ZM318.0093 313.21564Q318.0093 311.6844 318.3218 310.7625Q318.6343 309.825 319.24368 309.325Q319.86868 308.825 320.80618 308.825Q321.49368 308.825 322.0093 309.10626Q322.54056 309.3875 322.8843 309.91876Q323.22806 310.4344 323.41556 311.1844Q323.60306 311.9344 323.60306 313.21564Q323.60306 314.73126 323.29056 315.65314Q322.99368 316.575 322.36868 317.09064Q321.7593 317.59064 320.80618 317.59064Q319.5718 317.59064 318.85306 316.7Q318.0093 315.6375 318.0093 313.21564ZM319.08743 313.21564Q319.08743 315.325 319.58743 316.02814Q320.08743 316.73126 320.80618 316.73126Q321.54056 316.73126 322.02493 316.02814Q322.52493 315.325 322.52493 313.21564Q322.52493 311.09064 322.02493 310.40314Q321.54056 309.7 320.79056 309.7Q320.0718 309.7 319.6343 310.3094Q319.08743 311.09064 319.08743 313.21564ZM325.46243 317.45L325.46243 308.85626L331.66556 308.85626L331.66556 309.8719L326.60306 309.8719L326.60306 312.4969L331.35306 312.4969L331.35306 313.5125L326.60306 313.5125L326.60306 316.4344L331.86868 316.4344L331.86868 317.45L325.46243 317.45ZM335.5093 316.0594L335.5093 313.7L333.18118 313.7L333.18118 312.71564L335.5093 312.71564L335.5093 310.3875L336.5093 310.3875L336.5093 312.71564L338.85306 312.71564L338.85306 313.7L336.5093 313.7L336.5093 316.0594L335.5093 316.0594ZM345.47806 310.96564L344.43118 311.04376Q344.29056 310.41876 344.04056 310.1375Q343.60306 309.6844 342.97806 309.6844Q342.47806 309.6844 342.08743 309.96564Q341.60306 310.34064 341.30618 311.04376Q341.02493 311.73126 341.0093 313.0125Q341.3843 312.4344 341.93118 312.15314Q342.49368 311.8719 343.10306 311.8719Q344.14993 311.8719 344.8843 312.65314Q345.6343 313.4344 345.6343 314.65314Q345.6343 315.46564 345.27493 316.16876Q344.93118 316.85626 344.3218 317.23126Q343.71243 317.59064 342.9468 317.59064Q341.61868 317.59064 340.79056 316.6219Q339.96243 315.65314 339.96243 313.4344Q339.96243 310.9344 340.8843 309.8094Q341.68118 308.825 343.04056 308.825Q344.05618 308.825 344.6968 309.40314Q345.35306 309.96564 345.47806 310.96564ZM341.18118 314.66876Q341.18118 315.21564 341.39993 315.71564Q341.6343 316.2 342.04056 316.46564Q342.46243 316.73126 342.93118 316.73126Q343.58743 316.73126 344.0718 316.2Q344.55618 315.65314 344.55618 314.73126Q344.55618 313.84064 344.0718 313.325Q343.60306 312.8094 342.8843 312.8094Q342.16556 312.8094 341.66556 313.325Q341.18118 313.84064 341.18118 314.66876Z" fill-rule="nonzero"/><path fill="#000000" d="M420.8857 309.98126L420.8857 308.96564L426.4482 308.96564L426.4482 309.79376Q425.6357 310.66876 424.8232 312.1219Q424.02634 313.5594 423.58884 315.09064Q423.2607 316.16876 423.1826 317.45L422.08884 317.45Q422.10446 316.4344 422.47946 314.9969Q422.8701 313.5594 423.5732 312.23126Q424.29196 310.90314 425.10446 309.98126L420.8857 309.98126ZM428.41696 317.45L428.41696 316.2469L429.6201 316.2469L429.6201 317.45L428.41696 317.45ZM430.8232 315.2L431.9326 315.10626Q432.0576 315.91876 432.4951 316.325Q432.9482 316.73126 433.58884 316.73126Q434.33884 316.73126 434.8701 316.15314Q435.40134 315.575 435.40134 314.6375Q435.40134 313.73126 434.8857 313.21564Q434.3857 312.6844 433.5576 312.6844Q433.0576 312.6844 432.6357 312.91876Q432.22946 313.15314 431.9951 313.5125L431.0107 313.3875L431.83884 308.98126L436.1201 308.98126L436.1201 309.98126L432.6826 309.98126L432.22946 312.29376Q432.9951 311.7469 433.83884 311.7469Q434.96384 311.7469 435.72946 312.52814Q436.5107 313.3094 436.5107 314.54376Q436.5107 315.7 435.83884 316.5594Q435.0107 317.59064 433.58884 317.59064Q432.41696 317.59064 431.66696 316.9344Q430.9326 316.27814 430.8232 315.2ZM437.8232 313.21564Q437.8232 311.6844 438.1357 310.7625Q438.4482 309.825 439.0576 309.325Q439.6826 308.825 440.6201 308.825Q441.3076 308.825 441.8232 309.10626Q442.35446 309.3875 442.6982 309.91876Q443.04196 310.4344 443.22946 311.1844Q443.41696 311.9344 443.41696 313.21564Q443.41696 314.73126 443.10446 315.65314Q442.8076 316.575 442.1826 317.09064Q441.5732 317.59064 440.6201 317.59064Q439.3857 317.59064 438.66696 316.7Q437.8232 315.6375 437.8232 313.21564ZM438.90134 313.21564Q438.90134 315.325 439.40134 316.02814Q439.90134 316.73126 440.6201 316.73126Q441.35446 316.73126 441.83884 316.02814Q442.33884 315.325 442.33884 313.21564Q442.33884 311.09064 441.83884 310.40314Q441.35446 309.7 440.60446 309.7Q439.8857 309.7 439.4482 310.3094Q438.90134 311.09064 438.90134 313.21564ZM445.27634 317.45L445.27634 308.85626L451.47946 308.85626L451.47946 309.8719L446.41696 309.8719L446.41696 312.4969L451.16696 312.4969L451.16696 313.5125L446.41696 313.5125L446.41696 316.4344L451.6826 316.4344L451.6826 317.45L445.27634 317.45ZM455.3232 316.0594L455.3232 313.7L452.9951 313.7L452.9951 312.71564L455.3232 312.71564L455.3232 310.3875L456.3232 310.3875L456.3232 312.71564L458.66696 312.71564L458.66696 313.7L456.3232 313.7L456.3232 316.0594L455.3232 316.0594ZM465.29196 310.96564L464.2451 311.04376Q464.10446 310.41876 463.85446 310.1375Q463.41696 309.6844 462.79196 309.6844Q462.29196 309.6844 461.90134 309.96564Q461.41696 310.34064 461.1201 311.04376Q460.83884 311.73126 460.8232 313.0125Q461.1982 312.4344 461.7451 312.15314Q462.3076 311.8719 462.91696 311.8719Q463.96384 311.8719 464.6982 312.65314Q465.4482 313.4344 465.4482 314.65314Q465.4482 315.46564 465.08884 316.16876Q464.7451 316.85626 464.1357 317.23126Q463.52634 317.59064 462.7607 317.59064Q461.4326 317.59064 460.60446 316.6219Q459.77634 315.65314 459.77634 313.4344Q459.77634 310.9344 460.6982 309.8094Q461.4951 308.825 462.85446 308.825Q463.8701 308.825 464.5107 309.40314Q465.16696 309.96564 465.29196 310.96564ZM460.9951 314.66876Q460.9951 315.21564 461.21384 315.71564Q461.4482 316.2 461.85446 316.46564Q462.27634 316.73126 462.7451 316.73126Q463.40134 316.73126 463.8857 316.2Q464.3701 315.65314 464.3701 314.73126Q464.3701 313.84064 463.8857 313.325Q463.41696 312.8094 462.6982 312.8094Q461.97946 312.8094 461.47946 313.325Q460.9951 313.84064 460.9951 314.66876Z" fill-rule="nonzero"/><path fill="#000000" d="M544.60583 317.45L543.55896 317.45L543.55896 310.73126Q543.16833 311.09064 542.54333 311.46564Q541.93396 311.825 541.4496 311.9969L541.4496 310.98126Q542.3246 310.5594 542.98083 309.98126Q543.6527 309.3875 543.93396 308.825L544.60583 308.825L544.60583 317.45ZM548.23083 317.45L548.23083 316.2469L549.43396 316.2469L549.43396 317.45L548.23083 317.45ZM550.6371 313.21564Q550.6371 311.6844 550.9496 310.7625Q551.2621 309.825 551.87146 309.325Q552.49646 308.825 553.43396 308.825Q554.12146 308.825 554.6371 309.10626Q555.16833 309.3875 555.5121 309.91876Q555.85583 310.4344 556.04333 311.1844Q556.23083 311.9344 556.23083 313.21564Q556.23083 314.73126 555.91833 315.65314Q555.62146 316.575 554.99646 317.09064Q554.3871 317.59064 553.43396 317.59064Q552.1996 317.59064 551.48083 316.7Q550.6371 315.6375 550.6371 313.21564ZM551.7152 313.21564Q551.7152 315.325 552.2152 316.02814Q552.7152 316.73126 553.43396 316.73126Q554.16833 316.73126 554.6527 316.02814Q555.1527 315.325 555.1527 313.21564Q555.1527 311.09064 554.6527 310.40314Q554.16833 309.7 553.41833 309.7Q552.6996 309.7 552.2621 310.3094Q551.7152 311.09064 551.7152 313.21564ZM557.6371 313.21564Q557.6371 311.6844 557.9496 310.7625Q558.2621 309.825 558.87146 309.325Q559.49646 308.825 560.43396 308.825Q561.12146 308.825 561.6371 309.10626Q562.16833 309.3875 562.5121 309.91876Q562.85583 310.4344 563.04333 311.1844Q563.23083 311.9344 563.23083 313.21564Q563.23083 314.73126 562.91833 315.65314Q562.62146 316.575 561.99646 317.09064Q561.3871 317.59064 560.43396 317.59064Q559.1996 317.59064 558.48083 316.7Q557.6371 315.6375 557.6371 313.21564ZM558.7152 313.21564Q558.7152 315.325 559.2152 316.02814Q559.7152 316.73126 560.43396 316.73126Q561.16833 316.73126 561.6527 316.02814Q562.1527 315.325 562.1527 313.21564Q562.1527 311.09064 561.6527 310.40314Q561.16833 309.7 560.41833 309.7Q559.6996 309.7 559.2621 310.3094Q558.7152 311.09064 558.7152 313.21564ZM565.0902 317.45L565.0902 308.85626L571.29333 308.85626L571.29333 309.8719L566.23083 309.8719L566.23083 312.4969L570.98083 312.4969L570.98083 313.5125L566.23083 313.5125L566.23083 316.4344L571.49646 316.4344L571.49646 317.45L565.0902 317.45ZM575.1371 316.0594L575.1371 313.7L572.80896 313.7L572.80896 312.71564L575.1371 312.71564L575.1371 310.3875L576.1371 310.3875L576.1371 312.71564L578.48083 312.71564L578.48083 313.7L576.1371 313.7L576.1371 316.0594L575.1371 316.0594ZM579.6996 309.98126L579.6996 308.96564L585.2621 308.96564L585.2621 309.79376Q584.4496 310.66876 583.6371 312.1219Q582.8402 313.5594 582.4027 315.09064Q582.0746 316.16876 581.99646 317.45L580.9027 317.45Q580.91833 316.4344 581.29333 314.9969Q581.68396 313.5594 582.3871 312.23126Q583.10583 310.90314 583.91833 309.98126L579.6996 309.98126Z" fill-rule="nonzero"/><path fill="#757575" d="M23.7375 37.55L23.7375 24.925L19.01875 24.925L19.01875 23.2375L30.3625 23.2375L30.3625 24.925L25.628124 24.925L25.628124 37.55L23.7375 37.55ZM31.878124 25.253124L31.878124 23.2375L33.64375 23.2375L33.64375 25.253124L31.878124 25.253124ZM31.878124 37.55L31.878124 27.175L33.64375 27.175L33.64375 37.55L31.878124 37.55ZM35.8625 37.55L35.8625 27.175L37.440624 27.175L37.440624 28.628124Q37.925 27.878124 38.7375 27.409374Q39.55 26.940624 40.58125 26.940624Q41.7375 26.940624 42.471874 27.425Q43.20625 27.89375 43.51875 28.753124Q44.753124 26.940624 46.721874 26.940624Q48.26875 26.940624 49.096874 27.8Q49.925 28.659374 49.925 30.425L49.925 37.55L48.175 37.55L48.175 31.01875Q48.175 29.95625 48.003124 29.503124Q47.83125 29.034374 47.378124 28.753124Q46.940624 28.471874 46.33125 28.471874Q45.2375 28.471874 44.503124 29.20625Q43.784374 29.925 43.784374 31.51875L43.784374 37.55L42.034374 37.55L42.034374 30.815624Q42.034374 29.64375 41.596874 29.065624Q41.175 28.471874 40.190624 28.471874Q39.45625 28.471874 38.815624 28.8625Q38.190624 29.253124 37.909374 30.003124Q37.628124 30.753124 37.628124 32.175L37.628124 37.55L35.8625 37.55ZM58.971874 34.20625L60.784374 34.440624Q60.3625 36.01875 59.190624 36.909374Q58.034374 37.784374 56.221874 37.784374Q53.95625 37.784374 52.6125 36.39375Q51.284374 34.9875 51.284374 32.45625Q51.284374 29.83125 52.628124 28.39375Q53.971874 26.940624 56.128124 26.940624Q58.20625 26.940624 59.51875 28.3625Q60.846874 29.76875 60.846874 32.346874Q60.846874 32.503124 60.83125 32.815624L53.096874 32.815624Q53.190624 34.51875 54.065624 35.425Q54.940624 36.33125 56.2375 36.33125Q57.20625 36.33125 57.878124 35.83125Q58.565624 35.315624 58.971874 34.20625ZM53.190624 31.3625L58.9875 31.3625Q58.878124 30.065624 58.33125 29.409374Q57.4875 28.39375 56.14375 28.39375Q54.940624 28.39375 54.1125 29.20625Q53.284374 30.003124 53.190624 31.3625ZM72.22188 41.753124Q70.76875 39.925 69.76875 37.471874Q68.76875 35.003124 68.76875 32.3625Q68.76875 30.034374 69.51875 27.909374Q70.39375 25.440624 72.22188 22.9875L73.4875 22.9875Q72.3 25.01875 71.925 25.89375Q71.33125 27.2375 70.9875 28.70625Q70.56563 30.534374 70.56563 32.378124Q70.56563 37.065624 73.4875 41.753124L72.22188 41.753124ZM75.8625 37.55L75.8625 27.175L77.45625 27.175L77.45625 28.659374Q78.59688 26.940624 80.75313 26.940624Q81.69063 26.940624 82.47188 27.284374Q83.26875 27.6125 83.65938 28.159374Q84.05 28.70625 84.20625 29.45625Q84.3 29.95625 84.3 31.175L84.3 37.55L82.53438 37.55L82.53438 31.2375Q82.53438 30.159374 82.33125 29.628124Q82.12813 29.096874 81.59688 28.784374Q81.08125 28.471874 80.37813 28.471874Q79.25313 28.471874 78.44063 29.190624Q77.62813 29.89375 77.62813 31.878124L77.62813 37.55L75.8625 37.55ZM92.64375 36.26875Q91.65938 37.096874 90.75313 37.440624Q89.84688 37.784374 88.81563 37.784374Q87.1125 37.784374 86.19063 36.95625Q85.26875 36.1125 85.26875 34.815624Q85.26875 34.05 85.6125 33.425Q85.97188 32.8 86.53438 32.425Q87.09688 32.034374 87.8 31.83125Q88.31563 31.70625 89.3625 31.565624Q91.4875 31.315624 92.4875 30.971874Q92.50313 30.6125 92.50313 30.503124Q92.50313 29.440624 92.00313 28.9875Q91.33125 28.39375 90.00313 28.39375Q88.75313 28.39375 88.15938 28.83125Q87.58125 29.26875 87.3 30.378124L85.58125 30.14375Q85.81563 29.034374 86.34688 28.3625Q86.87813 27.675 87.89375 27.315624Q88.90938 26.940624 90.25313 26.940624Q91.58125 26.940624 92.40938 27.253124Q93.2375 27.565624 93.62813 28.05Q94.01875 28.51875 94.175 29.2375Q94.26875 29.690624 94.26875 30.8625L94.26875 33.20625Q94.26875 35.659374 94.37813 36.315624Q94.4875 36.95625 94.83125 37.55L92.9875 37.55Q92.72188 37.003124 92.64375 36.26875ZM92.4875 32.346874Q91.53438 32.7375 89.6125 33.003124Q88.53438 33.159374 88.08125 33.3625Q87.64375 33.55 87.39375 33.925Q87.14375 34.3 87.14375 34.76875Q87.14375 35.471874 87.675 35.940624Q88.20625 36.409374 89.2375 36.409374Q90.25313 36.409374 91.03438 35.971874Q91.83125 35.51875 92.20625 34.753124Q92.4875 34.14375 92.4875 32.9875L92.4875 32.346874ZM96.8625 37.55L96.8625 27.175L98.45625 27.175L98.45625 28.659374Q99.59688 26.940624 101.75313 26.940624Q102.69063 26.940624 103.47188 27.284374Q104.26875 27.6125 104.65938 28.159374Q105.05 28.70625 105.20625 29.45625Q105.3 29.95625 105.3 31.175L105.3 37.55L103.53438 37.55L103.53438 31.2375Q103.53438 30.159374 103.33125 29.628124Q103.12813 29.096874 102.59688 28.784374Q102.08125 28.471874 101.37813 28.471874Q100.25313 28.471874 99.44063 29.190624Q98.62813 29.89375 98.62813 31.878124L98.62813 37.55L96.8625 37.55ZM106.22188 32.3625Q106.22188 29.4875 107.81563 28.096874Q109.15938 26.940624 111.08125 26.940624Q113.22188 26.940624 114.56563 28.346874Q115.925 29.753124 115.925 32.221874Q115.925 34.221874 115.33125 35.378124Q114.7375 36.51875 113.58125 37.159374Q112.44063 37.784374 111.08125 37.784374Q108.89375 37.784374 107.55 36.39375Q106.22188 34.9875 106.22188 32.3625ZM108.01875 32.3625Q108.01875 34.3625 108.87813 35.346874Q109.75313 36.33125 111.08125 36.33125Q112.39375 36.33125 113.25313 35.346874Q114.12813 34.346874 114.12813 32.3Q114.12813 30.378124 113.25313 29.39375Q112.37813 28.39375 111.08125 28.39375Q109.75313 28.39375 108.87813 29.39375Q108.01875 30.378124 108.01875 32.3625ZM117.15938 34.45625L118.90938 34.175Q119.05 35.221874 119.72188 35.784374Q120.39375 36.33125 121.59688 36.33125Q122.8 36.33125 123.37813 35.846874Q123.97188 35.346874 123.97188 34.690624Q123.97188 34.096874 123.45625 33.753124Q123.09688 33.51875 121.65938 33.159374Q119.72188 32.659374 118.97188 32.315624Q118.2375 31.95625 117.84688 31.33125Q117.45625 30.690624 117.45625 29.925Q117.45625 29.2375 117.76875 28.64375Q118.09688 28.05 118.64375 27.659374Q119.05 27.3625 119.75313 27.159374Q120.47188 26.940624 121.28438 26.940624Q122.50313 26.940624 123.425 27.3Q124.34688 27.64375 124.78438 28.253124Q125.22188 28.846874 125.39375 29.846874L123.675 30.08125Q123.55 29.284374 122.9875 28.846874Q122.425 28.39375 121.40938 28.39375Q120.19063 28.39375 119.675 28.8Q119.15938 29.190624 119.15938 29.721874Q119.15938 30.065624 119.37813 30.346874Q119.58125 30.628124 120.05 30.815624Q120.31563 30.909374 121.59688 31.253124Q123.47188 31.753124 124.20625 32.08125Q124.94063 32.39375 125.3625 33.003124Q125.78438 33.596874 125.78438 34.503124Q125.78438 35.378124 125.26875 36.159374Q124.75313 36.940624 123.78438 37.3625Q122.81563 37.784374 121.59688 37.784374Q119.58125 37.784374 118.51875 36.940624Q117.45625 36.096874 117.15938 34.45625ZM134.97188 34.20625L136.78438 34.440624Q136.3625 36.01875 135.19063 36.909374Q134.03438 37.784374 132.22188 37.784374Q129.95625 37.784374 128.6125 36.39375Q127.28438 34.9875 127.28438 32.45625Q127.28438 29.83125 128.62813 28.39375Q129.97188 26.940624 132.12813 26.940624Q134.20625 26.940624 135.51875 28.3625Q136.84688 29.76875 136.84688 32.346874Q136.84688 32.503124 136.83125 32.815624L129.09688 32.815624Q129.19063 34.51875 130.06563 35.425Q130.94063 36.33125 132.2375 36.33125Q133.20625 36.33125 133.87813 35.83125Q134.56563 35.315624 134.97188 34.20625ZM129.19063 31.3625L134.9875 31.3625Q134.87813 30.065624 134.33125 29.409374Q133.4875 28.39375 132.14375 28.39375Q130.94063 28.39375 130.1125 29.20625Q129.28438 30.003124 129.19063 31.3625ZM145.64375 33.753124L147.3625 33.971874Q147.08125 35.76875 145.90938 36.784374Q144.75313 37.784374 143.05 37.784374Q140.925 37.784374 139.62813 36.39375Q138.33125 35.003124 138.33125 32.409374Q138.33125 30.721874 138.87813 29.471874Q139.44063 28.20625 140.58125 27.58125Q141.72188 26.940624 143.06563 26.940624Q144.75313 26.940624 145.81563 27.8Q146.89375 28.659374 147.20625 30.221874L145.4875 30.4875Q145.25313 29.440624 144.62813 28.925Q144.00313 28.39375 143.12813 28.39375Q141.8 28.39375 140.97188 29.346874Q140.14375 30.3 140.14375 32.346874Q140.14375 34.440624 140.94063 35.39375Q141.7375 36.33125 143.03438 36.33125Q144.06563 36.33125 144.75313 35.70625Q145.45625 35.065624 145.64375 33.753124ZM148.22188 32.3625Q148.22188 29.4875 149.81563 28.096874Q151.15938 26.940624 153.08125 26.940624Q155.22188 26.940624 156.56563 28.346874Q157.925 29.753124 157.925 32.221874Q157.925 34.221874 157.33125 35.378124Q156.7375 36.51875 155.58125 37.159374Q154.44063 37.784374 153.08125 37.784374Q150.89375 37.784374 149.55 36.39375Q148.22188 34.9875 148.22188 32.3625ZM150.01875 32.3625Q150.01875 34.3625 150.87813 35.346874Q151.75313 36.33125 153.08125 36.33125Q154.39375 36.33125 155.25313 35.346874Q156.12813 34.346874 156.12813 32.3Q156.12813 30.378124 155.25313 29.39375Q154.37813 28.39375 153.08125 28.39375Q151.75313 28.39375 150.87813 29.39375Q150.01875 30.378124 150.01875 32.3625ZM159.8625 37.55L159.8625 27.175L161.45625 27.175L161.45625 28.659374Q162.59688 26.940624 164.75313 26.940624Q165.69063 26.940624 166.47188 27.284374Q167.26875 27.6125 167.65938 28.159374Q168.05 28.70625 168.20625 29.45625Q168.3 29.95625 168.3 31.175L168.3 37.55L166.53438 37.55L166.53438 31.2375Q166.53438 30.159374 166.33125 29.628124Q166.12813 29.096874 165.59688 28.784374Q165.08125 28.471874 164.37813 28.471874Q163.25313 28.471874 162.44063 29.190624Q161.62813 29.89375 161.62813 31.878124L161.62813 37.55L159.8625 37.55ZM176.59688 37.55L176.59688 36.2375Q175.6125 37.784374 173.69063 37.784374Q172.45625 37.784374 171.40938 37.096874Q170.37813 36.409374 169.8 35.190624Q169.2375 33.971874 169.2375 32.378124Q169.2375 30.815624 169.75313 29.55Q170.26875 28.284374 171.3 27.6125Q172.34688 26.940624 173.6125 26.940624Q174.55 26.940624 175.28438 27.346874Q176.01875 27.7375 176.4875 28.3625L176.4875 23.2375L178.22188 23.2375L178.22188 37.55L176.59688 37.55ZM171.03438 32.378124Q171.03438 34.3625 171.87813 35.346874Q172.72188 36.33125 173.8625 36.33125Q175.01875 36.33125 175.81563 35.39375Q176.62813 34.45625 176.62813 32.51875Q176.62813 30.39375 175.8 29.39375Q174.9875 28.39375 173.78438 28.39375Q172.6125 28.39375 171.81563 29.3625Q171.03438 30.315624 171.03438 32.378124ZM180.15938 34.45625L181.90938 34.175Q182.05 35.221874 182.72188 35.784374Q183.39375 36.33125 184.59688 36.33125Q185.8 36.33125 186.37813 35.846874Q186.97188 35.346874 186.97188 34.690624Q186.97188 34.096874 186.45625 33.753124Q186.09688 33.51875 184.65938 33.159374Q182.72188 32.659374 181.97188 32.315624Q181.2375 31.95625 180.84688 31.33125Q180.45625 30.690624 180.45625 29.925Q180.45625 29.2375 180.76875 28.64375Q181.09688 28.05 181.64375 27.659374Q182.05 27.3625 182.75313 27.159374Q183.47188 26.940624 184.28438 26.940624Q185.50313 26.940624 186.425 27.3Q187.34688 27.64375 187.78438 28.253124Q188.22188 28.846874 188.39375 29.846874L186.675 30.08125Q186.55 29.284374 185.9875 28.846874Q185.425 28.39375 184.40938 28.39375Q183.19063 28.39375 182.675 28.8Q182.15938 29.190624 182.15938 29.721874Q182.15938 30.065624 182.37813 30.346874Q182.58125 30.628124 183.05 30.815624Q183.31563 30.909374 184.59688 31.253124Q186.47188 31.753124 187.20625 32.08125Q187.94063 32.39375 188.3625 33.003124Q188.78438 33.596874 188.78438 34.503124Q188.78438 35.378124 188.26875 36.159374Q187.75313 36.940624 186.78438 37.3625Q185.81563 37.784374 184.59688 37.784374Q182.58125 37.784374 181.51875 36.940624Q180.45625 36.096874 180.15938 34.45625ZM192.01875 41.753124L190.76875 41.753124Q193.675 37.065624 193.675 32.378124Q193.675 30.534374 193.26875 28.7375Q192.925 27.26875 192.33125 25.925Q191.95625 25.034374 190.76875 22.9875L192.01875 22.9875Q193.8625 25.440624 194.7375 27.909374Q195.4875 30.034374 195.4875 32.3625Q195.4875 35.003124 194.47188 37.471874Q193.47188 39.925 192.01875 41.753124ZM206.75313 37.55L202.8 27.175L204.65938 27.175L206.89375 33.39375Q207.25313 34.39375 207.55 35.471874Q207.78438 34.659374 208.20625 33.503124L210.50313 27.175L212.31563 27.175L208.39375 37.55L206.75313 37.55ZM212.15938 34.45625L213.90938 34.175Q214.05 35.221874 214.72188 35.784374Q215.39375 36.33125 216.59688 36.33125Q217.8 36.33125 218.37813 35.846874Q218.97188 35.346874 218.97188 34.690624Q218.97188 34.096874 218.45625 33.753124Q218.09688 33.51875 216.65938 33.159374Q214.72188 32.659374 213.97188 32.315624Q213.2375 31.95625 212.84688 31.33125Q212.45625 30.690624 212.45625 29.925Q212.45625 29.2375 212.76875 28.64375Q213.09688 28.05 213.64375 27.659374Q214.05 27.3625 214.75313 27.159374Q215.47188 26.940624 216.28438 26.940624Q217.50313 26.940624 218.425 27.3Q219.34688 27.64375 219.78438 28.253124Q220.22188 28.846874 220.39375 29.846874L218.675 30.08125Q218.55 29.284374 217.9875 28.846874Q217.425 28.39375 216.40938 28.39375Q215.19063 28.39375 214.675 28.8Q214.15938 29.190624 214.15938 29.721874Q214.15938 30.065624 214.37813 30.346874Q214.58125 30.628124 215.05 30.815624Q215.31563 30.909374 216.59688 31.253124Q218.47188 31.753124 219.20625 32.08125Q219.94063 32.39375 220.3625 33.003124Q220.78438 33.596874 220.78438 34.503124Q220.78438 35.378124 220.26875 36.159374Q219.75313 36.940624 218.78438 37.3625Q217.81563 37.784374 216.59688 37.784374Q214.58125 37.784374 213.51875 36.940624Q212.45625 36.096874 212.15938 34.45625ZM223.3625 37.55L223.3625 35.55L225.3625 35.55L225.3625 37.55L223.3625 37.55ZM234.45625 32.95625L236.2375 32.8Q236.3625 33.8625 236.81563 34.55Q237.28438 35.2375 238.25313 35.675Q239.2375 36.096874 240.47188 36.096874Q241.55 36.096874 242.37813 35.784374Q243.20625 35.45625 243.6125 34.89375Q244.01875 34.33125 244.01875 33.659374Q244.01875 32.9875 243.62813 32.4875Q243.2375 31.9875 242.34688 31.64375Q241.76875 31.409374 239.78438 30.940624Q237.81563 30.471874 237.03438 30.05Q236.00313 29.51875 235.50313 28.721874Q235.00313 27.925 235.00313 26.940624Q235.00313 25.846874 235.6125 24.909374Q236.22188 23.971874 237.40938 23.4875Q238.59688 22.9875 240.03438 22.9875Q241.62813 22.9875 242.84688 23.503124Q244.06563 24.01875 244.70625 25.01875Q245.3625 26.003124 245.40938 27.26875L243.59688 27.409374Q243.45625 26.05 242.6125 25.3625Q241.76875 24.659374 240.1125 24.659374Q238.39375 24.659374 237.59688 25.3Q236.81563 25.925 236.81563 26.8Q236.81563 27.58125 237.37813 28.08125Q237.925 28.58125 240.2375 29.096874Q242.55 29.6125 243.40938 30.003124Q244.65938 30.58125 245.25313 31.471874Q245.84688 32.346874 245.84688 33.503124Q245.84688 34.64375 245.19063 35.659374Q244.53438 36.675 243.3 37.2375Q242.08125 37.8 240.55 37.8Q238.6125 37.8 237.3 37.2375Q235.9875 36.659374 235.2375 35.51875Q234.4875 34.378124 234.45625 32.95625ZM247.87813 25.253124L247.87813 23.2375L249.64375 23.2375L249.64375 25.253124L247.87813 25.253124ZM247.87813 37.55L247.87813 27.175L249.64375 27.175L249.64375 37.55L247.87813 37.55ZM250.94063 37.55L250.94063 36.128124L257.55 28.55Q256.425 28.596874 255.56563 28.596874L251.33125 28.596874L251.33125 27.175L259.8156 27.175L259.8156 28.346874L254.19063 34.925L253.1125 36.128124Q254.28438 36.034374 255.33125 36.034374L260.1281 36.034374L260.1281 37.55L250.94063 37.55ZM267.97186 34.20625L269.78436 34.440624Q269.3625 36.01875 268.1906 36.909374Q267.03436 37.784374 265.22186 37.784374Q262.95624 37.784374 261.6125 36.39375Q260.28436 34.9875 260.28436 32.45625Q260.28436 29.83125 261.6281 28.39375Q262.97186 26.940624 265.1281 26.940624Q267.20624 26.940624 268.51874 28.3625Q269.84686 29.76875 269.84686 32.346874Q269.84686 32.503124 269.83124 32.815624L262.09686 32.815624Q262.1906 34.51875 263.0656 35.425Q263.9406 36.33125 265.2375 36.33125Q266.20624 36.33125 266.8781 35.83125Q267.5656 35.315624 267.97186 34.20625ZM262.1906 31.3625L267.9875 31.3625Q267.8781 30.065624 267.33124 29.409374Q266.4875 28.39375 265.14374 28.39375Q263.9406 28.39375 263.1125 29.20625Q262.28436 30.003124 262.1906 31.3625ZM281.22186 41.753124Q279.76874 39.925 278.76874 37.471874Q277.76874 35.003124 277.76874 32.3625Q277.76874 30.034374 278.51874 27.909374Q279.39374 25.440624 281.22186 22.9875L282.4875 22.9875Q281.3 25.01875 280.925 25.89375Q280.33124 27.2375 279.9875 28.70625Q279.5656 30.534374 279.5656 32.378124Q279.5656 37.065624 282.4875 41.753124L281.22186 41.753124ZM285.08124 37.55L285.08124 23.2375L287.01874 23.2375L294.53436 34.471874L294.53436 23.2375L296.34686 23.2375L296.34686 37.55L294.40936 37.55L286.89374 26.3L286.89374 37.55L285.08124 37.55ZM299.01874 41.753124L297.76874 41.753124Q300.675 37.065624 300.675 32.378124Q300.675 30.534374 300.26874 28.7375Q299.925 27.26875 299.33124 25.925Q298.95624 25.034374 297.76874 22.9875L299.01874 22.9875Q300.8625 25.440624 301.7375 27.909374Q302.4875 30.034374 302.4875 32.3625Q302.4875 35.003124 301.47186 37.471874Q300.47186 39.925 299.01874 41.753124Z" fill-rule="nonzero"/></svg>