<svg version="1.1" viewBox="0.0 0.0 600.0 371.0" fill="none" stroke="none" stroke-linecap="square" stroke-miterlimit="10" width="600" height="371" xmlns:xlink="http://www.w3.org/1999/xlink" xmlns="http://www.w3.org/2000/svg"><path fill="#ffffff" d="M0 0L600.0 0L600.0 371.0L0 371.0L0 0Z" fill-rule="nonzero"/><path stroke="#333333" stroke-width="1.0" stroke-linecap="butt" d="M105.5 61.5L105.5 300.5" fill-rule="nonzero"/><path stroke="#cccccc" stroke-width="1.0" stroke-linecap="butt" d="M219.5 61.5L219.5 300.5" fill-rule="nonzero"/><path stroke="#cccccc" stroke-width="1.0" stroke-linecap="butt" d="M334.5 61.5L334.5 300.5" fill-rule="nonzero"/><path stroke="#cccccc" stroke-width="1.0" stroke-linecap="butt" d="M449.5 61.5L449.5 300.5" fill-rule="nonzero"/><path stroke="#cccccc" stroke-width="1.0" stroke-linecap="butt" d="M563.5 61.5L563.5 300.5" fill-rule="nonzero"/><path stroke="#333333" stroke-width="1.0" stroke-linecap="butt" d="M98.5 300.5L581.5 300.5" fill-rule="nonzero"/><path stroke="#cccccc" stroke-width="1.0" stroke-linecap="butt" d="M98.5 240.5L581.5 240.5" fill-rule="nonzero"/><path stroke="#cccccc" stroke-width="1.0" stroke-linecap="butt" d="M98.5 181.5L581.5 181.5" fill-rule="nonzero"/><path stroke="#cccccc" stroke-width="1.0" stroke-linecap="butt" d="M98.5 121.5L581.5 121.5" fill-rule="nonzero"/><path stroke="#cccccc" stroke-width="1.0" stroke-linecap="butt" d="M98.5 61.5L581.5 61.5" fill-rule="nonzero"/><clipPath id="id_0"><path d="M98.55 61.916668L581.45 61.916668L581.45 300.45L98.55 300.45L98.55 61.916668Z" clip-rule="nonzero"/></clipPath><path fill="#4285f4" clip-path="url(#id_0)" d="M109.852776 300.35355C109.852776 302.83884 107.83806 304.85355 105.352776 304.85355C102.86749 304.85355 100.852776 302.83884 100.852776 300.35355C100.852776 297.8683 102.86749 295.85355 105.352776 295.85355C107.83806 295.85355 109.852776 297.8683 109.852776 300.35355Z" fill-rule="nonzero"/><path fill="#4285f4" clip-path="url(#id_0)" d="M110.08204 300.31384C110.08204 302.79913 108.06732 304.81384 105.58204 304.81384C103.096756 304.81384 101.08204 302.79913 101.08204 300.31384C101.08204 297.82855 103.096756 295.81384 105.58204 295.81384C108.06732 295.81384 110.08204 297.82855 110.08204 300.31384Z" fill-rule="nonzero"/><path fill="#4285f4" clip-path="url(#id_0)" d="M110.54056 300.2379C110.54056 302.72318 108.52584 304.7379 106.04056 304.7379C103.555275 304.7379 101.54056 302.72318 101.54056 300.2379C101.54056 297.75262 103.555275 295.7379 106.04056 295.7379C108.52584 295.7379 110.54056 297.75262 110.54056 300.2379Z" fill-rule="nonzero"/><path fill="#4285f4" clip-path="url(#id_0)" d="M111.457596 300.07855C111.457596 302.56384 109.44288 304.57855 106.957596 304.57855C104.47231 304.57855 102.457596 302.56384 102.457596 300.07855C102.457596 297.5933 104.47231 295.57855 106.957596 295.57855C109.44288 295.57855 111.457596 297.5933 111.457596 300.07855Z" fill-rule="nonzero"/><path fill="#4285f4" clip-path="url(#id_0)" d="M113.29167 299.6889C113.29167 302.17416 111.276955 304.1889 108.79167 304.1889C106.30639 304.1889 104.29167 302.17416 104.29167 299.6889C104.29167 297.2036 106.30639 295.1889 108.79167 295.1889C111.276955 295.1889 113.29167 297.2036 113.29167 299.6889Z" fill-rule="nonzero"/><path fill="#4285f4" clip-path="url(#id_0)" d="M116.95982 298.92694C116.95982 301.4122 114.94511 303.42694 112.45982 303.42694C109.97454 303.42694 107.95982 301.4122 107.95982 298.92694C107.95982 296.44165 109.97454 294.42694 112.45982 294.42694C114.94511 294.42694 116.95982 296.44165 116.95982 298.92694Z" fill-rule="nonzero"/><path fill="#4285f4" clip-path="url(#id_0)" d="M124.296135 297.41083C124.296135 299.8961 122.28142 301.91083 119.796135 301.91083C117.31085 301.91083 115.296135 299.8961 115.296135 297.41083C115.296135 294.92554 117.31085 292.91083 119.796135 292.91083C122.28142 292.91083 124.296135 294.92554 124.296135 297.41083Z" fill-rule="nonzero"/><path fill="#4285f4" clip-path="url(#id_0)" d="M138.96875 293.24295C138.96875 295.7282 136.95403 297.74295 134.46875 297.74295C131.98347 297.74295 129.96875 295.7282 129.96875 293.24295C129.96875 290.75766 131.98347 288.74295 134.46875 288.74295C136.95403 288.74295 138.96875 290.75766 138.96875 293.24295Z" fill-rule="nonzero"/><path fill="#4285f4" clip-path="url(#id_0)" d="M168.31398 286.40283C168.31398 288.88812 166.29926 290.90283 163.81398 290.90283C161.3287 290.90283 159.31398 288.88812 159.31398 286.40283C159.31398 283.91757 161.3287 281.90283 163.81398 281.90283C166.29926 281.90283 168.31398 283.91757 168.31398 286.40283Z" fill-rule="nonzero"/><path fill="#4285f4" clip-path="url(#id_0)" d="M227.00444 270.05963C227.00444 272.54492 224.98973 274.55963 222.50444 274.55963C220.01917 274.55963 218.00444 272.54492 218.00444 270.05963C218.00444 267.57434 220.01917 265.55963 222.50444 265.55963C224.98973 265.55963 227.00444 267.57434 227.00444 270.05963Z" fill-rule="nonzero"/><path fill="#4285f4" clip-path="url(#id_0)" d="M344.38538 229.88696C344.38538 232.37224 342.37067 234.38696 339.88538 234.38696C337.4001 234.38696 335.38538 232.37224 335.38538 229.88696C335.38538 227.40167 337.4001 225.38696 339.88538 225.38696C342.37067 225.38696 344.38538 227.40167 344.38538 229.88696Z" fill-rule="nonzero"/><path fill="#4285f4" clip-path="url(#id_0)" d="M579.1472 96.12056C579.1472 98.60584 577.1325 100.62056 574.6472 100.62056C572.1619 100.62056 570.1472 98.60584 570.1472 96.12056C570.1472 93.635284 572.1619 91.62056 574.6472 91.62056C577.1325 91.62056 579.1472 93.635284 579.1472 96.12056Z" fill-rule="nonzero"/><path fill="#000000" d="M319.04688 346.6844L320.10938 346.59064Q320.1875 347.2469 320.46875 347.65314Q320.75 348.0594 321.32812 348.325Q321.92188 348.575 322.65625 348.575Q323.29688 348.575 323.79688 348.3875Q324.29688 348.1844 324.53125 347.85626Q324.78125 347.5125 324.78125 347.1219Q324.78125 346.71564 324.54688 346.41876Q324.3125 346.10626 323.78125 345.90314Q323.42188 345.7625 322.23438 345.48126Q321.0625 345.2 320.59375 344.95Q319.96875 344.6219 319.67188 344.15314Q319.375 343.66876 319.375 343.075Q319.375 342.4344 319.73438 341.8719Q320.10938 341.29376 320.8125 341.0125Q321.53125 340.71564 322.39062 340.71564Q323.34375 340.71564 324.07812 341.02814Q324.8125 341.325 325.20312 341.9344Q325.59375 342.52814 325.625 343.27814L324.53125 343.35626Q324.4375 342.54376 323.92188 342.1375Q323.42188 341.71564 322.4375 341.71564Q321.40625 341.71564 320.9375 342.09064Q320.46875 342.46564 320.46875 342.9969Q320.46875 343.46564 320.79688 343.7625Q321.125 344.0594 322.5 344.3719Q323.89062 344.6844 324.40625 344.91876Q325.15625 345.27814 325.51562 345.8094Q325.875 346.325 325.875 347.02814Q325.875 347.71564 325.48438 348.325Q325.09375 348.91876 324.35938 349.2625Q323.625 349.59064 322.70312 349.59064Q321.53125 349.59064 320.73438 349.2625Q319.95312 348.91876 319.5 348.23126Q319.0625 347.54376 319.04688 346.6844ZM327.29688 342.075L327.29688 340.85626L328.35938 340.85626L328.35938 342.075L327.29688 342.075ZM327.29688 349.45L327.29688 343.23126L328.35938 343.23126L328.35938 349.45L327.29688 349.45ZM329.73438 349.45L329.73438 348.59064L333.70312 344.04376Q333.01562 344.075 332.5 344.075L329.96875 344.075L329.96875 343.23126L335.0625 343.23126L335.0625 343.91876L331.6875 347.8719L331.03125 348.59064Q331.75 348.54376 332.35938 348.54376L335.25 348.54376L335.25 349.45L329.73438 349.45ZM339.54688 347.45L340.64062 347.575Q340.39062 348.52814 339.6875 349.0594Q338.98438 349.59064 337.90625 349.59064Q336.54688 349.59064 335.73438 348.7469Q334.9375 347.90314 334.9375 346.3875Q334.9375 344.825 335.75 343.96564Q336.5625 343.09064 337.84375 343.09064Q339.09375 343.09064 339.875 343.9344Q340.67188 344.77814 340.67188 346.325Q340.67188 346.41876 340.67188 346.60626L336.03125 346.60626Q336.09375 347.6375 336.60938 348.1844Q337.125 348.71564 337.90625 348.71564Q338.48438 348.71564 338.89062 348.41876Q339.3125 348.10626 339.54688 347.45ZM336.09375 345.7469L339.5625 345.7469Q339.5 344.95 339.17188 344.5594Q338.65625 343.95 337.85938 343.95Q337.125 343.95 336.625 344.4344Q336.14062 344.91876 336.09375 345.7469ZM347.3125 351.98126Q346.4375 350.8719 345.82812 349.40314Q345.23438 347.91876 345.23438 346.34064Q345.23438 344.95 345.67188 343.66876Q346.20312 342.1844 347.3125 340.71564L348.0625 340.71564Q347.35938 341.9344 347.125 342.45Q346.76562 343.2625 346.5625 344.1375Q346.3125 345.23126 346.3125 346.34064Q346.3125 349.16876 348.0625 351.98126L347.3125 351.98126ZM349.42188 349.45L349.42188 340.85626L350.57812 340.85626L355.09375 347.60626L355.09375 340.85626L356.1875 340.85626L356.1875 349.45L355.01562 349.45L350.5 342.7L350.5 349.45L349.42188 349.45ZM358.98438 351.98126L358.23438 351.98126Q359.98438 349.16876 359.98438 346.34064Q359.98438 345.2469 359.73438 344.15314Q359.53125 343.27814 359.17188 342.46564Q358.9375 341.95 358.23438 340.71564L358.98438 340.71564Q360.07812 342.1844 360.60938 343.66876Q361.0625 344.95 361.0625 346.34064Q361.0625 347.91876 360.45312 349.40314Q359.84375 350.8719 358.98438 351.98126Z" fill-rule="nonzero"/><path fill="#000000" d="M29.550013 242.07396L21.971888 242.07396L21.971888 244.90208L20.956263 244.90208L20.956263 238.08958L21.971888 238.08958L21.971888 240.93333L29.550013 240.93333L29.550013 242.07396ZM22.175013 237.38646L20.956263 237.38646L20.956263 236.32396L22.175013 236.32396L22.175013 237.38646ZM29.550013 237.38646L23.331263 237.38646L23.331263 236.32396L29.550013 236.32396L29.550013 237.38646ZM29.550013 234.38646L23.331263 234.38646L23.331263 233.44896L24.206263 233.44896Q23.737513 233.15208 23.471888 232.66771Q23.190638 232.18333 23.190638 231.55833Q23.190638 230.87083 23.471888 230.43333Q23.753138 229.98021 24.268763 229.80833Q23.190638 229.05833 23.190638 227.88646Q23.190638 226.94896 23.706263 226.46458Q24.206263 225.96458 25.284388 225.96458L29.550013 225.96458L29.550013 227.01146L25.628138 227.01146Q25.003138 227.01146 24.721888 227.12083Q24.440638 227.21458 24.268763 227.48021Q24.096888 227.74583 24.096888 228.12083Q24.096888 228.77708 24.534388 229.21458Q24.971888 229.63646 25.940638 229.63646L29.550013 229.63646L29.550013 230.69896L25.503138 230.69896Q24.800013 230.69896 24.456263 230.96458Q24.096888 231.21458 24.096888 231.79271Q24.096888 232.24583 24.331263 232.62083Q24.565638 232.99583 25.018763 233.16771Q25.471888 233.33958 26.315638 233.33958L29.550013 233.33958L29.550013 234.38646ZM27.550013 219.13646L27.675013 218.04271Q28.628138 218.29271 29.159388 218.99583Q29.690638 219.69896 29.690638 220.77708Q29.690638 222.13646 28.846888 222.94896Q28.003138 223.74583 26.487513 223.74583Q24.925013 223.74583 24.065638 222.93333Q23.190638 222.12083 23.190638 220.83958Q23.190638 219.58958 24.034388 218.80833Q24.878138 218.01146 26.425013 218.01146Q26.518763 218.01146 26.706263 218.01146L26.706263 222.65208Q27.737513 222.58958 28.284388 222.07396Q28.815638 221.55833 28.815638 220.77708Q28.815638 220.19896 28.518763 219.79271Q28.206263 219.37083 27.550013 219.13646ZM25.846888 222.58958L25.846888 219.12083Q25.050013 219.18333 24.659388 219.51146Q24.050013 220.02708 24.050013 220.82396Q24.050013 221.55833 24.534388 222.05833Q25.018763 222.54271 25.846888 222.58958ZM32.08126 211.37083Q30.971888 212.24583 29.503138 212.85521Q28.018763 213.44896 26.440638 213.44896Q25.050013 213.44896 23.768763 213.01146Q22.284388 212.48021 20.815638 211.37083L20.815638 210.62083Q22.034388 211.32396 22.550013 211.55833Q23.362513 211.91771 24.237513 212.12083Q25.331263 212.37083 26.440638 212.37083Q29.268763 212.37083 32.08126 210.62083L32.08126 211.37083ZM29.550013 209.38646L23.331263 209.38646L23.331263 208.44896L24.206263 208.44896Q23.190638 207.76146 23.190638 206.46458Q23.190638 205.90208 23.393763 205.43333Q23.596888 204.94896 23.925013 204.71458Q24.253138 204.48021 24.690638 204.38646Q24.987513 204.33958 25.721888 204.33958L29.550013 204.33958L29.550013 205.38646L25.768763 205.38646Q25.112513 205.38646 24.800013 205.51146Q24.487513 205.63646 24.300013 205.94896Q24.096888 206.26146 24.096888 206.68333Q24.096888 207.35521 24.534388 207.85521Q24.956263 208.33958 26.143763 208.33958L29.550013 208.33958L29.550013 209.38646ZM28.784388 198.32396Q29.284388 198.91771 29.487513 199.46458Q29.690638 199.99583 29.690638 200.62083Q29.690638 201.65208 29.190638 202.19896Q28.690638 202.74583 27.909388 202.74583Q27.456263 202.74583 27.081263 202.54271Q26.690638 202.33958 26.471888 201.99583Q26.237513 201.65208 26.128138 201.23021Q26.034388 200.93333 25.956263 200.29271Q25.815638 199.02708 25.596888 198.41771Q25.378138 198.41771 25.331263 198.41771Q24.675013 198.41771 24.409388 198.71458Q24.065638 199.12083 24.065638 199.91771Q24.065638 200.65208 24.331263 201.01146Q24.581263 201.37083 25.237513 201.54271L25.096888 202.57396Q24.440638 202.43333 24.034388 202.10521Q23.628138 201.77708 23.409388 201.16771Q23.190638 200.55833 23.190638 199.76146Q23.190638 198.96458 23.378138 198.46458Q23.565638 197.96458 23.846888 197.73021Q24.128138 197.49583 24.565638 197.40208Q24.831263 197.35521 25.534388 197.35521L26.940638 197.35521Q28.409388 197.35521 28.800013 197.29271Q29.190638 197.21458 29.550013 197.01146L29.550013 198.12083Q29.221888 198.27708 28.784388 198.32396ZM26.425013 198.41771Q26.659388 198.99583 26.831263 200.13646Q26.925013 200.79271 27.050013 201.05833Q27.159388 201.32396 27.378138 201.48021Q27.596888 201.62083 27.878138 201.62083Q28.300013 201.62083 28.581263 201.30833Q28.862513 200.98021 28.862513 200.37083Q28.862513 199.76146 28.596888 199.29271Q28.331263 198.80833 27.862513 198.58958Q27.503138 198.41771 26.815638 198.41771L26.425013 198.41771ZM29.550013 195.38646L23.331263 195.38646L23.331263 194.44896L24.206263 194.44896Q23.190638 193.76146 23.190638 192.46458Q23.190638 191.90208 23.393763 191.43333Q23.596888 190.94896 23.925013 190.71458Q24.253138 190.48021 24.690638 190.38646Q24.987513 190.33958 25.721888 190.33958L29.550013 190.33958L29.550013 191.38646L25.768763 191.38646Q25.112513 191.38646 24.800013 191.51146Q24.487513 191.63646 24.300013 191.94896Q24.096888 192.26146 24.096888 192.68333Q24.096888 193.35521 24.534388 193.85521Q24.956263 194.33958 26.143763 194.33958L29.550013 194.33958L29.550013 195.38646ZM26.440638 188.77708Q24.706263 188.77708 23.878138 187.82396Q23.190638 187.02708 23.190638 185.87083Q23.190638 184.58958 24.034388 183.77708Q24.862513 182.94896 26.346888 182.94896Q27.550013 182.94896 28.237513 183.30833Q28.925013 183.66771 29.315638 184.37083Q29.690638 185.05833 29.690638 185.87083Q29.690638 187.16771 28.862513 187.98021Q28.018763 188.77708 26.440638 188.77708ZM26.440638 187.69896Q27.628138 187.69896 28.221888 187.18333Q28.815638 186.65208 28.815638 185.87083Q28.815638 185.07396 28.221888 184.55833Q27.628138 184.04271 26.409388 184.04271Q25.253138 184.04271 24.659388 184.57396Q24.065638 185.08958 24.065638 185.87083Q24.065638 186.65208 24.659388 187.18333Q25.237513 187.69896 26.440638 187.69896ZM27.690638 181.80833L27.534388 180.77708Q28.159388 180.68333 28.487513 180.29271Q28.815638 179.88646 28.815638 179.15208Q28.815638 178.43333 28.534388 178.08958Q28.237513 177.73021 27.831263 177.73021Q27.471888 177.73021 27.268763 178.04271Q27.128138 178.26146 26.909388 179.12083Q26.612513 180.27708 26.409388 180.73021Q26.190638 181.16771 25.815638 181.40208Q25.440638 181.63646 24.971888 181.63646Q24.565638 181.63646 24.206263 181.44896Q23.846888 181.26146 23.612513 180.93333Q23.440638 180.68333 23.315638 180.26146Q23.190638 179.83958 23.190638 179.33958Q23.190638 178.62083 23.409388 178.07396Q23.612513 177.51146 23.971888 177.24583Q24.331263 176.98021 24.925013 176.88646L25.065638 177.91771Q24.596888 177.98021 24.331263 178.32396Q24.050013 178.65208 24.050013 179.27708Q24.050013 179.99583 24.300013 180.30833Q24.534388 180.62083 24.862513 180.62083Q25.065638 180.62083 25.221888 180.49583Q25.393763 180.35521 25.503138 180.08958Q25.565638 179.93333 25.768763 179.15208Q26.081263 178.02708 26.268763 177.58958Q26.456263 177.15208 26.815638 176.90208Q27.175013 176.65208 27.721888 176.65208Q28.253138 176.65208 28.721888 176.96458Q29.175013 177.26146 29.440638 177.83958Q29.690638 178.41771 29.690638 179.15208Q29.690638 180.37083 29.190638 181.01146Q28.675013 181.63646 27.690638 181.80833ZM27.550013 170.13646L27.675013 169.04271Q28.628138 169.29271 29.159388 169.99583Q29.690638 170.69896 29.690638 171.77708Q29.690638 173.13646 28.846888 173.94896Q28.003138 174.74583 26.487513 174.74583Q24.925013 174.74583 24.065638 173.93333Q23.190638 173.12083 23.190638 171.83958Q23.190638 170.58958 24.034388 169.80833Q24.878138 169.01146 26.425013 169.01146Q26.518763 169.01146 26.706263 169.01146L26.706263 173.65208Q27.737513 173.58958 28.284388 173.07396Q28.815638 172.55833 28.815638 171.77708Q28.815638 171.19896 28.518763 170.79271Q28.206263 170.37083 27.550013 170.13646ZM25.846888 173.58958L25.846888 170.12083Q25.050013 170.18333 24.659388 170.51146Q24.050013 171.02708 24.050013 171.82396Q24.050013 172.55833 24.534388 173.05833Q25.018763 173.54271 25.846888 173.58958ZM27.268763 163.32396L27.409388 162.29271Q28.471888 162.46458 29.081263 163.16771Q29.690638 163.87083 29.690638 164.88646Q29.690638 166.16771 28.862513 166.94896Q28.018763 167.71458 26.456263 167.71458Q25.456263 167.71458 24.706263 167.38646Q23.940638 167.04271 23.565638 166.37083Q23.190638 165.68333 23.190638 164.87083Q23.190638 163.87083 23.706263 163.23021Q24.206263 162.57396 25.159388 162.38646L25.315638 163.41771Q24.690638 163.55833 24.378138 163.93333Q24.050013 164.30833 24.050013 164.83958Q24.050013 165.63646 24.628138 166.13646Q25.190638 166.63646 26.425013 166.63646Q27.690638 166.63646 28.253138 166.15208Q28.815638 165.66771 28.815638 164.90208Q28.815638 164.27708 28.440638 163.87083Q28.065638 163.44896 27.268763 163.32396ZM26.440638 161.77708Q24.706263 161.77708 23.878138 160.82396Q23.190638 160.02708 23.190638 158.87083Q23.190638 157.58958 24.034388 156.77708Q24.862513 155.94896 26.346888 155.94896Q27.550013 155.94896 28.237513 156.30833Q28.925013 156.66771 29.315638 157.37083Q29.690638 158.05833 29.690638 158.87083Q29.690638 160.16771 28.862513 160.98021Q28.018763 161.77708 26.440638 161.77708ZM26.440638 160.69896Q27.628138 160.69896 28.221888 160.18333Q28.815638 159.65208 28.815638 158.87083Q28.815638 158.07396 28.221888 157.55833Q27.628138 157.04271 26.409388 157.04271Q25.253138 157.04271 24.659388 157.57396Q24.065638 158.08958 24.065638 158.87083Q24.065638 159.65208 24.659388 160.18333Q25.237513 160.69896 26.440638 160.69896ZM29.550013 154.38646L23.331263 154.38646L23.331263 153.44896L24.206263 153.44896Q23.190638 152.76146 23.190638 151.46458Q23.190638 150.90208 23.393763 150.43333Q23.596888 149.94896 23.925013 149.71458Q24.253138 149.48021 24.690638 149.38646Q24.987513 149.33958 25.721888 149.33958L29.550013 149.33958L29.550013 150.38646L25.768763 150.38646Q25.112513 150.38646 24.800013 150.51146Q24.487513 150.63646 24.300013 150.94896Q24.096888 151.26146 24.096888 151.68333Q24.096888 152.35521 24.534388 152.85521Q24.956263 153.33958 26.143763 153.33958L29.550013 153.33958L29.550013 154.38646ZM29.550013 143.35521L28.768763 143.35521Q29.690638 143.94896 29.690638 145.08958Q29.690638 145.83958 29.284388 146.46458Q28.862513 147.08958 28.128138 147.43333Q27.393763 147.77708 26.440638 147.77708Q25.518763 147.77708 24.753138 147.46458Q23.987513 147.15208 23.596888 146.52708Q23.190638 145.90208 23.190638 145.13646Q23.190638 144.57396 23.425013 144.13646Q23.659388 143.69896 24.034388 143.41771L20.956263 143.41771L20.956263 142.37083L29.550013 142.37083L29.550013 143.35521ZM26.440638 146.68333Q27.643763 146.68333 28.237513 146.18333Q28.815638 145.68333 28.815638 144.99583Q28.815638 144.30833 28.253138 143.82396Q27.690638 143.33958 26.534388 143.33958Q25.253138 143.33958 24.659388 143.83958Q24.065638 144.32396 24.065638 145.04271Q24.065638 145.74583 24.643763 146.21458Q25.206263 146.68333 26.440638 146.68333ZM27.690638 140.80833L27.534388 139.77708Q28.159388 139.68333 28.487513 139.29271Q28.815638 138.88646 28.815638 138.15208Q28.815638 137.43333 28.534388 137.08958Q28.237513 136.73021 27.831263 136.73021Q27.471888 136.73021 27.268763 137.04271Q27.128138 137.26146 26.909388 138.12083Q26.612513 139.27708 26.409388 139.73021Q26.190638 140.16771 25.815638 140.40208Q25.440638 140.63646 24.971888 140.63646Q24.565638 140.63646 24.206263 140.44896Q23.846888 140.26146 23.612513 139.93333Q23.440638 139.68333 23.315638 139.26146Q23.190638 138.83958 23.190638 138.33958Q23.190638 137.62083 23.409388 137.07396Q23.612513 136.51146 23.971888 136.24583Q24.331263 135.98021 24.925013 135.88646L25.065638 136.91771Q24.596888 136.98021 24.331263 137.32396Q24.050013 137.65208 24.050013 138.27708Q24.050013 138.99583 24.300013 139.30833Q24.534388 139.62083 24.862513 139.62083Q25.065638 139.62083 25.221888 139.49583Q25.393763 139.35521 25.503138 139.08958Q25.565638 138.93333 25.768763 138.15208Q26.081263 137.02708 26.268763 136.58958Q26.456263 136.15208 26.815638 135.90208Q27.175013 135.65208 27.721888 135.65208Q28.253138 135.65208 28.721888 135.96458Q29.175013 136.26146 29.440638 136.83958Q29.690638 137.41771 29.690638 138.15208Q29.690638 139.37083 29.190638 140.01146Q28.675013 140.63646 27.690638 140.80833ZM32.08126 132.69896L32.08126 133.44896Q29.268763 131.69896 26.440638 131.69896Q25.346888 131.69896 24.253138 131.94896Q23.378138 132.15208 22.565638 132.51146Q22.050013 132.74583 20.815638 133.44896L20.815638 132.69896Q22.284388 131.60521 23.768763 131.07396Q25.050013 130.62083 26.440638 130.62083Q28.018763 130.62083 29.503138 131.23021Q30.971888 131.83958 32.08126 132.69896Z" fill-rule="nonzero"/><path fill="#000000" d="M86.05 300.21564Q86.05 298.6844 86.3625 297.7625Q86.675 296.825 87.28438 296.325Q87.90938 295.825 88.84688 295.825Q89.53438 295.825 90.05 296.10626Q90.58125 296.3875 90.925 296.91876Q91.26875 297.4344 91.45625 298.1844Q91.64375 298.9344 91.64375 300.21564Q91.64375 301.73126 91.33125 302.65314Q91.03438 303.575 90.40938 304.09064Q89.8 304.59064 88.84688 304.59064Q87.6125 304.59064 86.89375 303.7Q86.05 302.6375 86.05 300.21564ZM87.12813 300.21564Q87.12813 302.325 87.62813 303.02814Q88.12813 303.73126 88.84688 303.73126Q89.58125 303.73126 90.06563 303.02814Q90.56563 302.325 90.56563 300.21564Q90.56563 298.09064 90.06563 297.40314Q89.58125 296.7 88.83125 296.7Q88.1125 296.7 87.675 297.3094Q87.12813 298.09064 87.12813 300.21564Z" fill-rule="nonzero"/><path fill="#000000" d="M58.05 242.56667L59.159374 242.47292Q59.284374 243.28542 59.721874 243.69167Q60.175 244.09792 60.815624 244.09792Q61.565624 244.09792 62.096874 243.51979Q62.628124 242.94167 62.628124 242.00417Q62.628124 241.09792 62.1125 240.58229Q61.6125 240.05104 60.784374 240.05104Q60.284374 240.05104 59.8625 240.28542Q59.45625 240.51979 59.221874 240.87917L58.2375 240.75417L59.065624 236.34792L63.346874 236.34792L63.346874 237.34792L59.909374 237.34792L59.45625 239.66042Q60.221874 239.11354 61.065624 239.11354Q62.190624 239.11354 62.95625 239.89479Q63.7375 240.67604 63.7375 241.91042Q63.7375 243.06667 63.065624 243.92604Q62.2375 244.95729 60.815624 244.95729Q59.64375 244.95729 58.89375 244.30104Q58.159374 243.64479 58.05 242.56667ZM65.05 240.58229Q65.05 239.05104 65.3625 238.12917Q65.675 237.19167 66.28438 236.69167Q66.90938 236.19167 67.84688 236.19167Q68.53438 236.19167 69.05 236.47292Q69.58125 236.75417 69.925 237.28542Q70.26875 237.80104 70.45625 238.55104Q70.64375 239.30104 70.64375 240.58229Q70.64375 242.09792 70.33125 243.01979Q70.03438 243.94167 69.40938 244.45729Q68.8 244.95729 67.84688 244.95729Q66.6125 244.95729 65.89375 244.06667Q65.05 243.00417 65.05 240.58229ZM66.12813 240.58229Q66.12813 242.69167 66.62813 243.39479Q67.12813 244.09792 67.84688 244.09792Q68.58125 244.09792 69.06563 243.39479Q69.56563 242.69167 69.56563 240.58229Q69.56563 238.45729 69.06563 237.76979Q68.58125 237.06667 67.83125 237.06667Q67.1125 237.06667 66.675 237.67604Q66.12813 238.45729 66.12813 240.58229ZM72.05 240.58229Q72.05 239.05104 72.3625 238.12917Q72.675 237.19167 73.28438 236.69167Q73.90938 236.19167 74.84688 236.19167Q75.53438 236.19167 76.05 236.47292Q76.58125 236.75417 76.925 237.28542Q77.26875 237.80104 77.45625 238.55104Q77.64375 239.30104 77.64375 240.58229Q77.64375 242.09792 77.33125 243.01979Q77.03438 243.94167 76.40938 244.45729Q75.8 244.95729 74.84688 244.95729Q73.6125 244.95729 72.89375 244.06667Q72.05 243.00417 72.05 240.58229ZM73.12813 240.58229Q73.12813 242.69167 73.62813 243.39479Q74.12813 244.09792 74.84688 244.09792Q75.58125 244.09792 76.06563 243.39479Q76.56563 242.69167 76.56563 240.58229Q76.56563 238.45729 76.06563 237.76979Q75.58125 237.06667 74.83125 237.06667Q74.1125 237.06667 73.675 237.67604Q73.12813 238.45729 73.12813 240.58229ZM79.05 240.58229Q79.05 239.05104 79.3625 238.12917Q79.675 237.19167 80.28438 236.69167Q80.90938 236.19167 81.84688 236.19167Q82.53438 236.19167 83.05 236.47292Q83.58125 236.75417 83.925 237.28542Q84.26875 237.80104 84.45625 238.55104Q84.64375 239.30104 84.64375 240.58229Q84.64375 242.09792 84.33125 243.01979Q84.03438 243.94167 83.40938 244.45729Q82.8 244.95729 81.84688 244.95729Q80.6125 244.95729 79.89375 244.06667Q79.05 243.00417 79.05 240.58229ZM80.12813 240.58229Q80.12813 242.69167 80.62813 243.39479Q81.12813 244.09792 81.84688 244.09792Q82.58125 244.09792 83.06563 243.39479Q83.56563 242.69167 83.56563 240.58229Q83.56563 238.45729 83.06563 237.76979Q82.58125 237.06667 81.83125 237.06667Q81.1125 237.06667 80.675 237.67604Q80.12813 238.45729 80.12813 240.58229ZM86.05 240.58229Q86.05 239.05104 86.3625 238.12917Q86.675 237.19167 87.28438 236.69167Q87.90938 236.19167 88.84688 236.19167Q89.53438 236.19167 90.05 236.47292Q90.58125 236.75417 90.925 237.28542Q91.26875 237.80104 91.45625 238.55104Q91.64375 239.30104 91.64375 240.58229Q91.64375 242.09792 91.33125 243.01979Q91.03438 243.94167 90.40938 244.45729Q89.8 244.95729 88.84688 244.95729Q87.6125 244.95729 86.89375 244.06667Q86.05 243.00417 86.05 240.58229ZM87.12813 240.58229Q87.12813 242.69167 87.62813 243.39479Q88.12813 244.09792 88.84688 244.09792Q89.58125 244.09792 90.06563 243.39479Q90.56563 242.69167 90.56563 240.58229Q90.56563 238.45729 90.06563 237.76979Q89.58125 237.06667 88.83125 237.06667Q88.1125 237.06667 87.675 237.67604Q87.12813 238.45729 87.12813 240.58229Z" fill-rule="nonzero"/><path fill="#000000" d="M55.01875 185.18333L53.971874 185.18333L53.971874 178.46458Q53.58125 178.82396 52.95625 179.19896Q52.346874 179.55833 51.8625 179.73021L51.8625 178.71458Q52.7375 178.29271 53.39375 177.71458Q54.065624 177.12083 54.346874 176.55833L55.01875 176.55833L55.01875 185.18333ZM58.05 180.94896Q58.05 179.41771 58.3625 178.49583Q58.675 177.55833 59.284374 177.05833Q59.909374 176.55833 60.846874 176.55833Q61.534374 176.55833 62.05 176.83958Q62.58125 177.12083 62.925 177.65208Q63.26875 178.16771 63.45625 178.91771Q63.64375 179.66771 63.64375 180.94896Q63.64375 182.46458 63.33125 183.38646Q63.034374 184.30833 62.409374 184.82396Q61.8 185.32396 60.846874 185.32396Q59.6125 185.32396 58.89375 184.43333Q58.05 183.37083 58.05 180.94896ZM59.128124 180.94896Q59.128124 183.05833 59.628124 183.76146Q60.128124 184.46458 60.846874 184.46458Q61.58125 184.46458 62.065624 183.76146Q62.565624 183.05833 62.565624 180.94896Q62.565624 178.82396 62.065624 178.13646Q61.58125 177.43333 60.83125 177.43333Q60.1125 177.43333 59.675 178.04271Q59.128124 178.82396 59.128124 180.94896ZM65.05 180.94896Q65.05 179.41771 65.3625 178.49583Q65.675 177.55833 66.28438 177.05833Q66.90938 176.55833 67.84688 176.55833Q68.53438 176.55833 69.05 176.83958Q69.58125 177.12083 69.925 177.65208Q70.26875 178.16771 70.45625 178.91771Q70.64375 179.66771 70.64375 180.94896Q70.64375 182.46458 70.33125 183.38646Q70.03438 184.30833 69.40938 184.82396Q68.8 185.32396 67.84688 185.32396Q66.6125 185.32396 65.89375 184.43333Q65.05 183.37083 65.05 180.94896ZM66.12813 180.94896Q66.12813 183.05833 66.62813 183.76146Q67.12813 184.46458 67.84688 184.46458Q68.58125 184.46458 69.06563 183.76146Q69.56563 183.05833 69.56563 180.94896Q69.56563 178.82396 69.06563 178.13646Q68.58125 177.43333 67.83125 177.43333Q67.1125 177.43333 66.675 178.04271Q66.12813 178.82396 66.12813 180.94896ZM72.05 180.94896Q72.05 179.41771 72.3625 178.49583Q72.675 177.55833 73.28438 177.05833Q73.90938 176.55833 74.84688 176.55833Q75.53438 176.55833 76.05 176.83958Q76.58125 177.12083 76.925 177.65208Q77.26875 178.16771 77.45625 178.91771Q77.64375 179.66771 77.64375 180.94896Q77.64375 182.46458 77.33125 183.38646Q77.03438 184.30833 76.40938 184.82396Q75.8 185.32396 74.84688 185.32396Q73.6125 185.32396 72.89375 184.43333Q72.05 183.37083 72.05 180.94896ZM73.12813 180.94896Q73.12813 183.05833 73.62813 183.76146Q74.12813 184.46458 74.84688 184.46458Q75.58125 184.46458 76.06563 183.76146Q76.56563 183.05833 76.56563 180.94896Q76.56563 178.82396 76.06563 178.13646Q75.58125 177.43333 74.83125 177.43333Q74.1125 177.43333 73.675 178.04271Q73.12813 178.82396 73.12813 180.94896ZM79.05 180.94896Q79.05 179.41771 79.3625 178.49583Q79.675 177.55833 80.28438 177.05833Q80.90938 176.55833 81.84688 176.55833Q82.53438 176.55833 83.05 176.83958Q83.58125 177.12083 83.925 177.65208Q84.26875 178.16771 84.45625 178.91771Q84.64375 179.66771 84.64375 180.94896Q84.64375 182.46458 84.33125 183.38646Q84.03438 184.30833 83.40938 184.82396Q82.8 185.32396 81.84688 185.32396Q80.6125 185.32396 79.89375 184.43333Q79.05 183.37083 79.05 180.94896ZM80.12813 180.94896Q80.12813 183.05833 80.62813 183.76146Q81.12813 184.46458 81.84688 184.46458Q82.58125 184.46458 83.06563 183.76146Q83.56563 183.05833 83.56563 180.94896Q83.56563 178.82396 83.06563 178.13646Q82.58125 177.43333 81.83125 177.43333Q81.1125 177.43333 80.675 178.04271Q80.12813 178.82396 80.12813 180.94896ZM86.05 180.94896Q86.05 179.41771 86.3625 178.49583Q86.675 177.55833 87.28438 177.05833Q87.90938 176.55833 88.84688 176.55833Q89.53438 176.55833 90.05 176.83958Q90.58125 177.12083 90.925 177.65208Q91.26875 178.16771 91.45625 178.91771Q91.64375 179.66771 91.64375 180.94896Q91.64375 182.46458 91.33125 183.38646Q91.03438 184.30833 90.40938 184.82396Q89.8 185.32396 88.84688 185.32396Q87.6125 185.32396 86.89375 184.43333Q86.05 183.37083 86.05 180.94896ZM87.12813 180.94896Q87.12813 183.05833 87.62813 183.76146Q88.12813 184.46458 88.84688 184.46458Q89.58125 184.46458 90.06563 183.76146Q90.56563 183.05833 90.56563 180.94896Q90.56563 178.82396 90.06563 178.13646Q89.58125 177.43333 88.83125 177.43333Q88.1125 177.43333 87.675 178.04271Q87.12813 178.82396 87.12813 180.94896Z" fill-rule="nonzero"/><path fill="#000000" d="M55.01875 125.55L53.971874 125.55L53.971874 118.83125Q53.58125 119.19063 52.95625 119.56563Q52.346874 119.925 51.8625 120.09688L51.8625 119.08125Q52.7375 118.65938 53.39375 118.08125Q54.065624 117.4875 54.346874 116.925L55.01875 116.925L55.01875 125.55ZM58.05 123.3L59.159374 123.20625Q59.284374 124.01875 59.721874 124.425Q60.175 124.83125 60.815624 124.83125Q61.565624 124.83125 62.096874 124.25313Q62.628124 123.675 62.628124 122.7375Q62.628124 121.83125 62.1125 121.31563Q61.6125 120.78438 60.784374 120.78438Q60.284374 120.78438 59.8625 121.01875Q59.45625 121.25313 59.221874 121.6125L58.2375 121.4875L59.065624 117.08125L63.346874 117.08125L63.346874 118.08125L59.909374 118.08125L59.45625 120.39375Q60.221874 119.84688 61.065624 119.84688Q62.190624 119.84688 62.95625 120.62813Q63.7375 121.40938 63.7375 122.64375Q63.7375 123.8 63.065624 124.65938Q62.2375 125.69063 60.815624 125.69063Q59.64375 125.69063 58.89375 125.03438Q58.159374 124.37813 58.05 123.3ZM65.05 121.31563Q65.05 119.78438 65.3625 118.8625Q65.675 117.925 66.28438 117.425Q66.90938 116.925 67.84688 116.925Q68.53438 116.925 69.05 117.20625Q69.58125 117.4875 69.925 118.01875Q70.26875 118.53438 70.45625 119.28438Q70.64375 120.03438 70.64375 121.31563Q70.64375 122.83125 70.33125 123.75313Q70.03438 124.675 69.40938 125.19063Q68.8 125.69063 67.84688 125.69063Q66.6125 125.69063 65.89375 124.8Q65.05 123.7375 65.05 121.31563ZM66.12813 121.31563Q66.12813 123.425 66.62813 124.12813Q67.12813 124.83125 67.84688 124.83125Q68.58125 124.83125 69.06563 124.12813Q69.56563 123.425 69.56563 121.31563Q69.56563 119.19063 69.06563 118.50313Q68.58125 117.8 67.83125 117.8Q67.1125 117.8 66.675 118.40938Q66.12813 119.19063 66.12813 121.31563ZM72.05 121.31563Q72.05 119.78438 72.3625 118.8625Q72.675 117.925 73.28438 117.425Q73.90938 116.925 74.84688 116.925Q75.53438 116.925 76.05 117.20625Q76.58125 117.4875 76.925 118.01875Q77.26875 118.53438 77.45625 119.28438Q77.64375 120.03438 77.64375 121.31563Q77.64375 122.83125 77.33125 123.75313Q77.03438 124.675 76.40938 125.19063Q75.8 125.69063 74.84688 125.69063Q73.6125 125.69063 72.89375 124.8Q72.05 123.7375 72.05 121.31563ZM73.12813 121.31563Q73.12813 123.425 73.62813 124.12813Q74.12813 124.83125 74.84688 124.83125Q75.58125 124.83125 76.06563 124.12813Q76.56563 123.425 76.56563 121.31563Q76.56563 119.19063 76.06563 118.50313Q75.58125 117.8 74.83125 117.8Q74.1125 117.8 73.675 118.40938Q73.12813 119.19063 73.12813 121.31563ZM79.05 121.31563Q79.05 119.78438 79.3625 118.8625Q79.675 117.925 80.28438 117.425Q80.90938 116.925 81.84688 116.925Q82.53438 116.925 83.05 117.20625Q83.58125 117.4875 83.925 118.01875Q84.26875 118.53438 84.45625 119.28438Q84.64375 120.03438 84.64375 121.31563Q84.64375 122.83125 84.33125 123.75313Q84.03438 124.675 83.40938 125.19063Q82.8 125.69063 81.84688 125.69063Q80.6125 125.69063 79.89375 124.8Q79.05 123.7375 79.05 121.31563ZM80.12813 121.31563Q80.12813 123.425 80.62813 124.12813Q81.12813 124.83125 81.84688 124.83125Q82.58125 124.83125 83.06563 124.12813Q83.56563 123.425 83.56563 121.31563Q83.56563 119.19063 83.06563 118.50313Q82.58125 117.8 81.83125 117.8Q81.1125 117.8 80.675 118.40938Q80.12813 119.19063 80.12813 121.31563ZM86.05 121.31563Q86.05 119.78438 86.3625 118.8625Q86.675 117.925 87.28438 117.425Q87.90938 116.925 88.84688 116.925Q89.53438 116.925 90.05 117.20625Q90.58125 117.4875 90.925 118.01875Q91.26875 118.53438 91.45625 119.28438Q91.64375 120.03438 91.64375 121.31563Q91.64375 122.83125 91.33125 123.75313Q91.03438 124.675 90.40938 125.19063Q89.8 125.69063 88.84688 125.69063Q87.6125 125.69063 86.89375 124.8Q86.05 123.7375 86.05 121.31563ZM87.12813 121.31563Q87.12813 123.425 87.62813 124.12813Q88.12813 124.83125 88.84688 124.83125Q89.58125 124.83125 90.06563 124.12813Q90.56563 123.425 90.56563 121.31563Q90.56563 119.19063 90.06563 118.50313Q89.58125 117.8 88.83125 117.8Q88.1125 117.8 87.675 118.40938Q87.12813 119.19063 87.12813 121.31563Z" fill-rule="nonzero"/><path fill="#000000" d="M56.596874 64.90104L56.596874 65.916664L50.909374 65.916664Q50.909374 65.541664 51.034374 65.18229Q51.253124 64.604164 51.721874 64.041664Q52.20625 63.479164 53.1125 62.74479Q54.51875 61.58854 55.003124 60.916664Q55.503124 60.24479 55.503124 59.65104Q55.503124 59.02604 55.05 58.604164Q54.596874 58.166664 53.878124 58.166664Q53.1125 58.166664 52.659374 58.61979Q52.20625 59.072914 52.190624 59.885414L51.1125 59.77604Q51.221874 58.55729 51.940624 57.93229Q52.675 57.291664 53.909374 57.291664Q55.14375 57.291664 55.8625 57.979164Q56.58125 58.666664 56.58125 59.68229Q56.58125 60.197914 56.3625 60.697914Q56.159374 61.18229 55.659374 61.74479Q55.175 62.291664 54.05 63.24479Q53.096874 64.041664 52.815624 64.33854Q52.55 64.61979 52.378124 64.90104L56.596874 64.90104ZM58.05 61.68229Q58.05 60.15104 58.3625 59.229164Q58.675 58.291664 59.284374 57.791664Q59.909374 57.291664 60.846874 57.291664Q61.534374 57.291664 62.05 57.572914Q62.58125 57.854164 62.925 58.385414Q63.26875 58.90104 63.45625 59.65104Q63.64375 60.40104 63.64375 61.68229Q63.64375 63.197914 63.33125 64.11979Q63.034374 65.041664 62.409374 65.55729Q61.8 66.05729 60.846874 66.05729Q59.6125 66.05729 58.89375 65.166664Q58.05 64.104164 58.05 61.68229ZM59.128124 61.68229Q59.128124 63.791664 59.628124 64.49479Q60.128124 65.197914 60.846874 65.197914Q61.58125 65.197914 62.065624 64.49479Q62.565624 63.791664 62.565624 61.68229Q62.565624 59.55729 62.065624 58.86979Q61.58125 58.166664 60.83125 58.166664Q60.1125 58.166664 59.675 58.77604Q59.128124 59.55729 59.128124 61.68229ZM65.05 61.68229Q65.05 60.15104 65.3625 59.229164Q65.675 58.291664 66.28438 57.791664Q66.90938 57.291664 67.84688 57.291664Q68.53438 57.291664 69.05 57.572914Q69.58125 57.854164 69.925 58.385414Q70.26875 58.90104 70.45625 59.65104Q70.64375 60.40104 70.64375 61.68229Q70.64375 63.197914 70.33125 64.11979Q70.03438 65.041664 69.40938 65.55729Q68.8 66.05729 67.84688 66.05729Q66.6125 66.05729 65.89375 65.166664Q65.05 64.104164 65.05 61.68229ZM66.12813 61.68229Q66.12813 63.791664 66.62813 64.49479Q67.12813 65.197914 67.84688 65.197914Q68.58125 65.197914 69.06563 64.49479Q69.56563 63.791664 69.56563 61.68229Q69.56563 59.55729 69.06563 58.86979Q68.58125 58.166664 67.83125 58.166664Q67.1125 58.166664 66.675 58.77604Q66.12813 59.55729 66.12813 61.68229ZM72.05 61.68229Q72.05 60.15104 72.3625 59.229164Q72.675 58.291664 73.28438 57.791664Q73.90938 57.291664 74.84688 57.291664Q75.53438 57.291664 76.05 57.572914Q76.58125 57.854164 76.925 58.385414Q77.26875 58.90104 77.45625 59.65104Q77.64375 60.40104 77.64375 61.68229Q77.64375 63.197914 77.33125 64.11979Q77.03438 65.041664 76.40938 65.55729Q75.8 66.05729 74.84688 66.05729Q73.6125 66.05729 72.89375 65.166664Q72.05 64.104164 72.05 61.68229ZM73.12813 61.68229Q73.12813 63.791664 73.62813 64.49479Q74.12813 65.197914 74.84688 65.197914Q75.58125 65.197914 76.06563 64.49479Q76.56563 63.791664 76.56563 61.68229Q76.56563 59.55729 76.06563 58.86979Q75.58125 58.166664 74.83125 58.166664Q74.1125 58.166664 73.675 58.77604Q73.12813 59.55729 73.12813 61.68229ZM79.05 61.68229Q79.05 60.15104 79.3625 59.229164Q79.675 58.291664 80.28438 57.791664Q80.90938 57.291664 81.84688 57.291664Q82.53438 57.291664 83.05 57.572914Q83.58125 57.854164 83.925 58.385414Q84.26875 58.90104 84.45625 59.65104Q84.64375 60.40104 84.64375 61.68229Q84.64375 63.197914 84.33125 64.11979Q84.03438 65.041664 83.40938 65.55729Q82.8 66.05729 81.84688 66.05729Q80.6125 66.05729 79.89375 65.166664Q79.05 64.104164 79.05 61.68229ZM80.12813 61.68229Q80.12813 63.791664 80.62813 64.49479Q81.12813 65.197914 81.84688 65.197914Q82.58125 65.197914 83.06563 64.49479Q83.56563 63.791664 83.56563 61.68229Q83.56563 59.55729 83.06563 58.86979Q82.58125 58.166664 81.83125 58.166664Q81.1125 58.166664 80.675 58.77604Q80.12813 59.55729 80.12813 61.68229ZM86.05 61.68229Q86.05 60.15104 86.3625 59.229164Q86.675 58.291664 87.28438 57.791664Q87.90938 57.291664 88.84688 57.291664Q89.53438 57.291664 90.05 57.572914Q90.58125 57.854164 90.925 58.385414Q91.26875 58.90104 91.45625 59.65104Q91.64375 60.40104 91.64375 61.68229Q91.64375 63.197914 91.33125 64.11979Q91.03438 65.041664 90.40938 65.55729Q89.8 66.05729 88.84688 66.05729Q87.6125 66.05729 86.89375 65.166664Q86.05 64.104164 86.05 61.68229ZM87.12813 61.68229Q87.12813 63.791664 87.62813 64.49479Q88.12813 65.197914 88.84688 65.197914Q89.58125 65.197914 90.06563 64.49479Q90.56563 63.791664 90.56563 61.68229Q90.56563 59.55729 90.06563 58.86979Q89.58125 58.166664 88.83125 58.166664Q88.1125 58.166664 87.675 58.77604Q87.12813 59.55729 87.12813 61.68229Z" fill-rule="nonzero"/><path fill="#000000" d="M102.12352 313.21564Q102.12352 311.6844 102.43602 310.7625Q102.74852 309.825 103.357895 309.325Q103.982895 308.825 104.920395 308.825Q105.607895 308.825 106.12352 309.10626Q106.65477 309.3875 106.99852 309.91876Q107.34227 310.4344 107.52977 311.1844Q107.71727 311.9344 107.71727 313.21564Q107.71727 314.73126 107.40477 315.65314Q107.107895 316.575 106.482895 317.09064Q105.87352 317.59064 104.920395 317.59064Q103.68602 317.59064 102.96727 316.7Q102.12352 315.6375 102.12352 313.21564ZM103.201645 313.21564Q103.201645 315.325 103.701645 316.02814Q104.201645 316.73126 104.920395 316.73126Q105.65477 316.73126 106.139145 316.02814Q106.639145 315.325 106.639145 313.21564Q106.639145 311.09064 106.139145 310.40314Q105.65477 309.7 104.90477 309.7Q104.18602 309.7 103.74852 310.3094Q103.201645 311.09064 103.201645 313.21564Z" fill-rule="nonzero"/><path fill="#000000" d="M202.75333 315.2L203.8627 315.10626Q203.9877 315.91876 204.4252 316.325Q204.87833 316.73126 205.51895 316.73126Q206.26895 316.73126 206.8002 316.15314Q207.33145 315.575 207.33145 314.6375Q207.33145 313.73126 206.81583 313.21564Q206.31583 312.6844 205.4877 312.6844Q204.9877 312.6844 204.56583 312.91876Q204.15958 313.15314 203.9252 313.5125L202.94083 313.3875L203.76895 308.98126L208.0502 308.98126L208.0502 309.98126L204.6127 309.98126L204.15958 312.29376Q204.9252 311.7469 205.76895 311.7469Q206.89395 311.7469 207.65958 312.52814Q208.44083 313.3094 208.44083 314.54376Q208.44083 315.7 207.76895 316.5594Q206.94083 317.59064 205.51895 317.59064Q204.34708 317.59064 203.59708 316.9344Q202.8627 316.27814 202.75333 315.2ZM209.75333 313.21564Q209.75333 311.6844 210.06583 310.7625Q210.37833 309.825 210.9877 309.325Q211.6127 308.825 212.5502 308.825Q213.2377 308.825 213.75333 309.10626Q214.28458 309.3875 214.62833 309.91876Q214.97208 310.4344 215.15958 311.1844Q215.34708 311.9344 215.34708 313.21564Q215.34708 314.73126 215.03458 315.65314Q214.7377 316.575 214.1127 317.09064Q213.50333 317.59064 212.5502 317.59064Q211.31583 317.59064 210.59708 316.7Q209.75333 315.6375 209.75333 313.21564ZM210.83145 313.21564Q210.83145 315.325 211.33145 316.02814Q211.83145 316.73126 212.5502 316.73126Q213.28458 316.73126 213.76895 316.02814Q214.26895 315.325 214.26895 313.21564Q214.26895 311.09064 213.76895 310.40314Q213.28458 309.7 212.53458 309.7Q211.81583 309.7 211.37833 310.3094Q210.83145 311.09064 210.83145 313.21564ZM216.75333 313.21564Q216.75333 311.6844 217.06583 310.7625Q217.37833 309.825 217.9877 309.325Q218.6127 308.825 219.5502 308.825Q220.2377 308.825 220.75333 309.10626Q221.28458 309.3875 221.62833 309.91876Q221.97208 310.4344 222.15958 311.1844Q222.34708 311.9344 222.34708 313.21564Q222.34708 314.73126 222.03458 315.65314Q221.7377 316.575 221.1127 317.09064Q220.50333 317.59064 219.5502 317.59064Q218.31583 317.59064 217.59708 316.7Q216.75333 315.6375 216.75333 313.21564ZM217.83145 313.21564Q217.83145 315.325 218.33145 316.02814Q218.83145 316.73126 219.5502 316.73126Q220.28458 316.73126 220.76895 316.02814Q221.26895 315.325 221.26895 313.21564Q221.26895 311.09064 220.76895 310.40314Q220.28458 309.7 219.53458 309.7Q218.81583 309.7 218.37833 310.3094Q217.83145 311.09064 217.83145 313.21564ZM223.75333 313.21564Q223.75333 311.6844 224.06583 310.7625Q224.37833 309.825 224.9877 309.325Q225.6127 308.825 226.5502 308.825Q227.2377 308.825 227.75333 309.10626Q228.28458 309.3875 228.62833 309.91876Q228.97208 310.4344 229.15958 311.1844Q229.34708 311.9344 229.34708 313.21564Q229.34708 314.73126 229.03458 315.65314Q228.7377 316.575 228.1127 317.09064Q227.50333 317.59064 226.5502 317.59064Q225.31583 317.59064 224.59708 316.7Q223.75333 315.6375 223.75333 313.21564ZM224.83145 313.21564Q224.83145 315.325 225.33145 316.02814Q225.83145 316.73126 226.5502 316.73126Q227.28458 316.73126 227.76895 316.02814Q228.26895 315.325 228.26895 313.21564Q228.26895 311.09064 227.76895 310.40314Q227.28458 309.7 226.53458 309.7Q225.81583 309.7 225.37833 310.3094Q224.83145 311.09064 224.83145 313.21564ZM230.75333 313.21564Q230.75333 311.6844 231.06583 310.7625Q231.37833 309.825 231.9877 309.325Q232.6127 308.825 233.5502 308.825Q234.2377 308.825 234.75333 309.10626Q235.28458 309.3875 235.62833 309.91876Q235.97208 310.4344 236.15958 311.1844Q236.34708 311.9344 236.34708 313.21564Q236.34708 314.73126 236.03458 315.65314Q235.7377 316.575 235.1127 317.09064Q234.50333 317.59064 233.5502 317.59064Q232.31583 317.59064 231.59708 316.7Q230.75333 315.6375 230.75333 313.21564ZM231.83145 313.21564Q231.83145 315.325 232.33145 316.02814Q232.83145 316.73126 233.5502 316.73126Q234.28458 316.73126 234.76895 316.02814Q235.26895 315.325 235.26895 313.21564Q235.26895 311.09064 234.76895 310.40314Q234.28458 309.7 233.53458 309.7Q232.81583 309.7 232.37833 310.3094Q231.83145 311.09064 231.83145 313.21564Z" fill-rule="nonzero"/><path fill="#000000" d="M317.8519 317.45L316.80502 317.45L316.80502 310.73126Q316.4144 311.09064 315.7894 311.46564Q315.18002 311.825 314.69565 311.9969L314.69565 310.98126Q315.57065 310.5594 316.2269 309.98126Q316.89877 309.3875 317.18002 308.825L317.8519 308.825L317.8519 317.45ZM320.88315 313.21564Q320.88315 311.6844 321.19565 310.7625Q321.50815 309.825 322.11752 309.325Q322.74252 308.825 323.68002 308.825Q324.36752 308.825 324.88315 309.10626Q325.4144 309.3875 325.75815 309.91876Q326.1019 310.4344 326.2894 311.1844Q326.4769 311.9344 326.4769 313.21564Q326.4769 314.73126 326.1644 315.65314Q325.86752 316.575 325.24252 317.09064Q324.63315 317.59064 323.68002 317.59064Q322.44565 317.59064 321.7269 316.7Q320.88315 315.6375 320.88315 313.21564ZM321.96127 313.21564Q321.96127 315.325 322.46127 316.02814Q322.96127 316.73126 323.68002 316.73126Q324.4144 316.73126 324.89877 316.02814Q325.39877 315.325 325.39877 313.21564Q325.39877 311.09064 324.89877 310.40314Q324.4144 309.7 323.6644 309.7Q322.94565 309.7 322.50815 310.3094Q321.96127 311.09064 321.96127 313.21564ZM327.88315 313.21564Q327.88315 311.6844 328.19565 310.7625Q328.50815 309.825 329.11752 309.325Q329.74252 308.825 330.68002 308.825Q331.36752 308.825 331.88315 309.10626Q332.4144 309.3875 332.75815 309.91876Q333.1019 310.4344 333.2894 311.1844Q333.4769 311.9344 333.4769 313.21564Q333.4769 314.73126 333.1644 315.65314Q332.86752 316.575 332.24252 317.09064Q331.63315 317.59064 330.68002 317.59064Q329.44565 317.59064 328.7269 316.7Q327.88315 315.6375 327.88315 313.21564ZM328.96127 313.21564Q328.96127 315.325 329.46127 316.02814Q329.96127 316.73126 330.68002 316.73126Q331.4144 316.73126 331.89877 316.02814Q332.39877 315.325 332.39877 313.21564Q332.39877 311.09064 331.89877 310.40314Q331.4144 309.7 330.6644 309.7Q329.94565 309.7 329.50815 310.3094Q328.96127 311.09064 328.96127 313.21564ZM334.88315 313.21564Q334.88315 311.6844 335.19565 310.7625Q335.50815 309.825 336.11752 309.325Q336.74252 308.825 337.68002 308.825Q338.36752 308.825 338.88315 309.10626Q339.4144 309.3875 339.75815 309.91876Q340.1019 310.4344 340.2894 311.1844Q340.4769 311.9344 340.4769 313.21564Q340.4769 314.73126 340.1644 315.65314Q339.86752 316.575 339.24252 317.09064Q338.63315 317.59064 337.68002 317.59064Q336.44565 317.59064 335.7269 316.7Q334.88315 315.6375 334.88315 313.21564ZM335.96127 313.21564Q335.96127 315.325 336.46127 316.02814Q336.96127 316.73126 337.68002 316.73126Q338.4144 316.73126 338.89877 316.02814Q339.39877 315.325 339.39877 313.21564Q339.39877 311.09064 338.89877 310.40314Q338.4144 309.7 337.6644 309.7Q336.94565 309.7 336.50815 310.3094Q335.96127 311.09064 335.96127 313.21564ZM341.88315 313.21564Q341.88315 311.6844 342.19565 310.7625Q342.50815 309.825 343.11752 309.325Q343.74252 308.825 344.68002 308.825Q345.36752 308.825 345.88315 309.10626Q346.4144 309.3875 346.75815 309.91876Q347.1019 310.4344 347.2894 311.1844Q347.4769 311.9344 347.4769 313.21564Q347.4769 314.73126 347.1644 315.65314Q346.86752 316.575 346.24252 317.09064Q345.63315 317.59064 344.68002 317.59064Q343.44565 317.59064 342.7269 316.7Q341.88315 315.6375 341.88315 313.21564ZM342.96127 313.21564Q342.96127 315.325 343.46127 316.02814Q343.96127 316.73126 344.68002 316.73126Q345.4144 316.73126 345.89877 316.02814Q346.39877 315.325 346.39877 313.21564Q346.39877 311.09064 345.89877 310.40314Q345.4144 309.7 344.6644 309.7Q343.94565 309.7 343.50815 310.3094Q342.96127 311.09064 342.96127 313.21564ZM348.88315 313.21564Q348.88315 311.6844 349.19565 310.7625Q349.50815 309.825 350.11752 309.325Q350.74252 308.825 351.68002 308.825Q352.36752 308.825 352.88315 309.10626Q353.4144 309.3875 353.75815 309.91876Q354.1019 310.4344 354.2894 311.1844Q354.4769 311.9344 354.4769 313.21564Q354.4769 314.73126 354.1644 315.65314Q353.86752 316.575 353.24252 317.09064Q352.63315 317.59064 351.68002 317.59064Q350.44565 317.59064 349.7269 316.7Q348.88315 315.6375 348.88315 313.21564ZM349.96127 313.21564Q349.96127 315.325 350.46127 316.02814Q350.96127 316.73126 351.68002 316.73126Q352.4144 316.73126 352.89877 316.02814Q353.39877 315.325 353.39877 313.21564Q353.39877 311.09064 352.89877 310.40314Q352.4144 309.7 351.6644 309.7Q350.94565 309.7 350.50815 310.3094Q349.96127 311.09064 349.96127 313.21564Z" fill-rule="nonzero"/><path fill="#000000" d="M432.4817 317.45L431.4348 317.45L431.4348 310.73126Q431.0442 311.09064 430.4192 311.46564Q429.8098 311.825 429.32544 311.9969L429.32544 310.98126Q430.20044 310.5594 430.8567 309.98126Q431.52856 309.3875 431.8098 308.825L432.4817 308.825L432.4817 317.45ZM435.51294 315.2L436.6223 315.10626Q436.7473 315.91876 437.1848 316.325Q437.63794 316.73126 438.27856 316.73126Q439.02856 316.73126 439.5598 316.15314Q440.09106 315.575 440.09106 314.6375Q440.09106 313.73126 439.57544 313.21564Q439.07544 312.6844 438.2473 312.6844Q437.7473 312.6844 437.32544 312.91876Q436.9192 313.15314 436.6848 313.5125L435.70044 313.3875L436.52856 308.98126L440.8098 308.98126L440.8098 309.98126L437.3723 309.98126L436.9192 312.29376Q437.6848 311.7469 438.52856 311.7469Q439.65356 311.7469 440.4192 312.52814Q441.20044 313.3094 441.20044 314.54376Q441.20044 315.7 440.52856 316.5594Q439.70044 317.59064 438.27856 317.59064Q437.1067 317.59064 436.3567 316.9344Q435.6223 316.27814 435.51294 315.2ZM442.51294 313.21564Q442.51294 311.6844 442.82544 310.7625Q443.13794 309.825 443.7473 309.325Q444.3723 308.825 445.3098 308.825Q445.9973 308.825 446.51294 309.10626Q447.0442 309.3875 447.38794 309.91876Q447.7317 310.4344 447.9192 311.1844Q448.1067 311.9344 448.1067 313.21564Q448.1067 314.73126 447.7942 315.65314Q447.4973 316.575 446.8723 317.09064Q446.26294 317.59064 445.3098 317.59064Q444.07544 317.59064 443.3567 316.7Q442.51294 315.6375 442.51294 313.21564ZM443.59106 313.21564Q443.59106 315.325 444.09106 316.02814Q444.59106 316.73126 445.3098 316.73126Q446.0442 316.73126 446.52856 316.02814Q447.02856 315.325 447.02856 313.21564Q447.02856 311.09064 446.52856 310.40314Q446.0442 309.7 445.2942 309.7Q444.57544 309.7 444.13794 310.3094Q443.59106 311.09064 443.59106 313.21564ZM449.51294 313.21564Q449.51294 311.6844 449.82544 310.7625Q450.13794 309.825 450.7473 309.325Q451.3723 308.825 452.3098 308.825Q452.9973 308.825 453.51294 309.10626Q454.0442 309.3875 454.38794 309.91876Q454.7317 310.4344 454.9192 311.1844Q455.1067 311.9344 455.1067 313.21564Q455.1067 314.73126 454.7942 315.65314Q454.4973 316.575 453.8723 317.09064Q453.26294 317.59064 452.3098 317.59064Q451.07544 317.59064 450.3567 316.7Q449.51294 315.6375 449.51294 313.21564ZM450.59106 313.21564Q450.59106 315.325 451.09106 316.02814Q451.59106 316.73126 452.3098 316.73126Q453.0442 316.73126 453.52856 316.02814Q454.02856 315.325 454.02856 313.21564Q454.02856 311.09064 453.52856 310.40314Q453.0442 309.7 452.2942 309.7Q451.57544 309.7 451.13794 310.3094Q450.59106 311.09064 450.59106 313.21564ZM456.51294 313.21564Q456.51294 311.6844 456.82544 310.7625Q457.13794 309.825 457.7473 309.325Q458.3723 308.825 459.3098 308.825Q459.9973 308.825 460.51294 309.10626Q461.0442 309.3875 461.38794 309.91876Q461.7317 310.4344 461.9192 311.1844Q462.1067 311.9344 462.1067 313.21564Q462.1067 314.73126 461.7942 315.65314Q461.4973 316.575 460.8723 317.09064Q460.26294 317.59064 459.3098 317.59064Q458.07544 317.59064 457.3567 316.7Q456.51294 315.6375 456.51294 313.21564ZM457.59106 313.21564Q457.59106 315.325 458.09106 316.02814Q458.59106 316.73126 459.3098 316.73126Q460.0442 316.73126 460.52856 316.02814Q461.02856 315.325 461.02856 313.21564Q461.02856 311.09064 460.52856 310.40314Q460.0442 309.7 459.2942 309.7Q458.57544 309.7 458.13794 310.3094Q457.59106 311.09064 457.59106 313.21564ZM463.51294 313.21564Q463.51294 311.6844 463.82544 310.7625Q464.13794 309.825 464.7473 309.325Q465.3723 308.825 466.3098 308.825Q466.9973 308.825 467.51294 309.10626Q468.0442 309.3875 468.38794 309.91876Q468.7317 310.4344 468.9192 311.1844Q469.1067 311.9344 469.1067 313.21564Q469.1067 314.73126 468.7942 315.65314Q468.4973 316.575 467.8723 317.09064Q467.26294 317.59064 466.3098 317.59064Q465.07544 317.59064 464.3567 316.7Q463.51294 315.6375 463.51294 313.21564ZM464.59106 313.21564Q464.59106 315.325 465.09106 316.02814Q465.59106 316.73126 466.3098 316.73126Q467.0442 316.73126 467.52856 316.02814Q468.02856 315.325 468.02856 313.21564Q468.02856 311.09064 467.52856 310.40314Q467.0442 309.7 466.2942 309.7Q465.57544 309.7 465.13794 310.3094Q464.59106 311.09064 464.59106 313.21564Z" fill-rule="nonzero"/><path fill="#000000" d="M548.68964 316.4344L548.68964 317.45L543.00214 317.45Q543.00214 317.075 543.12714 316.71564Q543.3459 316.1375 543.81464 315.575Q544.299 315.0125 545.20526 314.27814Q546.6115 313.1219 547.0959 312.45Q547.5959 311.77814 547.5959 311.1844Q547.5959 310.5594 547.14276 310.1375Q546.68964 309.7 545.9709 309.7Q545.20526 309.7 544.75214 310.15314Q544.299 310.60626 544.2834 311.41876L543.20526 311.3094Q543.31464 310.09064 544.0334 309.46564Q544.76776 308.825 546.00214 308.825Q547.2365 308.825 547.95526 309.5125Q548.674 310.2 548.674 311.21564Q548.674 311.73126 548.45526 312.23126Q548.25214 312.71564 547.75214 313.27814Q547.26776 313.825 546.14276 314.77814Q545.18964 315.575 544.9084 315.8719Q544.64276 316.15314 544.4709 316.4344L548.68964 316.4344ZM550.14276 313.21564Q550.14276 311.6844 550.45526 310.7625Q550.76776 309.825 551.37714 309.325Q552.00214 308.825 552.93964 308.825Q553.62714 308.825 554.14276 309.10626Q554.674 309.3875 555.01776 309.91876Q555.3615 310.4344 555.549 311.1844Q555.7365 311.9344 555.7365 313.21564Q555.7365 314.73126 555.424 315.65314Q555.12714 316.575 554.50214 317.09064Q553.89276 317.59064 552.93964 317.59064Q551.70526 317.59064 550.9865 316.7Q550.14276 315.6375 550.14276 313.21564ZM551.2209 313.21564Q551.2209 315.325 551.7209 316.02814Q552.2209 316.73126 552.93964 316.73126Q553.674 316.73126 554.1584 316.02814Q554.6584 315.325 554.6584 313.21564Q554.6584 311.09064 554.1584 310.40314Q553.674 309.7 552.924 309.7Q552.20526 309.7 551.76776 310.3094Q551.2209 311.09064 551.2209 313.21564ZM557.14276 313.21564Q557.14276 311.6844 557.45526 310.7625Q557.76776 309.825 558.37714 309.325Q559.00214 308.825 559.93964 308.825Q560.62714 308.825 561.14276 309.10626Q561.674 309.3875 562.01776 309.91876Q562.3615 310.4344 562.549 311.1844Q562.7365 311.9344 562.7365 313.21564Q562.7365 314.73126 562.424 315.65314Q562.12714 316.575 561.50214 317.09064Q560.89276 317.59064 559.93964 317.59064Q558.70526 317.59064 557.9865 316.7Q557.14276 315.6375 557.14276 313.21564ZM558.2209 313.21564Q558.2209 315.325 558.7209 316.02814Q559.2209 316.73126 559.93964 316.73126Q560.674 316.73126 561.1584 316.02814Q561.6584 315.325 561.6584 313.21564Q561.6584 311.09064 561.1584 310.40314Q560.674 309.7 559.924 309.7Q559.20526 309.7 558.76776 310.3094Q558.2209 311.09064 558.2209 313.21564ZM564.14276 313.21564Q564.14276 311.6844 564.45526 310.7625Q564.76776 309.825 565.37714 309.325Q566.00214 308.825 566.93964 308.825Q567.62714 308.825 568.14276 309.10626Q568.674 309.3875 569.01776 309.91876Q569.3615 310.4344 569.549 311.1844Q569.7365 311.9344 569.7365 313.21564Q569.7365 314.73126 569.424 315.65314Q569.12714 316.575 568.50214 317.09064Q567.89276 317.59064 566.93964 317.59064Q565.70526 317.59064 564.9865 316.7Q564.14276 315.6375 564.14276 313.21564ZM565.2209 313.21564Q565.2209 315.325 565.7209 316.02814Q566.2209 316.73126 566.93964 316.73126Q567.674 316.73126 568.1584 316.02814Q568.6584 315.325 568.6584 313.21564Q568.6584 311.09064 568.1584 310.40314Q567.674 309.7 566.924 309.7Q566.20526 309.7 565.76776 310.3094Q565.2209 311.09064 565.2209 313.21564ZM571.14276 313.21564Q571.14276 311.6844 571.45526 310.7625Q571.76776 309.825 572.37714 309.325Q573.00214 308.825 573.93964 308.825Q574.62714 308.825 575.14276 309.10626Q575.674 309.3875 576.01776 309.91876Q576.3615 310.4344 576.549 311.1844Q576.7365 311.9344 576.7365 313.21564Q576.7365 314.73126 576.424 315.65314Q576.12714 316.575 575.50214 317.09064Q574.89276 317.59064 573.93964 317.59064Q572.70526 317.59064 571.9865 316.7Q571.14276 315.6375 571.14276 313.21564ZM572.2209 313.21564Q572.2209 315.325 572.7209 316.02814Q573.2209 316.73126 573.93964 316.73126Q574.674 316.73126 575.1584 316.02814Q575.6584 315.325 575.6584 313.21564Q575.6584 311.09064 575.1584 310.40314Q574.674 309.7 573.924 309.7Q573.20526 309.7 572.76776 310.3094Q572.2209 311.09064 572.2209 313.21564ZM578.14276 313.21564Q578.14276 311.6844 578.45526 310.7625Q578.76776 309.825 579.37714 309.325Q580.00214 308.825 580.93964 308.825Q581.62714 308.825 582.14276 309.10626Q582.674 309.3875 583.01776 309.91876Q583.3615 310.4344 583.549 311.1844Q583.7365 311.9344 583.7365 313.21564Q583.7365 314.73126 583.424 315.65314Q583.12714 316.575 582.50214 317.09064Q581.89276 317.59064 580.93964 317.59064Q579.70526 317.59064 578.9865 316.7Q578.14276 315.6375 578.14276 313.21564ZM579.2209 313.21564Q579.2209 315.325 579.7209 316.02814Q580.2209 316.73126 580.93964 316.73126Q581.674 316.73126 582.1584 316.02814Q582.6584 315.325 582.6584 313.21564Q582.6584 311.09064 582.1584 310.40314Q581.674 309.7 580.924 309.7Q580.20526 309.7 579.76776 310.3094Q579.2209 311.09064 579.2209 313.21564Z" fill-rule="nonzero"/><path fill="#757575" d="M23.7375 37.55L23.7375 24.925L19.01875 24.925L19.01875 23.2375L30.3625 23.2375L30.3625 24.925L25.628124 24.925L25.628124 37.55L23.7375 37.55ZM31.878124 25.253124L31.878124 23.2375L33.64375 23.2375L33.64375 25.253124L31.878124 25.253124ZM31.878124 37.55L31.878124 27.175L33.64375 27.175L33.64375 37.55L31.878124 37.55ZM35.8625 37.55L35.8625 27.175L37.440624 27.175L37.440624 28.628124Q37.925 27.878124 38.7375 27.409374Q39.55 26.940624 40.58125 26.940624Q41.7375 26.940624 42.471874 27.425Q43.20625 27.89375 43.51875 28.753124Q44.753124 26.940624 46.721874 26.940624Q48.26875 26.940624 49.096874 27.8Q49.925 28.659374 49.925 30.425L49.925 37.55L48.175 37.55L48.175 31.01875Q48.175 29.95625 48.003124 29.503124Q47.83125 29.034374 47.378124 28.753124Q46.940624 28.471874 46.33125 28.471874Q45.2375 28.471874 44.503124 29.20625Q43.784374 29.925 43.784374 31.51875L43.784374 37.55L42.034374 37.55L42.034374 30.815624Q42.034374 29.64375 41.596874 29.065624Q41.175 28.471874 40.190624 28.471874Q39.45625 28.471874 38.815624 28.8625Q38.190624 29.253124 37.909374 30.003124Q37.628124 30.753124 37.628124 32.175L37.628124 37.55L35.8625 37.55ZM58.971874 34.20625L60.784374 34.440624Q60.3625 36.01875 59.190624 36.909374Q58.034374 37.784374 56.221874 37.784374Q53.95625 37.784374 52.6125 36.39375Q51.284374 34.9875 51.284374 32.45625Q51.284374 29.83125 52.628124 28.39375Q53.971874 26.940624 56.128124 26.940624Q58.20625 26.940624 59.51875 28.3625Q60.846874 29.76875 60.846874 32.346874Q60.846874 32.503124 60.83125 32.815624L53.096874 32.815624Q53.190624 34.51875 54.065624 35.425Q54.940624 36.33125 56.2375 36.33125Q57.20625 36.33125 57.878124 35.83125Q58.565624 35.315624 58.971874 34.20625ZM53.190624 31.3625L58.9875 31.3625Q58.878124 30.065624 58.33125 29.409374Q57.4875 28.39375 56.14375 28.39375Q54.940624 28.39375 54.1125 29.20625Q53.284374 30.003124 53.190624 31.3625ZM72.22188 41.753124Q70.76875 39.925 69.76875 37.471874Q68.76875 35.003124 68.76875 32.3625Q68.76875 30.034374 69.51875 27.909374Q70.39375 25.440624 72.22188 22.9875L73.4875 22.9875Q72.3 25.01875 71.925 25.89375Q71.33125 27.2375 70.9875 28.70625Q70.56563 30.534374 70.56563 32.378124Q70.56563 37.065624 73.4875 41.753124L72.22188 41.753124ZM75.8625 37.55L75.8625 27.175L77.45625 27.175L77.45625 28.659374Q78.59688 26.940624 80.75313 26.940624Q81.69063 26.940624 82.47188 27.284374Q83.26875 27.6125 83.65938 28.159374Q84.05 28.70625 84.20625 29.45625Q84.3 29.95625 84.3 31.175L84.3 37.55L82.53438 37.55L82.53438 31.2375Q82.53438 30.159374 82.33125 29.628124Q82.12813 29.096874 81.59688 28.784374Q81.08125 28.471874 80.37813 28.471874Q79.25313 28.471874 78.44063 29.190624Q77.62813 29.89375 77.62813 31.878124L77.62813 37.55L75.8625 37.55ZM92.64375 36.26875Q91.65938 37.096874 90.75313 37.440624Q89.84688 37.784374 88.81563 37.784374Q87.1125 37.784374 86.19063 36.95625Q85.26875 36.1125 85.26875 34.815624Q85.26875 34.05 85.6125 33.425Q85.97188 32.8 86.53438 32.425Q87.09688 32.034374 87.8 31.83125Q88.31563 31.70625 89.3625 31.565624Q91.4875 31.315624 92.4875 30.971874Q92.50313 30.6125 92.50313 30.503124Q92.50313 29.440624 92.00313 28.9875Q91.33125 28.39375 90.00313 28.39375Q88.75313 28.39375 88.15938 28.83125Q87.58125 29.26875 87.3 30.378124L85.58125 30.14375Q85.81563 29.034374 86.34688 28.3625Q86.87813 27.675 87.89375 27.315624Q88.90938 26.940624 90.25313 26.940624Q91.58125 26.940624 92.40938 27.253124Q93.2375 27.565624 93.62813 28.05Q94.01875 28.51875 94.175 29.2375Q94.26875 29.690624 94.26875 30.8625L94.26875 33.20625Q94.26875 35.659374 94.37813 36.315624Q94.4875 36.95625 94.83125 37.55L92.9875 37.55Q92.72188 37.003124 92.64375 36.26875ZM92.4875 32.346874Q91.53438 32.7375 89.6125 33.003124Q88.53438 33.159374 88.08125 33.3625Q87.64375 33.55 87.39375 33.925Q87.14375 34.3 87.14375 34.76875Q87.14375 35.471874 87.675 35.940624Q88.20625 36.409374 89.2375 36.409374Q90.25313 36.409374 91.03438 35.971874Q91.83125 35.51875 92.20625 34.753124Q92.4875 34.14375 92.4875 32.9875L92.4875 32.346874ZM96.8625 37.55L96.8625 27.175L98.45625 27.175L98.45625 28.659374Q99.59688 26.940624 101.75313 26.940624Q102.69063 26.940624 103.47188 27.284374Q104.26875 27.6125 104.65938 28.159374Q105.05 28.70625 105.20625 29.45625Q105.3 29.95625 105.3 31.175L105.3 37.55L103.53438 37.55L103.53438 31.2375Q103.53438 30.159374 103.33125 29.628124Q103.12813 29.096874 102.59688 28.784374Q102.08125 28.471874 101.37813 28.471874Q100.25313 28.471874 99.44063 29.190624Q98.62813 29.89375 98.62813 31.878124L98.62813 37.55L96.8625 37.55ZM106.22188 32.3625Q106.22188 29.4875 107.81563 28.096874Q109.15938 26.940624 111.08125 26.940624Q113.22188 26.940624 114.56563 28.346874Q115.925 29.753124 115.925 32.221874Q115.925 34.221874 115.33125 35.378124Q114.7375 36.51875 113.58125 37.159374Q112.44063 37.784374 111.08125 37.784374Q108.89375 37.784374 107.55 36.39375Q106.22188 34.9875 106.22188 32.3625ZM108.01875 32.3625Q108.01875 34.3625 108.87813 35.346874Q109.75313 36.33125 111.08125 36.33125Q112.39375 36.33125 113.25313 35.346874Q114.12813 34.346874 114.12813 32.3Q114.12813 30.378124 113.25313 29.39375Q112.37813 28.39375 111.08125 28.39375Q109.75313 28.39375 108.87813 29.39375Q108.01875 30.378124 108.01875 32.3625ZM117.15938 34.45625L118.90938 34.175Q119.05 35.221874 119.72188 35.784374Q120.39375 36.33125 121.59688 36.33125Q122.8 36.33125 123.37813 35.846874Q123.97188 35.346874 123.97188 34.690624Q123.97188 34.096874 123.45625 33.753124Q123.09688 33.51875 121.65938 33.159374Q119.72188 32.659374 118.97188 32.315624Q118.2375 31.95625 117.84688 31.33125Q117.45625 30.690624 117.45625 29.925Q117.45625 29.2375 117.76875 28.64375Q118.09688 28.05 118.64375 27.659374Q119.05 27.3625 119.75313 27.159374Q120.47188 26.940624 121.28438 26.940624Q122.50313 26.940624 123.425 27.3Q124.34688 27.64375 124.78438 28.253124Q125.22188 28.846874 125.39375 29.846874L123.675 30.08125Q123.55 29.284374 122.9875 28.846874Q122.425 28.39375 121.40938 28.39375Q120.19063 28.39375 119.675 28.8Q119.15938 29.190624 119.15938 29.721874Q119.15938 30.065624 119.37813 30.346874Q119.58125 30.628124 120.05 30.815624Q120.31563 30.909374 121.59688 31.253124Q123.47188 31.753124 124.20625 32.08125Q124.94063 32.39375 125.3625 33.003124Q125.78438 33.596874 125.78438 34.503124Q125.78438 35.378124 125.26875 36.159374Q124.75313 36.940624 123.78438 37.3625Q122.81563 37.784374 121.59688 37.784374Q119.58125 37.784374 118.51875 36.940624Q117.45625 36.096874 117.15938 34.45625ZM134.97188 34.20625L136.78438 34.440624Q136.3625 36.01875 135.19063 36.909374Q134.03438 37.784374 132.22188 37.784374Q129.95625 37.784374 128.6125 36.39375Q127.28438 34.9875 127.28438 32.45625Q127.28438 29.83125 128.62813 28.39375Q129.97188 26.940624 132.12813 26.940624Q134.20625 26.940624 135.51875 28.3625Q136.84688 29.76875 136.84688 32.346874Q136.84688 32.503124 136.83125 32.815624L129.09688 32.815624Q129.19063 34.51875 130.06563 35.425Q130.94063 36.33125 132.2375 36.33125Q133.20625 36.33125 133.87813 35.83125Q134.56563 35.315624 134.97188 34.20625ZM129.19063 31.3625L134.9875 31.3625Q134.87813 30.065624 134.33125 29.409374Q133.4875 28.39375 132.14375 28.39375Q130.94063 28.39375 130.1125 29.20625Q129.28438 30.003124 129.19063 31.3625ZM145.64375 33.753124L147.3625 33.971874Q147.08125 35.76875 145.90938 36.784374Q144.75313 37.784374 143.05 37.784374Q140.925 37.784374 139.62813 36.39375Q138.33125 35.003124 138.33125 32.409374Q138.33125 30.721874 138.87813 29.471874Q139.44063 28.20625 140.58125 27.58125Q141.72188 26.940624 143.06563 26.940624Q144.75313 26.940624 145.81563 27.8Q146.89375 28.659374 147.20625 30.221874L145.4875 30.4875Q145.25313 29.440624 144.62813 28.925Q144.00313 28.39375 143.12813 28.39375Q141.8 28.39375 140.97188 29.346874Q140.14375 30.3 140.14375 32.346874Q140.14375 34.440624 140.94063 35.39375Q141.7375 36.33125 143.03438 36.33125Q144.06563 36.33125 144.75313 35.70625Q145.45625 35.065624 145.64375 33.753124ZM148.22188 32.3625Q148.22188 29.4875 149.81563 28.096874Q151.15938 26.940624 153.08125 26.940624Q155.22188 26.940624 156.56563 28.346874Q157.925 29.753124 157.925 32.221874Q157.925 34.221874 157.33125 35.378124Q156.7375 36.51875 155.58125 37.159374Q154.44063 37.784374 153.08125 37.784374Q150.89375 37.784374 149.55 36.39375Q148.22188 34.9875 148.22188 32.3625ZM150.01875 32.3625Q150.01875 34.3625 150.87813 35.346874Q151.75313 36.33125 153.08125 36.33125Q154.39375 36.33125 155.25313 35.346874Q156.12813 34.346874 156.12813 32.3Q156.12813 30.378124 155.25313 29.39375Q154.37813 28.39375 153.08125 28.39375Q151.75313 28.39375 150.87813 29.39375Q150.01875 30.378124 150.01875 32.3625ZM159.8625 37.55L159.8625 27.175L161.45625 27.175L161.45625 28.659374Q162.59688 26.940624 164.75313 26.940624Q165.69063 26.940624 166.47188 27.284374Q167.26875 27.6125 167.65938 28.159374Q168.05 28.70625 168.20625 29.45625Q168.3 29.95625 168.3 31.175L168.3 37.55L166.53438 37.55L166.53438 31.2375Q166.53438 30.159374 166.33125 29.628124Q166.12813 29.096874 165.59688 28.784374Q165.08125 28.471874 164.37813 28.471874Q163.25313 28.471874 162.44063 29.190624Q161.62813 29.89375 161.62813 31.878124L161.62813 37.55L159.8625 37.55ZM176.59688 37.55L176.59688 36.2375Q175.6125 37.784374 173.69063 37.784374Q172.45625 37.784374 171.40938 37.096874Q170.37813 36.409374 169.8 35.190624Q169.2375 33.971874 169.2375 32.378124Q169.2375 30.815624 169.75313 29.55Q170.26875 28.284374 171.3 27.6125Q172.34688 26.940624 173.6125 26.940624Q174.55 26.940624 175.28438 27.346874Q176.01875 27.7375 176.4875 28.3625L176.4875 23.2375L178.22188 23.2375L178.22188 37.55L176.59688 37.55ZM171.03438 32.378124Q171.03438 34.3625 171.87813 35.346874Q172.72188 36.33125 173.8625 36.33125Q175.01875 36.33125 175.81563 35.39375Q176.62813 34.45625 176.62813 32.51875Q176.62813 30.39375 175.8 29.39375Q174.9875 28.39375 173.78438 28.39375Q172.6125 28.39375 171.81563 29.3625Q171.03438 30.315624 171.03438 32.378124ZM180.15938 34.45625L181.90938 34.175Q182.05 35.221874 182.72188 35.784374Q183.39375 36.33125 184.59688 36.33125Q185.8 36.33125 186.37813 35.846874Q186.97188 35.346874 186.97188 34.690624Q186.97188 34.096874 186.45625 33.753124Q186.09688 33.51875 184.65938 33.159374Q182.72188 32.659374 181.97188 32.315624Q181.2375 31.95625 180.84688 31.33125Q180.45625 30.690624 180.45625 29.925Q180.45625 29.2375 180.76875 28.64375Q181.09688 28.05 181.64375 27.659374Q182.05 27.3625 182.75313 27.159374Q183.47188 26.940624 184.28438 26.940624Q185.50313 26.940624 186.425 27.3Q187.34688 27.64375 187.78438 28.253124Q188.22188 28.846874 188.39375 29.846874L186.675 30.08125Q186.55 29.284374 185.9875 28.846874Q185.425 28.39375 184.40938 28.39375Q183.19063 28.39375 182.675 28.8Q182.15938 29.190624 182.15938 29.721874Q182.15938 30.065624 182.37813 30.346874Q182.58125 30.628124 183.05 30.815624Q183.31563 30.909374 184.59688 31.253124Q186.47188 31.753124 187.20625 32.08125Q187.94063 32.39375 188.3625 33.003124Q188.78438 33.596874 188.78438 34.503124Q188.78438 35.378124 188.26875 36.159374Q187.75313 36.940624 186.78438 37.3625Q185.81563 37.784374 184.59688 37.784374Q182.58125 37.784374 181.51875 36.940624Q180.45625 36.096874 180.15938 34.45625ZM192.01875 41.753124L190.76875 41.753124Q193.675 37.065624 193.675 32.378124Q193.675 30.534374 193.26875 28.7375Q192.925 27.26875 192.33125 25.925Q191.95625 25.034374 190.76875 22.9875L192.01875 22.9875Q193.8625 25.440624 194.7375 27.909374Q195.4875 30.034374 195.4875 32.3625Q195.4875 35.003124 194.47188 37.471874Q193.47188 39.925 192.01875 41.753124ZM206.75313 37.55L202.8 27.175L204.65938 27.175L206.89375 33.39375Q207.25313 34.39375 207.55 35.471874Q207.78438 34.659374 208.20625 33.503124L210.50313 27.175L212.31563 27.175L208.39375 37.55L206.75313 37.55ZM212.15938 34.45625L213.90938 34.175Q214.05 35.221874 214.72188 35.784374Q215.39375 36.33125 216.59688 36.33125Q217.8 36.33125 218.37813 35.846874Q218.97188 35.346874 218.97188 34.690624Q218.97188 34.096874 218.45625 33.753124Q218.09688 33.51875 216.65938 33.159374Q214.72188 32.659374 213.97188 32.315624Q213.2375 31.95625 212.84688 31.33125Q212.45625 30.690624 212.45625 29.925Q212.45625 29.2375 212.76875 28.64375Q213.09688 28.05 213.64375 27.659374Q214.05 27.3625 214.75313 27.159374Q215.47188 26.940624 216.28438 26.940624Q217.50313 26.940624 218.425 27.3Q219.34688 27.64375 219.78438 28.253124Q220.22188 28.846874 220.39375 29.846874L218.675 30.08125Q218.55 29.284374 217.9875 28.846874Q217.425 28.39375 216.40938 28.39375Q215.19063 28.39375 214.675 28.8Q214.15938 29.190624 214.15938 29.721874Q214.15938 30.065624 214.37813 30.346874Q214.58125 30.628124 215.05 30.815624Q215.31563 30.909374 216.59688 31.253124Q218.47188 31.753124 219.20625 32.08125Q219.94063 32.39375 220.3625 33.003124Q220.78438 33.596874 220.78438 34.503124Q220.78438 35.378124 220.26875 36.159374Q219.75313 36.940624 218.78438 37.3625Q217.81563 37.784374 216.59688 37.784374Q214.58125 37.784374 213.51875 36.940624Q212.45625 36.096874 212.15938 34.45625ZM223.3625 37.55L223.3625 35.55L225.3625 35.55L225.3625 37.55L223.3625 37.55ZM234.45625 32.95625L236.2375 32.8Q236.3625 33.8625 236.81563 34.55Q237.28438 35.2375 238.25313 35.675Q239.2375 36.096874 240.47188 36.096874Q241.55 36.096874 242.37813 35.784374Q243.20625 35.45625 243.6125 34.89375Q244.01875 34.33125 244.01875 33.659374Q244.01875 32.9875 243.62813 32.4875Q243.2375 31.9875 242.34688 31.64375Q241.76875 31.409374 239.78438 30.940624Q237.81563 30.471874 237.03438 30.05Q236.00313 29.51875 235.50313 28.721874Q235.00313 27.925 235.00313 26.940624Q235.00313 25.846874 235.6125 24.909374Q236.22188 23.971874 237.40938 23.4875Q238.59688 22.9875 240.03438 22.9875Q241.62813 22.9875 242.84688 23.503124Q244.06563 24.01875 244.70625 25.01875Q245.3625 26.003124 245.40938 27.26875L243.59688 27.409374Q243.45625 26.05 242.6125 25.3625Q241.76875 24.659374 240.1125 24.659374Q238.39375 24.659374 237.59688 25.3Q236.81563 25.925 236.81563 26.8Q236.81563 27.58125 237.37813 28.08125Q237.925 28.58125 240.2375 29.096874Q242.55 29.6125 243.40938 30.003124Q244.65938 30.58125 245.25313 31.471874Q245.84688 32.346874 245.84688 33.503124Q245.84688 34.64375 245.19063 35.659374Q244.53438 36.675 243.3 37.2375Q242.08125 37.8 240.55 37.8Q238.6125 37.8 237.3 37.2375Q235.9875 36.659374 235.2375 35.51875Q234.4875 34.378124 234.45625 32.95625ZM247.87813 25.253124L247.87813 23.2375L249.64375 23.2375L249.64375 25.253124L247.87813 25.253124ZM247.87813 37.55L247.87813 27.175L249.64375 27.175L249.64375 37.55L247.87813 37.55ZM250.94063 37.55L250.94063 36.128124L257.55 28.55Q256.425 28.596874 255.56563 28.596874L251.33125 28.596874L251.33125 27.175L259.8156 27.175L259.8156 28.346874L254.19063 34.925L253.1125 36.128124Q254.28438 36.034374 255.33125 36.034374L260.1281 36.034374L260.1281 37.55L250.94063 37.55ZM267.97186 34.20625L269.78436 34.440624Q269.3625 36.01875 268.1906 36.909374Q267.03436 37.784374 265.22186 37.784374Q262.95624 37.784374 261.6125 36.39375Q260.28436 34.9875 260.28436 32.45625Q260.28436 29.83125 261.6281 28.39375Q262.97186 26.940624 265.1281 26.940624Q267.20624 26.940624 268.51874 28.3625Q269.84686 29.76875 269.84686 32.346874Q269.84686 32.503124 269.83124 32.815624L262.09686 32.815624Q262.1906 34.51875 263.0656 35.425Q263.9406 36.33125 265.2375 36.33125Q266.20624 36.33125 266.8781 35.83125Q267.5656 35.315624 267.97186 34.20625ZM262.1906 31.3625L267.9875 31.3625Q267.8781 30.065624 267.33124 29.409374Q266.4875 28.39375 265.14374 28.39375Q263.9406 28.39375 263.1125 29.20625Q262.28436 30.003124 262.1906 31.3625ZM281.22186 41.753124Q279.76874 39.925 278.76874 37.471874Q277.76874 35.003124 277.76874 32.3625Q277.76874 30.034374 278.51874 27.909374Q279.39374 25.440624 281.22186 22.9875L282.4875 22.9875Q281.3 25.01875 280.925 25.89375Q280.33124 27.2375 279.9875 28.70625Q279.5656 30.534374 279.5656 32.378124Q279.5656 37.065624 282.4875 41.753124L281.22186 41.753124ZM285.08124 37.55L285.08124 23.2375L287.01874 23.2375L294.53436 34.471874L294.53436 23.2375L296.34686 23.2375L296.34686 37.55L294.40936 37.55L286.89374 26.3L286.89374 37.55L285.08124 37.55ZM299.01874 41.753124L297.76874 41.753124Q300.675 37.065624 300.675 32.378124Q300.675 30.534374 300.26874 28.7375Q299.925 27.26875 299.33124 25.925Q298.95624 25.034374 297.76874 22.9875L299.01874 22.9875Q300.8625 25.440624 301.7375 27.909374Q302.4875 30.034374 302.4875 32.3625Q302.4875 35.003124 301.47186 37.471874Q300.47186 39.925 299.01874 41.753124Z" fill-rule="nonzero"/></svg>