<svg version="1.1" viewBox="0.0 0.0 600.0 371.0" fill="none" stroke="none" stroke-linecap="square" stroke-miterlimit="10" width="600" height="371" xmlns:xlink="http://www.w3.org/1999/xlink" xmlns="http://www.w3.org/2000/svg"><path fill="#ffffff" d="M0 0L600.0 0L600.0 371.0L0 371.0L0 0Z" fill-rule="nonzero"/><path stroke="#333333" stroke-width="1.0" stroke-linecap="butt" d="M112.5 61.5L112.5 300.5" fill-rule="nonzero"/><path stroke="#cccccc" stroke-width="1.0" stroke-linecap="butt" d="M225.5 61.5L225.5 300.5" fill-rule="nonzero"/><path stroke="#cccccc" stroke-width="1.0" stroke-linecap="butt" d="M337.5 61.5L337.5 300.5" fill-rule="nonzero"/><path stroke="#cccccc" stroke-width="1.0" stroke-linecap="butt" d="M450.5 61.5L450.5 300.5" fill-rule="nonzero"/><path stroke="#cccccc" stroke-width="1.0" stroke-linecap="butt" d="M563.5 61.5L563.5 300.5" fill-rule="nonzero"/><path stroke="#333333" stroke-width="1.0" stroke-linecap="butt" d="M105.5 300.5L581.5 300.5" fill-rule="nonzero"/><path stroke="#cccccc" stroke-width="1.0" stroke-linecap="butt" d="M105.5 252.5L581.5 252.5" fill-rule="nonzero"/><path stroke="#cccccc" stroke-width="1.0" stroke-linecap="butt" d="M105.5 205.5L581.5 205.5" fill-rule="nonzero"/><path stroke="#cccccc" stroke-width="1.0" stroke-linecap="butt" d="M105.5 157.5L581.5 157.5" fill-rule="nonzero"/><path stroke="#cccccc" stroke-width="1.0" stroke-linecap="butt" d="M105.5 109.5L581.5 109.5" fill-rule="nonzero"/><path stroke="#cccccc" stroke-width="1.0" stroke-linecap="butt" d="M105.5 61.5L581.5 61.5" fill-rule="nonzero"/><clipPath id="id_0"><path d="M105.55 61.916668L581.45 61.916668L581.45 300.45L105.55 300.45L105.55 61.916668Z" clip-rule="nonzero"/></clipPath><path fill="#4285f4" clip-path="url(#id_0)" d="M116.84996 300.4258C116.84996 302.9111 114.83524 304.9258 112.34996 304.9258C109.86468 304.9258 107.84996 302.9111 107.84996 300.4258C107.84996 297.94055 109.86468 295.9258 112.34996 295.9258C114.83524 295.9258 116.84996 297.94055 116.84996 300.4258Z" fill-rule="nonzero"/><path fill="#4285f4" clip-path="url(#id_0)" d="M117.075806 300.40768C117.075806 302.89297 115.06108 304.90768 112.575806 304.90768C110.09052 304.90768 108.075806 302.89297 108.075806 300.40768C108.075806 297.92242 110.09052 295.90768 112.575806 295.90768C115.06108 295.90768 117.075806 297.92242 117.075806 300.40768Z" fill-rule="nonzero"/><path fill="#4285f4" clip-path="url(#id_0)" d="M117.52749 300.36826C117.52749 302.85355 115.51277 304.86826 113.02749 304.86826C110.542206 304.86826 108.52749 302.85355 108.52749 300.36826C108.52749 297.88297 110.542206 295.86826 113.02749 295.86826C115.51277 295.86826 117.52749 297.88297 117.52749 300.36826Z" fill-rule="nonzero"/><path fill="#4285f4" clip-path="url(#id_0)" d="M118.430855 300.28204C118.430855 302.76733 116.41614 304.78204 113.930855 304.78204C111.44558 304.78204 109.430855 302.76733 109.430855 300.28204C109.430855 297.79678 111.44558 295.78204 113.930855 295.78204C116.41614 295.78204 118.430855 297.79678 118.430855 300.28204Z" fill-rule="nonzero"/><path fill="#4285f4" clip-path="url(#id_0)" d="M120.2376 300.07877C120.2376 302.56403 118.222885 304.57877 115.7376 304.57877C113.25232 304.57877 111.2376 302.56403 111.2376 300.07877C111.2376 297.59348 113.25232 295.57877 115.7376 295.57877C118.222885 295.57877 120.2376 297.59348 120.2376 300.07877Z" fill-rule="nonzero"/><path fill="#4285f4" clip-path="url(#id_0)" d="M123.85108 299.6514C123.85108 302.1367 121.836365 304.1514 119.35108 304.1514C116.8658 304.1514 114.85108 302.1367 114.85108 299.6514C114.85108 297.16614 116.8658 295.1514 119.35108 295.1514C121.836365 295.1514 123.85108 297.16614 123.85108 299.6514Z" fill-rule="nonzero"/><path fill="#4285f4" clip-path="url(#id_0)" d="M131.07805 298.72943C131.07805 301.2147 129.06334 303.22943 126.57805 303.22943C124.09277 303.22943 122.07805 301.2147 122.07805 298.72943C122.07805 296.24414 124.09277 294.22943 126.57805 294.22943C129.06334 294.22943 131.07805 296.24414 131.07805 298.72943Z" fill-rule="nonzero"/><path fill="#4285f4" clip-path="url(#id_0)" d="M145.53198 296.5096C145.53198 298.9949 143.51727 301.0096 141.03198 301.0096C138.5467 301.0096 136.53198 298.9949 136.53198 296.5096C136.53198 294.02432 138.5467 292.0096 141.03198 292.0096C143.51727 292.0096 145.53198 294.02432 145.53198 296.5096Z" fill-rule="nonzero"/><path fill="#4285f4" clip-path="url(#id_0)" d="M174.43985 291.65744C174.43985 294.1427 172.42514 296.15744 169.93985 296.15744C167.45457 296.15744 165.43985 294.1427 165.43985 291.65744C165.43985 289.17215 167.45457 287.15744 169.93985 287.15744C172.42514 287.15744 174.43985 289.17215 174.43985 291.65744Z" fill-rule="nonzero"/><path fill="#4285f4" clip-path="url(#id_0)" d="M232.2556 282.50674C232.2556 284.992 230.24088 287.00674 227.7556 287.00674C225.27031 287.00674 223.2556 284.992 223.2556 282.50674C223.2556 280.02145 225.27031 278.00674 227.7556 278.00674C230.24088 278.00674 232.2556 280.02145 232.2556 282.50674Z" fill-rule="nonzero"/><path fill="#4285f4" clip-path="url(#id_0)" d="M347.8871 246.9219C347.8871 249.40718 345.87234 251.4219 343.3871 251.4219C340.9018 251.4219 338.8871 249.40718 338.8871 246.9219C338.8871 244.43661 340.9018 242.4219 343.3871 242.4219C345.87234 242.4219 347.8871 244.43661 347.8871 246.9219Z" fill-rule="nonzero"/><path fill="#4285f4" clip-path="url(#id_0)" d="M579.15 103.37607C579.15 105.86134 577.1353 107.87607 574.65 107.87607C572.16473 107.87607 570.15 105.86134 570.15 103.37607C570.15 100.890785 572.16473 98.87607 574.65 98.87607C577.1353 98.87607 579.15 100.890785 579.15 103.37607Z" fill-rule="nonzero"/><path fill="#000000" d="M322.54688 346.6844L323.60938 346.59064Q323.6875 347.2469 323.96875 347.65314Q324.25 348.0594 324.82812 348.325Q325.42188 348.575 326.15625 348.575Q326.79688 348.575 327.29688 348.3875Q327.79688 348.1844 328.03125 347.85626Q328.28125 347.5125 328.28125 347.1219Q328.28125 346.71564 328.04688 346.41876Q327.8125 346.10626 327.28125 345.90314Q326.92188 345.7625 325.73438 345.48126Q324.5625 345.2 324.09375 344.95Q323.46875 344.6219 323.17188 344.15314Q322.875 343.66876 322.875 343.075Q322.875 342.4344 323.23438 341.8719Q323.60938 341.29376 324.3125 341.0125Q325.03125 340.71564 325.89062 340.71564Q326.84375 340.71564 327.57812 341.02814Q328.3125 341.325 328.70312 341.9344Q329.09375 342.52814 329.125 343.27814L328.03125 343.35626Q327.9375 342.54376 327.42188 342.1375Q326.92188 341.71564 325.9375 341.71564Q324.90625 341.71564 324.4375 342.09064Q323.96875 342.46564 323.96875 342.9969Q323.96875 343.46564 324.29688 343.7625Q324.625 344.0594 326.0 344.3719Q327.39062 344.6844 327.90625 344.91876Q328.65625 345.27814 329.01562 345.8094Q329.375 346.325 329.375 347.02814Q329.375 347.71564 328.98438 348.325Q328.59375 348.91876 327.85938 349.2625Q327.125 349.59064 326.20312 349.59064Q325.03125 349.59064 324.23438 349.2625Q323.45312 348.91876 323.0 348.23126Q322.5625 347.54376 322.54688 346.6844ZM330.79688 342.075L330.79688 340.85626L331.85938 340.85626L331.85938 342.075L330.79688 342.075ZM330.79688 349.45L330.79688 343.23126L331.85938 343.23126L331.85938 349.45L330.79688 349.45ZM333.23438 349.45L333.23438 348.59064L337.20312 344.04376Q336.51562 344.075 336.0 344.075L333.46875 344.075L333.46875 343.23126L338.5625 343.23126L338.5625 343.91876L335.1875 347.8719L334.53125 348.59064Q335.25 348.54376 335.85938 348.54376L338.75 348.54376L338.75 349.45L333.23438 349.45ZM343.04688 347.45L344.14062 347.575Q343.89062 348.52814 343.1875 349.0594Q342.48438 349.59064 341.40625 349.59064Q340.04688 349.59064 339.23438 348.7469Q338.4375 347.90314 338.4375 346.3875Q338.4375 344.825 339.25 343.96564Q340.0625 343.09064 341.34375 343.09064Q342.59375 343.09064 343.375 343.9344Q344.17188 344.77814 344.17188 346.325Q344.17188 346.41876 344.17188 346.60626L339.53125 346.60626Q339.59375 347.6375 340.10938 348.1844Q340.625 348.71564 341.40625 348.71564Q341.98438 348.71564 342.39062 348.41876Q342.8125 348.10626 343.04688 347.45ZM339.59375 345.7469L343.0625 345.7469Q343.0 344.95 342.67188 344.5594Q342.15625 343.95 341.35938 343.95Q340.625 343.95 340.125 344.4344Q339.64062 344.91876 339.59375 345.7469ZM350.8125 351.98126Q349.9375 350.8719 349.32812 349.40314Q348.73438 347.91876 348.73438 346.34064Q348.73438 344.95 349.17188 343.66876Q349.70312 342.1844 350.8125 340.71564L351.5625 340.71564Q350.85938 341.9344 350.625 342.45Q350.26562 343.2625 350.0625 344.1375Q349.8125 345.23126 349.8125 346.34064Q349.8125 349.16876 351.5625 351.98126L350.8125 351.98126ZM352.92188 349.45L352.92188 340.85626L354.07812 340.85626L358.59375 347.60626L358.59375 340.85626L359.6875 340.85626L359.6875 349.45L358.51562 349.45L354.0 342.7L354.0 349.45L352.92188 349.45ZM362.48438 351.98126L361.73438 351.98126Q363.48438 349.16876 363.48438 346.34064Q363.48438 345.2469 363.23438 344.15314Q363.03125 343.27814 362.67188 342.46564Q362.4375 341.95 361.73438 340.71564L362.48438 340.71564Q363.57812 342.1844 364.10938 343.66876Q364.5625 344.95 364.5625 346.34064Q364.5625 347.91876 363.95312 349.40314Q363.34375 350.8719 362.48438 351.98126Z" fill-rule="nonzero"/><path fill="#000000" d="M29.550013 242.07396L21.971888 242.07396L21.971888 244.90208L20.956263 244.90208L20.956263 238.08958L21.971888 238.08958L21.971888 240.93333L29.550013 240.93333L29.550013 242.07396ZM22.175013 237.38646L20.956263 237.38646L20.956263 236.32396L22.175013 236.32396L22.175013 237.38646ZM29.550013 237.38646L23.331263 237.38646L23.331263 236.32396L29.550013 236.32396L29.550013 237.38646ZM29.550013 234.38646L23.331263 234.38646L23.331263 233.44896L24.206263 233.44896Q23.737513 233.15208 23.471888 232.66771Q23.190638 232.18333 23.190638 231.55833Q23.190638 230.87083 23.471888 230.43333Q23.753138 229.98021 24.268763 229.80833Q23.190638 229.05833 23.190638 227.88646Q23.190638 226.94896 23.706263 226.46458Q24.206263 225.96458 25.284388 225.96458L29.550013 225.96458L29.550013 227.01146L25.628138 227.01146Q25.003138 227.01146 24.721888 227.12083Q24.440638 227.21458 24.268763 227.48021Q24.096888 227.74583 24.096888 228.12083Q24.096888 228.77708 24.534388 229.21458Q24.971888 229.63646 25.940638 229.63646L29.550013 229.63646L29.550013 230.69896L25.503138 230.69896Q24.800013 230.69896 24.456263 230.96458Q24.096888 231.21458 24.096888 231.79271Q24.096888 232.24583 24.331263 232.62083Q24.565638 232.99583 25.018763 233.16771Q25.471888 233.33958 26.315638 233.33958L29.550013 233.33958L29.550013 234.38646ZM27.550013 219.13646L27.675013 218.04271Q28.628138 218.29271 29.159388 218.99583Q29.690638 219.69896 29.690638 220.77708Q29.690638 222.13646 28.846888 222.94896Q28.003138 223.74583 26.487513 223.74583Q24.925013 223.74583 24.065638 222.93333Q23.190638 222.12083 23.190638 220.83958Q23.190638 219.58958 24.034388 218.80833Q24.878138 218.01146 26.425013 218.01146Q26.518763 218.01146 26.706263 218.01146L26.706263 222.65208Q27.737513 222.58958 28.284388 222.07396Q28.815638 221.55833 28.815638 220.77708Q28.815638 220.19896 28.518763 219.79271Q28.206263 219.37083 27.550013 219.13646ZM25.846888 222.58958L25.846888 219.12083Q25.050013 219.18333 24.659388 219.51146Q24.050013 220.02708 24.050013 220.82396Q24.050013 221.55833 24.534388 222.05833Q25.018763 222.54271 25.846888 222.58958ZM32.08126 211.37083Q30.971888 212.24583 29.503138 212.85521Q28.018763 213.44896 26.440638 213.44896Q25.050013 213.44896 23.768763 213.01146Q22.284388 212.48021 20.815638 211.37083L20.815638 210.62083Q22.034388 211.32396 22.550013 211.55833Q23.362513 211.91771 24.237513 212.12083Q25.331263 212.37083 26.440638 212.37083Q29.268763 212.37083 32.08126 210.62083L32.08126 211.37083ZM29.550013 209.38646L23.331263 209.38646L23.331263 208.44896L24.206263 208.44896Q23.190638 207.76146 23.190638 206.46458Q23.190638 205.90208 23.393763 205.43333Q23.596888 204.94896 23.925013 204.71458Q24.253138 204.48021 24.690638 204.38646Q24.987513 204.33958 25.721888 204.33958L29.550013 204.33958L29.550013 205.38646L25.768763 205.38646Q25.112513 205.38646 24.800013 205.51146Q24.487513 205.63646 24.300013 205.94896Q24.096888 206.26146 24.096888 206.68333Q24.096888 207.35521 24.534388 207.85521Q24.956263 208.33958 26.143763 208.33958L29.550013 208.33958L29.550013 209.38646ZM28.784388 198.32396Q29.284388 198.91771 29.487513 199.46458Q29.690638 199.99583 29.690638 200.62083Q29.690638 201.65208 29.190638 202.19896Q28.690638 202.74583 27.909388 202.74583Q27.456263 202.74583 27.081263 202.54271Q26.690638 202.33958 26.471888 201.99583Q26.237513 201.65208 26.128138 201.23021Q26.034388 200.93333 25.956263 200.29271Q25.815638 199.02708 25.596888 198.41771Q25.378138 198.41771 25.331263 198.41771Q24.675013 198.41771 24.409388 198.71458Q24.065638 199.12083 24.065638 199.91771Q24.065638 200.65208 24.331263 201.01146Q24.581263 201.37083 25.237513 201.54271L25.096888 202.57396Q24.440638 202.43333 24.034388 202.10521Q23.628138 201.77708 23.409388 201.16771Q23.190638 200.55833 23.190638 199.76146Q23.190638 198.96458 23.378138 198.46458Q23.565638 197.96458 23.846888 197.73021Q24.128138 197.49583 24.565638 197.40208Q24.831263 197.35521 25.534388 197.35521L26.940638 197.35521Q28.409388 197.35521 28.800013 197.29271Q29.190638 197.21458 29.550013 197.01146L29.550013 198.12083Q29.221888 198.27708 28.784388 198.32396ZM26.425013 198.41771Q26.659388 198.99583 26.831263 200.13646Q26.925013 200.79271 27.050013 201.05833Q27.159388 201.32396 27.378138 201.48021Q27.596888 201.62083 27.878138 201.62083Q28.300013 201.62083 28.581263 201.30833Q28.862513 200.98021 28.862513 200.37083Q28.862513 199.76146 28.596888 199.29271Q28.331263 198.80833 27.862513 198.58958Q27.503138 198.41771 26.815638 198.41771L26.425013 198.41771ZM29.550013 195.38646L23.331263 195.38646L23.331263 194.44896L24.206263 194.44896Q23.190638 193.76146 23.190638 192.46458Q23.190638 191.90208 23.393763 191.43333Q23.596888 190.94896 23.925013 190.71458Q24.253138 190.48021 24.690638 190.38646Q24.987513 190.33958 25.721888 190.33958L29.550013 190.33958L29.550013 191.38646L25.768763 191.38646Q25.112513 191.38646 24.800013 191.51146Q24.487513 191.63646 24.300013 191.94896Q24.096888 192.26146 24.096888 192.68333Q24.096888 193.35521 24.534388 193.85521Q24.956263 194.33958 26.143763 194.33958L29.550013 194.33958L29.550013 195.38646ZM26.440638 188.77708Q24.706263 188.77708 23.878138 187.82396Q23.190638 187.02708 23.190638 185.87083Q23.190638 184.58958 24.034388 183.77708Q24.862513 182.94896 26.346888 182.94896Q27.550013 182.94896 28.237513 183.30833Q28.925013 183.66771 29.315638 184.37083Q29.690638 185.05833 29.690638 185.87083Q29.690638 187.16771 28.862513 187.98021Q28.018763 188.77708 26.440638 188.77708ZM26.440638 187.69896Q27.628138 187.69896 28.221888 187.18333Q28.815638 186.65208 28.815638 185.87083Q28.815638 185.07396 28.221888 184.55833Q27.628138 184.04271 26.409388 184.04271Q25.253138 184.04271 24.659388 184.57396Q24.065638 185.08958 24.065638 185.87083Q24.065638 186.65208 24.659388 187.18333Q25.237513 187.69896 26.440638 187.69896ZM27.690638 181.80833L27.534388 180.77708Q28.159388 180.68333 28.487513 180.29271Q28.815638 179.88646 28.815638 179.15208Q28.815638 178.43333 28.534388 178.08958Q28.237513 177.73021 27.831263 177.73021Q27.471888 177.73021 27.268763 178.04271Q27.128138 178.26146 26.909388 179.12083Q26.612513 180.27708 26.409388 180.73021Q26.190638 181.16771 25.815638 181.40208Q25.440638 181.63646 24.971888 181.63646Q24.565638 181.63646 24.206263 181.44896Q23.846888 181.26146 23.612513 180.93333Q23.440638 180.68333 23.315638 180.26146Q23.190638 179.83958 23.190638 179.33958Q23.190638 178.62083 23.409388 178.07396Q23.612513 177.51146 23.971888 177.24583Q24.331263 176.98021 24.925013 176.88646L25.065638 177.91771Q24.596888 177.98021 24.331263 178.32396Q24.050013 178.65208 24.050013 179.27708Q24.050013 179.99583 24.300013 180.30833Q24.534388 180.62083 24.862513 180.62083Q25.065638 180.62083 25.221888 180.49583Q25.393763 180.35521 25.503138 180.08958Q25.565638 179.93333 25.768763 179.15208Q26.081263 178.02708 26.268763 177.58958Q26.456263 177.15208 26.815638 176.90208Q27.175013 176.65208 27.721888 176.65208Q28.253138 176.65208 28.721888 176.96458Q29.175013 177.26146 29.440638 177.83958Q29.690638 178.41771 29.690638 179.15208Q29.690638 180.37083 29.190638 181.01146Q28.675013 181.63646 27.690638 181.80833ZM27.550013 170.13646L27.675013 169.04271Q28.628138 169.29271 29.159388 169.99583Q29.690638 170.69896 29.690638 171.77708Q29.690638 173.13646 28.846888 173.94896Q28.003138 174.74583 26.487513 174.74583Q24.925013 174.74583 24.065638 173.93333Q23.190638 173.12083 23.190638 171.83958Q23.190638 170.58958 24.034388 169.80833Q24.878138 169.01146 26.425013 169.01146Q26.518763 169.01146 26.706263 169.01146L26.706263 173.65208Q27.737513 173.58958 28.284388 173.07396Q28.815638 172.55833 28.815638 171.77708Q28.815638 171.19896 28.518763 170.79271Q28.206263 170.37083 27.550013 170.13646ZM25.846888 173.58958L25.846888 170.12083Q25.050013 170.18333 24.659388 170.51146Q24.050013 171.02708 24.050013 171.82396Q24.050013 172.55833 24.534388 173.05833Q25.018763 173.54271 25.846888 173.58958ZM27.268763 163.32396L27.409388 162.29271Q28.471888 162.46458 29.081263 163.16771Q29.690638 163.87083 29.690638 164.88646Q29.690638 166.16771 28.862513 166.94896Q28.018763 167.71458 26.456263 167.71458Q25.456263 167.71458 24.706263 167.38646Q23.940638 167.04271 23.565638 166.37083Q23.190638 165.68333 23.190638 164.87083Q23.190638 163.87083 23.706263 163.23021Q24.206263 162.57396 25.159388 162.38646L25.315638 163.41771Q24.690638 163.55833 24.378138 163.93333Q24.050013 164.30833 24.050013 164.83958Q24.050013 165.63646 24.628138 166.13646Q25.190638 166.63646 26.425013 166.63646Q27.690638 166.63646 28.253138 166.15208Q28.815638 165.66771 28.815638 164.90208Q28.815638 164.27708 28.440638 163.87083Q28.065638 163.44896 27.268763 163.32396ZM26.440638 161.77708Q24.706263 161.77708 23.878138 160.82396Q23.190638 160.02708 23.190638 158.87083Q23.190638 157.58958 24.034388 156.77708Q24.862513 155.94896 26.346888 155.94896Q27.550013 155.94896 28.237513 156.30833Q28.925013 156.66771 29.315638 157.37083Q29.690638 158.05833 29.690638 158.87083Q29.690638 160.16771 28.862513 160.98021Q28.018763 161.77708 26.440638 161.77708ZM26.440638 160.69896Q27.628138 160.69896 28.221888 160.18333Q28.815638 159.65208 28.815638 158.87083Q28.815638 158.07396 28.221888 157.55833Q27.628138 157.04271 26.409388 157.04271Q25.253138 157.04271 24.659388 157.57396Q24.065638 158.08958 24.065638 158.87083Q24.065638 159.65208 24.659388 160.18333Q25.237513 160.69896 26.440638 160.69896ZM29.550013 154.38646L23.331263 154.38646L23.331263 153.44896L24.206263 153.44896Q23.190638 152.76146 23.190638 151.46458Q23.190638 150.90208 23.393763 150.43333Q23.596888 149.94896 23.925013 149.71458Q24.253138 149.48021 24.690638 149.38646Q24.987513 149.33958 25.721888 149.33958L29.550013 149.33958L29.550013 150.38646L25.768763 150.38646Q25.112513 150.38646 24.800013 150.51146Q24.487513 150.63646 24.300013 150.94896Q24.096888 151.26146 24.096888 151.68333Q24.096888 152.35521 24.534388 152.85521Q24.956263 153.33958 26.143763 153.33958L29.550013 153.33958L29.550013 154.38646ZM29.550013 143.35521L28.768763 143.35521Q29.690638 143.94896 29.690638 145.08958Q29.690638 145.83958 29.284388 146.46458Q28.862513 147.08958 28.128138 147.43333Q27.393763 147.77708 26.440638 147.77708Q25.518763 147.77708 24.753138 147.46458Q23.987513 147.15208 23.596888 146.52708Q23.190638 145.90208 23.190638 145.13646Q23.190638 144.57396 23.425013 144.13646Q23.659388 143.69896 24.034388 143.41771L20.956263 143.41771L20.956263 142.37083L29.550013 142.37083L29.550013 143.35521ZM26.440638 146.68333Q27.643763 146.68333 28.237513 146.18333Q28.815638 145.68333 28.815638 144.99583Q28.815638 144.30833 28.253138 143.82396Q27.690638 143.33958 26.534388 143.33958Q25.253138 143.33958 24.659388 143.83958Q24.065638 144.32396 24.065638 145.04271Q24.065638 145.74583 24.643763 146.21458Q25.206263 146.68333 26.440638 146.68333ZM27.690638 140.80833L27.534388 139.77708Q28.159388 139.68333 28.487513 139.29271Q28.815638 138.88646 28.815638 138.15208Q28.815638 137.43333 28.534388 137.08958Q28.237513 136.73021 27.831263 136.73021Q27.471888 136.73021 27.268763 137.04271Q27.128138 137.26146 26.909388 138.12083Q26.612513 139.27708 26.409388 139.73021Q26.190638 140.16771 25.815638 140.40208Q25.440638 140.63646 24.971888 140.63646Q24.565638 140.63646 24.206263 140.44896Q23.846888 140.26146 23.612513 139.93333Q23.440638 139.68333 23.315638 139.26146Q23.190638 138.83958 23.190638 138.33958Q23.190638 137.62083 23.409388 137.07396Q23.612513 136.51146 23.971888 136.24583Q24.331263 135.98021 24.925013 135.88646L25.065638 136.91771Q24.596888 136.98021 24.331263 137.32396Q24.050013 137.65208 24.050013 138.27708Q24.050013 138.99583 24.300013 139.30833Q24.534388 139.62083 24.862513 139.62083Q25.065638 139.62083 25.221888 139.49583Q25.393763 139.35521 25.503138 139.08958Q25.565638 138.93333 25.768763 138.15208Q26.081263 137.02708 26.268763 136.58958Q26.456263 136.15208 26.815638 135.90208Q27.175013 135.65208 27.721888 135.65208Q28.253138 135.65208 28.721888 135.96458Q29.175013 136.26146 29.440638 136.83958Q29.690638 137.41771 29.690638 138.15208Q29.690638 139.37083 29.190638 140.01146Q28.675013 140.63646 27.690638 140.80833ZM32.08126 132.69896L32.08126 133.44896Q29.268763 131.69896 26.440638 131.69896Q25.346888 131.69896 24.253138 131.94896Q23.378138 132.15208 22.565638 132.51146Q22.050013 132.74583 20.815638 133.44896L20.815638 132.69896Q22.284388 131.60521 23.768763 131.07396Q25.050013 130.62083 26.440638 130.62083Q28.018763 130.62083 29.503138 131.23021Q30.971888 131.83958 32.08126 132.69896Z" fill-rule="nonzero"/><path fill="#000000" d="M93.05 300.21564Q93.05 298.6844 93.3625 297.7625Q93.675 296.825 94.28438 296.325Q94.90938 295.825 95.84688 295.825Q96.53438 295.825 97.05 296.10626Q97.58125 296.3875 97.925 296.91876Q98.26875 297.4344 98.45625 298.1844Q98.64375 298.9344 98.64375 300.21564Q98.64375 301.73126 98.33125 302.65314Q98.03438 303.575 97.40938 304.09064Q96.8 304.59064 95.84688 304.59064Q94.6125 304.59064 93.89375 303.7Q93.05 302.6375 93.05 300.21564ZM94.12813 300.21564Q94.12813 302.325 94.62813 303.02814Q95.12813 303.73126 95.84688 303.73126Q96.58125 303.73126 97.06563 303.02814Q97.56563 302.325 97.56563 300.21564Q97.56563 298.09064 97.06563 297.40314Q96.58125 296.7 95.83125 296.7Q95.1125 296.7 94.675 297.3094Q94.12813 298.09064 94.12813 300.21564Z" fill-rule="nonzero"/><path fill="#000000" d="M63.596874 255.72772L63.596874 256.74335L57.909374 256.74335Q57.909374 256.36835 58.034374 256.00897Q58.253124 255.43085 58.721874 254.86835Q59.20625 254.30585 60.1125 253.57147Q61.51875 252.41522 62.003124 251.74335Q62.503124 251.07147 62.503124 250.47772Q62.503124 249.85272 62.05 249.43085Q61.596874 248.99335 60.878124 248.99335Q60.1125 248.99335 59.659374 249.44647Q59.20625 249.8996 59.190624 250.7121L58.1125 250.60272Q58.221874 249.38397 58.940624 248.75897Q59.675 248.11835 60.909374 248.11835Q62.14375 248.11835 62.8625 248.80585Q63.58125 249.49335 63.58125 250.50897Q63.58125 251.0246 63.3625 251.5246Q63.159374 252.00897 62.659374 252.57147Q62.175 253.11835 61.05 254.07147Q60.096874 254.86835 59.815624 255.16522Q59.55 255.44647 59.378124 255.72772L63.596874 255.72772ZM65.05 254.49335L66.15938 254.3996Q66.28438 255.2121 66.72188 255.61835Q67.175 256.0246 67.81563 256.0246Q68.56563 256.0246 69.09688 255.44647Q69.62813 254.86835 69.62813 253.93085Q69.62813 253.0246 69.1125 252.50897Q68.6125 251.97772 67.78438 251.97772Q67.28438 251.97772 66.8625 252.2121Q66.45625 252.44647 66.22188 252.80585L65.2375 252.68085L66.06563 248.2746L70.34688 248.2746L70.34688 249.2746L66.90938 249.2746L66.45625 251.5871Q67.22188 251.04022 68.06563 251.04022Q69.19063 251.04022 69.95625 251.82147Q70.7375 252.60272 70.7375 253.8371Q70.7375 254.99335 70.06563 255.85272Q69.2375 256.88397 67.81563 256.88397Q66.64375 256.88397 65.89375 256.22772Q65.15938 255.57147 65.05 254.49335ZM72.05 252.50897Q72.05 250.97772 72.3625 250.05585Q72.675 249.11835 73.28438 248.61835Q73.90938 248.11835 74.84688 248.11835Q75.53438 248.11835 76.05 248.3996Q76.58125 248.68085 76.925 249.2121Q77.26875 249.72772 77.45625 250.47772Q77.64375 251.22772 77.64375 252.50897Q77.64375 254.0246 77.33125 254.94647Q77.03438 255.86835 76.40938 256.38397Q75.8 256.88397 74.84688 256.88397Q73.6125 256.88397 72.89375 255.99335Q72.05 254.93085 72.05 252.50897ZM73.12813 252.50897Q73.12813 254.61835 73.62813 255.32147Q74.12813 256.0246 74.84688 256.0246Q75.58125 256.0246 76.06563 255.32147Q76.56563 254.61835 76.56563 252.50897Q76.56563 250.38397 76.06563 249.69647Q75.58125 248.99335 74.83125 248.99335Q74.1125 248.99335 73.675 249.60272Q73.12813 250.38397 73.12813 252.50897ZM79.05 252.50897Q79.05 250.97772 79.3625 250.05585Q79.675 249.11835 80.28438 248.61835Q80.90938 248.11835 81.84688 248.11835Q82.53438 248.11835 83.05 248.3996Q83.58125 248.68085 83.925 249.2121Q84.26875 249.72772 84.45625 250.47772Q84.64375 251.22772 84.64375 252.50897Q84.64375 254.0246 84.33125 254.94647Q84.03438 255.86835 83.40938 256.38397Q82.8 256.88397 81.84688 256.88397Q80.6125 256.88397 79.89375 255.99335Q79.05 254.93085 79.05 252.50897ZM80.12813 252.50897Q80.12813 254.61835 80.62813 255.32147Q81.12813 256.0246 81.84688 256.0246Q82.58125 256.0246 83.06563 255.32147Q83.56563 254.61835 83.56563 252.50897Q83.56563 250.38397 83.06563 249.69647Q82.58125 248.99335 81.83125 248.99335Q81.1125 248.99335 80.675 249.60272Q80.12813 250.38397 80.12813 252.50897ZM86.05 252.50897Q86.05 250.97772 86.3625 250.05585Q86.675 249.11835 87.28438 248.61835Q87.90938 248.11835 88.84688 248.11835Q89.53438 248.11835 90.05 248.3996Q90.58125 248.68085 90.925 249.2121Q91.26875 249.72772 91.45625 250.47772Q91.64375 251.22772 91.64375 252.50897Q91.64375 254.0246 91.33125 254.94647Q91.03438 255.86835 90.40938 256.38397Q89.8 256.88397 88.84688 256.88397Q87.6125 256.88397 86.89375 255.99335Q86.05 254.93085 86.05 252.50897ZM87.12813 252.50897Q87.12813 254.61835 87.62813 255.32147Q88.12813 256.0246 88.84688 256.0246Q89.58125 256.0246 90.06563 255.32147Q90.56563 254.61835 90.56563 252.50897Q90.56563 250.38397 90.06563 249.69647Q89.58125 248.99335 88.83125 248.99335Q88.1125 248.99335 87.675 249.60272Q87.12813 250.38397 87.12813 252.50897ZM93.05 252.50897Q93.05 250.97772 93.3625 250.05585Q93.675 249.11835 94.28438 248.61835Q94.90938 248.11835 95.84688 248.11835Q96.53438 248.11835 97.05 248.3996Q97.58125 248.68085 97.925 249.2121Q98.26875 249.72772 98.45625 250.47772Q98.64375 251.22772 98.64375 252.50897Q98.64375 254.0246 98.33125 254.94647Q98.03438 255.86835 97.40938 256.38397Q96.8 256.88397 95.84688 256.88397Q94.6125 256.88397 93.89375 255.99335Q93.05 254.93085 93.05 252.50897ZM94.12813 252.50897Q94.12813 254.61835 94.62813 255.32147Q95.12813 256.0246 95.84688 256.0246Q96.58125 256.0246 97.06563 255.32147Q97.56563 254.61835 97.56563 252.50897Q97.56563 250.38397 97.06563 249.69647Q96.58125 248.99335 95.83125 248.99335Q95.1125 248.99335 94.675 249.60272Q94.12813 250.38397 94.12813 252.50897Z" fill-rule="nonzero"/><path fill="#000000" d="M58.05 206.78667L59.159374 206.69292Q59.284374 207.50542 59.721874 207.91167Q60.175 208.31792 60.815624 208.31792Q61.565624 208.31792 62.096874 207.73979Q62.628124 207.16167 62.628124 206.22417Q62.628124 205.31792 62.1125 204.80229Q61.6125 204.27104 60.784374 204.27104Q60.284374 204.27104 59.8625 204.50542Q59.45625 204.73979 59.221874 205.09917L58.2375 204.97417L59.065624 200.56792L63.346874 200.56792L63.346874 201.56792L59.909374 201.56792L59.45625 203.88042Q60.221874 203.33354 61.065624 203.33354Q62.190624 203.33354 62.95625 204.11479Q63.7375 204.89604 63.7375 206.13042Q63.7375 207.28667 63.065624 208.14604Q62.2375 209.17729 60.815624 209.17729Q59.64375 209.17729 58.89375 208.52104Q58.159374 207.86479 58.05 206.78667ZM65.05 204.80229Q65.05 203.27104 65.3625 202.34917Q65.675 201.41167 66.28438 200.91167Q66.90938 200.41167 67.84688 200.41167Q68.53438 200.41167 69.05 200.69292Q69.58125 200.97417 69.925 201.50542Q70.26875 202.02104 70.45625 202.77104Q70.64375 203.52104 70.64375 204.80229Q70.64375 206.31792 70.33125 207.23979Q70.03438 208.16167 69.40938 208.67729Q68.8 209.17729 67.84688 209.17729Q66.6125 209.17729 65.89375 208.28667Q65.05 207.22417 65.05 204.80229ZM66.12813 204.80229Q66.12813 206.91167 66.62813 207.61479Q67.12813 208.31792 67.84688 208.31792Q68.58125 208.31792 69.06563 207.61479Q69.56563 206.91167 69.56563 204.80229Q69.56563 202.67729 69.06563 201.98979Q68.58125 201.28667 67.83125 201.28667Q67.1125 201.28667 66.675 201.89604Q66.12813 202.67729 66.12813 204.80229ZM72.05 204.80229Q72.05 203.27104 72.3625 202.34917Q72.675 201.41167 73.28438 200.91167Q73.90938 200.41167 74.84688 200.41167Q75.53438 200.41167 76.05 200.69292Q76.58125 200.97417 76.925 201.50542Q77.26875 202.02104 77.45625 202.77104Q77.64375 203.52104 77.64375 204.80229Q77.64375 206.31792 77.33125 207.23979Q77.03438 208.16167 76.40938 208.67729Q75.8 209.17729 74.84688 209.17729Q73.6125 209.17729 72.89375 208.28667Q72.05 207.22417 72.05 204.80229ZM73.12813 204.80229Q73.12813 206.91167 73.62813 207.61479Q74.12813 208.31792 74.84688 208.31792Q75.58125 208.31792 76.06563 207.61479Q76.56563 206.91167 76.56563 204.80229Q76.56563 202.67729 76.06563 201.98979Q75.58125 201.28667 74.83125 201.28667Q74.1125 201.28667 73.675 201.89604Q73.12813 202.67729 73.12813 204.80229ZM79.05 204.80229Q79.05 203.27104 79.3625 202.34917Q79.675 201.41167 80.28438 200.91167Q80.90938 200.41167 81.84688 200.41167Q82.53438 200.41167 83.05 200.69292Q83.58125 200.97417 83.925 201.50542Q84.26875 202.02104 84.45625 202.77104Q84.64375 203.52104 84.64375 204.80229Q84.64375 206.31792 84.33125 207.23979Q84.03438 208.16167 83.40938 208.67729Q82.8 209.17729 81.84688 209.17729Q80.6125 209.17729 79.89375 208.28667Q79.05 207.22417 79.05 204.80229ZM80.12813 204.80229Q80.12813 206.91167 80.62813 207.61479Q81.12813 208.31792 81.84688 208.31792Q82.58125 208.31792 83.06563 207.61479Q83.56563 206.91167 83.56563 204.80229Q83.56563 202.67729 83.06563 201.98979Q82.58125 201.28667 81.83125 201.28667Q81.1125 201.28667 80.675 201.89604Q80.12813 202.67729 80.12813 204.80229ZM86.05 204.80229Q86.05 203.27104 86.3625 202.34917Q86.675 201.41167 87.28438 200.91167Q87.90938 200.41167 88.84688 200.41167Q89.53438 200.41167 90.05 200.69292Q90.58125 200.97417 90.925 201.50542Q91.26875 202.02104 91.45625 202.77104Q91.64375 203.52104 91.64375 204.80229Q91.64375 206.31792 91.33125 207.23979Q91.03438 208.16167 90.40938 208.67729Q89.8 209.17729 88.84688 209.17729Q87.6125 209.17729 86.89375 208.28667Q86.05 207.22417 86.05 204.80229ZM87.12813 204.80229Q87.12813 206.91167 87.62813 207.61479Q88.12813 208.31792 88.84688 208.31792Q89.58125 208.31792 90.06563 207.61479Q90.56563 206.91167 90.56563 204.80229Q90.56563 202.67729 90.06563 201.98979Q89.58125 201.28667 88.83125 201.28667Q88.1125 201.28667 87.675 201.89604Q87.12813 202.67729 87.12813 204.80229ZM93.05 204.80229Q93.05 203.27104 93.3625 202.34917Q93.675 201.41167 94.28438 200.91167Q94.90938 200.41167 95.84688 200.41167Q96.53438 200.41167 97.05 200.69292Q97.58125 200.97417 97.925 201.50542Q98.26875 202.02104 98.45625 202.77104Q98.64375 203.52104 98.64375 204.80229Q98.64375 206.31792 98.33125 207.23979Q98.03438 208.16167 97.40938 208.67729Q96.8 209.17729 95.84688 209.17729Q94.6125 209.17729 93.89375 208.28667Q93.05 207.22417 93.05 204.80229ZM94.12813 204.80229Q94.12813 206.91167 94.62813 207.61479Q95.12813 208.31792 95.84688 208.31792Q96.58125 208.31792 97.06563 207.61479Q97.56563 206.91167 97.56563 204.80229Q97.56563 202.67729 97.06563 201.98979Q96.58125 201.28667 95.83125 201.28667Q95.1125 201.28667 94.675 201.89604Q94.12813 202.67729 94.12813 204.80229Z" fill-rule="nonzero"/><path fill="#000000" d="M58.1125 153.86125L58.1125 152.84563L63.675 152.84563L63.675 153.67375Q62.8625 154.54875 62.05 156.00188Q61.253124 157.43938 60.815624 158.97063Q60.4875 160.04875 60.409374 161.33L59.315624 161.33Q59.33125 160.31438 59.70625 158.87688Q60.096874 157.43938 60.8 156.11125Q61.51875 154.78313 62.33125 153.86125L58.1125 153.86125ZM65.05 159.08L66.15938 158.98625Q66.28438 159.79875 66.72188 160.205Q67.175 160.61125 67.81563 160.61125Q68.56563 160.61125 69.09688 160.03313Q69.62813 159.455 69.62813 158.5175Q69.62813 157.61125 69.1125 157.09563Q68.6125 156.56438 67.78438 156.56438Q67.28438 156.56438 66.8625 156.79875Q66.45625 157.03313 66.22188 157.3925L65.2375 157.2675L66.06563 152.86125L70.34688 152.86125L70.34688 153.86125L66.90938 153.86125L66.45625 156.17375Q67.22188 155.62688 68.06563 155.62688Q69.19063 155.62688 69.95625 156.40813Q70.7375 157.18938 70.7375 158.42375Q70.7375 159.58 70.06563 160.43938Q69.2375 161.47063 67.81563 161.47063Q66.64375 161.47063 65.89375 160.81438Q65.15938 160.15813 65.05 159.08ZM72.05 157.09563Q72.05 155.56438 72.3625 154.6425Q72.675 153.705 73.28438 153.205Q73.90938 152.705 74.84688 152.705Q75.53438 152.705 76.05 152.98625Q76.58125 153.2675 76.925 153.79875Q77.26875 154.31438 77.45625 155.06438Q77.64375 155.81438 77.64375 157.09563Q77.64375 158.61125 77.33125 159.53313Q77.03438 160.455 76.40938 160.97063Q75.8 161.47063 74.84688 161.47063Q73.6125 161.47063 72.89375 160.58Q72.05 159.5175 72.05 157.09563ZM73.12813 157.09563Q73.12813 159.205 73.62813 159.90813Q74.12813 160.61125 74.84688 160.61125Q75.58125 160.61125 76.06563 159.90813Q76.56563 159.205 76.56563 157.09563Q76.56563 154.97063 76.06563 154.28313Q75.58125 153.58 74.83125 153.58Q74.1125 153.58 73.675 154.18938Q73.12813 154.97063 73.12813 157.09563ZM79.05 157.09563Q79.05 155.56438 79.3625 154.6425Q79.675 153.705 80.28438 153.205Q80.90938 152.705 81.84688 152.705Q82.53438 152.705 83.05 152.98625Q83.58125 153.2675 83.925 153.79875Q84.26875 154.31438 84.45625 155.06438Q84.64375 155.81438 84.64375 157.09563Q84.64375 158.61125 84.33125 159.53313Q84.03438 160.455 83.40938 160.97063Q82.8 161.47063 81.84688 161.47063Q80.6125 161.47063 79.89375 160.58Q79.05 159.5175 79.05 157.09563ZM80.12813 157.09563Q80.12813 159.205 80.62813 159.90813Q81.12813 160.61125 81.84688 160.61125Q82.58125 160.61125 83.06563 159.90813Q83.56563 159.205 83.56563 157.09563Q83.56563 154.97063 83.06563 154.28313Q82.58125 153.58 81.83125 153.58Q81.1125 153.58 80.675 154.18938Q80.12813 154.97063 80.12813 157.09563ZM86.05 157.09563Q86.05 155.56438 86.3625 154.6425Q86.675 153.705 87.28438 153.205Q87.90938 152.705 88.84688 152.705Q89.53438 152.705 90.05 152.98625Q90.58125 153.2675 90.925 153.79875Q91.26875 154.31438 91.45625 155.06438Q91.64375 155.81438 91.64375 157.09563Q91.64375 158.61125 91.33125 159.53313Q91.03438 160.455 90.40938 160.97063Q89.8 161.47063 88.84688 161.47063Q87.6125 161.47063 86.89375 160.58Q86.05 159.5175 86.05 157.09563ZM87.12813 157.09563Q87.12813 159.205 87.62813 159.90813Q88.12813 160.61125 88.84688 160.61125Q89.58125 160.61125 90.06563 159.90813Q90.56563 159.205 90.56563 157.09563Q90.56563 154.97063 90.06563 154.28313Q89.58125 153.58 88.83125 153.58Q88.1125 153.58 87.675 154.18938Q87.12813 154.97063 87.12813 157.09563ZM93.05 157.09563Q93.05 155.56438 93.3625 154.6425Q93.675 153.705 94.28438 153.205Q94.90938 152.705 95.84688 152.705Q96.53438 152.705 97.05 152.98625Q97.58125 153.2675 97.925 153.79875Q98.26875 154.31438 98.45625 155.06438Q98.64375 155.81438 98.64375 157.09563Q98.64375 158.61125 98.33125 159.53313Q98.03438 160.455 97.40938 160.97063Q96.8 161.47063 95.84688 161.47063Q94.6125 161.47063 93.89375 160.58Q93.05 159.5175 93.05 157.09563ZM94.12813 157.09563Q94.12813 159.205 94.62813 159.90813Q95.12813 160.61125 95.84688 160.61125Q96.58125 160.61125 97.06563 159.90813Q97.56563 159.205 97.56563 157.09563Q97.56563 154.97063 97.06563 154.28313Q96.58125 153.58 95.83125 153.58Q95.1125 153.58 94.675 154.18938Q94.12813 154.97063 94.12813 157.09563Z" fill-rule="nonzero"/><path fill="#000000" d="M55.01875 113.62334L53.971874 113.62334L53.971874 106.90459Q53.58125 107.26396 52.95625 107.63896Q52.346874 107.99834 51.8625 108.17021L51.8625 107.15459Q52.7375 106.73271 53.39375 106.15459Q54.065624 105.56084 54.346874 104.99834L55.01875 104.99834L55.01875 113.62334ZM58.05 109.38896Q58.05 107.85771 58.3625 106.93584Q58.675 105.99834 59.284374 105.49834Q59.909374 104.99834 60.846874 104.99834Q61.534374 104.99834 62.05 105.27959Q62.58125 105.56084 62.925 106.09209Q63.26875 106.60771 63.45625 107.35771Q63.64375 108.10771 63.64375 109.38896Q63.64375 110.90459 63.33125 111.82646Q63.034374 112.74834 62.409374 113.26396Q61.8 113.76396 60.846874 113.76396Q59.6125 113.76396 58.89375 112.87334Q58.05 111.81084 58.05 109.38896ZM59.128124 109.38896Q59.128124 111.49834 59.628124 112.20146Q60.128124 112.90459 60.846874 112.90459Q61.58125 112.90459 62.065624 112.20146Q62.565624 111.49834 62.565624 109.38896Q62.565624 107.26396 62.065624 106.57646Q61.58125 105.87334 60.83125 105.87334Q60.1125 105.87334 59.675 106.48271Q59.128124 107.26396 59.128124 109.38896ZM65.05 109.38896Q65.05 107.85771 65.3625 106.93584Q65.675 105.99834 66.28438 105.49834Q66.90938 104.99834 67.84688 104.99834Q68.53438 104.99834 69.05 105.27959Q69.58125 105.56084 69.925 106.09209Q70.26875 106.60771 70.45625 107.35771Q70.64375 108.10771 70.64375 109.38896Q70.64375 110.90459 70.33125 111.82646Q70.03438 112.74834 69.40938 113.26396Q68.8 113.76396 67.84688 113.76396Q66.6125 113.76396 65.89375 112.87334Q65.05 111.81084 65.05 109.38896ZM66.12813 109.38896Q66.12813 111.49834 66.62813 112.20146Q67.12813 112.90459 67.84688 112.90459Q68.58125 112.90459 69.06563 112.20146Q69.56563 111.49834 69.56563 109.38896Q69.56563 107.26396 69.06563 106.57646Q68.58125 105.87334 67.83125 105.87334Q67.1125 105.87334 66.675 106.48271Q66.12813 107.26396 66.12813 109.38896ZM72.05 109.38896Q72.05 107.85771 72.3625 106.93584Q72.675 105.99834 73.28438 105.49834Q73.90938 104.99834 74.84688 104.99834Q75.53438 104.99834 76.05 105.27959Q76.58125 105.56084 76.925 106.09209Q77.26875 106.60771 77.45625 107.35771Q77.64375 108.10771 77.64375 109.38896Q77.64375 110.90459 77.33125 111.82646Q77.03438 112.74834 76.40938 113.26396Q75.8 113.76396 74.84688 113.76396Q73.6125 113.76396 72.89375 112.87334Q72.05 111.81084 72.05 109.38896ZM73.12813 109.38896Q73.12813 111.49834 73.62813 112.20146Q74.12813 112.90459 74.84688 112.90459Q75.58125 112.90459 76.06563 112.20146Q76.56563 111.49834 76.56563 109.38896Q76.56563 107.26396 76.06563 106.57646Q75.58125 105.87334 74.83125 105.87334Q74.1125 105.87334 73.675 106.48271Q73.12813 107.26396 73.12813 109.38896ZM79.05 109.38896Q79.05 107.85771 79.3625 106.93584Q79.675 105.99834 80.28438 105.49834Q80.90938 104.99834 81.84688 104.99834Q82.53438 104.99834 83.05 105.27959Q83.58125 105.56084 83.925 106.09209Q84.26875 106.60771 84.45625 107.35771Q84.64375 108.10771 84.64375 109.38896Q84.64375 110.90459 84.33125 111.82646Q84.03438 112.74834 83.40938 113.26396Q82.8 113.76396 81.84688 113.76396Q80.6125 113.76396 79.89375 112.87334Q79.05 111.81084 79.05 109.38896ZM80.12813 109.38896Q80.12813 111.49834 80.62813 112.20146Q81.12813 112.90459 81.84688 112.90459Q82.58125 112.90459 83.06563 112.20146Q83.56563 111.49834 83.56563 109.38896Q83.56563 107.26396 83.06563 106.57646Q82.58125 105.87334 81.83125 105.87334Q81.1125 105.87334 80.675 106.48271Q80.12813 107.26396 80.12813 109.38896ZM86.05 109.38896Q86.05 107.85771 86.3625 106.93584Q86.675 105.99834 87.28438 105.49834Q87.90938 104.99834 88.84688 104.99834Q89.53438 104.99834 90.05 105.27959Q90.58125 105.56084 90.925 106.09209Q91.26875 106.60771 91.45625 107.35771Q91.64375 108.10771 91.64375 109.38896Q91.64375 110.90459 91.33125 111.82646Q91.03438 112.74834 90.40938 113.26396Q89.8 113.76396 88.84688 113.76396Q87.6125 113.76396 86.89375 112.87334Q86.05 111.81084 86.05 109.38896ZM87.12813 109.38896Q87.12813 111.49834 87.62813 112.20146Q88.12813 112.90459 88.84688 112.90459Q89.58125 112.90459 90.06563 112.20146Q90.56563 111.49834 90.56563 109.38896Q90.56563 107.26396 90.06563 106.57646Q89.58125 105.87334 88.83125 105.87334Q88.1125 105.87334 87.675 106.48271Q87.12813 107.26396 87.12813 109.38896ZM93.05 109.38896Q93.05 107.85771 93.3625 106.93584Q93.675 105.99834 94.28438 105.49834Q94.90938 104.99834 95.84688 104.99834Q96.53438 104.99834 97.05 105.27959Q97.58125 105.56084 97.925 106.09209Q98.26875 106.60771 98.45625 107.35771Q98.64375 108.10771 98.64375 109.38896Q98.64375 110.90459 98.33125 111.82646Q98.03438 112.74834 97.40938 113.26396Q96.8 113.76396 95.84688 113.76396Q94.6125 113.76396 93.89375 112.87334Q93.05 111.81084 93.05 109.38896ZM94.12813 109.38896Q94.12813 111.49834 94.62813 112.20146Q95.12813 112.90459 95.84688 112.90459Q96.58125 112.90459 97.06563 112.20146Q97.56563 111.49834 97.56563 109.38896Q97.56563 107.26396 97.06563 106.57646Q96.58125 105.87334 95.83125 105.87334Q95.1125 105.87334 94.675 106.48271Q94.12813 107.26396 94.12813 109.38896Z" fill-rule="nonzero"/><path fill="#000000" d="M55.01875 65.916664L53.971874 65.916664L53.971874 59.197914Q53.58125 59.55729 52.95625 59.93229Q52.346874 60.291664 51.8625 60.46354L51.8625 59.447914Q52.7375 59.02604 53.39375 58.447914Q54.065624 57.854164 54.346874 57.291664L55.01875 57.291664L55.01875 65.916664ZM63.596874 64.90104L63.596874 65.916664L57.909374 65.916664Q57.909374 65.541664 58.034374 65.18229Q58.253124 64.604164 58.721874 64.041664Q59.20625 63.479164 60.1125 62.74479Q61.51875 61.58854 62.003124 60.916664Q62.503124 60.24479 62.503124 59.65104Q62.503124 59.02604 62.05 58.604164Q61.596874 58.166664 60.878124 58.166664Q60.1125 58.166664 59.659374 58.61979Q59.20625 59.072914 59.190624 59.885414L58.1125 59.77604Q58.221874 58.55729 58.940624 57.93229Q59.675 57.291664 60.909374 57.291664Q62.14375 57.291664 62.8625 57.979164Q63.58125 58.666664 63.58125 59.68229Q63.58125 60.197914 63.3625 60.697914Q63.159374 61.18229 62.659374 61.74479Q62.175 62.291664 61.05 63.24479Q60.096874 64.041664 59.815624 64.33854Q59.55 64.61979 59.378124 64.90104L63.596874 64.90104ZM65.05 63.666664L66.15938 63.572914Q66.28438 64.385414 66.72188 64.791664Q67.175 65.197914 67.81563 65.197914Q68.56563 65.197914 69.09688 64.61979Q69.62813 64.041664 69.62813 63.104164Q69.62813 62.197914 69.1125 61.68229Q68.6125 61.15104 67.78438 61.15104Q67.28438 61.15104 66.8625 61.385414Q66.45625 61.61979 66.22188 61.979164L65.2375 61.854164L66.06563 57.447914L70.34688 57.447914L70.34688 58.447914L66.90938 58.447914L66.45625 60.760414Q67.22188 60.21354 68.06563 60.21354Q69.19063 60.21354 69.95625 60.99479Q70.7375 61.77604 70.7375 63.010414Q70.7375 64.166664 70.06563 65.02604Q69.2375 66.05729 67.81563 66.05729Q66.64375 66.05729 65.89375 65.40104Q65.15938 64.74479 65.05 63.666664ZM72.05 61.68229Q72.05 60.15104 72.3625 59.229164Q72.675 58.291664 73.28438 57.791664Q73.90938 57.291664 74.84688 57.291664Q75.53438 57.291664 76.05 57.572914Q76.58125 57.854164 76.925 58.385414Q77.26875 58.90104 77.45625 59.65104Q77.64375 60.40104 77.64375 61.68229Q77.64375 63.197914 77.33125 64.11979Q77.03438 65.041664 76.40938 65.55729Q75.8 66.05729 74.84688 66.05729Q73.6125 66.05729 72.89375 65.166664Q72.05 64.104164 72.05 61.68229ZM73.12813 61.68229Q73.12813 63.791664 73.62813 64.49479Q74.12813 65.197914 74.84688 65.197914Q75.58125 65.197914 76.06563 64.49479Q76.56563 63.791664 76.56563 61.68229Q76.56563 59.55729 76.06563 58.86979Q75.58125 58.166664 74.83125 58.166664Q74.1125 58.166664 73.675 58.77604Q73.12813 59.55729 73.12813 61.68229ZM79.05 61.68229Q79.05 60.15104 79.3625 59.229164Q79.675 58.291664 80.28438 57.791664Q80.90938 57.291664 81.84688 57.291664Q82.53438 57.291664 83.05 57.572914Q83.58125 57.854164 83.925 58.385414Q84.26875 58.90104 84.45625 59.65104Q84.64375 60.40104 84.64375 61.68229Q84.64375 63.197914 84.33125 64.11979Q84.03438 65.041664 83.40938 65.55729Q82.8 66.05729 81.84688 66.05729Q80.6125 66.05729 79.89375 65.166664Q79.05 64.104164 79.05 61.68229ZM80.12813 61.68229Q80.12813 63.791664 80.62813 64.49479Q81.12813 65.197914 81.84688 65.197914Q82.58125 65.197914 83.06563 64.49479Q83.56563 63.791664 83.56563 61.68229Q83.56563 59.55729 83.06563 58.86979Q82.58125 58.166664 81.83125 58.166664Q81.1125 58.166664 80.675 58.77604Q80.12813 59.55729 80.12813 61.68229ZM86.05 61.68229Q86.05 60.15104 86.3625 59.229164Q86.675 58.291664 87.28438 57.791664Q87.90938 57.291664 88.84688 57.291664Q89.53438 57.291664 90.05 57.572914Q90.58125 57.854164 90.925 58.385414Q91.26875 58.90104 91.45625 59.65104Q91.64375 60.40104 91.64375 61.68229Q91.64375 63.197914 91.33125 64.11979Q91.03438 65.041664 90.40938 65.55729Q89.8 66.05729 88.84688 66.05729Q87.6125 66.05729 86.89375 65.166664Q86.05 64.104164 86.05 61.68229ZM87.12813 61.68229Q87.12813 63.791664 87.62813 64.49479Q88.12813 65.197914 88.84688 65.197914Q89.58125 65.197914 90.06563 64.49479Q90.56563 63.791664 90.56563 61.68229Q90.56563 59.55729 90.06563 58.86979Q89.58125 58.166664 88.83125 58.166664Q88.1125 58.166664 87.675 58.77604Q87.12813 59.55729 87.12813 61.68229ZM93.05 61.68229Q93.05 60.15104 93.3625 59.229164Q93.675 58.291664 94.28438 57.791664Q94.90938 57.291664 95.84688 57.291664Q96.53438 57.291664 97.05 57.572914Q97.58125 57.854164 97.925 58.385414Q98.26875 58.90104 98.45625 59.65104Q98.64375 60.40104 98.64375 61.68229Q98.64375 63.197914 98.33125 64.11979Q98.03438 65.041664 97.40938 65.55729Q96.8 66.05729 95.84688 66.05729Q94.6125 66.05729 93.89375 65.166664Q93.05 64.104164 93.05 61.68229ZM94.12813 61.68229Q94.12813 63.791664 94.62813 64.49479Q95.12813 65.197914 95.84688 65.197914Q96.58125 65.197914 97.06563 64.49479Q97.56563 63.791664 97.56563 61.68229Q97.56563 59.55729 97.06563 58.86979Q96.58125 58.166664 95.83125 58.166664Q95.1125 58.166664 94.675 58.77604Q94.12813 59.55729 94.12813 61.68229Z" fill-rule="nonzero"/><path fill="#000000" d="M109.124115 313.21564Q109.124115 311.6844 109.436615 310.7625Q109.749115 309.825 110.35849 309.325Q110.98349 308.825 111.92099 308.825Q112.60849 308.825 113.124115 309.10626Q113.655365 309.3875 113.999115 309.91876Q114.342865 310.4344 114.530365 311.1844Q114.717865 311.9344 114.717865 313.21564Q114.717865 314.73126 114.405365 315.65314Q114.10849 316.575 113.48349 317.09064Q112.874115 317.59064 111.92099 317.59064Q110.686615 317.59064 109.967865 316.7Q109.124115 315.6375 109.124115 313.21564ZM110.20224 313.21564Q110.20224 315.325 110.70224 316.02814Q111.20224 316.73126 111.92099 316.73126Q112.655365 316.73126 113.13974 316.02814Q113.63974 315.325 113.63974 313.21564Q113.63974 311.09064 113.13974 310.40314Q112.655365 309.7 111.905365 309.7Q111.186615 309.7 110.749115 310.3094Q110.20224 311.09064 110.20224 313.21564Z" fill-rule="nonzero"/><path fill="#000000" d="M208.04549 315.2L209.15486 315.10626Q209.27986 315.91876 209.71736 316.325Q210.17049 316.73126 210.81111 316.73126Q211.56111 316.73126 212.09236 316.15314Q212.62361 315.575 212.62361 314.6375Q212.62361 313.73126 212.10799 313.21564Q211.60799 312.6844 210.77986 312.6844Q210.27986 312.6844 209.85799 312.91876Q209.45174 313.15314 209.21736 313.5125L208.23299 313.3875L209.06111 308.98126L213.34236 308.98126L213.34236 309.98126L209.90486 309.98126L209.45174 312.29376Q210.21736 311.7469 211.06111 311.7469Q212.18611 311.7469 212.95174 312.52814Q213.73299 313.3094 213.73299 314.54376Q213.73299 315.7 213.06111 316.5594Q212.23299 317.59064 210.81111 317.59064Q209.63924 317.59064 208.88924 316.9344Q208.15486 316.27814 208.04549 315.2ZM215.04549 313.21564Q215.04549 311.6844 215.35799 310.7625Q215.67049 309.825 216.27986 309.325Q216.90486 308.825 217.84236 308.825Q218.52986 308.825 219.04549 309.10626Q219.57674 309.3875 219.92049 309.91876Q220.26424 310.4344 220.45174 311.1844Q220.63924 311.9344 220.63924 313.21564Q220.63924 314.73126 220.32674 315.65314Q220.02986 316.575 219.40486 317.09064Q218.79549 317.59064 217.84236 317.59064Q216.60799 317.59064 215.88924 316.7Q215.04549 315.6375 215.04549 313.21564ZM216.12361 313.21564Q216.12361 315.325 216.62361 316.02814Q217.12361 316.73126 217.84236 316.73126Q218.57674 316.73126 219.06111 316.02814Q219.56111 315.325 219.56111 313.21564Q219.56111 311.09064 219.06111 310.40314Q218.57674 309.7 217.82674 309.7Q217.10799 309.7 216.67049 310.3094Q216.12361 311.09064 216.12361 313.21564ZM222.04549 313.21564Q222.04549 311.6844 222.35799 310.7625Q222.67049 309.825 223.27986 309.325Q223.90486 308.825 224.84236 308.825Q225.52986 308.825 226.04549 309.10626Q226.57674 309.3875 226.92049 309.91876Q227.26424 310.4344 227.45174 311.1844Q227.63924 311.9344 227.63924 313.21564Q227.63924 314.73126 227.32674 315.65314Q227.02986 316.575 226.40486 317.09064Q225.79549 317.59064 224.84236 317.59064Q223.60799 317.59064 222.88924 316.7Q222.04549 315.6375 222.04549 313.21564ZM223.12361 313.21564Q223.12361 315.325 223.62361 316.02814Q224.12361 316.73126 224.84236 316.73126Q225.57674 316.73126 226.06111 316.02814Q226.56111 315.325 226.56111 313.21564Q226.56111 311.09064 226.06111 310.40314Q225.57674 309.7 224.82674 309.7Q224.10799 309.7 223.67049 310.3094Q223.12361 311.09064 223.12361 313.21564ZM229.04549 313.21564Q229.04549 311.6844 229.35799 310.7625Q229.67049 309.825 230.27986 309.325Q230.90486 308.825 231.84236 308.825Q232.52986 308.825 233.04549 309.10626Q233.57674 309.3875 233.92049 309.91876Q234.26424 310.4344 234.45174 311.1844Q234.63924 311.9344 234.63924 313.21564Q234.63924 314.73126 234.32674 315.65314Q234.02986 316.575 233.40486 317.09064Q232.79549 317.59064 231.84236 317.59064Q230.60799 317.59064 229.88924 316.7Q229.04549 315.6375 229.04549 313.21564ZM230.12361 313.21564Q230.12361 315.325 230.62361 316.02814Q231.12361 316.73126 231.84236 316.73126Q232.57674 316.73126 233.06111 316.02814Q233.56111 315.325 233.56111 313.21564Q233.56111 311.09064 233.06111 310.40314Q232.57674 309.7 231.82674 309.7Q231.10799 309.7 230.67049 310.3094Q230.12361 311.09064 230.12361 313.21564ZM236.04549 313.21564Q236.04549 311.6844 236.35799 310.7625Q236.67049 309.825 237.27986 309.325Q237.90486 308.825 238.84236 308.825Q239.52986 308.825 240.04549 309.10626Q240.57674 309.3875 240.92049 309.91876Q241.26424 310.4344 241.45174 311.1844Q241.63924 311.9344 241.63924 313.21564Q241.63924 314.73126 241.32674 315.65314Q241.02986 316.575 240.40486 317.09064Q239.79549 317.59064 238.84236 317.59064Q237.60799 317.59064 236.88924 316.7Q236.04549 315.6375 236.04549 313.21564ZM237.12361 313.21564Q237.12361 315.325 237.62361 316.02814Q238.12361 316.73126 238.84236 316.73126Q239.57674 316.73126 240.06111 316.02814Q240.56111 315.325 240.56111 313.21564Q240.56111 311.09064 240.06111 310.40314Q239.57674 309.7 238.82674 309.7Q238.10799 309.7 237.67049 310.3094Q237.12361 311.09064 237.12361 313.21564Z" fill-rule="nonzero"/><path fill="#000000" d="M321.4356 317.45L320.38873 317.45L320.38873 310.73126Q319.9981 311.09064 319.3731 311.46564Q318.76373 311.825 318.27936 311.9969L318.27936 310.98126Q319.15436 310.5594 319.8106 309.98126Q320.48248 309.3875 320.76373 308.825L321.4356 308.825L321.4356 317.45ZM324.46686 313.21564Q324.46686 311.6844 324.77936 310.7625Q325.09186 309.825 325.70123 309.325Q326.32623 308.825 327.26373 308.825Q327.95123 308.825 328.46686 309.10626Q328.9981 309.3875 329.34186 309.91876Q329.6856 310.4344 329.8731 311.1844Q330.0606 311.9344 330.0606 313.21564Q330.0606 314.73126 329.7481 315.65314Q329.45123 316.575 328.82623 317.09064Q328.21686 317.59064 327.26373 317.59064Q326.02936 317.59064 325.3106 316.7Q324.46686 315.6375 324.46686 313.21564ZM325.54498 313.21564Q325.54498 315.325 326.04498 316.02814Q326.54498 316.73126 327.26373 316.73126Q327.9981 316.73126 328.48248 316.02814Q328.98248 315.325 328.98248 313.21564Q328.98248 311.09064 328.48248 310.40314Q327.9981 309.7 327.2481 309.7Q326.52936 309.7 326.09186 310.3094Q325.54498 311.09064 325.54498 313.21564ZM331.46686 313.21564Q331.46686 311.6844 331.77936 310.7625Q332.09186 309.825 332.70123 309.325Q333.32623 308.825 334.26373 308.825Q334.95123 308.825 335.46686 309.10626Q335.9981 309.3875 336.34186 309.91876Q336.6856 310.4344 336.8731 311.1844Q337.0606 311.9344 337.0606 313.21564Q337.0606 314.73126 336.7481 315.65314Q336.45123 316.575 335.82623 317.09064Q335.21686 317.59064 334.26373 317.59064Q333.02936 317.59064 332.3106 316.7Q331.46686 315.6375 331.46686 313.21564ZM332.54498 313.21564Q332.54498 315.325 333.04498 316.02814Q333.54498 316.73126 334.26373 316.73126Q334.9981 316.73126 335.48248 316.02814Q335.98248 315.325 335.98248 313.21564Q335.98248 311.09064 335.48248 310.40314Q334.9981 309.7 334.2481 309.7Q333.52936 309.7 333.09186 310.3094Q332.54498 311.09064 332.54498 313.21564ZM338.46686 313.21564Q338.46686 311.6844 338.77936 310.7625Q339.09186 309.825 339.70123 309.325Q340.32623 308.825 341.26373 308.825Q341.95123 308.825 342.46686 309.10626Q342.9981 309.3875 343.34186 309.91876Q343.6856 310.4344 343.8731 311.1844Q344.0606 311.9344 344.0606 313.21564Q344.0606 314.73126 343.7481 315.65314Q343.45123 316.575 342.82623 317.09064Q342.21686 317.59064 341.26373 317.59064Q340.02936 317.59064 339.3106 316.7Q338.46686 315.6375 338.46686 313.21564ZM339.54498 313.21564Q339.54498 315.325 340.04498 316.02814Q340.54498 316.73126 341.26373 316.73126Q341.9981 316.73126 342.48248 316.02814Q342.98248 315.325 342.98248 313.21564Q342.98248 311.09064 342.48248 310.40314Q341.9981 309.7 341.2481 309.7Q340.52936 309.7 340.09186 310.3094Q339.54498 311.09064 339.54498 313.21564ZM345.46686 313.21564Q345.46686 311.6844 345.77936 310.7625Q346.09186 309.825 346.70123 309.325Q347.32623 308.825 348.26373 308.825Q348.95123 308.825 349.46686 309.10626Q349.9981 309.3875 350.34186 309.91876Q350.6856 310.4344 350.8731 311.1844Q351.0606 311.9344 351.0606 313.21564Q351.0606 314.73126 350.7481 315.65314Q350.45123 316.575 349.82623 317.09064Q349.21686 317.59064 348.26373 317.59064Q347.02936 317.59064 346.3106 316.7Q345.46686 315.6375 345.46686 313.21564ZM346.54498 313.21564Q346.54498 315.325 347.04498 316.02814Q347.54498 316.73126 348.26373 316.73126Q348.9981 316.73126 349.48248 316.02814Q349.98248 315.325 349.98248 313.21564Q349.98248 311.09064 349.48248 310.40314Q348.9981 309.7 348.2481 309.7Q347.52936 309.7 347.09186 310.3094Q346.54498 311.09064 346.54498 313.21564ZM352.46686 313.21564Q352.46686 311.6844 352.77936 310.7625Q353.09186 309.825 353.70123 309.325Q354.32623 308.825 355.26373 308.825Q355.95123 308.825 356.46686 309.10626Q356.9981 309.3875 357.34186 309.91876Q357.6856 310.4344 357.8731 311.1844Q358.0606 311.9344 358.0606 313.21564Q358.0606 314.73126 357.7481 315.65314Q357.45123 316.575 356.82623 317.09064Q356.21686 317.59064 355.26373 317.59064Q354.02936 317.59064 353.3106 316.7Q352.46686 315.6375 352.46686 313.21564ZM353.54498 313.21564Q353.54498 315.325 354.04498 316.02814Q354.54498 316.73126 355.26373 316.73126Q355.9981 316.73126 356.48248 316.02814Q356.98248 315.325 356.98248 313.21564Q356.98248 311.09064 356.48248 310.40314Q355.9981 309.7 355.2481 309.7Q354.52936 309.7 354.09186 310.3094Q353.54498 311.09064 353.54498 313.21564Z" fill-rule="nonzero"/><path fill="#000000" d="M434.35696 317.45L433.3101 317.45L433.3101 310.73126Q432.91946 311.09064 432.29446 311.46564Q431.6851 311.825 431.2007 311.9969L431.2007 310.98126Q432.0757 310.5594 432.73196 309.98126Q433.40384 309.3875 433.6851 308.825L434.35696 308.825L434.35696 317.45ZM437.3882 315.2L438.4976 315.10626Q438.6226 315.91876 439.0601 316.325Q439.5132 316.73126 440.15384 316.73126Q440.90384 316.73126 441.4351 316.15314Q441.96634 315.575 441.96634 314.6375Q441.96634 313.73126 441.4507 313.21564Q440.9507 312.6844 440.1226 312.6844Q439.6226 312.6844 439.2007 312.91876Q438.79446 313.15314 438.5601 313.5125L437.5757 313.3875L438.40384 308.98126L442.6851 308.98126L442.6851 309.98126L439.2476 309.98126L438.79446 312.29376Q439.5601 311.7469 440.40384 311.7469Q441.52884 311.7469 442.29446 312.52814Q443.0757 313.3094 443.0757 314.54376Q443.0757 315.7 442.40384 316.5594Q441.5757 317.59064 440.15384 317.59064Q438.98196 317.59064 438.23196 316.9344Q437.4976 316.27814 437.3882 315.2ZM444.3882 313.21564Q444.3882 311.6844 444.7007 310.7625Q445.0132 309.825 445.6226 309.325Q446.2476 308.825 447.1851 308.825Q447.8726 308.825 448.3882 309.10626Q448.91946 309.3875 449.2632 309.91876Q449.60696 310.4344 449.79446 311.1844Q449.98196 311.9344 449.98196 313.21564Q449.98196 314.73126 449.66946 315.65314Q449.3726 316.575 448.7476 317.09064Q448.1382 317.59064 447.1851 317.59064Q445.9507 317.59064 445.23196 316.7Q444.3882 315.6375 444.3882 313.21564ZM445.46634 313.21564Q445.46634 315.325 445.96634 316.02814Q446.46634 316.73126 447.1851 316.73126Q447.91946 316.73126 448.40384 316.02814Q448.90384 315.325 448.90384 313.21564Q448.90384 311.09064 448.40384 310.40314Q447.91946 309.7 447.16946 309.7Q446.4507 309.7 446.0132 310.3094Q445.46634 311.09064 445.46634 313.21564ZM451.3882 313.21564Q451.3882 311.6844 451.7007 310.7625Q452.0132 309.825 452.6226 309.325Q453.2476 308.825 454.1851 308.825Q454.8726 308.825 455.3882 309.10626Q455.91946 309.3875 456.2632 309.91876Q456.60696 310.4344 456.79446 311.1844Q456.98196 311.9344 456.98196 313.21564Q456.98196 314.73126 456.66946 315.65314Q456.3726 316.575 455.7476 317.09064Q455.1382 317.59064 454.1851 317.59064Q452.9507 317.59064 452.23196 316.7Q451.3882 315.6375 451.3882 313.21564ZM452.46634 313.21564Q452.46634 315.325 452.96634 316.02814Q453.46634 316.73126 454.1851 316.73126Q454.91946 316.73126 455.40384 316.02814Q455.90384 315.325 455.90384 313.21564Q455.90384 311.09064 455.40384 310.40314Q454.91946 309.7 454.16946 309.7Q453.4507 309.7 453.0132 310.3094Q452.46634 311.09064 452.46634 313.21564ZM458.3882 313.21564Q458.3882 311.6844 458.7007 310.7625Q459.0132 309.825 459.6226 309.325Q460.2476 308.825 461.1851 308.825Q461.8726 308.825 462.3882 309.10626Q462.91946 309.3875 463.2632 309.91876Q463.60696 310.4344 463.79446 311.1844Q463.98196 311.9344 463.98196 313.21564Q463.98196 314.73126 463.66946 315.65314Q463.3726 316.575 462.7476 317.09064Q462.1382 317.59064 461.1851 317.59064Q459.9507 317.59064 459.23196 316.7Q458.3882 315.6375 458.3882 313.21564ZM459.46634 313.21564Q459.46634 315.325 459.96634 316.02814Q460.46634 316.73126 461.1851 316.73126Q461.91946 316.73126 462.40384 316.02814Q462.90384 315.325 462.90384 313.21564Q462.90384 311.09064 462.40384 310.40314Q461.91946 309.7 461.16946 309.7Q460.4507 309.7 460.0132 310.3094Q459.46634 311.09064 459.46634 313.21564ZM465.3882 313.21564Q465.3882 311.6844 465.7007 310.7625Q466.0132 309.825 466.6226 309.325Q467.2476 308.825 468.1851 308.825Q468.8726 308.825 469.3882 309.10626Q469.91946 309.3875 470.2632 309.91876Q470.60696 310.4344 470.79446 311.1844Q470.98196 311.9344 470.98196 313.21564Q470.98196 314.73126 470.66946 315.65314Q470.3726 316.575 469.7476 317.09064Q469.1382 317.59064 468.1851 317.59064Q466.9507 317.59064 466.23196 316.7Q465.3882 315.6375 465.3882 313.21564ZM466.46634 313.21564Q466.46634 315.325 466.96634 316.02814Q467.46634 316.73126 468.1851 316.73126Q468.91946 316.73126 469.40384 316.02814Q469.90384 315.325 469.90384 313.21564Q469.90384 311.09064 469.40384 310.40314Q468.91946 309.7 468.16946 309.7Q467.4507 309.7 467.0132 310.3094Q466.46634 311.09064 466.46634 313.21564Z" fill-rule="nonzero"/><path fill="#000000" d="M548.85645 316.4344L548.85645 317.45L543.16895 317.45Q543.16895 317.075 543.29395 316.71564Q543.5127 316.1375 543.98145 315.575Q544.4658 315.0125 545.3721 314.27814Q546.7783 313.1219 547.2627 312.45Q547.7627 311.77814 547.7627 311.1844Q547.7627 310.5594 547.3096 310.1375Q546.85645 309.7 546.1377 309.7Q545.3721 309.7 544.91895 310.15314Q544.4658 310.60626 544.4502 311.41876L543.3721 311.3094Q543.48145 310.09064 544.2002 309.46564Q544.9346 308.825 546.16895 308.825Q547.4033 308.825 548.1221 309.5125Q548.8408 310.2 548.8408 311.21564Q548.8408 311.73126 548.6221 312.23126Q548.41895 312.71564 547.91895 313.27814Q547.4346 313.825 546.3096 314.77814Q545.35645 315.575 545.0752 315.8719Q544.8096 316.15314 544.6377 316.4344L548.85645 316.4344ZM550.3096 313.21564Q550.3096 311.6844 550.6221 310.7625Q550.9346 309.825 551.54395 309.325Q552.16895 308.825 553.10645 308.825Q553.79395 308.825 554.3096 309.10626Q554.8408 309.3875 555.1846 309.91876Q555.5283 310.4344 555.7158 311.1844Q555.9033 311.9344 555.9033 313.21564Q555.9033 314.73126 555.5908 315.65314Q555.29395 316.575 554.66895 317.09064Q554.0596 317.59064 553.10645 317.59064Q551.8721 317.59064 551.1533 316.7Q550.3096 315.6375 550.3096 313.21564ZM551.3877 313.21564Q551.3877 315.325 551.8877 316.02814Q552.3877 316.73126 553.10645 316.73126Q553.8408 316.73126 554.3252 316.02814Q554.8252 315.325 554.8252 313.21564Q554.8252 311.09064 554.3252 310.40314Q553.8408 309.7 553.0908 309.7Q552.3721 309.7 551.9346 310.3094Q551.3877 311.09064 551.3877 313.21564ZM557.3096 313.21564Q557.3096 311.6844 557.6221 310.7625Q557.9346 309.825 558.54395 309.325Q559.16895 308.825 560.10645 308.825Q560.79395 308.825 561.3096 309.10626Q561.8408 309.3875 562.1846 309.91876Q562.5283 310.4344 562.7158 311.1844Q562.9033 311.9344 562.9033 313.21564Q562.9033 314.73126 562.5908 315.65314Q562.29395 316.575 561.66895 317.09064Q561.0596 317.59064 560.10645 317.59064Q558.8721 317.59064 558.1533 316.7Q557.3096 315.6375 557.3096 313.21564ZM558.3877 313.21564Q558.3877 315.325 558.8877 316.02814Q559.3877 316.73126 560.10645 316.73126Q560.8408 316.73126 561.3252 316.02814Q561.8252 315.325 561.8252 313.21564Q561.8252 311.09064 561.3252 310.40314Q560.8408 309.7 560.0908 309.7Q559.3721 309.7 558.9346 310.3094Q558.3877 311.09064 558.3877 313.21564ZM564.3096 313.21564Q564.3096 311.6844 564.6221 310.7625Q564.9346 309.825 565.54395 309.325Q566.16895 308.825 567.10645 308.825Q567.79395 308.825 568.3096 309.10626Q568.8408 309.3875 569.1846 309.91876Q569.5283 310.4344 569.7158 311.1844Q569.9033 311.9344 569.9033 313.21564Q569.9033 314.73126 569.5908 315.65314Q569.29395 316.575 568.66895 317.09064Q568.0596 317.59064 567.10645 317.59064Q565.8721 317.59064 565.1533 316.7Q564.3096 315.6375 564.3096 313.21564ZM565.3877 313.21564Q565.3877 315.325 565.8877 316.02814Q566.3877 316.73126 567.10645 316.73126Q567.8408 316.73126 568.3252 316.02814Q568.8252 315.325 568.8252 313.21564Q568.8252 311.09064 568.3252 310.40314Q567.8408 309.7 567.0908 309.7Q566.3721 309.7 565.9346 310.3094Q565.3877 311.09064 565.3877 313.21564ZM571.3096 313.21564Q571.3096 311.6844 571.6221 310.7625Q571.9346 309.825 572.54395 309.325Q573.16895 308.825 574.10645 308.825Q574.79395 308.825 575.3096 309.10626Q575.8408 309.3875 576.1846 309.91876Q576.5283 310.4344 576.7158 311.1844Q576.9033 311.9344 576.9033 313.21564Q576.9033 314.73126 576.5908 315.65314Q576.29395 316.575 575.66895 317.09064Q575.0596 317.59064 574.10645 317.59064Q572.8721 317.59064 572.1533 316.7Q571.3096 315.6375 571.3096 313.21564ZM572.3877 313.21564Q572.3877 315.325 572.8877 316.02814Q573.3877 316.73126 574.10645 316.73126Q574.8408 316.73126 575.3252 316.02814Q575.8252 315.325 575.8252 313.21564Q575.8252 311.09064 575.3252 310.40314Q574.8408 309.7 574.0908 309.7Q573.3721 309.7 572.9346 310.3094Q572.3877 311.09064 572.3877 313.21564ZM578.3096 313.21564Q578.3096 311.6844 578.6221 310.7625Q578.9346 309.825 579.54395 309.325Q580.16895 308.825 581.10645 308.825Q581.79395 308.825 582.3096 309.10626Q582.8408 309.3875 583.1846 309.91876Q583.5283 310.4344 583.7158 311.1844Q583.9033 311.9344 583.9033 313.21564Q583.9033 314.73126 583.5908 315.65314Q583.29395 316.575 582.66895 317.09064Q582.0596 317.59064 581.10645 317.59064Q579.8721 317.59064 579.1533 316.7Q578.3096 315.6375 578.3096 313.21564ZM579.3877 313.21564Q579.3877 315.325 579.8877 316.02814Q580.3877 316.73126 581.10645 316.73126Q581.8408 316.73126 582.3252 316.02814Q582.8252 315.325 582.8252 313.21564Q582.8252 311.09064 582.3252 310.40314Q581.8408 309.7 581.0908 309.7Q580.3721 309.7 579.9346 310.3094Q579.3877 311.09064 579.3877 313.21564Z" fill-rule="nonzero"/><path fill="#757575" d="M23.7375 37.55L23.7375 24.925L19.01875 24.925L19.01875 23.2375L30.3625 23.2375L30.3625 24.925L25.628124 24.925L25.628124 37.55L23.7375 37.55ZM31.878124 25.253124L31.878124 23.2375L33.64375 23.2375L33.64375 25.253124L31.878124 25.253124ZM31.878124 37.55L31.878124 27.175L33.64375 27.175L33.64375 37.55L31.878124 37.55ZM35.8625 37.55L35.8625 27.175L37.440624 27.175L37.440624 28.628124Q37.925 27.878124 38.7375 27.409374Q39.55 26.940624 40.58125 26.940624Q41.7375 26.940624 42.471874 27.425Q43.20625 27.89375 43.51875 28.753124Q44.753124 26.940624 46.721874 26.940624Q48.26875 26.940624 49.096874 27.8Q49.925 28.659374 49.925 30.425L49.925 37.55L48.175 37.55L48.175 31.01875Q48.175 29.95625 48.003124 29.503124Q47.83125 29.034374 47.378124 28.753124Q46.940624 28.471874 46.33125 28.471874Q45.2375 28.471874 44.503124 29.20625Q43.784374 29.925 43.784374 31.51875L43.784374 37.55L42.034374 37.55L42.034374 30.815624Q42.034374 29.64375 41.596874 29.065624Q41.175 28.471874 40.190624 28.471874Q39.45625 28.471874 38.815624 28.8625Q38.190624 29.253124 37.909374 30.003124Q37.628124 30.753124 37.628124 32.175L37.628124 37.55L35.8625 37.55ZM58.971874 34.20625L60.784374 34.440624Q60.3625 36.01875 59.190624 36.909374Q58.034374 37.784374 56.221874 37.784374Q53.95625 37.784374 52.6125 36.39375Q51.284374 34.9875 51.284374 32.45625Q51.284374 29.83125 52.628124 28.39375Q53.971874 26.940624 56.128124 26.940624Q58.20625 26.940624 59.51875 28.3625Q60.846874 29.76875 60.846874 32.346874Q60.846874 32.503124 60.83125 32.815624L53.096874 32.815624Q53.190624 34.51875 54.065624 35.425Q54.940624 36.33125 56.2375 36.33125Q57.20625 36.33125 57.878124 35.83125Q58.565624 35.315624 58.971874 34.20625ZM53.190624 31.3625L58.9875 31.3625Q58.878124 30.065624 58.33125 29.409374Q57.4875 28.39375 56.14375 28.39375Q54.940624 28.39375 54.1125 29.20625Q53.284374 30.003124 53.190624 31.3625ZM72.22188 41.753124Q70.76875 39.925 69.76875 37.471874Q68.76875 35.003124 68.76875 32.3625Q68.76875 30.034374 69.51875 27.909374Q70.39375 25.440624 72.22188 22.9875L73.4875 22.9875Q72.3 25.01875 71.925 25.89375Q71.33125 27.2375 70.9875 28.70625Q70.56563 30.534374 70.56563 32.378124Q70.56563 37.065624 73.4875 41.753124L72.22188 41.753124ZM75.8625 37.55L75.8625 27.175L77.45625 27.175L77.45625 28.659374Q78.59688 26.940624 80.75313 26.940624Q81.69063 26.940624 82.47188 27.284374Q83.26875 27.6125 83.65938 28.159374Q84.05 28.70625 84.20625 29.45625Q84.3 29.95625 84.3 31.175L84.3 37.55L82.53438 37.55L82.53438 31.2375Q82.53438 30.159374 82.33125 29.628124Q82.12813 29.096874 81.59688 28.784374Q81.08125 28.471874 80.37813 28.471874Q79.25313 28.471874 78.44063 29.190624Q77.62813 29.89375 77.62813 31.878124L77.62813 37.55L75.8625 37.55ZM92.64375 36.26875Q91.65938 37.096874 90.75313 37.440624Q89.84688 37.784374 88.81563 37.784374Q87.1125 37.784374 86.19063 36.95625Q85.26875 36.1125 85.26875 34.815624Q85.26875 34.05 85.6125 33.425Q85.97188 32.8 86.53438 32.425Q87.09688 32.034374 87.8 31.83125Q88.31563 31.70625 89.3625 31.565624Q91.4875 31.315624 92.4875 30.971874Q92.50313 30.6125 92.50313 30.503124Q92.50313 29.440624 92.00313 28.9875Q91.33125 28.39375 90.00313 28.39375Q88.75313 28.39375 88.15938 28.83125Q87.58125 29.26875 87.3 30.378124L85.58125 30.14375Q85.81563 29.034374 86.34688 28.3625Q86.87813 27.675 87.89375 27.315624Q88.90938 26.940624 90.25313 26.940624Q91.58125 26.940624 92.40938 27.253124Q93.2375 27.565624 93.62813 28.05Q94.01875 28.51875 94.175 29.2375Q94.26875 29.690624 94.26875 30.8625L94.26875 33.20625Q94.26875 35.659374 94.37813 36.315624Q94.4875 36.95625 94.83125 37.55L92.9875 37.55Q92.72188 37.003124 92.64375 36.26875ZM92.4875 32.346874Q91.53438 32.7375 89.6125 33.003124Q88.53438 33.159374 88.08125 33.3625Q87.64375 33.55 87.39375 33.925Q87.14375 34.3 87.14375 34.76875Q87.14375 35.471874 87.675 35.940624Q88.20625 36.409374 89.2375 36.409374Q90.25313 36.409374 91.03438 35.971874Q91.83125 35.51875 92.20625 34.753124Q92.4875 34.14375 92.4875 32.9875L92.4875 32.346874ZM96.8625 37.55L96.8625 27.175L98.45625 27.175L98.45625 28.659374Q99.59688 26.940624 101.75313 26.940624Q102.69063 26.940624 103.47188 27.284374Q104.26875 27.6125 104.65938 28.159374Q105.05 28.70625 105.20625 29.45625Q105.3 29.95625 105.3 31.175L105.3 37.55L103.53438 37.55L103.53438 31.2375Q103.53438 30.159374 103.33125 29.628124Q103.12813 29.096874 102.59688 28.784374Q102.08125 28.471874 101.37813 28.471874Q100.25313 28.471874 99.44063 29.190624Q98.62813 29.89375 98.62813 31.878124L98.62813 37.55L96.8625 37.55ZM106.22188 32.3625Q106.22188 29.4875 107.81563 28.096874Q109.15938 26.940624 111.08125 26.940624Q113.22188 26.940624 114.56563 28.346874Q115.925 29.753124 115.925 32.221874Q115.925 34.221874 115.33125 35.378124Q114.7375 36.51875 113.58125 37.159374Q112.44063 37.784374 111.08125 37.784374Q108.89375 37.784374 107.55 36.39375Q106.22188 34.9875 106.22188 32.3625ZM108.01875 32.3625Q108.01875 34.3625 108.87813 35.346874Q109.75313 36.33125 111.08125 36.33125Q112.39375 36.33125 113.25313 35.346874Q114.12813 34.346874 114.12813 32.3Q114.12813 30.378124 113.25313 29.39375Q112.37813 28.39375 111.08125 28.39375Q109.75313 28.39375 108.87813 29.39375Q108.01875 30.378124 108.01875 32.3625ZM117.15938 34.45625L118.90938 34.175Q119.05 35.221874 119.72188 35.784374Q120.39375 36.33125 121.59688 36.33125Q122.8 36.33125 123.37813 35.846874Q123.97188 35.346874 123.97188 34.690624Q123.97188 34.096874 123.45625 33.753124Q123.09688 33.51875 121.65938 33.159374Q119.72188 32.659374 118.97188 32.315624Q118.2375 31.95625 117.84688 31.33125Q117.45625 30.690624 117.45625 29.925Q117.45625 29.2375 117.76875 28.64375Q118.09688 28.05 118.64375 27.659374Q119.05 27.3625 119.75313 27.159374Q120.47188 26.940624 121.28438 26.940624Q122.50313 26.940624 123.425 27.3Q124.34688 27.64375 124.78438 28.253124Q125.22188 28.846874 125.39375 29.846874L123.675 30.08125Q123.55 29.284374 122.9875 28.846874Q122.425 28.39375 121.40938 28.39375Q120.19063 28.39375 119.675 28.8Q119.15938 29.190624 119.15938 29.721874Q119.15938 30.065624 119.37813 30.346874Q119.58125 30.628124 120.05 30.815624Q120.31563 30.909374 121.59688 31.253124Q123.47188 31.753124 124.20625 32.08125Q124.94063 32.39375 125.3625 33.003124Q125.78438 33.596874 125.78438 34.503124Q125.78438 35.378124 125.26875 36.159374Q124.75313 36.940624 123.78438 37.3625Q122.81563 37.784374 121.59688 37.784374Q119.58125 37.784374 118.51875 36.940624Q117.45625 36.096874 117.15938 34.45625ZM134.97188 34.20625L136.78438 34.440624Q136.3625 36.01875 135.19063 36.909374Q134.03438 37.784374 132.22188 37.784374Q129.95625 37.784374 128.6125 36.39375Q127.28438 34.9875 127.28438 32.45625Q127.28438 29.83125 128.62813 28.39375Q129.97188 26.940624 132.12813 26.940624Q134.20625 26.940624 135.51875 28.3625Q136.84688 29.76875 136.84688 32.346874Q136.84688 32.503124 136.83125 32.815624L129.09688 32.815624Q129.19063 34.51875 130.06563 35.425Q130.94063 36.33125 132.2375 36.33125Q133.20625 36.33125 133.87813 35.83125Q134.56563 35.315624 134.97188 34.20625ZM129.19063 31.3625L134.9875 31.3625Q134.87813 30.065624 134.33125 29.409374Q133.4875 28.39375 132.14375 28.39375Q130.94063 28.39375 130.1125 29.20625Q129.28438 30.003124 129.19063 31.3625ZM145.64375 33.753124L147.3625 33.971874Q147.08125 35.76875 145.90938 36.784374Q144.75313 37.784374 143.05 37.784374Q140.925 37.784374 139.62813 36.39375Q138.33125 35.003124 138.33125 32.409374Q138.33125 30.721874 138.87813 29.471874Q139.44063 28.20625 140.58125 27.58125Q141.72188 26.940624 143.06563 26.940624Q144.75313 26.940624 145.81563 27.8Q146.89375 28.659374 147.20625 30.221874L145.4875 30.4875Q145.25313 29.440624 144.62813 28.925Q144.00313 28.39375 143.12813 28.39375Q141.8 28.39375 140.97188 29.346874Q140.14375 30.3 140.14375 32.346874Q140.14375 34.440624 140.94063 35.39375Q141.7375 36.33125 143.03438 36.33125Q144.06563 36.33125 144.75313 35.70625Q145.45625 35.065624 145.64375 33.753124ZM148.22188 32.3625Q148.22188 29.4875 149.81563 28.096874Q151.15938 26.940624 153.08125 26.940624Q155.22188 26.940624 156.56563 28.346874Q157.925 29.753124 157.925 32.221874Q157.925 34.221874 157.33125 35.378124Q156.7375 36.51875 155.58125 37.159374Q154.44063 37.784374 153.08125 37.784374Q150.89375 37.784374 149.55 36.39375Q148.22188 34.9875 148.22188 32.3625ZM150.01875 32.3625Q150.01875 34.3625 150.87813 35.346874Q151.75313 36.33125 153.08125 36.33125Q154.39375 36.33125 155.25313 35.346874Q156.12813 34.346874 156.12813 32.3Q156.12813 30.378124 155.25313 29.39375Q154.37813 28.39375 153.08125 28.39375Q151.75313 28.39375 150.87813 29.39375Q150.01875 30.378124 150.01875 32.3625ZM159.8625 37.55L159.8625 27.175L161.45625 27.175L161.45625 28.659374Q162.59688 26.940624 164.75313 26.940624Q165.69063 26.940624 166.47188 27.284374Q167.26875 27.6125 167.65938 28.159374Q168.05 28.70625 168.20625 29.45625Q168.3 29.95625 168.3 31.175L168.3 37.55L166.53438 37.55L166.53438 31.2375Q166.53438 30.159374 166.33125 29.628124Q166.12813 29.096874 165.59688 28.784374Q165.08125 28.471874 164.37813 28.471874Q163.25313 28.471874 162.44063 29.190624Q161.62813 29.89375 161.62813 31.878124L161.62813 37.55L159.8625 37.55ZM176.59688 37.55L176.59688 36.2375Q175.6125 37.784374 173.69063 37.784374Q172.45625 37.784374 171.40938 37.096874Q170.37813 36.409374 169.8 35.190624Q169.2375 33.971874 169.2375 32.378124Q169.2375 30.815624 169.75313 29.55Q170.26875 28.284374 171.3 27.6125Q172.34688 26.940624 173.6125 26.940624Q174.55 26.940624 175.28438 27.346874Q176.01875 27.7375 176.4875 28.3625L176.4875 23.2375L178.22188 23.2375L178.22188 37.55L176.59688 37.55ZM171.03438 32.378124Q171.03438 34.3625 171.87813 35.346874Q172.72188 36.33125 173.8625 36.33125Q175.01875 36.33125 175.81563 35.39375Q176.62813 34.45625 176.62813 32.51875Q176.62813 30.39375 175.8 29.39375Q174.9875 28.39375 173.78438 28.39375Q172.6125 28.39375 171.81563 29.3625Q171.03438 30.315624 171.03438 32.378124ZM180.15938 34.45625L181.90938 34.175Q182.05 35.221874 182.72188 35.784374Q183.39375 36.33125 184.59688 36.33125Q185.8 36.33125 186.37813 35.846874Q186.97188 35.346874 186.97188 34.690624Q186.97188 34.096874 186.45625 33.753124Q186.09688 33.51875 184.65938 33.159374Q182.72188 32.659374 181.97188 32.315624Q181.2375 31.95625 180.84688 31.33125Q180.45625 30.690624 180.45625 29.925Q180.45625 29.2375 180.76875 28.64375Q181.09688 28.05 181.64375 27.659374Q182.05 27.3625 182.75313 27.159374Q183.47188 26.940624 184.28438 26.940624Q185.50313 26.940624 186.425 27.3Q187.34688 27.64375 187.78438 28.253124Q188.22188 28.846874 188.39375 29.846874L186.675 30.08125Q186.55 29.284374 185.9875 28.846874Q185.425 28.39375 184.40938 28.39375Q183.19063 28.39375 182.675 28.8Q182.15938 29.190624 182.15938 29.721874Q182.15938 30.065624 182.37813 30.346874Q182.58125 30.628124 183.05 30.815624Q183.31563 30.909374 184.59688 31.253124Q186.47188 31.753124 187.20625 32.08125Q187.94063 32.39375 188.3625 33.003124Q188.78438 33.596874 188.78438 34.503124Q188.78438 35.378124 188.26875 36.159374Q187.75313 36.940624 186.78438 37.3625Q185.81563 37.784374 184.59688 37.784374Q182.58125 37.784374 181.51875 36.940624Q180.45625 36.096874 180.15938 34.45625ZM192.01875 41.753124L190.76875 41.753124Q193.675 37.065624 193.675 32.378124Q193.675 30.534374 193.26875 28.7375Q192.925 27.26875 192.33125 25.925Q191.95625 25.034374 190.76875 22.9875L192.01875 22.9875Q193.8625 25.440624 194.7375 27.909374Q195.4875 30.034374 195.4875 32.3625Q195.4875 35.003124 194.47188 37.471874Q193.47188 39.925 192.01875 41.753124ZM206.75313 37.55L202.8 27.175L204.65938 27.175L206.89375 33.39375Q207.25313 34.39375 207.55 35.471874Q207.78438 34.659374 208.20625 33.503124L210.50313 27.175L212.31563 27.175L208.39375 37.55L206.75313 37.55ZM212.15938 34.45625L213.90938 34.175Q214.05 35.221874 214.72188 35.784374Q215.39375 36.33125 216.59688 36.33125Q217.8 36.33125 218.37813 35.846874Q218.97188 35.346874 218.97188 34.690624Q218.97188 34.096874 218.45625 33.753124Q218.09688 33.51875 216.65938 33.159374Q214.72188 32.659374 213.97188 32.315624Q213.2375 31.95625 212.84688 31.33125Q212.45625 30.690624 212.45625 29.925Q212.45625 29.2375 212.76875 28.64375Q213.09688 28.05 213.64375 27.659374Q214.05 27.3625 214.75313 27.159374Q215.47188 26.940624 216.28438 26.940624Q217.50313 26.940624 218.425 27.3Q219.34688 27.64375 219.78438 28.253124Q220.22188 28.846874 220.39375 29.846874L218.675 30.08125Q218.55 29.284374 217.9875 28.846874Q217.425 28.39375 216.40938 28.39375Q215.19063 28.39375 214.675 28.8Q214.15938 29.190624 214.15938 29.721874Q214.15938 30.065624 214.37813 30.346874Q214.58125 30.628124 215.05 30.815624Q215.31563 30.909374 216.59688 31.253124Q218.47188 31.753124 219.20625 32.08125Q219.94063 32.39375 220.3625 33.003124Q220.78438 33.596874 220.78438 34.503124Q220.78438 35.378124 220.26875 36.159374Q219.75313 36.940624 218.78438 37.3625Q217.81563 37.784374 216.59688 37.784374Q214.58125 37.784374 213.51875 36.940624Q212.45625 36.096874 212.15938 34.45625ZM223.3625 37.55L223.3625 35.55L225.3625 35.55L225.3625 37.55L223.3625 37.55ZM234.45625 32.95625L236.2375 32.8Q236.3625 33.8625 236.81563 34.55Q237.28438 35.2375 238.25313 35.675Q239.2375 36.096874 240.47188 36.096874Q241.55 36.096874 242.37813 35.784374Q243.20625 35.45625 243.6125 34.89375Q244.01875 34.33125 244.01875 33.659374Q244.01875 32.9875 243.62813 32.4875Q243.2375 31.9875 242.34688 31.64375Q241.76875 31.409374 239.78438 30.940624Q237.81563 30.471874 237.03438 30.05Q236.00313 29.51875 235.50313 28.721874Q235.00313 27.925 235.00313 26.940624Q235.00313 25.846874 235.6125 24.909374Q236.22188 23.971874 237.40938 23.4875Q238.59688 22.9875 240.03438 22.9875Q241.62813 22.9875 242.84688 23.503124Q244.06563 24.01875 244.70625 25.01875Q245.3625 26.003124 245.40938 27.26875L243.59688 27.409374Q243.45625 26.05 242.6125 25.3625Q241.76875 24.659374 240.1125 24.659374Q238.39375 24.659374 237.59688 25.3Q236.81563 25.925 236.81563 26.8Q236.81563 27.58125 237.37813 28.08125Q237.925 28.58125 240.2375 29.096874Q242.55 29.6125 243.40938 30.003124Q244.65938 30.58125 245.25313 31.471874Q245.84688 32.346874 245.84688 33.503124Q245.84688 34.64375 245.19063 35.659374Q244.53438 36.675 243.3 37.2375Q242.08125 37.8 240.55 37.8Q238.6125 37.8 237.3 37.2375Q235.9875 36.659374 235.2375 35.51875Q234.4875 34.378124 234.45625 32.95625ZM247.87813 25.253124L247.87813 23.2375L249.64375 23.2375L249.64375 25.253124L247.87813 25.253124ZM247.87813 37.55L247.87813 27.175L249.64375 27.175L249.64375 37.55L247.87813 37.55ZM250.94063 37.55L250.94063 36.128124L257.55 28.55Q256.425 28.596874 255.56563 28.596874L251.33125 28.596874L251.33125 27.175L259.8156 27.175L259.8156 28.346874L254.19063 34.925L253.1125 36.128124Q254.28438 36.034374 255.33125 36.034374L260.1281 36.034374L260.1281 37.55L250.94063 37.55ZM267.97186 34.20625L269.78436 34.440624Q269.3625 36.01875 268.1906 36.909374Q267.03436 37.784374 265.22186 37.784374Q262.95624 37.784374 261.6125 36.39375Q260.28436 34.9875 260.28436 32.45625Q260.28436 29.83125 261.6281 28.39375Q262.97186 26.940624 265.1281 26.940624Q267.20624 26.940624 268.51874 28.3625Q269.84686 29.76875 269.84686 32.346874Q269.84686 32.503124 269.83124 32.815624L262.09686 32.815624Q262.1906 34.51875 263.0656 35.425Q263.9406 36.33125 265.2375 36.33125Q266.20624 36.33125 266.8781 35.83125Q267.5656 35.315624 267.97186 34.20625ZM262.1906 31.3625L267.9875 31.3625Q267.8781 30.065624 267.33124 29.409374Q266.4875 28.39375 265.14374 28.39375Q263.9406 28.39375 263.1125 29.20625Q262.28436 30.003124 262.1906 31.3625ZM281.22186 41.753124Q279.76874 39.925 278.76874 37.471874Q277.76874 35.003124 277.76874 32.3625Q277.76874 30.034374 278.51874 27.909374Q279.39374 25.440624 281.22186 22.9875L282.4875 22.9875Q281.3 25.01875 280.925 25.89375Q280.33124 27.2375 279.9875 28.70625Q279.5656 30.534374 279.5656 32.378124Q279.5656 37.065624 282.4875 41.753124L281.22186 41.753124ZM285.08124 37.55L285.08124 23.2375L287.01874 23.2375L294.53436 34.471874L294.53436 23.2375L296.34686 23.2375L296.34686 37.55L294.40936 37.55L286.89374 26.3L286.89374 37.55L285.08124 37.55ZM299.01874 41.753124L297.76874 41.753124Q300.675 37.065624 300.675 32.378124Q300.675 30.534374 300.26874 28.7375Q299.925 27.26875 299.33124 25.925Q298.95624 25.034374 297.76874 22.9875L299.01874 22.9875Q300.8625 25.440624 301.7375 27.909374Q302.4875 30.034374 302.4875 32.3625Q302.4875 35.003124 301.47186 37.471874Q300.47186 39.925 299.01874 41.753124Z" fill-rule="nonzero"/></svg>