<svg version="1.1" viewBox="0.0 0.0 600.0 371.0" fill="none" stroke="none" stroke-linecap="square" stroke-miterlimit="10" width="600" height="371" xmlns:xlink="http://www.w3.org/1999/xlink" xmlns="http://www.w3.org/2000/svg"><path fill="#ffffff" d="M0 0L600.0 0L600.0 371.0L0 371.0L0 0Z" fill-rule="nonzero"/><path stroke="#333333" stroke-width="1.0" stroke-linecap="butt" d="M91.5 61.5L91.5 300.5" fill-rule="nonzero"/><path stroke="#cccccc" stroke-width="1.0" stroke-linecap="butt" d="M209.5 61.5L209.5 300.5" fill-rule="nonzero"/><path stroke="#cccccc" stroke-width="1.0" stroke-linecap="butt" d="M327.5 61.5L327.5 300.5" fill-rule="nonzero"/><path stroke="#cccccc" stroke-width="1.0" stroke-linecap="butt" d="M445.5 61.5L445.5 300.5" fill-rule="nonzero"/><path stroke="#cccccc" stroke-width="1.0" stroke-linecap="butt" d="M563.5 61.5L563.5 300.5" fill-rule="nonzero"/><path stroke="#333333" stroke-width="1.0" stroke-linecap="butt" d="M84.5 300.5L581.5 300.5" fill-rule="nonzero"/><path stroke="#cccccc" stroke-width="1.0" stroke-linecap="butt" d="M84.5 240.5L581.5 240.5" fill-rule="nonzero"/><path stroke="#cccccc" stroke-width="1.0" stroke-linecap="butt" d="M84.5 181.5L581.5 181.5" fill-rule="nonzero"/><path stroke="#cccccc" stroke-width="1.0" stroke-linecap="butt" d="M84.5 121.5L581.5 121.5" fill-rule="nonzero"/><path stroke="#cccccc" stroke-width="1.0" stroke-linecap="butt" d="M84.5 61.5L581.5 61.5" fill-rule="nonzero"/><clipPath id="id_0"><path d="M84.55 61.916668L581.45 61.916668L581.45 300.45L84.55 300.45L84.55 61.916668Z" clip-rule="nonzero"/></clipPath><path fill="#4285f4" clip-path="url(#id_0)" d="M95.858185 286.0935C95.858185 288.5788 93.84346 290.5935 91.358185 290.5935C88.8729 290.5935 86.858185 288.5788 86.858185 286.0935C86.858185 283.60822 88.8729 281.5935 91.358185 281.5935C93.84346 281.5935 95.858185 283.60822 95.858185 286.0935Z" fill-rule="nonzero"/><path fill="#4285f4" clip-path="url(#id_0)" d="M96.09428 282.72906C96.09428 285.21436 94.07956 287.22906 91.59428 287.22906C89.10899 287.22906 87.09428 285.21436 87.09428 282.72906C87.09428 280.24377 89.10899 278.22906 91.59428 278.22906C94.07956 278.22906 96.09428 280.24377 96.09428 282.72906Z" fill-rule="nonzero"/><path fill="#4285f4" clip-path="url(#id_0)" d="M96.56646 279.20355C96.56646 281.6888 94.55174 283.70355 92.06646 283.70355C89.581184 283.70355 87.56646 281.6888 87.56646 279.20355C87.56646 276.71826 89.581184 274.70355 92.06646 274.70355C94.55174 274.70355 96.56646 276.71826 96.56646 279.20355Z" fill-rule="nonzero"/><path fill="#4285f4" clip-path="url(#id_0)" d="M97.51083 275.41913C97.51083 277.90442 95.49612 279.91913 93.01083 279.91913C90.52556 279.91913 88.51083 277.90442 88.51083 275.41913C88.51083 272.93384 90.52556 270.91913 93.01083 270.91913C95.49612 270.91913 97.51083 272.93384 97.51083 275.41913Z" fill-rule="nonzero"/><path fill="#4285f4" clip-path="url(#id_0)" d="M99.39959 267.81027C99.39959 270.29556 97.384865 272.31027 94.89959 272.31027C92.41431 272.31027 90.39959 270.29556 90.39959 267.81027C90.39959 265.325 92.41431 263.31027 94.89959 263.31027C97.384865 263.31027 99.39959 265.325 99.39959 267.81027Z" fill-rule="nonzero"/><path fill="#4285f4" clip-path="url(#id_0)" d="M103.177086 247.22853C103.177086 249.7138 101.16237 251.72853 98.677086 251.72853C96.1918 251.72853 94.177086 249.7138 94.177086 247.22853C94.177086 244.74324 96.1918 242.72853 98.677086 242.72853C101.16237 242.72853 103.177086 244.74324 103.177086 247.22853Z" fill-rule="nonzero"/><path fill="#4285f4" clip-path="url(#id_0)" d="M110.73208 228.2028C110.73208 230.6881 108.71736 232.7028 106.23208 232.7028C103.746796 232.7028 101.73208 230.6881 101.73208 228.2028C101.73208 225.71753 103.746796 223.7028 106.23208 223.7028C108.71736 223.7028 110.73208 225.71753 110.73208 228.2028Z" fill-rule="nonzero"/><path fill="#4285f4" clip-path="url(#id_0)" d="M125.84207 207.09451C125.84207 209.5798 123.827354 211.59451 121.34207 211.59451C118.85679 211.59451 116.84207 209.5798 116.84207 207.09451C116.84207 204.60924 118.85679 202.59451 121.34207 202.59451C123.827354 202.59451 125.84207 204.60924 125.84207 207.09451Z" fill-rule="nonzero"/><path fill="#4285f4" clip-path="url(#id_0)" d="M156.06206 179.2833C156.06206 181.76859 154.04733 183.7833 151.56206 183.7833C149.07677 183.7833 147.06206 181.76859 147.06206 179.2833C147.06206 176.79802 149.07677 174.7833 151.56206 174.7833C154.04733 174.7833 156.06206 176.79802 156.06206 179.2833Z" fill-rule="nonzero"/><path fill="#4285f4" clip-path="url(#id_0)" d="M216.50201 157.13942C216.50201 159.62471 214.4873 161.63942 212.00201 161.63942C209.51674 161.63942 207.50201 159.62471 207.50201 157.13942C207.50201 154.65414 209.51674 152.63942 212.00201 152.63942C214.4873 152.63942 216.50201 154.65414 216.50201 157.13942Z" fill-rule="nonzero"/><path fill="#4285f4" clip-path="url(#id_0)" d="M337.38196 128.8901C337.38196 131.37538 335.36725 133.3901 332.88196 133.3901C330.39667 133.3901 328.38196 131.37538 328.38196 128.8901C328.38196 126.40482 330.39667 124.39011 332.88196 124.39011C335.36725 124.39011 337.38196 126.40482 337.38196 128.8901Z" fill-rule="nonzero"/><path fill="#4285f4" clip-path="url(#id_0)" d="M579.14185 102.308784C579.14185 104.79407 577.1271 106.808784 574.64185 106.808784C572.15656 106.808784 570.14185 104.79407 570.14185 102.308784C570.14185 99.8235 572.15656 97.808784 574.64185 97.808784C577.1271 97.808784 579.14185 99.8235 579.14185 102.308784Z" fill-rule="nonzero"/><path fill="#000000" d="M312.04688 346.6844L313.10938 346.59064Q313.1875 347.2469 313.46875 347.65314Q313.75 348.0594 314.32812 348.325Q314.92188 348.575 315.65625 348.575Q316.29688 348.575 316.79688 348.3875Q317.29688 348.1844 317.53125 347.85626Q317.78125 347.5125 317.78125 347.1219Q317.78125 346.71564 317.54688 346.41876Q317.3125 346.10626 316.78125 345.90314Q316.42188 345.7625 315.23438 345.48126Q314.0625 345.2 313.59375 344.95Q312.96875 344.6219 312.67188 344.15314Q312.375 343.66876 312.375 343.075Q312.375 342.4344 312.73438 341.8719Q313.10938 341.29376 313.8125 341.0125Q314.53125 340.71564 315.39062 340.71564Q316.34375 340.71564 317.07812 341.02814Q317.8125 341.325 318.20312 341.9344Q318.59375 342.52814 318.625 343.27814L317.53125 343.35626Q317.4375 342.54376 316.92188 342.1375Q316.42188 341.71564 315.4375 341.71564Q314.40625 341.71564 313.9375 342.09064Q313.46875 342.46564 313.46875 342.9969Q313.46875 343.46564 313.79688 343.7625Q314.125 344.0594 315.5 344.3719Q316.89062 344.6844 317.40625 344.91876Q318.15625 345.27814 318.51562 345.8094Q318.875 346.325 318.875 347.02814Q318.875 347.71564 318.48438 348.325Q318.09375 348.91876 317.35938 349.2625Q316.625 349.59064 315.70312 349.59064Q314.53125 349.59064 313.73438 349.2625Q312.95312 348.91876 312.5 348.23126Q312.0625 347.54376 312.04688 346.6844ZM320.29688 342.075L320.29688 340.85626L321.35938 340.85626L321.35938 342.075L320.29688 342.075ZM320.29688 349.45L320.29688 343.23126L321.35938 343.23126L321.35938 349.45L320.29688 349.45ZM322.73438 349.45L322.73438 348.59064L326.70312 344.04376Q326.01562 344.075 325.5 344.075L322.96875 344.075L322.96875 343.23126L328.0625 343.23126L328.0625 343.91876L324.6875 347.8719L324.03125 348.59064Q324.75 348.54376 325.35938 348.54376L328.25 348.54376L328.25 349.45L322.73438 349.45ZM332.54688 347.45L333.64062 347.575Q333.39062 348.52814 332.6875 349.0594Q331.98438 349.59064 330.90625 349.59064Q329.54688 349.59064 328.73438 348.7469Q327.9375 347.90314 327.9375 346.3875Q327.9375 344.825 328.75 343.96564Q329.5625 343.09064 330.84375 343.09064Q332.09375 343.09064 332.875 343.9344Q333.67188 344.77814 333.67188 346.325Q333.67188 346.41876 333.67188 346.60626L329.03125 346.60626Q329.09375 347.6375 329.60938 348.1844Q330.125 348.71564 330.90625 348.71564Q331.48438 348.71564 331.89062 348.41876Q332.3125 348.10626 332.54688 347.45ZM329.09375 345.7469L332.5625 345.7469Q332.5 344.95 332.17188 344.5594Q331.65625 343.95 330.85938 343.95Q330.125 343.95 329.625 344.4344Q329.14062 344.91876 329.09375 345.7469ZM340.3125 351.98126Q339.4375 350.8719 338.82812 349.40314Q338.23438 347.91876 338.23438 346.34064Q338.23438 344.95 338.67188 343.66876Q339.20312 342.1844 340.3125 340.71564L341.0625 340.71564Q340.35938 341.9344 340.125 342.45Q339.76562 343.2625 339.5625 344.1375Q339.3125 345.23126 339.3125 346.34064Q339.3125 349.16876 341.0625 351.98126L340.3125 351.98126ZM342.42188 349.45L342.42188 340.85626L343.57812 340.85626L348.09375 347.60626L348.09375 340.85626L349.1875 340.85626L349.1875 349.45L348.01562 349.45L343.5 342.7L343.5 349.45L342.42188 349.45ZM351.98438 351.98126L351.23438 351.98126Q352.98438 349.16876 352.98438 346.34064Q352.98438 345.2469 352.73438 344.15314Q352.53125 343.27814 352.17188 342.46564Q351.9375 341.95 351.23438 340.71564L351.98438 340.71564Q353.07812 342.1844 353.60938 343.66876Q354.0625 344.95 354.0625 346.34064Q354.0625 347.91876 353.45312 349.40314Q352.84375 350.8719 351.98438 351.98126Z" fill-rule="nonzero"/><path fill="#000000" d="M29.550013 242.07396L21.971888 242.07396L21.971888 244.90208L20.956263 244.90208L20.956263 238.08958L21.971888 238.08958L21.971888 240.93333L29.550013 240.93333L29.550013 242.07396ZM22.175013 237.38646L20.956263 237.38646L20.956263 236.32396L22.175013 236.32396L22.175013 237.38646ZM29.550013 237.38646L23.331263 237.38646L23.331263 236.32396L29.550013 236.32396L29.550013 237.38646ZM29.550013 234.38646L23.331263 234.38646L23.331263 233.44896L24.206263 233.44896Q23.737513 233.15208 23.471888 232.66771Q23.190638 232.18333 23.190638 231.55833Q23.190638 230.87083 23.471888 230.43333Q23.753138 229.98021 24.268763 229.80833Q23.190638 229.05833 23.190638 227.88646Q23.190638 226.94896 23.706263 226.46458Q24.206263 225.96458 25.284388 225.96458L29.550013 225.96458L29.550013 227.01146L25.628138 227.01146Q25.003138 227.01146 24.721888 227.12083Q24.440638 227.21458 24.268763 227.48021Q24.096888 227.74583 24.096888 228.12083Q24.096888 228.77708 24.534388 229.21458Q24.971888 229.63646 25.940638 229.63646L29.550013 229.63646L29.550013 230.69896L25.503138 230.69896Q24.800013 230.69896 24.456263 230.96458Q24.096888 231.21458 24.096888 231.79271Q24.096888 232.24583 24.331263 232.62083Q24.565638 232.99583 25.018763 233.16771Q25.471888 233.33958 26.315638 233.33958L29.550013 233.33958L29.550013 234.38646ZM27.550013 219.13646L27.675013 218.04271Q28.628138 218.29271 29.159388 218.99583Q29.690638 219.69896 29.690638 220.77708Q29.690638 222.13646 28.846888 222.94896Q28.003138 223.74583 26.487513 223.74583Q24.925013 223.74583 24.065638 222.93333Q23.190638 222.12083 23.190638 220.83958Q23.190638 219.58958 24.034388 218.80833Q24.878138 218.01146 26.425013 218.01146Q26.518763 218.01146 26.706263 218.01146L26.706263 222.65208Q27.737513 222.58958 28.284388 222.07396Q28.815638 221.55833 28.815638 220.77708Q28.815638 220.19896 28.518763 219.79271Q28.206263 219.37083 27.550013 219.13646ZM25.846888 222.58958L25.846888 219.12083Q25.050013 219.18333 24.659388 219.51146Q24.050013 220.02708 24.050013 220.82396Q24.050013 221.55833 24.534388 222.05833Q25.018763 222.54271 25.846888 222.58958ZM32.08126 211.37083Q30.971888 212.24583 29.503138 212.85521Q28.018763 213.44896 26.440638 213.44896Q25.050013 213.44896 23.768763 213.01146Q22.284388 212.48021 20.815638 211.37083L20.815638 210.62083Q22.034388 211.32396 22.550013 211.55833Q23.362513 211.91771 24.237513 212.12083Q25.331263 212.37083 26.440638 212.37083Q29.268763 212.37083 32.08126 210.62083L32.08126 211.37083ZM29.550013 209.38646L23.331263 209.38646L23.331263 208.44896L24.206263 208.44896Q23.190638 207.76146 23.190638 206.46458Q23.190638 205.90208 23.393763 205.43333Q23.596888 204.94896 23.925013 204.71458Q24.253138 204.48021 24.690638 204.38646Q24.987513 204.33958 25.721888 204.33958L29.550013 204.33958L29.550013 205.38646L25.768763 205.38646Q25.112513 205.38646 24.800013 205.51146Q24.487513 205.63646 24.300013 205.94896Q24.096888 206.26146 24.096888 206.68333Q24.096888 207.35521 24.534388 207.85521Q24.956263 208.33958 26.143763 208.33958L29.550013 208.33958L29.550013 209.38646ZM28.784388 198.32396Q29.284388 198.91771 29.487513 199.46458Q29.690638 199.99583 29.690638 200.62083Q29.690638 201.65208 29.190638 202.19896Q28.690638 202.74583 27.909388 202.74583Q27.456263 202.74583 27.081263 202.54271Q26.690638 202.33958 26.471888 201.99583Q26.237513 201.65208 26.128138 201.23021Q26.034388 200.93333 25.956263 200.29271Q25.815638 199.02708 25.596888 198.41771Q25.378138 198.41771 25.331263 198.41771Q24.675013 198.41771 24.409388 198.71458Q24.065638 199.12083 24.065638 199.91771Q24.065638 200.65208 24.331263 201.01146Q24.581263 201.37083 25.237513 201.54271L25.096888 202.57396Q24.440638 202.43333 24.034388 202.10521Q23.628138 201.77708 23.409388 201.16771Q23.190638 200.55833 23.190638 199.76146Q23.190638 198.96458 23.378138 198.46458Q23.565638 197.96458 23.846888 197.73021Q24.128138 197.49583 24.565638 197.40208Q24.831263 197.35521 25.534388 197.35521L26.940638 197.35521Q28.409388 197.35521 28.800013 197.29271Q29.190638 197.21458 29.550013 197.01146L29.550013 198.12083Q29.221888 198.27708 28.784388 198.32396ZM26.425013 198.41771Q26.659388 198.99583 26.831263 200.13646Q26.925013 200.79271 27.050013 201.05833Q27.159388 201.32396 27.378138 201.48021Q27.596888 201.62083 27.878138 201.62083Q28.300013 201.62083 28.581263 201.30833Q28.862513 200.98021 28.862513 200.37083Q28.862513 199.76146 28.596888 199.29271Q28.331263 198.80833 27.862513 198.58958Q27.503138 198.41771 26.815638 198.41771L26.425013 198.41771ZM29.550013 195.38646L23.331263 195.38646L23.331263 194.44896L24.206263 194.44896Q23.190638 193.76146 23.190638 192.46458Q23.190638 191.90208 23.393763 191.43333Q23.596888 190.94896 23.925013 190.71458Q24.253138 190.48021 24.690638 190.38646Q24.987513 190.33958 25.721888 190.33958L29.550013 190.33958L29.550013 191.38646L25.768763 191.38646Q25.112513 191.38646 24.800013 191.51146Q24.487513 191.63646 24.300013 191.94896Q24.096888 192.26146 24.096888 192.68333Q24.096888 193.35521 24.534388 193.85521Q24.956263 194.33958 26.143763 194.33958L29.550013 194.33958L29.550013 195.38646ZM26.440638 188.77708Q24.706263 188.77708 23.878138 187.82396Q23.190638 187.02708 23.190638 185.87083Q23.190638 184.58958 24.034388 183.77708Q24.862513 182.94896 26.346888 182.94896Q27.550013 182.94896 28.237513 183.30833Q28.925013 183.66771 29.315638 184.37083Q29.690638 185.05833 29.690638 185.87083Q29.690638 187.16771 28.862513 187.98021Q28.018763 188.77708 26.440638 188.77708ZM26.440638 187.69896Q27.628138 187.69896 28.221888 187.18333Q28.815638 186.65208 28.815638 185.87083Q28.815638 185.07396 28.221888 184.55833Q27.628138 184.04271 26.409388 184.04271Q25.253138 184.04271 24.659388 184.57396Q24.065638 185.08958 24.065638 185.87083Q24.065638 186.65208 24.659388 187.18333Q25.237513 187.69896 26.440638 187.69896ZM27.690638 181.80833L27.534388 180.77708Q28.159388 180.68333 28.487513 180.29271Q28.815638 179.88646 28.815638 179.15208Q28.815638 178.43333 28.534388 178.08958Q28.237513 177.73021 27.831263 177.73021Q27.471888 177.73021 27.268763 178.04271Q27.128138 178.26146 26.909388 179.12083Q26.612513 180.27708 26.409388 180.73021Q26.190638 181.16771 25.815638 181.40208Q25.440638 181.63646 24.971888 181.63646Q24.565638 181.63646 24.206263 181.44896Q23.846888 181.26146 23.612513 180.93333Q23.440638 180.68333 23.315638 180.26146Q23.190638 179.83958 23.190638 179.33958Q23.190638 178.62083 23.409388 178.07396Q23.612513 177.51146 23.971888 177.24583Q24.331263 176.98021 24.925013 176.88646L25.065638 177.91771Q24.596888 177.98021 24.331263 178.32396Q24.050013 178.65208 24.050013 179.27708Q24.050013 179.99583 24.300013 180.30833Q24.534388 180.62083 24.862513 180.62083Q25.065638 180.62083 25.221888 180.49583Q25.393763 180.35521 25.503138 180.08958Q25.565638 179.93333 25.768763 179.15208Q26.081263 178.02708 26.268763 177.58958Q26.456263 177.15208 26.815638 176.90208Q27.175013 176.65208 27.721888 176.65208Q28.253138 176.65208 28.721888 176.96458Q29.175013 177.26146 29.440638 177.83958Q29.690638 178.41771 29.690638 179.15208Q29.690638 180.37083 29.190638 181.01146Q28.675013 181.63646 27.690638 181.80833ZM27.550013 170.13646L27.675013 169.04271Q28.628138 169.29271 29.159388 169.99583Q29.690638 170.69896 29.690638 171.77708Q29.690638 173.13646 28.846888 173.94896Q28.003138 174.74583 26.487513 174.74583Q24.925013 174.74583 24.065638 173.93333Q23.190638 173.12083 23.190638 171.83958Q23.190638 170.58958 24.034388 169.80833Q24.878138 169.01146 26.425013 169.01146Q26.518763 169.01146 26.706263 169.01146L26.706263 173.65208Q27.737513 173.58958 28.284388 173.07396Q28.815638 172.55833 28.815638 171.77708Q28.815638 171.19896 28.518763 170.79271Q28.206263 170.37083 27.550013 170.13646ZM25.846888 173.58958L25.846888 170.12083Q25.050013 170.18333 24.659388 170.51146Q24.050013 171.02708 24.050013 171.82396Q24.050013 172.55833 24.534388 173.05833Q25.018763 173.54271 25.846888 173.58958ZM27.268763 163.32396L27.409388 162.29271Q28.471888 162.46458 29.081263 163.16771Q29.690638 163.87083 29.690638 164.88646Q29.690638 166.16771 28.862513 166.94896Q28.018763 167.71458 26.456263 167.71458Q25.456263 167.71458 24.706263 167.38646Q23.940638 167.04271 23.565638 166.37083Q23.190638 165.68333 23.190638 164.87083Q23.190638 163.87083 23.706263 163.23021Q24.206263 162.57396 25.159388 162.38646L25.315638 163.41771Q24.690638 163.55833 24.378138 163.93333Q24.050013 164.30833 24.050013 164.83958Q24.050013 165.63646 24.628138 166.13646Q25.190638 166.63646 26.425013 166.63646Q27.690638 166.63646 28.253138 166.15208Q28.815638 165.66771 28.815638 164.90208Q28.815638 164.27708 28.440638 163.87083Q28.065638 163.44896 27.268763 163.32396ZM26.440638 161.77708Q24.706263 161.77708 23.878138 160.82396Q23.190638 160.02708 23.190638 158.87083Q23.190638 157.58958 24.034388 156.77708Q24.862513 155.94896 26.346888 155.94896Q27.550013 155.94896 28.237513 156.30833Q28.925013 156.66771 29.315638 157.37083Q29.690638 158.05833 29.690638 158.87083Q29.690638 160.16771 28.862513 160.98021Q28.018763 161.77708 26.440638 161.77708ZM26.440638 160.69896Q27.628138 160.69896 28.221888 160.18333Q28.815638 159.65208 28.815638 158.87083Q28.815638 158.07396 28.221888 157.55833Q27.628138 157.04271 26.409388 157.04271Q25.253138 157.04271 24.659388 157.57396Q24.065638 158.08958 24.065638 158.87083Q24.065638 159.65208 24.659388 160.18333Q25.237513 160.69896 26.440638 160.69896ZM29.550013 154.38646L23.331263 154.38646L23.331263 153.44896L24.206263 153.44896Q23.190638 152.76146 23.190638 151.46458Q23.190638 150.90208 23.393763 150.43333Q23.596888 149.94896 23.925013 149.71458Q24.253138 149.48021 24.690638 149.38646Q24.987513 149.33958 25.721888 149.33958L29.550013 149.33958L29.550013 150.38646L25.768763 150.38646Q25.112513 150.38646 24.800013 150.51146Q24.487513 150.63646 24.300013 150.94896Q24.096888 151.26146 24.096888 151.68333Q24.096888 152.35521 24.534388 152.85521Q24.956263 153.33958 26.143763 153.33958L29.550013 153.33958L29.550013 154.38646ZM29.550013 143.35521L28.768763 143.35521Q29.690638 143.94896 29.690638 145.08958Q29.690638 145.83958 29.284388 146.46458Q28.862513 147.08958 28.128138 147.43333Q27.393763 147.77708 26.440638 147.77708Q25.518763 147.77708 24.753138 147.46458Q23.987513 147.15208 23.596888 146.52708Q23.190638 145.90208 23.190638 145.13646Q23.190638 144.57396 23.425013 144.13646Q23.659388 143.69896 24.034388 143.41771L20.956263 143.41771L20.956263 142.37083L29.550013 142.37083L29.550013 143.35521ZM26.440638 146.68333Q27.643763 146.68333 28.237513 146.18333Q28.815638 145.68333 28.815638 144.99583Q28.815638 144.30833 28.253138 143.82396Q27.690638 143.33958 26.534388 143.33958Q25.253138 143.33958 24.659388 143.83958Q24.065638 144.32396 24.065638 145.04271Q24.065638 145.74583 24.643763 146.21458Q25.206263 146.68333 26.440638 146.68333ZM27.690638 140.80833L27.534388 139.77708Q28.159388 139.68333 28.487513 139.29271Q28.815638 138.88646 28.815638 138.15208Q28.815638 137.43333 28.534388 137.08958Q28.237513 136.73021 27.831263 136.73021Q27.471888 136.73021 27.268763 137.04271Q27.128138 137.26146 26.909388 138.12083Q26.612513 139.27708 26.409388 139.73021Q26.190638 140.16771 25.815638 140.40208Q25.440638 140.63646 24.971888 140.63646Q24.565638 140.63646 24.206263 140.44896Q23.846888 140.26146 23.612513 139.93333Q23.440638 139.68333 23.315638 139.26146Q23.190638 138.83958 23.190638 138.33958Q23.190638 137.62083 23.409388 137.07396Q23.612513 136.51146 23.971888 136.24583Q24.331263 135.98021 24.925013 135.88646L25.065638 136.91771Q24.596888 136.98021 24.331263 137.32396Q24.050013 137.65208 24.050013 138.27708Q24.050013 138.99583 24.300013 139.30833Q24.534388 139.62083 24.862513 139.62083Q25.065638 139.62083 25.221888 139.49583Q25.393763 139.35521 25.503138 139.08958Q25.565638 138.93333 25.768763 138.15208Q26.081263 137.02708 26.268763 136.58958Q26.456263 136.15208 26.815638 135.90208Q27.175013 135.65208 27.721888 135.65208Q28.253138 135.65208 28.721888 135.96458Q29.175013 136.26146 29.440638 136.83958Q29.690638 137.41771 29.690638 138.15208Q29.690638 139.37083 29.190638 140.01146Q28.675013 140.63646 27.690638 140.80833ZM32.08126 132.69896L32.08126 133.44896Q29.268763 131.69896 26.440638 131.69896Q25.346888 131.69896 24.253138 131.94896Q23.378138 132.15208 22.565638 132.51146Q22.050013 132.74583 20.815638 133.44896L20.815638 132.69896Q22.284388 131.60521 23.768763 131.07396Q25.050013 130.62083 26.440638 130.62083Q28.018763 130.62083 29.503138 131.23021Q30.971888 131.83958 32.08126 132.69896Z" fill-rule="nonzero"/><path fill="#000000" d="M72.05 300.21564Q72.05 298.6844 72.3625 297.7625Q72.675 296.825 73.28438 296.325Q73.90938 295.825 74.84688 295.825Q75.53438 295.825 76.05 296.10626Q76.58125 296.3875 76.925 296.91876Q77.26875 297.4344 77.45625 298.1844Q77.64375 298.9344 77.64375 300.21564Q77.64375 301.73126 77.33125 302.65314Q77.03438 303.575 76.40938 304.09064Q75.8 304.59064 74.84688 304.59064Q73.6125 304.59064 72.89375 303.7Q72.05 302.6375 72.05 300.21564ZM73.12813 300.21564Q73.12813 302.325 73.62813 303.02814Q74.12813 303.73126 74.84688 303.73126Q75.58125 303.73126 76.06563 303.02814Q76.56563 302.325 76.56563 300.21564Q76.56563 298.09064 76.06563 297.40314Q75.58125 296.7 74.83125 296.7Q74.1125 296.7 73.675 297.3094Q73.12813 298.09064 73.12813 300.21564Z" fill-rule="nonzero"/><path fill="#000000" d="M58.05 242.56667L59.159374 242.47292Q59.284374 243.28542 59.721874 243.69167Q60.175 244.09792 60.815624 244.09792Q61.565624 244.09792 62.096874 243.51979Q62.628124 242.94167 62.628124 242.00417Q62.628124 241.09792 62.1125 240.58229Q61.6125 240.05104 60.784374 240.05104Q60.284374 240.05104 59.8625 240.28542Q59.45625 240.51979 59.221874 240.87917L58.2375 240.75417L59.065624 236.34792L63.346874 236.34792L63.346874 237.34792L59.909374 237.34792L59.45625 239.66042Q60.221874 239.11354 61.065624 239.11354Q62.190624 239.11354 62.95625 239.89479Q63.7375 240.67604 63.7375 241.91042Q63.7375 243.06667 63.065624 243.92604Q62.2375 244.95729 60.815624 244.95729Q59.64375 244.95729 58.89375 244.30104Q58.159374 243.64479 58.05 242.56667ZM65.05 240.58229Q65.05 239.05104 65.3625 238.12917Q65.675 237.19167 66.28438 236.69167Q66.90938 236.19167 67.84688 236.19167Q68.53438 236.19167 69.05 236.47292Q69.58125 236.75417 69.925 237.28542Q70.26875 237.80104 70.45625 238.55104Q70.64375 239.30104 70.64375 240.58229Q70.64375 242.09792 70.33125 243.01979Q70.03438 243.94167 69.40938 244.45729Q68.8 244.95729 67.84688 244.95729Q66.6125 244.95729 65.89375 244.06667Q65.05 243.00417 65.05 240.58229ZM66.12813 240.58229Q66.12813 242.69167 66.62813 243.39479Q67.12813 244.09792 67.84688 244.09792Q68.58125 244.09792 69.06563 243.39479Q69.56563 242.69167 69.56563 240.58229Q69.56563 238.45729 69.06563 237.76979Q68.58125 237.06667 67.83125 237.06667Q67.1125 237.06667 66.675 237.67604Q66.12813 238.45729 66.12813 240.58229ZM72.05 240.58229Q72.05 239.05104 72.3625 238.12917Q72.675 237.19167 73.28438 236.69167Q73.90938 236.19167 74.84688 236.19167Q75.53438 236.19167 76.05 236.47292Q76.58125 236.75417 76.925 237.28542Q77.26875 237.80104 77.45625 238.55104Q77.64375 239.30104 77.64375 240.58229Q77.64375 242.09792 77.33125 243.01979Q77.03438 243.94167 76.40938 244.45729Q75.8 244.95729 74.84688 244.95729Q73.6125 244.95729 72.89375 244.06667Q72.05 243.00417 72.05 240.58229ZM73.12813 240.58229Q73.12813 242.69167 73.62813 243.39479Q74.12813 244.09792 74.84688 244.09792Q75.58125 244.09792 76.06563 243.39479Q76.56563 242.69167 76.56563 240.58229Q76.56563 238.45729 76.06563 237.76979Q75.58125 237.06667 74.83125 237.06667Q74.1125 237.06667 73.675 237.67604Q73.12813 238.45729 73.12813 240.58229Z" fill-rule="nonzero"/><path fill="#000000" d="M55.01875 185.18333L53.971874 185.18333L53.971874 178.46458Q53.58125 178.82396 52.95625 179.19896Q52.346874 179.55833 51.8625 179.73021L51.8625 178.71458Q52.7375 178.29271 53.39375 177.71458Q54.065624 177.12083 54.346874 176.55833L55.01875 176.55833L55.01875 185.18333ZM58.05 180.94896Q58.05 179.41771 58.3625 178.49583Q58.675 177.55833 59.284374 177.05833Q59.909374 176.55833 60.846874 176.55833Q61.534374 176.55833 62.05 176.83958Q62.58125 177.12083 62.925 177.65208Q63.26875 178.16771 63.45625 178.91771Q63.64375 179.66771 63.64375 180.94896Q63.64375 182.46458 63.33125 183.38646Q63.034374 184.30833 62.409374 184.82396Q61.8 185.32396 60.846874 185.32396Q59.6125 185.32396 58.89375 184.43333Q58.05 183.37083 58.05 180.94896ZM59.128124 180.94896Q59.128124 183.05833 59.628124 183.76146Q60.128124 184.46458 60.846874 184.46458Q61.58125 184.46458 62.065624 183.76146Q62.565624 183.05833 62.565624 180.94896Q62.565624 178.82396 62.065624 178.13646Q61.58125 177.43333 60.83125 177.43333Q60.1125 177.43333 59.675 178.04271Q59.128124 178.82396 59.128124 180.94896ZM65.05 180.94896Q65.05 179.41771 65.3625 178.49583Q65.675 177.55833 66.28438 177.05833Q66.90938 176.55833 67.84688 176.55833Q68.53438 176.55833 69.05 176.83958Q69.58125 177.12083 69.925 177.65208Q70.26875 178.16771 70.45625 178.91771Q70.64375 179.66771 70.64375 180.94896Q70.64375 182.46458 70.33125 183.38646Q70.03438 184.30833 69.40938 184.82396Q68.8 185.32396 67.84688 185.32396Q66.6125 185.32396 65.89375 184.43333Q65.05 183.37083 65.05 180.94896ZM66.12813 180.94896Q66.12813 183.05833 66.62813 183.76146Q67.12813 184.46458 67.84688 184.46458Q68.58125 184.46458 69.06563 183.76146Q69.56563 183.05833 69.56563 180.94896Q69.56563 178.82396 69.06563 178.13646Q68.58125 177.43333 67.83125 177.43333Q67.1125 177.43333 66.675 178.04271Q66.12813 178.82396 66.12813 180.94896ZM72.05 180.94896Q72.05 179.41771 72.3625 178.49583Q72.675 177.55833 73.28438 177.05833Q73.90938 176.55833 74.84688 176.55833Q75.53438 176.55833 76.05 176.83958Q76.58125 177.12083 76.925 177.65208Q77.26875 178.16771 77.45625 178.91771Q77.64375 179.66771 77.64375 180.94896Q77.64375 182.46458 77.33125 183.38646Q77.03438 184.30833 76.40938 184.82396Q75.8 185.32396 74.84688 185.32396Q73.6125 185.32396 72.89375 184.43333Q72.05 183.37083 72.05 180.94896ZM73.12813 180.94896Q73.12813 183.05833 73.62813 183.76146Q74.12813 184.46458 74.84688 184.46458Q75.58125 184.46458 76.06563 183.76146Q76.56563 183.05833 76.56563 180.94896Q76.56563 178.82396 76.06563 178.13646Q75.58125 177.43333 74.83125 177.43333Q74.1125 177.43333 73.675 178.04271Q73.12813 178.82396 73.12813 180.94896Z" fill-rule="nonzero"/><path fill="#000000" d="M55.01875 125.55L53.971874 125.55L53.971874 118.83125Q53.58125 119.19063 52.95625 119.56563Q52.346874 119.925 51.8625 120.09688L51.8625 119.08125Q52.7375 118.65938 53.39375 118.08125Q54.065624 117.4875 54.346874 116.925L55.01875 116.925L55.01875 125.55ZM58.05 123.3L59.159374 123.20625Q59.284374 124.01875 59.721874 124.425Q60.175 124.83125 60.815624 124.83125Q61.565624 124.83125 62.096874 124.25313Q62.628124 123.675 62.628124 122.7375Q62.628124 121.83125 62.1125 121.31563Q61.6125 120.78438 60.784374 120.78438Q60.284374 120.78438 59.8625 121.01875Q59.45625 121.25313 59.221874 121.6125L58.2375 121.4875L59.065624 117.08125L63.346874 117.08125L63.346874 118.08125L59.909374 118.08125L59.45625 120.39375Q60.221874 119.84688 61.065624 119.84688Q62.190624 119.84688 62.95625 120.62813Q63.7375 121.40938 63.7375 122.64375Q63.7375 123.8 63.065624 124.65938Q62.2375 125.69063 60.815624 125.69063Q59.64375 125.69063 58.89375 125.03438Q58.159374 124.37813 58.05 123.3ZM65.05 121.31563Q65.05 119.78438 65.3625 118.8625Q65.675 117.925 66.28438 117.425Q66.90938 116.925 67.84688 116.925Q68.53438 116.925 69.05 117.20625Q69.58125 117.4875 69.925 118.01875Q70.26875 118.53438 70.45625 119.28438Q70.64375 120.03438 70.64375 121.31563Q70.64375 122.83125 70.33125 123.75313Q70.03438 124.675 69.40938 125.19063Q68.8 125.69063 67.84688 125.69063Q66.6125 125.69063 65.89375 124.8Q65.05 123.7375 65.05 121.31563ZM66.12813 121.31563Q66.12813 123.425 66.62813 124.12813Q67.12813 124.83125 67.84688 124.83125Q68.58125 124.83125 69.06563 124.12813Q69.56563 123.425 69.56563 121.31563Q69.56563 119.19063 69.06563 118.50313Q68.58125 117.8 67.83125 117.8Q67.1125 117.8 66.675 118.40938Q66.12813 119.19063 66.12813 121.31563ZM72.05 121.31563Q72.05 119.78438 72.3625 118.8625Q72.675 117.925 73.28438 117.425Q73.90938 116.925 74.84688 116.925Q75.53438 116.925 76.05 117.20625Q76.58125 117.4875 76.925 118.01875Q77.26875 118.53438 77.45625 119.28438Q77.64375 120.03438 77.64375 121.31563Q77.64375 122.83125 77.33125 123.75313Q77.03438 124.675 76.40938 125.19063Q75.8 125.69063 74.84688 125.69063Q73.6125 125.69063 72.89375 124.8Q72.05 123.7375 72.05 121.31563ZM73.12813 121.31563Q73.12813 123.425 73.62813 124.12813Q74.12813 124.83125 74.84688 124.83125Q75.58125 124.83125 76.06563 124.12813Q76.56563 123.425 76.56563 121.31563Q76.56563 119.19063 76.06563 118.50313Q75.58125 117.8 74.83125 117.8Q74.1125 117.8 73.675 118.40938Q73.12813 119.19063 73.12813 121.31563Z" fill-rule="nonzero"/><path fill="#000000" d="M56.596874 64.90104L56.596874 65.916664L50.909374 65.916664Q50.909374 65.541664 51.034374 65.18229Q51.253124 64.604164 51.721874 64.041664Q52.20625 63.479164 53.1125 62.74479Q54.51875 61.58854 55.003124 60.916664Q55.503124 60.24479 55.503124 59.65104Q55.503124 59.02604 55.05 58.604164Q54.596874 58.166664 53.878124 58.166664Q53.1125 58.166664 52.659374 58.61979Q52.20625 59.072914 52.190624 59.885414L51.1125 59.77604Q51.221874 58.55729 51.940624 57.93229Q52.675 57.291664 53.909374 57.291664Q55.14375 57.291664 55.8625 57.979164Q56.58125 58.666664 56.58125 59.68229Q56.58125 60.197914 56.3625 60.697914Q56.159374 61.18229 55.659374 61.74479Q55.175 62.291664 54.05 63.24479Q53.096874 64.041664 52.815624 64.33854Q52.55 64.61979 52.378124 64.90104L56.596874 64.90104ZM58.05 61.68229Q58.05 60.15104 58.3625 59.229164Q58.675 58.291664 59.284374 57.791664Q59.909374 57.291664 60.846874 57.291664Q61.534374 57.291664 62.05 57.572914Q62.58125 57.854164 62.925 58.385414Q63.26875 58.90104 63.45625 59.65104Q63.64375 60.40104 63.64375 61.68229Q63.64375 63.197914 63.33125 64.11979Q63.034374 65.041664 62.409374 65.55729Q61.8 66.05729 60.846874 66.05729Q59.6125 66.05729 58.89375 65.166664Q58.05 64.104164 58.05 61.68229ZM59.128124 61.68229Q59.128124 63.791664 59.628124 64.49479Q60.128124 65.197914 60.846874 65.197914Q61.58125 65.197914 62.065624 64.49479Q62.565624 63.791664 62.565624 61.68229Q62.565624 59.55729 62.065624 58.86979Q61.58125 58.166664 60.83125 58.166664Q60.1125 58.166664 59.675 58.77604Q59.128124 59.55729 59.128124 61.68229ZM65.05 61.68229Q65.05 60.15104 65.3625 59.229164Q65.675 58.291664 66.28438 57.791664Q66.90938 57.291664 67.84688 57.291664Q68.53438 57.291664 69.05 57.572914Q69.58125 57.854164 69.925 58.385414Q70.26875 58.90104 70.45625 59.65104Q70.64375 60.40104 70.64375 61.68229Q70.64375 63.197914 70.33125 64.11979Q70.03438 65.041664 69.40938 65.55729Q68.8 66.05729 67.84688 66.05729Q66.6125 66.05729 65.89375 65.166664Q65.05 64.104164 65.05 61.68229ZM66.12813 61.68229Q66.12813 63.791664 66.62813 64.49479Q67.12813 65.197914 67.84688 65.197914Q68.58125 65.197914 69.06563 64.49479Q69.56563 63.791664 69.56563 61.68229Q69.56563 59.55729 69.06563 58.86979Q68.58125 58.166664 67.83125 58.166664Q67.1125 58.166664 66.675 58.77604Q66.12813 59.55729 66.12813 61.68229ZM72.05 61.68229Q72.05 60.15104 72.3625 59.229164Q72.675 58.291664 73.28438 57.791664Q73.90938 57.291664 74.84688 57.291664Q75.53438 57.291664 76.05 57.572914Q76.58125 57.854164 76.925 58.385414Q77.26875 58.90104 77.45625 59.65104Q77.64375 60.40104 77.64375 61.68229Q77.64375 63.197914 77.33125 64.11979Q77.03438 65.041664 76.40938 65.55729Q75.8 66.05729 74.84688 66.05729Q73.6125 66.05729 72.89375 65.166664Q72.05 64.104164 72.05 61.68229ZM73.12813 61.68229Q73.12813 63.791664 73.62813 64.49479Q74.12813 65.197914 74.84688 65.197914Q75.58125 65.197914 76.06563 64.49479Q76.56563 63.791664 76.56563 61.68229Q76.56563 59.55729 76.06563 58.86979Q75.58125 58.166664 74.83125 58.166664Q74.1125 58.166664 73.675 58.77604Q73.12813 59.55729 73.12813 61.68229Z" fill-rule="nonzero"/><path fill="#000000" d="M88.122086 313.21564Q88.122086 311.6844 88.434586 310.7625Q88.747086 309.825 89.35646 309.325Q89.98146 308.825 90.91896 308.825Q91.60646 308.825 92.122086 309.10626Q92.653336 309.3875 92.997086 309.91876Q93.340836 310.4344 93.528336 311.1844Q93.715836 311.9344 93.715836 313.21564Q93.715836 314.73126 93.403336 315.65314Q93.10646 316.575 92.48146 317.09064Q91.872086 317.59064 90.91896 317.59064Q89.684586 317.59064 88.965836 316.7Q88.122086 315.6375 88.122086 313.21564ZM89.20021 313.21564Q89.20021 315.325 89.70021 316.02814Q90.20021 316.73126 90.91896 316.73126Q91.653336 316.73126 92.13771 316.02814Q92.63771 315.325 92.63771 313.21564Q92.63771 311.09064 92.13771 310.40314Q91.653336 309.7 90.903336 309.7Q90.184586 309.7 89.747086 310.3094Q89.20021 311.09064 89.20021 313.21564Z" fill-rule="nonzero"/><path fill="#000000" d="M190.1689 315.2L191.27827 315.10626Q191.40327 315.91876 191.84077 316.325Q192.2939 316.73126 192.93452 316.73126Q193.68452 316.73126 194.21577 316.15314Q194.74702 315.575 194.74702 314.6375Q194.74702 313.73126 194.2314 313.21564Q193.7314 312.6844 192.90327 312.6844Q192.40327 312.6844 191.9814 312.91876Q191.57515 313.15314 191.34077 313.5125L190.3564 313.3875L191.18452 308.98126L195.46577 308.98126L195.46577 309.98126L192.02827 309.98126L191.57515 312.29376Q192.34077 311.7469 193.18452 311.7469Q194.30952 311.7469 195.07515 312.52814Q195.8564 313.3094 195.8564 314.54376Q195.8564 315.7 195.18452 316.5594Q194.3564 317.59064 192.93452 317.59064Q191.76265 317.59064 191.01265 316.9344Q190.27827 316.27814 190.1689 315.2ZM197.76265 317.45L197.76265 316.2469L198.96577 316.2469L198.96577 317.45L197.76265 317.45ZM200.1689 313.21564Q200.1689 311.6844 200.4814 310.7625Q200.7939 309.825 201.40327 309.325Q202.02827 308.825 202.96577 308.825Q203.65327 308.825 204.1689 309.10626Q204.70015 309.3875 205.0439 309.91876Q205.38765 310.4344 205.57515 311.1844Q205.76265 311.9344 205.76265 313.21564Q205.76265 314.73126 205.45015 315.65314Q205.15327 316.575 204.52827 317.09064Q203.9189 317.59064 202.96577 317.59064Q201.7314 317.59064 201.01265 316.7Q200.1689 315.6375 200.1689 313.21564ZM201.24702 313.21564Q201.24702 315.325 201.74702 316.02814Q202.24702 316.73126 202.96577 316.73126Q203.70015 316.73126 204.18452 316.02814Q204.68452 315.325 204.68452 313.21564Q204.68452 311.09064 204.18452 310.40314Q203.70015 309.7 202.95015 309.7Q202.2314 309.7 201.7939 310.3094Q201.24702 311.09064 201.24702 313.21564ZM207.62202 317.45L207.62202 308.85626L213.82515 308.85626L213.82515 309.8719L208.76265 309.8719L208.76265 312.4969L213.51265 312.4969L213.51265 313.5125L208.76265 313.5125L208.76265 316.4344L214.02827 316.4344L214.02827 317.45L207.62202 317.45ZM217.6689 316.0594L217.6689 313.7L215.34077 313.7L215.34077 312.71564L217.6689 312.71564L217.6689 310.3875L218.6689 310.3875L218.6689 312.71564L221.01265 312.71564L221.01265 313.7L218.6689 313.7L218.6689 316.0594L217.6689 316.0594ZM227.63765 310.96564L226.59077 311.04376Q226.45015 310.41876 226.20015 310.1375Q225.76265 309.6844 225.13765 309.6844Q224.63765 309.6844 224.24702 309.96564Q223.76265 310.34064 223.46577 311.04376Q223.18452 311.73126 223.1689 313.0125Q223.5439 312.4344 224.09077 312.15314Q224.65327 311.8719 225.26265 311.8719Q226.30952 311.8719 227.0439 312.65314Q227.7939 313.4344 227.7939 314.65314Q227.7939 315.46564 227.43452 316.16876Q227.09077 316.85626 226.4814 317.23126Q225.87202 317.59064 225.1064 317.59064Q223.77827 317.59064 222.95015 316.6219Q222.12202 315.65314 222.12202 313.4344Q222.12202 310.9344 223.0439 309.8094Q223.84077 308.825 225.20015 308.825Q226.21577 308.825 226.8564 309.40314Q227.51265 309.96564 227.63765 310.96564ZM223.34077 314.66876Q223.34077 315.21564 223.55952 315.71564Q223.7939 316.2 224.20015 316.46564Q224.62202 316.73126 225.09077 316.73126Q225.74702 316.73126 226.2314 316.2Q226.71577 315.65314 226.71577 314.73126Q226.71577 313.84064 226.2314 313.325Q225.76265 312.8094 225.0439 312.8094Q224.32515 312.8094 223.82515 313.325Q223.34077 313.84064 223.34077 314.66876Z" fill-rule="nonzero"/><path fill="#000000" d="M312.18445 317.45L311.13757 317.45L311.13757 310.73126Q310.74695 311.09064 310.12195 311.46564Q309.51257 311.825 309.0282 311.9969L309.0282 310.98126Q309.9032 310.5594 310.55945 309.98126Q311.23132 309.3875 311.51257 308.825L312.18445 308.825L312.18445 317.45ZM315.80945 317.45L315.80945 316.2469L317.01257 316.2469L317.01257 317.45L315.80945 317.45ZM318.2157 313.21564Q318.2157 311.6844 318.5282 310.7625Q318.8407 309.825 319.45007 309.325Q320.07507 308.825 321.01257 308.825Q321.70007 308.825 322.2157 309.10626Q322.74695 309.3875 323.0907 309.91876Q323.43445 310.4344 323.62195 311.1844Q323.80945 311.9344 323.80945 313.21564Q323.80945 314.73126 323.49695 315.65314Q323.20007 316.575 322.57507 317.09064Q321.9657 317.59064 321.01257 317.59064Q319.7782 317.59064 319.05945 316.7Q318.2157 315.6375 318.2157 313.21564ZM319.29382 313.21564Q319.29382 315.325 319.79382 316.02814Q320.29382 316.73126 321.01257 316.73126Q321.74695 316.73126 322.23132 316.02814Q322.73132 315.325 322.73132 313.21564Q322.73132 311.09064 322.23132 310.40314Q321.74695 309.7 320.99695 309.7Q320.2782 309.7 319.8407 310.3094Q319.29382 311.09064 319.29382 313.21564ZM325.66882 317.45L325.66882 308.85626L331.87195 308.85626L331.87195 309.8719L326.80945 309.8719L326.80945 312.4969L331.55945 312.4969L331.55945 313.5125L326.80945 313.5125L326.80945 316.4344L332.07507 316.4344L332.07507 317.45L325.66882 317.45ZM335.7157 316.0594L335.7157 313.7L333.38757 313.7L333.38757 312.71564L335.7157 312.71564L335.7157 310.3875L336.7157 310.3875L336.7157 312.71564L339.05945 312.71564L339.05945 313.7L336.7157 313.7L336.7157 316.0594L335.7157 316.0594ZM340.2782 309.98126L340.2782 308.96564L345.8407 308.96564L345.8407 309.79376Q345.0282 310.66876 344.2157 312.1219Q343.41882 313.5594 342.98132 315.09064Q342.6532 316.16876 342.57507 317.45L341.48132 317.45Q341.49695 316.4344 341.87195 314.9969Q342.26257 313.5594 342.9657 312.23126Q343.68445 310.90314 344.49695 309.98126L340.2782 309.98126Z" fill-rule="nonzero"/><path fill="#000000" d="M430.23126 317.45L429.1844 317.45L429.1844 310.73126Q428.79376 311.09064 428.16876 311.46564Q427.5594 311.825 427.075 311.9969L427.075 310.98126Q427.95 310.5594 428.60626 309.98126Q429.27814 309.3875 429.5594 308.825L430.23126 308.825L430.23126 317.45ZM433.85626 317.45L433.85626 316.2469L435.0594 316.2469L435.0594 317.45L433.85626 317.45ZM436.2625 315.2L437.3719 315.10626Q437.4969 315.91876 437.9344 316.325Q438.3875 316.73126 439.02814 316.73126Q439.77814 316.73126 440.3094 316.15314Q440.84064 315.575 440.84064 314.6375Q440.84064 313.73126 440.325 313.21564Q439.825 312.6844 438.9969 312.6844Q438.4969 312.6844 438.075 312.91876Q437.66876 313.15314 437.4344 313.5125L436.45 313.3875L437.27814 308.98126L441.5594 308.98126L441.5594 309.98126L438.1219 309.98126L437.66876 312.29376Q438.4344 311.7469 439.27814 311.7469Q440.40314 311.7469 441.16876 312.52814Q441.95 313.3094 441.95 314.54376Q441.95 315.7 441.27814 316.5594Q440.45 317.59064 439.02814 317.59064Q437.85626 317.59064 437.10626 316.9344Q436.3719 316.27814 436.2625 315.2ZM443.71564 317.45L443.71564 308.85626L449.91876 308.85626L449.91876 309.8719L444.85626 309.8719L444.85626 312.4969L449.60626 312.4969L449.60626 313.5125L444.85626 313.5125L444.85626 316.4344L450.1219 316.4344L450.1219 317.45L443.71564 317.45ZM453.7625 316.0594L453.7625 313.7L451.4344 313.7L451.4344 312.71564L453.7625 312.71564L453.7625 310.3875L454.7625 310.3875L454.7625 312.71564L457.10626 312.71564L457.10626 313.7L454.7625 313.7L454.7625 316.0594L453.7625 316.0594ZM458.325 309.98126L458.325 308.96564L463.8875 308.96564L463.8875 309.79376Q463.075 310.66876 462.2625 312.1219Q461.46564 313.5594 461.02814 315.09064Q460.7 316.16876 460.6219 317.45L459.52814 317.45Q459.54376 316.4344 459.91876 314.9969Q460.3094 313.5594 461.0125 312.23126Q461.73126 310.90314 462.54376 309.98126L458.325 309.98126Z" fill-rule="nonzero"/><path fill="#000000" d="M549.8562 316.4344L549.8562 317.45L544.1687 317.45Q544.1687 317.075 544.2937 316.71564Q544.51245 316.1375 544.9812 315.575Q545.4656 315.0125 546.3718 314.27814Q547.7781 313.1219 548.26245 312.45Q548.76245 311.77814 548.76245 311.1844Q548.76245 310.5594 548.3093 310.1375Q547.8562 309.7 547.13745 309.7Q546.3718 309.7 545.9187 310.15314Q545.4656 310.60626 545.44995 311.41876L544.3718 311.3094Q544.4812 310.09064 545.19995 309.46564Q545.9343 308.825 547.1687 308.825Q548.4031 308.825 549.1218 309.5125Q549.8406 310.2 549.8406 311.21564Q549.8406 311.73126 549.6218 312.23126Q549.4187 312.71564 548.9187 313.27814Q548.4343 313.825 547.3093 314.77814Q546.3562 315.575 546.07495 315.8719Q545.8093 316.15314 545.63745 316.4344L549.8562 316.4344ZM551.9031 317.45L551.9031 316.2469L553.1062 316.2469L553.1062 317.45L551.9031 317.45ZM554.3093 313.21564Q554.3093 311.6844 554.6218 310.7625Q554.9343 309.825 555.5437 309.325Q556.1687 308.825 557.1062 308.825Q557.7937 308.825 558.3093 309.10626Q558.8406 309.3875 559.1843 309.91876Q559.5281 310.4344 559.7156 311.1844Q559.9031 311.9344 559.9031 313.21564Q559.9031 314.73126 559.5906 315.65314Q559.2937 316.575 558.6687 317.09064Q558.0593 317.59064 557.1062 317.59064Q555.8718 317.59064 555.1531 316.7Q554.3093 315.6375 554.3093 313.21564ZM555.38745 313.21564Q555.38745 315.325 555.88745 316.02814Q556.38745 316.73126 557.1062 316.73126Q557.8406 316.73126 558.32495 316.02814Q558.82495 315.325 558.82495 313.21564Q558.82495 311.09064 558.32495 310.40314Q557.8406 309.7 557.0906 309.7Q556.3718 309.7 555.9343 310.3094Q555.38745 311.09064 555.38745 313.21564ZM561.76245 317.45L561.76245 308.85626L567.9656 308.85626L567.9656 309.8719L562.9031 309.8719L562.9031 312.4969L567.6531 312.4969L567.6531 313.5125L562.9031 313.5125L562.9031 316.4344L568.1687 316.4344L568.1687 317.45L561.76245 317.45ZM571.8093 316.0594L571.8093 313.7L569.4812 313.7L569.4812 312.71564L571.8093 312.71564L571.8093 310.3875L572.8093 310.3875L572.8093 312.71564L575.1531 312.71564L575.1531 313.7L572.8093 313.7L572.8093 316.0594L571.8093 316.0594ZM576.3718 309.98126L576.3718 308.96564L581.9343 308.96564L581.9343 309.79376Q581.1218 310.66876 580.3093 312.1219Q579.51245 313.5594 579.07495 315.09064Q578.7468 316.16876 578.6687 317.45L577.57495 317.45Q577.5906 316.4344 577.9656 314.9969Q578.3562 313.5594 579.0593 312.23126Q579.7781 310.90314 580.5906 309.98126L576.3718 309.98126Z" fill-rule="nonzero"/><path fill="#757575" d="M23.7375 37.55L23.7375 24.925L19.01875 24.925L19.01875 23.2375L30.3625 23.2375L30.3625 24.925L25.628124 24.925L25.628124 37.55L23.7375 37.55ZM31.878124 25.253124L31.878124 23.2375L33.64375 23.2375L33.64375 25.253124L31.878124 25.253124ZM31.878124 37.55L31.878124 27.175L33.64375 27.175L33.64375 37.55L31.878124 37.55ZM35.8625 37.55L35.8625 27.175L37.440624 27.175L37.440624 28.628124Q37.925 27.878124 38.7375 27.409374Q39.55 26.940624 40.58125 26.940624Q41.7375 26.940624 42.471874 27.425Q43.20625 27.89375 43.51875 28.753124Q44.753124 26.940624 46.721874 26.940624Q48.26875 26.940624 49.096874 27.8Q49.925 28.659374 49.925 30.425L49.925 37.55L48.175 37.55L48.175 31.01875Q48.175 29.95625 48.003124 29.503124Q47.83125 29.034374 47.378124 28.753124Q46.940624 28.471874 46.33125 28.471874Q45.2375 28.471874 44.503124 29.20625Q43.784374 29.925 43.784374 31.51875L43.784374 37.55L42.034374 37.55L42.034374 30.815624Q42.034374 29.64375 41.596874 29.065624Q41.175 28.471874 40.190624 28.471874Q39.45625 28.471874 38.815624 28.8625Q38.190624 29.253124 37.909374 30.003124Q37.628124 30.753124 37.628124 32.175L37.628124 37.55L35.8625 37.55ZM58.971874 34.20625L60.784374 34.440624Q60.3625 36.01875 59.190624 36.909374Q58.034374 37.784374 56.221874 37.784374Q53.95625 37.784374 52.6125 36.39375Q51.284374 34.9875 51.284374 32.45625Q51.284374 29.83125 52.628124 28.39375Q53.971874 26.940624 56.128124 26.940624Q58.20625 26.940624 59.51875 28.3625Q60.846874 29.76875 60.846874 32.346874Q60.846874 32.503124 60.83125 32.815624L53.096874 32.815624Q53.190624 34.51875 54.065624 35.425Q54.940624 36.33125 56.2375 36.33125Q57.20625 36.33125 57.878124 35.83125Q58.565624 35.315624 58.971874 34.20625ZM53.190624 31.3625L58.9875 31.3625Q58.878124 30.065624 58.33125 29.409374Q57.4875 28.39375 56.14375 28.39375Q54.940624 28.39375 54.1125 29.20625Q53.284374 30.003124 53.190624 31.3625ZM72.22188 41.753124Q70.76875 39.925 69.76875 37.471874Q68.76875 35.003124 68.76875 32.3625Q68.76875 30.034374 69.51875 27.909374Q70.39375 25.440624 72.22188 22.9875L73.4875 22.9875Q72.3 25.01875 71.925 25.89375Q71.33125 27.2375 70.9875 28.70625Q70.56563 30.534374 70.56563 32.378124Q70.56563 37.065624 73.4875 41.753124L72.22188 41.753124ZM75.8625 37.55L75.8625 27.175L77.45625 27.175L77.45625 28.659374Q78.59688 26.940624 80.75313 26.940624Q81.69063 26.940624 82.47188 27.284374Q83.26875 27.6125 83.65938 28.159374Q84.05 28.70625 84.20625 29.45625Q84.3 29.95625 84.3 31.175L84.3 37.55L82.53438 37.55L82.53438 31.2375Q82.53438 30.159374 82.33125 29.628124Q82.12813 29.096874 81.59688 28.784374Q81.08125 28.471874 80.37813 28.471874Q79.25313 28.471874 78.44063 29.190624Q77.62813 29.89375 77.62813 31.878124L77.62813 37.55L75.8625 37.55ZM92.64375 36.26875Q91.65938 37.096874 90.75313 37.440624Q89.84688 37.784374 88.81563 37.784374Q87.1125 37.784374 86.19063 36.95625Q85.26875 36.1125 85.26875 34.815624Q85.26875 34.05 85.6125 33.425Q85.97188 32.8 86.53438 32.425Q87.09688 32.034374 87.8 31.83125Q88.31563 31.70625 89.3625 31.565624Q91.4875 31.315624 92.4875 30.971874Q92.50313 30.6125 92.50313 30.503124Q92.50313 29.440624 92.00313 28.9875Q91.33125 28.39375 90.00313 28.39375Q88.75313 28.39375 88.15938 28.83125Q87.58125 29.26875 87.3 30.378124L85.58125 30.14375Q85.81563 29.034374 86.34688 28.3625Q86.87813 27.675 87.89375 27.315624Q88.90938 26.940624 90.25313 26.940624Q91.58125 26.940624 92.40938 27.253124Q93.2375 27.565624 93.62813 28.05Q94.01875 28.51875 94.175 29.2375Q94.26875 29.690624 94.26875 30.8625L94.26875 33.20625Q94.26875 35.659374 94.37813 36.315624Q94.4875 36.95625 94.83125 37.55L92.9875 37.55Q92.72188 37.003124 92.64375 36.26875ZM92.4875 32.346874Q91.53438 32.7375 89.6125 33.003124Q88.53438 33.159374 88.08125 33.3625Q87.64375 33.55 87.39375 33.925Q87.14375 34.3 87.14375 34.76875Q87.14375 35.471874 87.675 35.940624Q88.20625 36.409374 89.2375 36.409374Q90.25313 36.409374 91.03438 35.971874Q91.83125 35.51875 92.20625 34.753124Q92.4875 34.14375 92.4875 32.9875L92.4875 32.346874ZM96.8625 37.55L96.8625 27.175L98.45625 27.175L98.45625 28.659374Q99.59688 26.940624 101.75313 26.940624Q102.69063 26.940624 103.47188 27.284374Q104.26875 27.6125 104.65938 28.159374Q105.05 28.70625 105.20625 29.45625Q105.3 29.95625 105.3 31.175L105.3 37.55L103.53438 37.55L103.53438 31.2375Q103.53438 30.159374 103.33125 29.628124Q103.12813 29.096874 102.59688 28.784374Q102.08125 28.471874 101.37813 28.471874Q100.25313 28.471874 99.44063 29.190624Q98.62813 29.89375 98.62813 31.878124L98.62813 37.55L96.8625 37.55ZM106.22188 32.3625Q106.22188 29.4875 107.81563 28.096874Q109.15938 26.940624 111.08125 26.940624Q113.22188 26.940624 114.56563 28.346874Q115.925 29.753124 115.925 32.221874Q115.925 34.221874 115.33125 35.378124Q114.7375 36.51875 113.58125 37.159374Q112.44063 37.784374 111.08125 37.784374Q108.89375 37.784374 107.55 36.39375Q106.22188 34.9875 106.22188 32.3625ZM108.01875 32.3625Q108.01875 34.3625 108.87813 35.346874Q109.75313 36.33125 111.08125 36.33125Q112.39375 36.33125 113.25313 35.346874Q114.12813 34.346874 114.12813 32.3Q114.12813 30.378124 113.25313 29.39375Q112.37813 28.39375 111.08125 28.39375Q109.75313 28.39375 108.87813 29.39375Q108.01875 30.378124 108.01875 32.3625ZM117.15938 34.45625L118.90938 34.175Q119.05 35.221874 119.72188 35.784374Q120.39375 36.33125 121.59688 36.33125Q122.8 36.33125 123.37813 35.846874Q123.97188 35.346874 123.97188 34.690624Q123.97188 34.096874 123.45625 33.753124Q123.09688 33.51875 121.65938 33.159374Q119.72188 32.659374 118.97188 32.315624Q118.2375 31.95625 117.84688 31.33125Q117.45625 30.690624 117.45625 29.925Q117.45625 29.2375 117.76875 28.64375Q118.09688 28.05 118.64375 27.659374Q119.05 27.3625 119.75313 27.159374Q120.47188 26.940624 121.28438 26.940624Q122.50313 26.940624 123.425 27.3Q124.34688 27.64375 124.78438 28.253124Q125.22188 28.846874 125.39375 29.846874L123.675 30.08125Q123.55 29.284374 122.9875 28.846874Q122.425 28.39375 121.40938 28.39375Q120.19063 28.39375 119.675 28.8Q119.15938 29.190624 119.15938 29.721874Q119.15938 30.065624 119.37813 30.346874Q119.58125 30.628124 120.05 30.815624Q120.31563 30.909374 121.59688 31.253124Q123.47188 31.753124 124.20625 32.08125Q124.94063 32.39375 125.3625 33.003124Q125.78438 33.596874 125.78438 34.503124Q125.78438 35.378124 125.26875 36.159374Q124.75313 36.940624 123.78438 37.3625Q122.81563 37.784374 121.59688 37.784374Q119.58125 37.784374 118.51875 36.940624Q117.45625 36.096874 117.15938 34.45625ZM134.97188 34.20625L136.78438 34.440624Q136.3625 36.01875 135.19063 36.909374Q134.03438 37.784374 132.22188 37.784374Q129.95625 37.784374 128.6125 36.39375Q127.28438 34.9875 127.28438 32.45625Q127.28438 29.83125 128.62813 28.39375Q129.97188 26.940624 132.12813 26.940624Q134.20625 26.940624 135.51875 28.3625Q136.84688 29.76875 136.84688 32.346874Q136.84688 32.503124 136.83125 32.815624L129.09688 32.815624Q129.19063 34.51875 130.06563 35.425Q130.94063 36.33125 132.2375 36.33125Q133.20625 36.33125 133.87813 35.83125Q134.56563 35.315624 134.97188 34.20625ZM129.19063 31.3625L134.9875 31.3625Q134.87813 30.065624 134.33125 29.409374Q133.4875 28.39375 132.14375 28.39375Q130.94063 28.39375 130.1125 29.20625Q129.28438 30.003124 129.19063 31.3625ZM145.64375 33.753124L147.3625 33.971874Q147.08125 35.76875 145.90938 36.784374Q144.75313 37.784374 143.05 37.784374Q140.925 37.784374 139.62813 36.39375Q138.33125 35.003124 138.33125 32.409374Q138.33125 30.721874 138.87813 29.471874Q139.44063 28.20625 140.58125 27.58125Q141.72188 26.940624 143.06563 26.940624Q144.75313 26.940624 145.81563 27.8Q146.89375 28.659374 147.20625 30.221874L145.4875 30.4875Q145.25313 29.440624 144.62813 28.925Q144.00313 28.39375 143.12813 28.39375Q141.8 28.39375 140.97188 29.346874Q140.14375 30.3 140.14375 32.346874Q140.14375 34.440624 140.94063 35.39375Q141.7375 36.33125 143.03438 36.33125Q144.06563 36.33125 144.75313 35.70625Q145.45625 35.065624 145.64375 33.753124ZM148.22188 32.3625Q148.22188 29.4875 149.81563 28.096874Q151.15938 26.940624 153.08125 26.940624Q155.22188 26.940624 156.56563 28.346874Q157.925 29.753124 157.925 32.221874Q157.925 34.221874 157.33125 35.378124Q156.7375 36.51875 155.58125 37.159374Q154.44063 37.784374 153.08125 37.784374Q150.89375 37.784374 149.55 36.39375Q148.22188 34.9875 148.22188 32.3625ZM150.01875 32.3625Q150.01875 34.3625 150.87813 35.346874Q151.75313 36.33125 153.08125 36.33125Q154.39375 36.33125 155.25313 35.346874Q156.12813 34.346874 156.12813 32.3Q156.12813 30.378124 155.25313 29.39375Q154.37813 28.39375 153.08125 28.39375Q151.75313 28.39375 150.87813 29.39375Q150.01875 30.378124 150.01875 32.3625ZM159.8625 37.55L159.8625 27.175L161.45625 27.175L161.45625 28.659374Q162.59688 26.940624 164.75313 26.940624Q165.69063 26.940624 166.47188 27.284374Q167.26875 27.6125 167.65938 28.159374Q168.05 28.70625 168.20625 29.45625Q168.3 29.95625 168.3 31.175L168.3 37.55L166.53438 37.55L166.53438 31.2375Q166.53438 30.159374 166.33125 29.628124Q166.12813 29.096874 165.59688 28.784374Q165.08125 28.471874 164.37813 28.471874Q163.25313 28.471874 162.44063 29.190624Q161.62813 29.89375 161.62813 31.878124L161.62813 37.55L159.8625 37.55ZM176.59688 37.55L176.59688 36.2375Q175.6125 37.784374 173.69063 37.784374Q172.45625 37.784374 171.40938 37.096874Q170.37813 36.409374 169.8 35.190624Q169.2375 33.971874 169.2375 32.378124Q169.2375 30.815624 169.75313 29.55Q170.26875 28.284374 171.3 27.6125Q172.34688 26.940624 173.6125 26.940624Q174.55 26.940624 175.28438 27.346874Q176.01875 27.7375 176.4875 28.3625L176.4875 23.2375L178.22188 23.2375L178.22188 37.55L176.59688 37.55ZM171.03438 32.378124Q171.03438 34.3625 171.87813 35.346874Q172.72188 36.33125 173.8625 36.33125Q175.01875 36.33125 175.81563 35.39375Q176.62813 34.45625 176.62813 32.51875Q176.62813 30.39375 175.8 29.39375Q174.9875 28.39375 173.78438 28.39375Q172.6125 28.39375 171.81563 29.3625Q171.03438 30.315624 171.03438 32.378124ZM180.15938 34.45625L181.90938 34.175Q182.05 35.221874 182.72188 35.784374Q183.39375 36.33125 184.59688 36.33125Q185.8 36.33125 186.37813 35.846874Q186.97188 35.346874 186.97188 34.690624Q186.97188 34.096874 186.45625 33.753124Q186.09688 33.51875 184.65938 33.159374Q182.72188 32.659374 181.97188 32.315624Q181.2375 31.95625 180.84688 31.33125Q180.45625 30.690624 180.45625 29.925Q180.45625 29.2375 180.76875 28.64375Q181.09688 28.05 181.64375 27.659374Q182.05 27.3625 182.75313 27.159374Q183.47188 26.940624 184.28438 26.940624Q185.50313 26.940624 186.425 27.3Q187.34688 27.64375 187.78438 28.253124Q188.22188 28.846874 188.39375 29.846874L186.675 30.08125Q186.55 29.284374 185.9875 28.846874Q185.425 28.39375 184.40938 28.39375Q183.19063 28.39375 182.675 28.8Q182.15938 29.190624 182.15938 29.721874Q182.15938 30.065624 182.37813 30.346874Q182.58125 30.628124 183.05 30.815624Q183.31563 30.909374 184.59688 31.253124Q186.47188 31.753124 187.20625 32.08125Q187.94063 32.39375 188.3625 33.003124Q188.78438 33.596874 188.78438 34.503124Q188.78438 35.378124 188.26875 36.159374Q187.75313 36.940624 186.78438 37.3625Q185.81563 37.784374 184.59688 37.784374Q182.58125 37.784374 181.51875 36.940624Q180.45625 36.096874 180.15938 34.45625ZM192.01875 41.753124L190.76875 41.753124Q193.675 37.065624 193.675 32.378124Q193.675 30.534374 193.26875 28.7375Q192.925 27.26875 192.33125 25.925Q191.95625 25.034374 190.76875 22.9875L192.01875 22.9875Q193.8625 25.440624 194.7375 27.909374Q195.4875 30.034374 195.4875 32.3625Q195.4875 35.003124 194.47188 37.471874Q193.47188 39.925 192.01875 41.753124ZM206.75313 37.55L202.8 27.175L204.65938 27.175L206.89375 33.39375Q207.25313 34.39375 207.55 35.471874Q207.78438 34.659374 208.20625 33.503124L210.50313 27.175L212.31563 27.175L208.39375 37.55L206.75313 37.55ZM212.15938 34.45625L213.90938 34.175Q214.05 35.221874 214.72188 35.784374Q215.39375 36.33125 216.59688 36.33125Q217.8 36.33125 218.37813 35.846874Q218.97188 35.346874 218.97188 34.690624Q218.97188 34.096874 218.45625 33.753124Q218.09688 33.51875 216.65938 33.159374Q214.72188 32.659374 213.97188 32.315624Q213.2375 31.95625 212.84688 31.33125Q212.45625 30.690624 212.45625 29.925Q212.45625 29.2375 212.76875 28.64375Q213.09688 28.05 213.64375 27.659374Q214.05 27.3625 214.75313 27.159374Q215.47188 26.940624 216.28438 26.940624Q217.50313 26.940624 218.425 27.3Q219.34688 27.64375 219.78438 28.253124Q220.22188 28.846874 220.39375 29.846874L218.675 30.08125Q218.55 29.284374 217.9875 28.846874Q217.425 28.39375 216.40938 28.39375Q215.19063 28.39375 214.675 28.8Q214.15938 29.190624 214.15938 29.721874Q214.15938 30.065624 214.37813 30.346874Q214.58125 30.628124 215.05 30.815624Q215.31563 30.909374 216.59688 31.253124Q218.47188 31.753124 219.20625 32.08125Q219.94063 32.39375 220.3625 33.003124Q220.78438 33.596874 220.78438 34.503124Q220.78438 35.378124 220.26875 36.159374Q219.75313 36.940624 218.78438 37.3625Q217.81563 37.784374 216.59688 37.784374Q214.58125 37.784374 213.51875 36.940624Q212.45625 36.096874 212.15938 34.45625ZM223.3625 37.55L223.3625 35.55L225.3625 35.55L225.3625 37.55L223.3625 37.55ZM234.45625 32.95625L236.2375 32.8Q236.3625 33.8625 236.81563 34.55Q237.28438 35.2375 238.25313 35.675Q239.2375 36.096874 240.47188 36.096874Q241.55 36.096874 242.37813 35.784374Q243.20625 35.45625 243.6125 34.89375Q244.01875 34.33125 244.01875 33.659374Q244.01875 32.9875 243.62813 32.4875Q243.2375 31.9875 242.34688 31.64375Q241.76875 31.409374 239.78438 30.940624Q237.81563 30.471874 237.03438 30.05Q236.00313 29.51875 235.50313 28.721874Q235.00313 27.925 235.00313 26.940624Q235.00313 25.846874 235.6125 24.909374Q236.22188 23.971874 237.40938 23.4875Q238.59688 22.9875 240.03438 22.9875Q241.62813 22.9875 242.84688 23.503124Q244.06563 24.01875 244.70625 25.01875Q245.3625 26.003124 245.40938 27.26875L243.59688 27.409374Q243.45625 26.05 242.6125 25.3625Q241.76875 24.659374 240.1125 24.659374Q238.39375 24.659374 237.59688 25.3Q236.81563 25.925 236.81563 26.8Q236.81563 27.58125 237.37813 28.08125Q237.925 28.58125 240.2375 29.096874Q242.55 29.6125 243.40938 30.003124Q244.65938 30.58125 245.25313 31.471874Q245.84688 32.346874 245.84688 33.503124Q245.84688 34.64375 245.19063 35.659374Q244.53438 36.675 243.3 37.2375Q242.08125 37.8 240.55 37.8Q238.6125 37.8 237.3 37.2375Q235.9875 36.659374 235.2375 35.51875Q234.4875 34.378124 234.45625 32.95625ZM247.87813 25.253124L247.87813 23.2375L249.64375 23.2375L249.64375 25.253124L247.87813 25.253124ZM247.87813 37.55L247.87813 27.175L249.64375 27.175L249.64375 37.55L247.87813 37.55ZM250.94063 37.55L250.94063 36.128124L257.55 28.55Q256.425 28.596874 255.56563 28.596874L251.33125 28.596874L251.33125 27.175L259.8156 27.175L259.8156 28.346874L254.19063 34.925L253.1125 36.128124Q254.28438 36.034374 255.33125 36.034374L260.1281 36.034374L260.1281 37.55L250.94063 37.55ZM267.97186 34.20625L269.78436 34.440624Q269.3625 36.01875 268.1906 36.909374Q267.03436 37.784374 265.22186 37.784374Q262.95624 37.784374 261.6125 36.39375Q260.28436 34.9875 260.28436 32.45625Q260.28436 29.83125 261.6281 28.39375Q262.97186 26.940624 265.1281 26.940624Q267.20624 26.940624 268.51874 28.3625Q269.84686 29.76875 269.84686 32.346874Q269.84686 32.503124 269.83124 32.815624L262.09686 32.815624Q262.1906 34.51875 263.0656 35.425Q263.9406 36.33125 265.2375 36.33125Q266.20624 36.33125 266.8781 35.83125Q267.5656 35.315624 267.97186 34.20625ZM262.1906 31.3625L267.9875 31.3625Q267.8781 30.065624 267.33124 29.409374Q266.4875 28.39375 265.14374 28.39375Q263.9406 28.39375 263.1125 29.20625Q262.28436 30.003124 262.1906 31.3625ZM281.22186 41.753124Q279.76874 39.925 278.76874 37.471874Q277.76874 35.003124 277.76874 32.3625Q277.76874 30.034374 278.51874 27.909374Q279.39374 25.440624 281.22186 22.9875L282.4875 22.9875Q281.3 25.01875 280.925 25.89375Q280.33124 27.2375 279.9875 28.70625Q279.5656 30.534374 279.5656 32.378124Q279.5656 37.065624 282.4875 41.753124L281.22186 41.753124ZM285.08124 37.55L285.08124 23.2375L287.01874 23.2375L294.53436 34.471874L294.53436 23.2375L296.34686 23.2375L296.34686 37.55L294.40936 37.55L286.89374 26.3L286.89374 37.55L285.08124 37.55ZM299.01874 41.753124L297.76874 41.753124Q300.675 37.065624 300.675 32.378124Q300.675 30.534374 300.26874 28.7375Q299.925 27.26875 299.33124 25.925Q298.95624 25.034374 297.76874 22.9875L299.01874 22.9875Q300.8625 25.440624 301.7375 27.909374Q302.4875 30.034374 302.4875 32.3625Q302.4875 35.003124 301.47186 37.471874Q300.47186 39.925 299.01874 41.753124Z" fill-rule="nonzero"/></svg>