<?xml version="1.0" encoding="UTF-8" standalone="no"?>
<!DOCTYPE svg PUBLIC "-//W3C//DTD SVG 1.1//EN"
 "http://www.w3.org/Graphics/SVG/1.1/DTD/svg11.dtd">
<!-- Generated by graphviz version 8.0.3 (20230416.2022)
 -->
<!-- Title: starter Pages: 1 -->
<svg width="1109pt" height="188pt"
 viewBox="0.00 0.00 1108.94 188.00" xmlns="http://www.w3.org/2000/svg" xmlns:xlink="http://www.w3.org/1999/xlink">
<g id="graph0" class="graph" transform="scale(1 1) rotate(0) translate(4 184)">
<title>starter</title>
<polygon fill="white" stroke="none" points="-4,4 -4,-184 1104.94,-184 1104.94,4 -4,4"/>
<!-- graphs -->
<g id="node1" class="node">
<title>graphs</title>
<ellipse fill="none" stroke="black" cx="479.95" cy="-162" rx="34.39" ry="18"/>
<text text-anchor="middle" x="479.95" y="-158.3" font-family="Times,serif" font-size="14.00">graphs</text>
</g>
<!-- .idea -->
<g id="node2" class="node">
<title>.idea</title>
<ellipse fill="none" stroke="black" cx="27.95" cy="-90" rx="27.9" ry="18"/>
<text text-anchor="middle" x="27.95" y="-86.3" font-family="Times,serif" font-size="14.00">.idea</text>
</g>
<!-- graphs&#45;&#45;.idea -->
<g id="edge1" class="edge">
<title>graphs&#45;&#45;.idea</title>
<path fill="none" stroke="black" d="M445.35,-160.11C373.24,-157.49 202.16,-147.29 64.95,-108 59.65,-106.48 54.14,-104.31 49.05,-102.03"/>
</g>
<!-- .lift -->
<g id="node3" class="node">
<title>.lift</title>
<ellipse fill="none" stroke="black" cx="100.95" cy="-90" rx="27" ry="18"/>
<text text-anchor="middle" x="100.95" y="-86.3" font-family="Times,serif" font-size="14.00">.lift</text>
</g>
<!-- graphs&#45;&#45;.lift -->
<g id="edge2" class="edge">
<title>graphs&#45;&#45;.lift</title>
<path fill="none" stroke="black" d="M445.63,-158.97C383.04,-154.55 246.7,-141.62 136.95,-108 131.79,-106.42 126.44,-104.23 121.48,-101.94"/>
</g>
<!-- clusters.txt -->
<g id="node4" class="node">
<title>clusters.txt</title>
<ellipse fill="none" stroke="black" cx="194.95" cy="-90" rx="49.29" ry="18"/>
<text text-anchor="middle" x="194.95" y="-86.3" font-family="Times,serif" font-size="14.00">clusters.txt</text>
</g>
<!-- graphs&#45;&#45;clusters.txt -->
<g id="edge3" class="edge">
<title>graphs&#45;&#45;clusters.txt</title>
<path fill="none" stroke="black" d="M448.6,-154.26C404.68,-144.69 322.42,-126.28 252.95,-108 246.15,-106.21 238.94,-104.19 231.99,-102.19"/>
</g>
<!-- COS 126.iml -->
<g id="node5" class="node">
<title>COS 126.iml</title>
<ellipse fill="none" stroke="black" cx="319.95" cy="-90" rx="57.69" ry="18"/>
<text text-anchor="middle" x="319.95" y="-86.3" font-family="Times,serif" font-size="14.00">COS 126.iml</text>
</g>
<!-- graphs&#45;&#45;COS 126.iml -->
<g id="edge4" class="edge">
<title>graphs&#45;&#45;COS 126.iml</title>
<path fill="none" stroke="black" d="M454.24,-149.75C426.59,-137.66 382.56,-118.39 352.51,-105.25"/>
</g>
<!-- GenerateGraph.class -->
<g id="node6" class="node">
<title>GenerateGraph.class</title>
<ellipse fill="none" stroke="black" cx="479.95" cy="-90" rx="83.69" ry="18"/>
<text text-anchor="middle" x="479.95" y="-86.3" font-family="Times,serif" font-size="14.00">GenerateGraph.class</text>
</g>
<!-- graphs&#45;&#45;GenerateGraph.class -->
<g id="edge5" class="edge">
<title>graphs&#45;&#45;GenerateGraph.class</title>
<path fill="none" stroke="black" d="M479.95,-143.7C479.95,-132.85 479.95,-118.92 479.95,-108.1"/>
</g>
<!-- GraphDOT.java -->
<g id="node7" class="node">
<title>GraphDOT.java</title>
<ellipse fill="none" stroke="black" cx="648.95" cy="-90" rx="67.69" ry="18"/>
<text text-anchor="middle" x="648.95" y="-86.3" font-family="Times,serif" font-size="14.00">GraphDOT.java</text>
</g>
<!-- graphs&#45;&#45;GraphDOT.java -->
<g id="edge6" class="edge">
<title>graphs&#45;&#45;GraphDOT.java</title>
<path fill="none" stroke="black" d="M506.35,-150.06C535.13,-138.14 581.34,-119 613.31,-105.76"/>
</g>
<!-- readme.txt -->
<g id="node8" class="node">
<title>readme.txt</title>
<ellipse fill="none" stroke="black" cx="782.95" cy="-90" rx="48.99" ry="18"/>
<text text-anchor="middle" x="782.95" y="-86.3" font-family="Times,serif" font-size="14.00">readme.txt</text>
</g>
<!-- graphs&#45;&#45;readme.txt -->
<g id="edge7" class="edge">
<title>graphs&#45;&#45;readme.txt</title>
<path fill="none" stroke="black" d="M511.98,-154.92C559.1,-145.8 649.77,-127.53 725.95,-108 732.55,-106.31 739.54,-104.36 746.27,-102.4"/>
</g>
<!-- starter&#45;files.dot -->
<g id="node9" class="node">
<title>starter&#45;files.dot</title>
<ellipse fill="none" stroke="black" cx="913.95" cy="-90" rx="64.19" ry="18"/>
<text text-anchor="middle" x="913.95" y="-86.3" font-family="Times,serif" font-size="14.00">starter&#45;files.dot</text>
</g>
<!-- graphs&#45;&#45;starter&#45;files.dot -->
<g id="edge8" class="edge">
<title>graphs&#45;&#45;starter&#45;files.dot</title>
<path fill="none" stroke="black" d="M513.45,-157.03C577.39,-149.23 721.14,-130.7 840.95,-108 849.39,-106.4 858.33,-104.5 866.95,-102.55"/>
</g>
<!-- test -->
<g id="node10" class="node">
<title>test</title>
<ellipse fill="none" stroke="black" cx="1022.95" cy="-90" rx="27" ry="18"/>
<text text-anchor="middle" x="1022.95" y="-86.3" font-family="Times,serif" font-size="14.00">test</text>
</g>
<!-- graphs&#45;&#45;test -->
<g id="edge9" class="edge">
<title>graphs&#45;&#45;test</title>
<path fill="none" stroke="black" d="M514.82,-161.35C598.11,-161.32 814.57,-156.2 986.95,-108 992.14,-106.55 997.51,-104.4 1002.47,-102.12"/>
</g>
<!-- ExampleTests.java -->
<g id="node11" class="node">
<title>ExampleTests.java</title>
<ellipse fill="none" stroke="black" cx="1022.95" cy="-18" rx="77.99" ry="18"/>
<text text-anchor="middle" x="1022.95" y="-14.3" font-family="Times,serif" font-size="14.00">ExampleTests.java</text>
</g>
<!-- test&#45;&#45;ExampleTests.java -->
<g id="edge10" class="edge">
<title>test&#45;&#45;ExampleTests.java</title>
<path fill="none" stroke="black" d="M1022.95,-71.7C1022.95,-60.85 1022.95,-46.92 1022.95,-36.1"/>
</g>
</g>
</svg>
