<svg version="1.1" viewBox="0.0 0.0 600.0 371.0" fill="none" stroke="none" stroke-linecap="square" stroke-miterlimit="10" width="600" height="371" xmlns:xlink="http://www.w3.org/1999/xlink" xmlns="http://www.w3.org/2000/svg"><path fill="#ffffff" d="M0 0L600.0 0L600.0 371.0L0 371.0L0 0Z" fill-rule="nonzero"/><path stroke="#333333" stroke-width="1.0" stroke-linecap="butt" d="M80.5 61.5L80.5 300.5" fill-rule="nonzero"/><path stroke="#cccccc" stroke-width="1.0" stroke-linecap="butt" d="M177.5 61.5L177.5 300.5" fill-rule="nonzero"/><path stroke="#cccccc" stroke-width="1.0" stroke-linecap="butt" d="M273.5 61.5L273.5 300.5" fill-rule="nonzero"/><path stroke="#cccccc" stroke-width="1.0" stroke-linecap="butt" d="M370.5 61.5L370.5 300.5" fill-rule="nonzero"/><path stroke="#cccccc" stroke-width="1.0" stroke-linecap="butt" d="M466.5 61.5L466.5 300.5" fill-rule="nonzero"/><path stroke="#cccccc" stroke-width="1.0" stroke-linecap="butt" d="M563.5 61.5L563.5 300.5" fill-rule="nonzero"/><path stroke="#333333" stroke-width="1.0" stroke-linecap="butt" d="M77.5 300.5L581.5 300.5" fill-rule="nonzero"/><path stroke="#cccccc" stroke-width="1.0" stroke-linecap="butt" d="M77.5 252.5L581.5 252.5" fill-rule="nonzero"/><path stroke="#cccccc" stroke-width="1.0" stroke-linecap="butt" d="M77.5 205.5L581.5 205.5" fill-rule="nonzero"/><path stroke="#cccccc" stroke-width="1.0" stroke-linecap="butt" d="M77.5 157.5L581.5 157.5" fill-rule="nonzero"/><path stroke="#cccccc" stroke-width="1.0" stroke-linecap="butt" d="M77.5 109.5L581.5 109.5" fill-rule="nonzero"/><path stroke="#cccccc" stroke-width="1.0" stroke-linecap="butt" d="M77.5 61.5L581.5 61.5" fill-rule="nonzero"/><clipPath id="id_0"><path d="M77.55 61.916668L581.45 61.916668L581.45 300.45L77.55 300.45L77.55 61.916668Z" clip-rule="nonzero"/></clipPath><path fill="#4285f4" clip-path="url(#id_0)" d="M88.86077 300.40228C88.86077 302.88757 86.846054 304.90228 84.36077 304.90228C81.875496 304.90228 79.86077 302.88757 79.86077 300.40228C79.86077 297.91702 81.875496 295.90228 84.36077 295.90228C86.846054 295.90228 88.86077 297.91702 88.86077 300.40228Z" fill-rule="nonzero"/><path fill="#4285f4" clip-path="url(#id_0)" d="M92.72124 300.35458C92.72124 302.83987 90.70651 304.85458 88.22124 304.85458C85.735954 304.85458 83.72124 302.83987 83.72124 300.35458C83.72124 297.8693 85.735954 295.85458 88.22124 295.85458C90.70651 295.85458 92.72124 297.8693 92.72124 300.35458Z" fill-rule="nonzero"/><path fill="#4285f4" clip-path="url(#id_0)" d="M100.442154 300.2592C100.442154 302.74445 98.42744 304.7592 95.942154 304.7592C93.45687 304.7592 91.442154 302.74445 91.442154 300.2592C91.442154 297.7739 93.45687 295.7592 95.942154 295.7592C98.42744 295.7592 100.442154 297.7739 100.442154 300.2592Z" fill-rule="nonzero"/><path fill="#4285f4" clip-path="url(#id_0)" d="M115.883995 299.92523C115.883995 302.41052 113.86928 304.42523 111.383995 304.42523C108.89871 304.42523 106.883995 302.41052 106.883995 299.92523C106.883995 297.43994 108.89871 295.42523 111.383995 295.42523C113.86928 295.42523 115.883995 297.43994 115.883995 299.92523Z" fill-rule="nonzero"/><path fill="#4285f4" clip-path="url(#id_0)" d="M146.76768 298.54175C146.76768 301.027 144.75296 303.04175 142.26768 303.04175C139.7824 303.04175 137.76768 301.027 137.76768 298.54175C137.76768 296.05646 139.7824 294.04175 142.26768 294.04175C144.75296 294.04175 146.76768 296.05646 146.76768 298.54175Z" fill-rule="nonzero"/><path fill="#4285f4" clip-path="url(#id_0)" d="M208.53505 292.483C208.53505 294.96826 206.52032 296.983 204.03505 296.983C201.54976 296.983 199.53505 294.96826 199.53505 292.483C199.53505 289.9977 201.54976 287.983 204.03505 287.983C206.52032 287.983 208.53505 289.9977 208.53505 292.483Z" fill-rule="nonzero"/><path fill="#4285f4" clip-path="url(#id_0)" d="M332.06976 261.33054C332.06976 263.81583 330.05505 265.83054 327.56976 265.83054C325.0845 265.83054 323.06976 263.81583 323.06976 261.33054C323.06976 258.84525 325.0845 256.83054 327.56976 256.83054C330.05505 256.83054 332.06976 258.84525 332.06976 261.33054Z" fill-rule="nonzero"/><path fill="#4285f4" clip-path="url(#id_0)" d="M579.1392 107.33341C579.1392 109.818695 577.1245 111.83341 574.6392 111.83341C572.15393 111.83341 570.1392 109.818695 570.1392 107.33341C570.1392 104.84813 572.15393 102.83341 574.6392 102.83341C577.1245 102.83341 579.1392 104.84813 579.1392 107.33341Z" fill-rule="nonzero"/><path fill="#000000" d="M308.54688 346.6844L309.60938 346.59064Q309.6875 347.2469 309.96875 347.65314Q310.25 348.0594 310.82812 348.325Q311.42188 348.575 312.15625 348.575Q312.79688 348.575 313.29688 348.3875Q313.79688 348.1844 314.03125 347.85626Q314.28125 347.5125 314.28125 347.1219Q314.28125 346.71564 314.04688 346.41876Q313.8125 346.10626 313.28125 345.90314Q312.92188 345.7625 311.73438 345.48126Q310.5625 345.2 310.09375 344.95Q309.46875 344.6219 309.17188 344.15314Q308.875 343.66876 308.875 343.075Q308.875 342.4344 309.23438 341.8719Q309.60938 341.29376 310.3125 341.0125Q311.03125 340.71564 311.89062 340.71564Q312.84375 340.71564 313.57812 341.02814Q314.3125 341.325 314.70312 341.9344Q315.09375 342.52814 315.125 343.27814L314.03125 343.35626Q313.9375 342.54376 313.42188 342.1375Q312.92188 341.71564 311.9375 341.71564Q310.90625 341.71564 310.4375 342.09064Q309.96875 342.46564 309.96875 342.9969Q309.96875 343.46564 310.29688 343.7625Q310.625 344.0594 312.0 344.3719Q313.39062 344.6844 313.90625 344.91876Q314.65625 345.27814 315.01562 345.8094Q315.375 346.325 315.375 347.02814Q315.375 347.71564 314.98438 348.325Q314.59375 348.91876 313.85938 349.2625Q313.125 349.59064 312.20312 349.59064Q311.03125 349.59064 310.23438 349.2625Q309.45312 348.91876 309.0 348.23126Q308.5625 347.54376 308.54688 346.6844ZM316.79688 342.075L316.79688 340.85626L317.85938 340.85626L317.85938 342.075L316.79688 342.075ZM316.79688 349.45L316.79688 343.23126L317.85938 343.23126L317.85938 349.45L316.79688 349.45ZM319.23438 349.45L319.23438 348.59064L323.20312 344.04376Q322.51562 344.075 322.0 344.075L319.46875 344.075L319.46875 343.23126L324.5625 343.23126L324.5625 343.91876L321.1875 347.8719L320.53125 348.59064Q321.25 348.54376 321.85938 348.54376L324.75 348.54376L324.75 349.45L319.23438 349.45ZM329.04688 347.45L330.14062 347.575Q329.89062 348.52814 329.1875 349.0594Q328.48438 349.59064 327.40625 349.59064Q326.04688 349.59064 325.23438 348.7469Q324.4375 347.90314 324.4375 346.3875Q324.4375 344.825 325.25 343.96564Q326.0625 343.09064 327.34375 343.09064Q328.59375 343.09064 329.375 343.9344Q330.17188 344.77814 330.17188 346.325Q330.17188 346.41876 330.17188 346.60626L325.53125 346.60626Q325.59375 347.6375 326.10938 348.1844Q326.625 348.71564 327.40625 348.71564Q327.98438 348.71564 328.39062 348.41876Q328.8125 348.10626 329.04688 347.45ZM325.59375 345.7469L329.0625 345.7469Q329.0 344.95 328.67188 344.5594Q328.15625 343.95 327.35938 343.95Q326.625 343.95 326.125 344.4344Q325.64062 344.91876 325.59375 345.7469ZM336.8125 351.98126Q335.9375 350.8719 335.32812 349.40314Q334.73438 347.91876 334.73438 346.34064Q334.73438 344.95 335.17188 343.66876Q335.70312 342.1844 336.8125 340.71564L337.5625 340.71564Q336.85938 341.9344 336.625 342.45Q336.26562 343.2625 336.0625 344.1375Q335.8125 345.23126 335.8125 346.34064Q335.8125 349.16876 337.5625 351.98126L336.8125 351.98126ZM338.92188 349.45L338.92188 340.85626L340.07812 340.85626L344.59375 347.60626L344.59375 340.85626L345.6875 340.85626L345.6875 349.45L344.51562 349.45L340.0 342.7L340.0 349.45L338.92188 349.45ZM348.48438 351.98126L347.73438 351.98126Q349.48438 349.16876 349.48438 346.34064Q349.48438 345.2469 349.23438 344.15314Q349.03125 343.27814 348.67188 342.46564Q348.4375 341.95 347.73438 340.71564L348.48438 340.71564Q349.57812 342.1844 350.10938 343.66876Q350.5625 344.95 350.5625 346.34064Q350.5625 347.91876 349.95312 349.40314Q349.34375 350.8719 348.48438 351.98126Z" fill-rule="nonzero"/><path fill="#000000" d="M29.550013 228.07396L21.971888 228.07396L21.971888 230.90208L20.956263 230.90208L20.956263 224.08958L21.971888 224.08958L21.971888 226.93333L29.550013 226.93333L29.550013 228.07396ZM22.175013 223.38646L20.956263 223.38646L20.956263 222.32396L22.175013 222.32396L22.175013 223.38646ZM29.550013 223.38646L23.331263 223.38646L23.331263 222.32396L29.550013 222.32396L29.550013 223.38646ZM29.550013 220.38646L23.331263 220.38646L23.331263 219.44896L24.206263 219.44896Q23.737513 219.15208 23.471888 218.66771Q23.190638 218.18333 23.190638 217.55833Q23.190638 216.87083 23.471888 216.43333Q23.753138 215.98021 24.268763 215.80833Q23.190638 215.05833 23.190638 213.88646Q23.190638 212.94896 23.706263 212.46458Q24.206263 211.96458 25.284388 211.96458L29.550013 211.96458L29.550013 213.01146L25.628138 213.01146Q25.003138 213.01146 24.721888 213.12083Q24.440638 213.21458 24.268763 213.48021Q24.096888 213.74583 24.096888 214.12083Q24.096888 214.77708 24.534388 215.21458Q24.971888 215.63646 25.940638 215.63646L29.550013 215.63646L29.550013 216.69896L25.503138 216.69896Q24.800013 216.69896 24.456263 216.96458Q24.096888 217.21458 24.096888 217.79271Q24.096888 218.24583 24.331263 218.62083Q24.565638 218.99583 25.018763 219.16771Q25.471888 219.33958 26.315638 219.33958L29.550013 219.33958L29.550013 220.38646ZM27.550013 205.13646L27.675013 204.04271Q28.628138 204.29271 29.159388 204.99583Q29.690638 205.69896 29.690638 206.77708Q29.690638 208.13646 28.846888 208.94896Q28.003138 209.74583 26.487513 209.74583Q24.925013 209.74583 24.065638 208.93333Q23.190638 208.12083 23.190638 206.83958Q23.190638 205.58958 24.034388 204.80833Q24.878138 204.01146 26.425013 204.01146Q26.518763 204.01146 26.706263 204.01146L26.706263 208.65208Q27.737513 208.58958 28.284388 208.07396Q28.815638 207.55833 28.815638 206.77708Q28.815638 206.19896 28.518763 205.79271Q28.206263 205.37083 27.550013 205.13646ZM25.846888 208.58958L25.846888 205.12083Q25.050013 205.18333 24.659388 205.51146Q24.050013 206.02708 24.050013 206.82396Q24.050013 207.55833 24.534388 208.05833Q25.018763 208.54271 25.846888 208.58958ZM32.08126 197.37083Q30.971888 198.24583 29.503138 198.85521Q28.018763 199.44896 26.440638 199.44896Q25.050013 199.44896 23.768763 199.01146Q22.284388 198.48021 20.815638 197.37083L20.815638 196.62083Q22.034388 197.32396 22.550013 197.55833Q23.362513 197.91771 24.237513 198.12083Q25.331263 198.37083 26.440638 198.37083Q29.268763 198.37083 32.08126 196.62083L32.08126 197.37083ZM27.690638 195.80833L27.534388 194.77708Q28.159388 194.68333 28.487513 194.29271Q28.815638 193.88646 28.815638 193.15208Q28.815638 192.43333 28.534388 192.08958Q28.237513 191.73021 27.831263 191.73021Q27.471888 191.73021 27.268763 192.04271Q27.128138 192.26146 26.909388 193.12083Q26.612513 194.27708 26.409388 194.73021Q26.190638 195.16771 25.815638 195.40208Q25.440638 195.63646 24.971888 195.63646Q24.565638 195.63646 24.206263 195.44896Q23.846888 195.26146 23.612513 194.93333Q23.440638 194.68333 23.315638 194.26146Q23.190638 193.83958 23.190638 193.33958Q23.190638 192.62083 23.409388 192.07396Q23.612513 191.51146 23.971888 191.24583Q24.331263 190.98021 24.925013 190.88646L25.065638 191.91771Q24.596888 191.98021 24.331263 192.32396Q24.050013 192.65208 24.050013 193.27708Q24.050013 193.99583 24.300013 194.30833Q24.534388 194.62083 24.862513 194.62083Q25.065638 194.62083 25.221888 194.49583Q25.393763 194.35521 25.503138 194.08958Q25.565638 193.93333 25.768763 193.15208Q26.081263 192.02708 26.268763 191.58958Q26.456263 191.15208 26.815638 190.90208Q27.175013 190.65208 27.721888 190.65208Q28.253138 190.65208 28.721888 190.96458Q29.175013 191.26146 29.440638 191.83958Q29.690638 192.41771 29.690638 193.15208Q29.690638 194.37083 29.190638 195.01146Q28.675013 195.63646 27.690638 195.80833ZM27.550013 184.13646L27.675013 183.04271Q28.628138 183.29271 29.159388 183.99583Q29.690638 184.69896 29.690638 185.77708Q29.690638 187.13646 28.846888 187.94896Q28.003138 188.74583 26.487513 188.74583Q24.925013 188.74583 24.065638 187.93333Q23.190638 187.12083 23.190638 185.83958Q23.190638 184.58958 24.034388 183.80833Q24.878138 183.01146 26.425013 183.01146Q26.518763 183.01146 26.706263 183.01146L26.706263 187.65208Q27.737513 187.58958 28.284388 187.07396Q28.815638 186.55833 28.815638 185.77708Q28.815638 185.19896 28.518763 184.79271Q28.206263 184.37083 27.550013 184.13646ZM25.846888 187.58958L25.846888 184.12083Q25.050013 184.18333 24.659388 184.51146Q24.050013 185.02708 24.050013 185.82396Q24.050013 186.55833 24.534388 187.05833Q25.018763 187.54271 25.846888 187.58958ZM27.268763 177.32396L27.409388 176.29271Q28.471888 176.46458 29.081263 177.16771Q29.690638 177.87083 29.690638 178.88646Q29.690638 180.16771 28.862513 180.94896Q28.018763 181.71458 26.456263 181.71458Q25.456263 181.71458 24.706263 181.38646Q23.940638 181.04271 23.565638 180.37083Q23.190638 179.68333 23.190638 178.87083Q23.190638 177.87083 23.706263 177.23021Q24.206263 176.57396 25.159388 176.38646L25.315638 177.41771Q24.690638 177.55833 24.378138 177.93333Q24.050013 178.30833 24.050013 178.83958Q24.050013 179.63646 24.628138 180.13646Q25.190638 180.63646 26.425013 180.63646Q27.690638 180.63646 28.253138 180.15208Q28.815638 179.66771 28.815638 178.90208Q28.815638 178.27708 28.440638 177.87083Q28.065638 177.44896 27.268763 177.32396ZM26.440638 175.77708Q24.706263 175.77708 23.878138 174.82396Q23.190638 174.02708 23.190638 172.87083Q23.190638 171.58958 24.034388 170.77708Q24.862513 169.94896 26.346888 169.94896Q27.550013 169.94896 28.237513 170.30833Q28.925013 170.66771 29.315638 171.37083Q29.690638 172.05833 29.690638 172.87083Q29.690638 174.16771 28.862513 174.98021Q28.018763 175.77708 26.440638 175.77708ZM26.440638 174.69896Q27.628138 174.69896 28.221888 174.18333Q28.815638 173.65208 28.815638 172.87083Q28.815638 172.07396 28.221888 171.55833Q27.628138 171.04271 26.409388 171.04271Q25.253138 171.04271 24.659388 171.57396Q24.065638 172.08958 24.065638 172.87083Q24.065638 173.65208 24.659388 174.18333Q25.237513 174.69896 26.440638 174.69896ZM29.550013 168.38646L23.331263 168.38646L23.331263 167.44896L24.206263 167.44896Q23.190638 166.76146 23.190638 165.46458Q23.190638 164.90208 23.393763 164.43333Q23.596888 163.94896 23.925013 163.71458Q24.253138 163.48021 24.690638 163.38646Q24.987513 163.33958 25.721888 163.33958L29.550013 163.33958L29.550013 164.38646L25.768763 164.38646Q25.112513 164.38646 24.800013 164.51146Q24.487513 164.63646 24.300013 164.94896Q24.096888 165.26146 24.096888 165.68333Q24.096888 166.35521 24.534388 166.85521Q24.956263 167.33958 26.143763 167.33958L29.550013 167.33958L29.550013 168.38646ZM29.550013 157.35521L28.768763 157.35521Q29.690638 157.94896 29.690638 159.08958Q29.690638 159.83958 29.284388 160.46458Q28.862513 161.08958 28.128138 161.43333Q27.393763 161.77708 26.440638 161.77708Q25.518763 161.77708 24.753138 161.46458Q23.987513 161.15208 23.596888 160.52708Q23.190638 159.90208 23.190638 159.13646Q23.190638 158.57396 23.425013 158.13646Q23.659388 157.69896 24.034388 157.41771L20.956263 157.41771L20.956263 156.37083L29.550013 156.37083L29.550013 157.35521ZM26.440638 160.68333Q27.643763 160.68333 28.237513 160.18333Q28.815638 159.68333 28.815638 158.99583Q28.815638 158.30833 28.253138 157.82396Q27.690638 157.33958 26.534388 157.33958Q25.253138 157.33958 24.659388 157.83958Q24.065638 158.32396 24.065638 159.04271Q24.065638 159.74583 24.643763 160.21458Q25.206263 160.68333 26.440638 160.68333ZM27.690638 154.80833L27.534388 153.77708Q28.159388 153.68333 28.487513 153.29271Q28.815638 152.88646 28.815638 152.15208Q28.815638 151.43333 28.534388 151.08958Q28.237513 150.73021 27.831263 150.73021Q27.471888 150.73021 27.268763 151.04271Q27.128138 151.26146 26.909388 152.12083Q26.612513 153.27708 26.409388 153.73021Q26.190638 154.16771 25.815638 154.40208Q25.440638 154.63646 24.971888 154.63646Q24.565638 154.63646 24.206263 154.44896Q23.846888 154.26146 23.612513 153.93333Q23.440638 153.68333 23.315638 153.26146Q23.190638 152.83958 23.190638 152.33958Q23.190638 151.62083 23.409388 151.07396Q23.612513 150.51146 23.971888 150.24583Q24.331263 149.98021 24.925013 149.88646L25.065638 150.91771Q24.596888 150.98021 24.331263 151.32396Q24.050013 151.65208 24.050013 152.27708Q24.050013 152.99583 24.300013 153.30833Q24.534388 153.62083 24.862513 153.62083Q25.065638 153.62083 25.221888 153.49583Q25.393763 153.35521 25.503138 153.08958Q25.565638 152.93333 25.768763 152.15208Q26.081263 151.02708 26.268763 150.58958Q26.456263 150.15208 26.815638 149.90208Q27.175013 149.65208 27.721888 149.65208Q28.253138 149.65208 28.721888 149.96458Q29.175013 150.26146 29.440638 150.83958Q29.690638 151.41771 29.690638 152.15208Q29.690638 153.37083 29.190638 154.01146Q28.675013 154.63646 27.690638 154.80833ZM32.08126 146.69896L32.08126 147.44896Q29.268763 145.69896 26.440638 145.69896Q25.346888 145.69896 24.253138 145.94896Q23.378138 146.15208 22.565638 146.51146Q22.050013 146.74583 20.815638 147.44896L20.815638 146.69896Q22.284388 145.60521 23.768763 145.07396Q25.050013 144.62083 26.440638 144.62083Q28.018763 144.62083 29.503138 145.23021Q30.971888 145.83958 32.08126 146.69896Z" fill-rule="nonzero"/><path fill="#000000" d="M65.05 300.21564Q65.05 298.6844 65.3625 297.7625Q65.675 296.825 66.28438 296.325Q66.90938 295.825 67.84688 295.825Q68.53438 295.825 69.05 296.10626Q69.58125 296.3875 69.925 296.91876Q70.26875 297.4344 70.45625 298.1844Q70.64375 298.9344 70.64375 300.21564Q70.64375 301.73126 70.33125 302.65314Q70.03438 303.575 69.40938 304.09064Q68.8 304.59064 67.84688 304.59064Q66.6125 304.59064 65.89375 303.7Q65.05 302.6375 65.05 300.21564ZM66.12813 300.21564Q66.12813 302.325 66.62813 303.02814Q67.12813 303.73126 67.84688 303.73126Q68.58125 303.73126 69.06563 303.02814Q69.56563 302.325 69.56563 300.21564Q69.56563 298.09064 69.06563 297.40314Q68.58125 296.7 67.83125 296.7Q67.1125 296.7 66.675 297.3094Q66.12813 298.09064 66.12813 300.21564Z" fill-rule="nonzero"/><path fill="#000000" d="M62.01875 256.74335L60.971874 256.74335L60.971874 250.0246Q60.58125 250.38397 59.95625 250.75897Q59.346874 251.11835 58.8625 251.29022L58.8625 250.2746Q59.7375 249.85272 60.39375 249.2746Q61.065624 248.68085 61.346874 248.11835L62.01875 248.11835L62.01875 256.74335ZM65.05 252.50897Q65.05 250.97772 65.3625 250.05585Q65.675 249.11835 66.28438 248.61835Q66.90938 248.11835 67.84688 248.11835Q68.53438 248.11835 69.05 248.3996Q69.58125 248.68085 69.925 249.2121Q70.26875 249.72772 70.45625 250.47772Q70.64375 251.22772 70.64375 252.50897Q70.64375 254.0246 70.33125 254.94647Q70.03438 255.86835 69.40938 256.38397Q68.8 256.88397 67.84688 256.88397Q66.6125 256.88397 65.89375 255.99335Q65.05 254.93085 65.05 252.50897ZM66.12813 252.50897Q66.12813 254.61835 66.62813 255.32147Q67.12813 256.0246 67.84688 256.0246Q68.58125 256.0246 69.06563 255.32147Q69.56563 254.61835 69.56563 252.50897Q69.56563 250.38397 69.06563 249.69647Q68.58125 248.99335 67.83125 248.99335Q67.1125 248.99335 66.675 249.60272Q66.12813 250.38397 66.12813 252.50897Z" fill-rule="nonzero"/><path fill="#000000" d="M63.596874 208.02104L63.596874 209.03667L57.909374 209.03667Q57.909374 208.66167 58.034374 208.30229Q58.253124 207.72417 58.721874 207.16167Q59.20625 206.59917 60.1125 205.86479Q61.51875 204.70854 62.003124 204.03667Q62.503124 203.36479 62.503124 202.77104Q62.503124 202.14604 62.05 201.72417Q61.596874 201.28667 60.878124 201.28667Q60.1125 201.28667 59.659374 201.73979Q59.20625 202.19292 59.190624 203.00542L58.1125 202.89604Q58.221874 201.67729 58.940624 201.05229Q59.675 200.41167 60.909374 200.41167Q62.14375 200.41167 62.8625 201.09917Q63.58125 201.78667 63.58125 202.80229Q63.58125 203.31792 63.3625 203.81792Q63.159374 204.30229 62.659374 204.86479Q62.175 205.41167 61.05 206.36479Q60.096874 207.16167 59.815624 207.45854Q59.55 207.73979 59.378124 208.02104L63.596874 208.02104ZM65.05 204.80229Q65.05 203.27104 65.3625 202.34917Q65.675 201.41167 66.28438 200.91167Q66.90938 200.41167 67.84688 200.41167Q68.53438 200.41167 69.05 200.69292Q69.58125 200.97417 69.925 201.50542Q70.26875 202.02104 70.45625 202.77104Q70.64375 203.52104 70.64375 204.80229Q70.64375 206.31792 70.33125 207.23979Q70.03438 208.16167 69.40938 208.67729Q68.8 209.17729 67.84688 209.17729Q66.6125 209.17729 65.89375 208.28667Q65.05 207.22417 65.05 204.80229ZM66.12813 204.80229Q66.12813 206.91167 66.62813 207.61479Q67.12813 208.31792 67.84688 208.31792Q68.58125 208.31792 69.06563 207.61479Q69.56563 206.91167 69.56563 204.80229Q69.56563 202.67729 69.06563 201.98979Q68.58125 201.28667 67.83125 201.28667Q67.1125 201.28667 66.675 201.89604Q66.12813 202.67729 66.12813 204.80229Z" fill-rule="nonzero"/><path fill="#000000" d="M58.05 159.06438L59.1125 158.92375Q59.284374 159.81438 59.721874 160.22063Q60.159374 160.61125 60.784374 160.61125Q61.534374 160.61125 62.05 160.09563Q62.565624 159.58 62.565624 158.81438Q62.565624 158.09563 62.08125 157.62688Q61.6125 157.1425 60.878124 157.1425Q60.58125 157.1425 60.128124 157.2675L60.253124 156.33Q60.3625 156.34563 60.425 156.34563Q61.096874 156.34563 61.628124 156.00188Q62.175 155.6425 62.175 154.90813Q62.175 154.33 61.784374 153.955Q61.39375 153.56438 60.76875 153.56438Q60.159374 153.56438 59.7375 153.955Q59.33125 154.34563 59.221874 155.11125L58.159374 154.92375Q58.346874 153.87688 59.034374 153.29875Q59.721874 152.705 60.7375 152.705Q61.440624 152.705 62.034374 153.0175Q62.628124 153.31438 62.940624 153.83Q63.253124 154.34563 63.253124 154.93938Q63.253124 155.48625 62.95625 155.955Q62.659374 156.40813 62.08125 156.67375Q62.83125 156.84563 63.253124 157.40813Q63.675 157.955 63.675 158.79875Q63.675 159.92375 62.846874 160.705Q62.034374 161.48625 60.784374 161.48625Q59.659374 161.48625 58.909374 160.81438Q58.159374 160.12688 58.05 159.06438ZM65.05 157.09563Q65.05 155.56438 65.3625 154.6425Q65.675 153.705 66.28438 153.205Q66.90938 152.705 67.84688 152.705Q68.53438 152.705 69.05 152.98625Q69.58125 153.2675 69.925 153.79875Q70.26875 154.31438 70.45625 155.06438Q70.64375 155.81438 70.64375 157.09563Q70.64375 158.61125 70.33125 159.53313Q70.03438 160.455 69.40938 160.97063Q68.8 161.47063 67.84688 161.47063Q66.6125 161.47063 65.89375 160.58Q65.05 159.5175 65.05 157.09563ZM66.12813 157.09563Q66.12813 159.205 66.62813 159.90813Q67.12813 160.61125 67.84688 160.61125Q68.58125 160.61125 69.06563 159.90813Q69.56563 159.205 69.56563 157.09563Q69.56563 154.97063 69.06563 154.28313Q68.58125 153.58 67.83125 153.58Q67.1125 153.58 66.675 154.18938Q66.12813 154.97063 66.12813 157.09563Z" fill-rule="nonzero"/><path fill="#000000" d="M61.425 113.62334L61.425 111.56084L57.70625 111.56084L57.70625 110.59209L61.628124 105.02959L62.4875 105.02959L62.4875 110.59209L63.64375 110.59209L63.64375 111.56084L62.4875 111.56084L62.4875 113.62334L61.425 113.62334ZM61.425 110.59209L61.425 106.73271L58.7375 110.59209L61.425 110.59209ZM65.05 109.38896Q65.05 107.85771 65.3625 106.93584Q65.675 105.99834 66.28438 105.49834Q66.90938 104.99834 67.84688 104.99834Q68.53438 104.99834 69.05 105.27959Q69.58125 105.56084 69.925 106.09209Q70.26875 106.60771 70.45625 107.35771Q70.64375 108.10771 70.64375 109.38896Q70.64375 110.90459 70.33125 111.82646Q70.03438 112.74834 69.40938 113.26396Q68.8 113.76396 67.84688 113.76396Q66.6125 113.76396 65.89375 112.87334Q65.05 111.81084 65.05 109.38896ZM66.12813 109.38896Q66.12813 111.49834 66.62813 112.20146Q67.12813 112.90459 67.84688 112.90459Q68.58125 112.90459 69.06563 112.20146Q69.56563 111.49834 69.56563 109.38896Q69.56563 107.26396 69.06563 106.57646Q68.58125 105.87334 67.83125 105.87334Q67.1125 105.87334 66.675 106.48271Q66.12813 107.26396 66.12813 109.38896Z" fill-rule="nonzero"/><path fill="#000000" d="M58.05 63.666664L59.159374 63.572914Q59.284374 64.385414 59.721874 64.791664Q60.175 65.197914 60.815624 65.197914Q61.565624 65.197914 62.096874 64.61979Q62.628124 64.041664 62.628124 63.104164Q62.628124 62.197914 62.1125 61.68229Q61.6125 61.15104 60.784374 61.15104Q60.284374 61.15104 59.8625 61.385414Q59.45625 61.61979 59.221874 61.979164L58.2375 61.854164L59.065624 57.447914L63.346874 57.447914L63.346874 58.447914L59.909374 58.447914L59.45625 60.760414Q60.221874 60.21354 61.065624 60.21354Q62.190624 60.21354 62.95625 60.99479Q63.7375 61.77604 63.7375 63.010414Q63.7375 64.166664 63.065624 65.02604Q62.2375 66.05729 60.815624 66.05729Q59.64375 66.05729 58.89375 65.40104Q58.159374 64.74479 58.05 63.666664ZM65.05 61.68229Q65.05 60.15104 65.3625 59.229164Q65.675 58.291664 66.28438 57.791664Q66.90938 57.291664 67.84688 57.291664Q68.53438 57.291664 69.05 57.572914Q69.58125 57.854164 69.925 58.385414Q70.26875 58.90104 70.45625 59.65104Q70.64375 60.40104 70.64375 61.68229Q70.64375 63.197914 70.33125 64.11979Q70.03438 65.041664 69.40938 65.55729Q68.8 66.05729 67.84688 66.05729Q66.6125 66.05729 65.89375 65.166664Q65.05 64.104164 65.05 61.68229ZM66.12813 61.68229Q66.12813 63.791664 66.62813 64.49479Q67.12813 65.197914 67.84688 65.197914Q68.58125 65.197914 69.06563 64.49479Q69.56563 63.791664 69.56563 61.68229Q69.56563 59.55729 69.06563 58.86979Q68.58125 58.166664 67.83125 58.166664Q67.1125 58.166664 66.675 58.77604Q66.12813 59.55729 66.12813 61.68229Z" fill-rule="nonzero"/><path fill="#000000" d="M77.50031 313.21564Q77.50031 311.6844 77.81281 310.7625Q78.12531 309.825 78.73469 309.325Q79.35969 308.825 80.29719 308.825Q80.98469 308.825 81.50031 309.10626Q82.03156 309.3875 82.37531 309.91876Q82.71906 310.4344 82.90656 311.1844Q83.09406 311.9344 83.09406 313.21564Q83.09406 314.73126 82.78156 315.65314Q82.48469 316.575 81.85969 317.09064Q81.25031 317.59064 80.29719 317.59064Q79.06281 317.59064 78.34406 316.7Q77.50031 315.6375 77.50031 313.21564ZM78.57844 313.21564Q78.57844 315.325 79.07844 316.02814Q79.57844 316.73126 80.29719 316.73126Q81.03156 316.73126 81.51594 316.02814Q82.01594 315.325 82.01594 313.21564Q82.01594 311.09064 81.51594 310.40314Q81.03156 309.7 80.28156 309.7Q79.56281 309.7 79.12531 310.3094Q78.57844 311.09064 78.57844 313.21564Z" fill-rule="nonzero"/><path fill="#000000" d="M165.5587 316.4344L165.5587 317.45L159.8712 317.45Q159.8712 317.075 159.9962 316.71564Q160.21495 316.1375 160.6837 315.575Q161.16808 315.0125 162.07433 314.27814Q163.48058 313.1219 163.96495 312.45Q164.46495 311.77814 164.46495 311.1844Q164.46495 310.5594 164.01183 310.1375Q163.5587 309.7 162.83995 309.7Q162.07433 309.7 161.6212 310.15314Q161.16808 310.60626 161.15245 311.41876L160.07433 311.3094Q160.1837 310.09064 160.90245 309.46564Q161.63683 308.825 162.8712 308.825Q164.10558 308.825 164.82433 309.5125Q165.54308 310.2 165.54308 311.21564Q165.54308 311.73126 165.32433 312.23126Q165.1212 312.71564 164.6212 313.27814Q164.13683 313.825 163.01183 314.77814Q162.0587 315.575 161.77745 315.8719Q161.51183 316.15314 161.33995 316.4344L165.5587 316.4344ZM167.01183 315.2L168.1212 315.10626Q168.2462 315.91876 168.6837 316.325Q169.13683 316.73126 169.77745 316.73126Q170.52745 316.73126 171.0587 316.15314Q171.58995 315.575 171.58995 314.6375Q171.58995 313.73126 171.07433 313.21564Q170.57433 312.6844 169.7462 312.6844Q169.2462 312.6844 168.82433 312.91876Q168.41808 313.15314 168.1837 313.5125L167.19933 313.3875L168.02745 308.98126L172.3087 308.98126L172.3087 309.98126L168.8712 309.98126L168.41808 312.29376Q169.1837 311.7469 170.02745 311.7469Q171.15245 311.7469 171.91808 312.52814Q172.69933 313.3094 172.69933 314.54376Q172.69933 315.7 172.02745 316.5594Q171.19933 317.59064 169.77745 317.59064Q168.60558 317.59064 167.85558 316.9344Q167.1212 316.27814 167.01183 315.2ZM174.01183 313.21564Q174.01183 311.6844 174.32433 310.7625Q174.63683 309.825 175.2462 309.325Q175.8712 308.825 176.8087 308.825Q177.4962 308.825 178.01183 309.10626Q178.54308 309.3875 178.88683 309.91876Q179.23058 310.4344 179.41808 311.1844Q179.60558 311.9344 179.60558 313.21564Q179.60558 314.73126 179.29308 315.65314Q178.9962 316.575 178.3712 317.09064Q177.76183 317.59064 176.8087 317.59064Q175.57433 317.59064 174.85558 316.7Q174.01183 315.6375 174.01183 313.21564ZM175.08995 313.21564Q175.08995 315.325 175.58995 316.02814Q176.08995 316.73126 176.8087 316.73126Q177.54308 316.73126 178.02745 316.02814Q178.52745 315.325 178.52745 313.21564Q178.52745 311.09064 178.02745 310.40314Q177.54308 309.7 176.79308 309.7Q176.07433 309.7 175.63683 310.3094Q175.08995 311.09064 175.08995 313.21564ZM181.01183 313.21564Q181.01183 311.6844 181.32433 310.7625Q181.63683 309.825 182.2462 309.325Q182.8712 308.825 183.8087 308.825Q184.4962 308.825 185.01183 309.10626Q185.54308 309.3875 185.88683 309.91876Q186.23058 310.4344 186.41808 311.1844Q186.60558 311.9344 186.60558 313.21564Q186.60558 314.73126 186.29308 315.65314Q185.9962 316.575 185.3712 317.09064Q184.76183 317.59064 183.8087 317.59064Q182.57433 317.59064 181.85558 316.7Q181.01183 315.6375 181.01183 313.21564ZM182.08995 313.21564Q182.08995 315.325 182.58995 316.02814Q183.08995 316.73126 183.8087 316.73126Q184.54308 316.73126 185.02745 316.02814Q185.52745 315.325 185.52745 313.21564Q185.52745 311.09064 185.02745 310.40314Q184.54308 309.7 183.79308 309.7Q183.07433 309.7 182.63683 310.3094Q182.08995 311.09064 182.08995 313.21564ZM188.01183 313.21564Q188.01183 311.6844 188.32433 310.7625Q188.63683 309.825 189.2462 309.325Q189.8712 308.825 190.8087 308.825Q191.4962 308.825 192.01183 309.10626Q192.54308 309.3875 192.88683 309.91876Q193.23058 310.4344 193.41808 311.1844Q193.60558 311.9344 193.60558 313.21564Q193.60558 314.73126 193.29308 315.65314Q192.9962 316.575 192.3712 317.09064Q191.76183 317.59064 190.8087 317.59064Q189.57433 317.59064 188.85558 316.7Q188.01183 315.6375 188.01183 313.21564ZM189.08995 313.21564Q189.08995 315.325 189.58995 316.02814Q190.08995 316.73126 190.8087 316.73126Q191.54308 316.73126 192.02745 316.02814Q192.52745 315.325 192.52745 313.21564Q192.52745 311.09064 192.02745 310.40314Q191.54308 309.7 190.79308 309.7Q190.07433 309.7 189.63683 310.3094Q189.08995 311.09064 189.08995 313.21564Z" fill-rule="nonzero"/><path fill="#000000" d="M256.52332 315.2L257.6327 315.10626Q257.7577 315.91876 258.1952 316.325Q258.64832 316.73126 259.28894 316.73126Q260.03894 316.73126 260.5702 316.15314Q261.10144 315.575 261.10144 314.6375Q261.10144 313.73126 260.58582 313.21564Q260.08582 312.6844 259.2577 312.6844Q258.7577 312.6844 258.33582 312.91876Q257.92957 313.15314 257.6952 313.5125L256.71082 313.3875L257.53894 308.98126L261.8202 308.98126L261.8202 309.98126L258.3827 309.98126L257.92957 312.29376Q258.6952 311.7469 259.53894 311.7469Q260.66394 311.7469 261.42957 312.52814Q262.21082 313.3094 262.21082 314.54376Q262.21082 315.7 261.53894 316.5594Q260.71082 317.59064 259.28894 317.59064Q258.11707 317.59064 257.36707 316.9344Q256.6327 316.27814 256.52332 315.2ZM263.52332 313.21564Q263.52332 311.6844 263.83582 310.7625Q264.14832 309.825 264.7577 309.325Q265.3827 308.825 266.3202 308.825Q267.0077 308.825 267.52332 309.10626Q268.05457 309.3875 268.39832 309.91876Q268.74207 310.4344 268.92957 311.1844Q269.11707 311.9344 269.11707 313.21564Q269.11707 314.73126 268.80457 315.65314Q268.5077 316.575 267.8827 317.09064Q267.27332 317.59064 266.3202 317.59064Q265.08582 317.59064 264.36707 316.7Q263.52332 315.6375 263.52332 313.21564ZM264.60144 313.21564Q264.60144 315.325 265.10144 316.02814Q265.60144 316.73126 266.3202 316.73126Q267.05457 316.73126 267.53894 316.02814Q268.03894 315.325 268.03894 313.21564Q268.03894 311.09064 267.53894 310.40314Q267.05457 309.7 266.30457 309.7Q265.58582 309.7 265.14832 310.3094Q264.60144 311.09064 264.60144 313.21564ZM270.52332 313.21564Q270.52332 311.6844 270.83582 310.7625Q271.14832 309.825 271.7577 309.325Q272.3827 308.825 273.3202 308.825Q274.0077 308.825 274.52332 309.10626Q275.05457 309.3875 275.39832 309.91876Q275.74207 310.4344 275.92957 311.1844Q276.11707 311.9344 276.11707 313.21564Q276.11707 314.73126 275.80457 315.65314Q275.5077 316.575 274.8827 317.09064Q274.27332 317.59064 273.3202 317.59064Q272.08582 317.59064 271.36707 316.7Q270.52332 315.6375 270.52332 313.21564ZM271.60144 313.21564Q271.60144 315.325 272.10144 316.02814Q272.60144 316.73126 273.3202 316.73126Q274.05457 316.73126 274.53894 316.02814Q275.03894 315.325 275.03894 313.21564Q275.03894 311.09064 274.53894 310.40314Q274.05457 309.7 273.30457 309.7Q272.58582 309.7 272.14832 310.3094Q271.60144 311.09064 271.60144 313.21564ZM277.52332 313.21564Q277.52332 311.6844 277.83582 310.7625Q278.14832 309.825 278.7577 309.325Q279.3827 308.825 280.3202 308.825Q281.0077 308.825 281.52332 309.10626Q282.05457 309.3875 282.39832 309.91876Q282.74207 310.4344 282.92957 311.1844Q283.11707 311.9344 283.11707 313.21564Q283.11707 314.73126 282.80457 315.65314Q282.5077 316.575 281.8827 317.09064Q281.27332 317.59064 280.3202 317.59064Q279.08582 317.59064 278.36707 316.7Q277.52332 315.6375 277.52332 313.21564ZM278.60144 313.21564Q278.60144 315.325 279.10144 316.02814Q279.60144 316.73126 280.3202 316.73126Q281.05457 316.73126 281.53894 316.02814Q282.03894 315.325 282.03894 313.21564Q282.03894 311.09064 281.53894 310.40314Q281.05457 309.7 280.30457 309.7Q279.58582 309.7 279.14832 310.3094Q278.60144 311.09064 278.60144 313.21564ZM284.52332 313.21564Q284.52332 311.6844 284.83582 310.7625Q285.14832 309.825 285.7577 309.325Q286.3827 308.825 287.3202 308.825Q288.0077 308.825 288.52332 309.10626Q289.05457 309.3875 289.39832 309.91876Q289.74207 310.4344 289.92957 311.1844Q290.11707 311.9344 290.11707 313.21564Q290.11707 314.73126 289.80457 315.65314Q289.5077 316.575 288.8827 317.09064Q288.27332 317.59064 287.3202 317.59064Q286.08582 317.59064 285.36707 316.7Q284.52332 315.6375 284.52332 313.21564ZM285.60144 313.21564Q285.60144 315.325 286.10144 316.02814Q286.60144 316.73126 287.3202 316.73126Q288.05457 316.73126 288.53894 316.02814Q289.03894 315.325 289.03894 313.21564Q289.03894 311.09064 288.53894 310.40314Q288.05457 309.7 287.30457 309.7Q286.58582 309.7 286.14832 310.3094Q285.60144 311.09064 285.60144 313.21564Z" fill-rule="nonzero"/><path fill="#000000" d="M353.09732 309.98126L353.09732 308.96564L358.65982 308.96564L358.65982 309.79376Q357.84732 310.66876 357.03482 312.1219Q356.23795 313.5594 355.80045 315.09064Q355.47232 316.16876 355.3942 317.45L354.30045 317.45Q354.31607 316.4344 354.69107 314.9969Q355.0817 313.5594 355.78482 312.23126Q356.50357 310.90314 357.31607 309.98126L353.09732 309.98126ZM360.03482 315.2L361.1442 315.10626Q361.2692 315.91876 361.7067 316.325Q362.15982 316.73126 362.80045 316.73126Q363.55045 316.73126 364.0817 316.15314Q364.61295 315.575 364.61295 314.6375Q364.61295 313.73126 364.09732 313.21564Q363.59732 312.6844 362.7692 312.6844Q362.2692 312.6844 361.84732 312.91876Q361.44107 313.15314 361.2067 313.5125L360.22232 313.3875L361.05045 308.98126L365.3317 308.98126L365.3317 309.98126L361.8942 309.98126L361.44107 312.29376Q362.2067 311.7469 363.05045 311.7469Q364.17545 311.7469 364.94107 312.52814Q365.72232 313.3094 365.72232 314.54376Q365.72232 315.7 365.05045 316.5594Q364.22232 317.59064 362.80045 317.59064Q361.62857 317.59064 360.87857 316.9344Q360.1442 316.27814 360.03482 315.2ZM367.03482 313.21564Q367.03482 311.6844 367.34732 310.7625Q367.65982 309.825 368.2692 309.325Q368.8942 308.825 369.8317 308.825Q370.5192 308.825 371.03482 309.10626Q371.56607 309.3875 371.90982 309.91876Q372.25357 310.4344 372.44107 311.1844Q372.62857 311.9344 372.62857 313.21564Q372.62857 314.73126 372.31607 315.65314Q372.0192 316.575 371.3942 317.09064Q370.78482 317.59064 369.8317 317.59064Q368.59732 317.59064 367.87857 316.7Q367.03482 315.6375 367.03482 313.21564ZM368.11295 313.21564Q368.11295 315.325 368.61295 316.02814Q369.11295 316.73126 369.8317 316.73126Q370.56607 316.73126 371.05045 316.02814Q371.55045 315.325 371.55045 313.21564Q371.55045 311.09064 371.05045 310.40314Q370.56607 309.7 369.81607 309.7Q369.09732 309.7 368.65982 310.3094Q368.11295 311.09064 368.11295 313.21564ZM374.03482 313.21564Q374.03482 311.6844 374.34732 310.7625Q374.65982 309.825 375.2692 309.325Q375.8942 308.825 376.8317 308.825Q377.5192 308.825 378.03482 309.10626Q378.56607 309.3875 378.90982 309.91876Q379.25357 310.4344 379.44107 311.1844Q379.62857 311.9344 379.62857 313.21564Q379.62857 314.73126 379.31607 315.65314Q379.0192 316.575 378.3942 317.09064Q377.78482 317.59064 376.8317 317.59064Q375.59732 317.59064 374.87857 316.7Q374.03482 315.6375 374.03482 313.21564ZM375.11295 313.21564Q375.11295 315.325 375.61295 316.02814Q376.11295 316.73126 376.8317 316.73126Q377.56607 316.73126 378.05045 316.02814Q378.55045 315.325 378.55045 313.21564Q378.55045 311.09064 378.05045 310.40314Q377.56607 309.7 376.81607 309.7Q376.09732 309.7 375.65982 310.3094Q375.11295 311.09064 375.11295 313.21564ZM381.03482 313.21564Q381.03482 311.6844 381.34732 310.7625Q381.65982 309.825 382.2692 309.325Q382.8942 308.825 383.8317 308.825Q384.5192 308.825 385.03482 309.10626Q385.56607 309.3875 385.90982 309.91876Q386.25357 310.4344 386.44107 311.1844Q386.62857 311.9344 386.62857 313.21564Q386.62857 314.73126 386.31607 315.65314Q386.0192 316.575 385.3942 317.09064Q384.78482 317.59064 383.8317 317.59064Q382.59732 317.59064 381.87857 316.7Q381.03482 315.6375 381.03482 313.21564ZM382.11295 313.21564Q382.11295 315.325 382.61295 316.02814Q383.11295 316.73126 383.8317 316.73126Q384.56607 316.73126 385.05045 316.02814Q385.55045 315.325 385.55045 313.21564Q385.55045 311.09064 385.05045 310.40314Q384.56607 309.7 383.81607 309.7Q383.09732 309.7 382.65982 310.3094Q382.11295 311.09064 382.11295 313.21564Z" fill-rule="nonzero"/><path fill="#000000" d="M450.01508 317.45L448.9682 317.45L448.9682 310.73126Q448.57758 311.09064 447.95258 311.46564Q447.3432 311.825 446.85883 311.9969L446.85883 310.98126Q447.73383 310.5594 448.39008 309.98126Q449.06195 309.3875 449.3432 308.825L450.01508 308.825L450.01508 317.45ZM453.04633 313.21564Q453.04633 311.6844 453.35883 310.7625Q453.67133 309.825 454.2807 309.325Q454.9057 308.825 455.8432 308.825Q456.5307 308.825 457.04633 309.10626Q457.57758 309.3875 457.92133 309.91876Q458.26508 310.4344 458.45258 311.1844Q458.64008 311.9344 458.64008 313.21564Q458.64008 314.73126 458.32758 315.65314Q458.0307 316.575 457.4057 317.09064Q456.79633 317.59064 455.8432 317.59064Q454.60883 317.59064 453.89008 316.7Q453.04633 315.6375 453.04633 313.21564ZM454.12445 313.21564Q454.12445 315.325 454.62445 316.02814Q455.12445 316.73126 455.8432 316.73126Q456.57758 316.73126 457.06195 316.02814Q457.56195 315.325 457.56195 313.21564Q457.56195 311.09064 457.06195 310.40314Q456.57758 309.7 455.82758 309.7Q455.10883 309.7 454.67133 310.3094Q454.12445 311.09064 454.12445 313.21564ZM460.04633 313.21564Q460.04633 311.6844 460.35883 310.7625Q460.67133 309.825 461.2807 309.325Q461.9057 308.825 462.8432 308.825Q463.5307 308.825 464.04633 309.10626Q464.57758 309.3875 464.92133 309.91876Q465.26508 310.4344 465.45258 311.1844Q465.64008 311.9344 465.64008 313.21564Q465.64008 314.73126 465.32758 315.65314Q465.0307 316.575 464.4057 317.09064Q463.79633 317.59064 462.8432 317.59064Q461.60883 317.59064 460.89008 316.7Q460.04633 315.6375 460.04633 313.21564ZM461.12445 313.21564Q461.12445 315.325 461.62445 316.02814Q462.12445 316.73126 462.8432 316.73126Q463.57758 316.73126 464.06195 316.02814Q464.56195 315.325 464.56195 313.21564Q464.56195 311.09064 464.06195 310.40314Q463.57758 309.7 462.82758 309.7Q462.10883 309.7 461.67133 310.3094Q461.12445 311.09064 461.12445 313.21564ZM467.04633 313.21564Q467.04633 311.6844 467.35883 310.7625Q467.67133 309.825 468.2807 309.325Q468.9057 308.825 469.8432 308.825Q470.5307 308.825 471.04633 309.10626Q471.57758 309.3875 471.92133 309.91876Q472.26508 310.4344 472.45258 311.1844Q472.64008 311.9344 472.64008 313.21564Q472.64008 314.73126 472.32758 315.65314Q472.0307 316.575 471.4057 317.09064Q470.79633 317.59064 469.8432 317.59064Q468.60883 317.59064 467.89008 316.7Q467.04633 315.6375 467.04633 313.21564ZM468.12445 313.21564Q468.12445 315.325 468.62445 316.02814Q469.12445 316.73126 469.8432 316.73126Q470.57758 316.73126 471.06195 316.02814Q471.56195 315.325 471.56195 313.21564Q471.56195 311.09064 471.06195 310.40314Q470.57758 309.7 469.82758 309.7Q469.10883 309.7 468.67133 310.3094Q468.12445 311.09064 468.12445 313.21564ZM474.04633 313.21564Q474.04633 311.6844 474.35883 310.7625Q474.67133 309.825 475.2807 309.325Q475.9057 308.825 476.8432 308.825Q477.5307 308.825 478.04633 309.10626Q478.57758 309.3875 478.92133 309.91876Q479.26508 310.4344 479.45258 311.1844Q479.64008 311.9344 479.64008 313.21564Q479.64008 314.73126 479.32758 315.65314Q479.0307 316.575 478.4057 317.09064Q477.79633 317.59064 476.8432 317.59064Q475.60883 317.59064 474.89008 316.7Q474.04633 315.6375 474.04633 313.21564ZM475.12445 313.21564Q475.12445 315.325 475.62445 316.02814Q476.12445 316.73126 476.8432 316.73126Q477.57758 316.73126 478.06195 316.02814Q478.56195 315.325 478.56195 313.21564Q478.56195 311.09064 478.06195 310.40314Q477.57758 309.7 476.82758 309.7Q476.10883 309.7 475.67133 310.3094Q475.12445 311.09064 475.12445 313.21564ZM481.04633 313.21564Q481.04633 311.6844 481.35883 310.7625Q481.67133 309.825 482.2807 309.325Q482.9057 308.825 483.8432 308.825Q484.5307 308.825 485.04633 309.10626Q485.57758 309.3875 485.92133 309.91876Q486.26508 310.4344 486.45258 311.1844Q486.64008 311.9344 486.64008 313.21564Q486.64008 314.73126 486.32758 315.65314Q486.0307 316.575 485.4057 317.09064Q484.79633 317.59064 483.8432 317.59064Q482.60883 317.59064 481.89008 316.7Q481.04633 315.6375 481.04633 313.21564ZM482.12445 313.21564Q482.12445 315.325 482.62445 316.02814Q483.12445 316.73126 483.8432 316.73126Q484.57758 316.73126 485.06195 316.02814Q485.56195 315.325 485.56195 313.21564Q485.56195 311.09064 485.06195 310.40314Q484.57758 309.7 483.82758 309.7Q483.10883 309.7 482.67133 310.3094Q482.12445 311.09064 482.12445 313.21564Z" fill-rule="nonzero"/><path fill="#000000" d="M546.5266 317.45L545.47974 317.45L545.47974 310.73126Q545.0891 311.09064 544.4641 311.46564Q543.85474 311.825 543.37036 311.9969L543.37036 310.98126Q544.24536 310.5594 544.9016 309.98126Q545.5735 309.3875 545.85474 308.825L546.5266 308.825L546.5266 317.45ZM555.10474 316.4344L555.10474 317.45L549.41724 317.45Q549.41724 317.075 549.54224 316.71564Q549.761 316.1375 550.22974 315.575Q550.7141 315.0125 551.62036 314.27814Q553.0266 313.1219 553.511 312.45Q554.011 311.77814 554.011 311.1844Q554.011 310.5594 553.55786 310.1375Q553.10474 309.7 552.386 309.7Q551.62036 309.7 551.16724 310.15314Q550.7141 310.60626 550.6985 311.41876L549.62036 311.3094Q549.72974 310.09064 550.4485 309.46564Q551.18286 308.825 552.41724 308.825Q553.6516 308.825 554.37036 309.5125Q555.0891 310.2 555.0891 311.21564Q555.0891 311.73126 554.87036 312.23126Q554.66724 312.71564 554.16724 313.27814Q553.68286 313.825 552.55786 314.77814Q551.60474 315.575 551.3235 315.8719Q551.05786 316.15314 550.886 316.4344L555.10474 316.4344ZM556.55786 315.2L557.66724 315.10626Q557.79224 315.91876 558.22974 316.325Q558.68286 316.73126 559.3235 316.73126Q560.0735 316.73126 560.60474 316.15314Q561.136 315.575 561.136 314.6375Q561.136 313.73126 560.62036 313.21564Q560.12036 312.6844 559.29224 312.6844Q558.79224 312.6844 558.37036 312.91876Q557.9641 313.15314 557.72974 313.5125L556.74536 313.3875L557.5735 308.98126L561.85474 308.98126L561.85474 309.98126L558.41724 309.98126L557.9641 312.29376Q558.72974 311.7469 559.5735 311.7469Q560.6985 311.7469 561.4641 312.52814Q562.24536 313.3094 562.24536 314.54376Q562.24536 315.7 561.5735 316.5594Q560.74536 317.59064 559.3235 317.59064Q558.1516 317.59064 557.4016 316.9344Q556.66724 316.27814 556.55786 315.2ZM563.55786 313.21564Q563.55786 311.6844 563.87036 310.7625Q564.18286 309.825 564.79224 309.325Q565.41724 308.825 566.35474 308.825Q567.04224 308.825 567.55786 309.10626Q568.0891 309.3875 568.43286 309.91876Q568.7766 310.4344 568.9641 311.1844Q569.1516 311.9344 569.1516 313.21564Q569.1516 314.73126 568.8391 315.65314Q568.54224 316.575 567.91724 317.09064Q567.30786 317.59064 566.35474 317.59064Q565.12036 317.59064 564.4016 316.7Q563.55786 315.6375 563.55786 313.21564ZM564.636 313.21564Q564.636 315.325 565.136 316.02814Q565.636 316.73126 566.35474 316.73126Q567.0891 316.73126 567.5735 316.02814Q568.0735 315.325 568.0735 313.21564Q568.0735 311.09064 567.5735 310.40314Q567.0891 309.7 566.3391 309.7Q565.62036 309.7 565.18286 310.3094Q564.636 311.09064 564.636 313.21564ZM570.55786 313.21564Q570.55786 311.6844 570.87036 310.7625Q571.18286 309.825 571.79224 309.325Q572.41724 308.825 573.35474 308.825Q574.04224 308.825 574.55786 309.10626Q575.0891 309.3875 575.43286 309.91876Q575.7766 310.4344 575.9641 311.1844Q576.1516 311.9344 576.1516 313.21564Q576.1516 314.73126 575.8391 315.65314Q575.54224 316.575 574.91724 317.09064Q574.30786 317.59064 573.35474 317.59064Q572.12036 317.59064 571.4016 316.7Q570.55786 315.6375 570.55786 313.21564ZM571.636 313.21564Q571.636 315.325 572.136 316.02814Q572.636 316.73126 573.35474 316.73126Q574.0891 316.73126 574.5735 316.02814Q575.0735 315.325 575.0735 313.21564Q575.0735 311.09064 574.5735 310.40314Q574.0891 309.7 573.3391 309.7Q572.62036 309.7 572.18286 310.3094Q571.636 311.09064 571.636 313.21564ZM577.55786 313.21564Q577.55786 311.6844 577.87036 310.7625Q578.18286 309.825 578.79224 309.325Q579.41724 308.825 580.35474 308.825Q581.04224 308.825 581.55786 309.10626Q582.0891 309.3875 582.43286 309.91876Q582.7766 310.4344 582.9641 311.1844Q583.1516 311.9344 583.1516 313.21564Q583.1516 314.73126 582.8391 315.65314Q582.54224 316.575 581.91724 317.09064Q581.30786 317.59064 580.35474 317.59064Q579.12036 317.59064 578.4016 316.7Q577.55786 315.6375 577.55786 313.21564ZM578.636 313.21564Q578.636 315.325 579.136 316.02814Q579.636 316.73126 580.35474 316.73126Q581.0891 316.73126 581.5735 316.02814Q582.0735 315.325 582.0735 313.21564Q582.0735 311.09064 581.5735 310.40314Q581.0891 309.7 580.3391 309.7Q579.62036 309.7 579.18286 310.3094Q578.636 311.09064 578.636 313.21564Z" fill-rule="nonzero"/><path fill="#757575" d="M23.7375 37.55L23.7375 24.925L19.01875 24.925L19.01875 23.2375L30.3625 23.2375L30.3625 24.925L25.628124 24.925L25.628124 37.55L23.7375 37.55ZM31.878124 25.253124L31.878124 23.2375L33.64375 23.2375L33.64375 25.253124L31.878124 25.253124ZM31.878124 37.55L31.878124 27.175L33.64375 27.175L33.64375 37.55L31.878124 37.55ZM35.8625 37.55L35.8625 27.175L37.440624 27.175L37.440624 28.628124Q37.925 27.878124 38.7375 27.409374Q39.55 26.940624 40.58125 26.940624Q41.7375 26.940624 42.471874 27.425Q43.20625 27.89375 43.51875 28.753124Q44.753124 26.940624 46.721874 26.940624Q48.26875 26.940624 49.096874 27.8Q49.925 28.659374 49.925 30.425L49.925 37.55L48.175 37.55L48.175 31.01875Q48.175 29.95625 48.003124 29.503124Q47.83125 29.034374 47.378124 28.753124Q46.940624 28.471874 46.33125 28.471874Q45.2375 28.471874 44.503124 29.20625Q43.784374 29.925 43.784374 31.51875L43.784374 37.55L42.034374 37.55L42.034374 30.815624Q42.034374 29.64375 41.596874 29.065624Q41.175 28.471874 40.190624 28.471874Q39.45625 28.471874 38.815624 28.8625Q38.190624 29.253124 37.909374 30.003124Q37.628124 30.753124 37.628124 32.175L37.628124 37.55L35.8625 37.55ZM58.971874 34.20625L60.784374 34.440624Q60.3625 36.01875 59.190624 36.909374Q58.034374 37.784374 56.221874 37.784374Q53.95625 37.784374 52.6125 36.39375Q51.284374 34.9875 51.284374 32.45625Q51.284374 29.83125 52.628124 28.39375Q53.971874 26.940624 56.128124 26.940624Q58.20625 26.940624 59.51875 28.3625Q60.846874 29.76875 60.846874 32.346874Q60.846874 32.503124 60.83125 32.815624L53.096874 32.815624Q53.190624 34.51875 54.065624 35.425Q54.940624 36.33125 56.2375 36.33125Q57.20625 36.33125 57.878124 35.83125Q58.565624 35.315624 58.971874 34.20625ZM53.190624 31.3625L58.9875 31.3625Q58.878124 30.065624 58.33125 29.409374Q57.4875 28.39375 56.14375 28.39375Q54.940624 28.39375 54.1125 29.20625Q53.284374 30.003124 53.190624 31.3625ZM72.22188 41.753124Q70.76875 39.925 69.76875 37.471874Q68.76875 35.003124 68.76875 32.3625Q68.76875 30.034374 69.51875 27.909374Q70.39375 25.440624 72.22188 22.9875L73.4875 22.9875Q72.3 25.01875 71.925 25.89375Q71.33125 27.2375 70.9875 28.70625Q70.56563 30.534374 70.56563 32.378124Q70.56563 37.065624 73.4875 41.753124L72.22188 41.753124ZM75.15938 34.45625L76.90938 34.175Q77.05 35.221874 77.72188 35.784374Q78.39375 36.33125 79.59688 36.33125Q80.8 36.33125 81.37813 35.846874Q81.97188 35.346874 81.97188 34.690624Q81.97188 34.096874 81.45625 33.753124Q81.09688 33.51875 79.65938 33.159374Q77.72188 32.659374 76.97188 32.315624Q76.2375 31.95625 75.84688 31.33125Q75.45625 30.690624 75.45625 29.925Q75.45625 29.2375 75.76875 28.64375Q76.09688 28.05 76.64375 27.659374Q77.05 27.3625 77.75313 27.159374Q78.47188 26.940624 79.28438 26.940624Q80.50313 26.940624 81.425 27.3Q82.34688 27.64375 82.78438 28.253124Q83.22188 28.846874 83.39375 29.846874L81.675 30.08125Q81.55 29.284374 80.9875 28.846874Q80.425 28.39375 79.40938 28.39375Q78.19063 28.39375 77.675 28.8Q77.15938 29.190624 77.15938 29.721874Q77.15938 30.065624 77.37813 30.346874Q77.58125 30.628124 78.05 30.815624Q78.31563 30.909374 79.59688 31.253124Q81.47188 31.753124 82.20625 32.08125Q82.94063 32.39375 83.3625 33.003124Q83.78438 33.596874 83.78438 34.503124Q83.78438 35.378124 83.26875 36.159374Q82.75313 36.940624 81.78438 37.3625Q80.81563 37.784374 79.59688 37.784374Q77.58125 37.784374 76.51875 36.940624Q75.45625 36.096874 75.15938 34.45625ZM92.97188 34.20625L94.78438 34.440624Q94.3625 36.01875 93.19063 36.909374Q92.03438 37.784374 90.22188 37.784374Q87.95625 37.784374 86.6125 36.39375Q85.28438 34.9875 85.28438 32.45625Q85.28438 29.83125 86.62813 28.39375Q87.97188 26.940624 90.12813 26.940624Q92.20625 26.940624 93.51875 28.3625Q94.84688 29.76875 94.84688 32.346874Q94.84688 32.503124 94.83125 32.815624L87.09688 32.815624Q87.19063 34.51875 88.06563 35.425Q88.94063 36.33125 90.2375 36.33125Q91.20625 36.33125 91.87813 35.83125Q92.56563 35.315624 92.97188 34.20625ZM87.19063 31.3625L92.9875 31.3625Q92.87813 30.065624 92.33125 29.409374Q91.4875 28.39375 90.14375 28.39375Q88.94063 28.39375 88.1125 29.20625Q87.28438 30.003124 87.19063 31.3625ZM103.64375 33.753124L105.3625 33.971874Q105.08125 35.76875 103.90938 36.784374Q102.75313 37.784374 101.05 37.784374Q98.925 37.784374 97.62813 36.39375Q96.33125 35.003124 96.33125 32.409374Q96.33125 30.721874 96.87813 29.471874Q97.44063 28.20625 98.58125 27.58125Q99.72188 26.940624 101.06563 26.940624Q102.75313 26.940624 103.81563 27.8Q104.89375 28.659374 105.20625 30.221874L103.4875 30.4875Q103.25313 29.440624 102.62813 28.925Q102.00313 28.39375 101.12813 28.39375Q99.8 28.39375 98.97188 29.346874Q98.14375 30.3 98.14375 32.346874Q98.14375 34.440624 98.94063 35.39375Q99.7375 36.33125 101.03438 36.33125Q102.06563 36.33125 102.75313 35.70625Q103.45625 35.065624 103.64375 33.753124ZM106.22188 32.3625Q106.22188 29.4875 107.81563 28.096874Q109.15938 26.940624 111.08125 26.940624Q113.22188 26.940624 114.56563 28.346874Q115.925 29.753124 115.925 32.221874Q115.925 34.221874 115.33125 35.378124Q114.7375 36.51875 113.58125 37.159374Q112.44063 37.784374 111.08125 37.784374Q108.89375 37.784374 107.55 36.39375Q106.22188 34.9875 106.22188 32.3625ZM108.01875 32.3625Q108.01875 34.3625 108.87813 35.346874Q109.75313 36.33125 111.08125 36.33125Q112.39375 36.33125 113.25313 35.346874Q114.12813 34.346874 114.12813 32.3Q114.12813 30.378124 113.25313 29.39375Q112.37813 28.39375 111.08125 28.39375Q109.75313 28.39375 108.87813 29.39375Q108.01875 30.378124 108.01875 32.3625ZM117.8625 37.55L117.8625 27.175L119.45625 27.175L119.45625 28.659374Q120.59688 26.940624 122.75313 26.940624Q123.69063 26.940624 124.47188 27.284374Q125.26875 27.6125 125.65938 28.159374Q126.05 28.70625 126.20625 29.45625Q126.3 29.95625 126.3 31.175L126.3 37.55L124.53438 37.55L124.53438 31.2375Q124.53438 30.159374 124.33125 29.628124Q124.12813 29.096874 123.59688 28.784374Q123.08125 28.471874 122.37813 28.471874Q121.25313 28.471874 120.44063 29.190624Q119.62813 29.89375 119.62813 31.878124L119.62813 37.55L117.8625 37.55ZM134.59688 37.55L134.59688 36.2375Q133.6125 37.784374 131.69063 37.784374Q130.45625 37.784374 129.40938 37.096874Q128.37813 36.409374 127.8 35.190624Q127.2375 33.971874 127.2375 32.378124Q127.2375 30.815624 127.75313 29.55Q128.26875 28.284374 129.3 27.6125Q130.34688 26.940624 131.6125 26.940624Q132.55 26.940624 133.28438 27.346874Q134.01875 27.7375 134.4875 28.3625L134.4875 23.2375L136.22188 23.2375L136.22188 37.55L134.59688 37.55ZM129.03438 32.378124Q129.03438 34.3625 129.87813 35.346874Q130.72188 36.33125 131.8625 36.33125Q133.01875 36.33125 133.81563 35.39375Q134.62813 34.45625 134.62813 32.51875Q134.62813 30.39375 133.8 29.39375Q132.9875 28.39375 131.78438 28.39375Q130.6125 28.39375 129.81563 29.3625Q129.03438 30.315624 129.03438 32.378124ZM138.15938 34.45625L139.90938 34.175Q140.05 35.221874 140.72188 35.784374Q141.39375 36.33125 142.59688 36.33125Q143.8 36.33125 144.37813 35.846874Q144.97188 35.346874 144.97188 34.690624Q144.97188 34.096874 144.45625 33.753124Q144.09688 33.51875 142.65938 33.159374Q140.72188 32.659374 139.97188 32.315624Q139.2375 31.95625 138.84688 31.33125Q138.45625 30.690624 138.45625 29.925Q138.45625 29.2375 138.76875 28.64375Q139.09688 28.05 139.64375 27.659374Q140.05 27.3625 140.75313 27.159374Q141.47188 26.940624 142.28438 26.940624Q143.50313 26.940624 144.425 27.3Q145.34688 27.64375 145.78438 28.253124Q146.22188 28.846874 146.39375 29.846874L144.675 30.08125Q144.55 29.284374 143.9875 28.846874Q143.425 28.39375 142.40938 28.39375Q141.19063 28.39375 140.675 28.8Q140.15938 29.190624 140.15938 29.721874Q140.15938 30.065624 140.37813 30.346874Q140.58125 30.628124 141.05 30.815624Q141.31563 30.909374 142.59688 31.253124Q144.47188 31.753124 145.20625 32.08125Q145.94063 32.39375 146.3625 33.003124Q146.78438 33.596874 146.78438 34.503124Q146.78438 35.378124 146.26875 36.159374Q145.75313 36.940624 144.78438 37.3625Q143.81563 37.784374 142.59688 37.784374Q140.58125 37.784374 139.51875 36.940624Q138.45625 36.096874 138.15938 34.45625ZM150.01875 41.753124L148.76875 41.753124Q151.675 37.065624 151.675 32.378124Q151.675 30.534374 151.26875 28.7375Q150.925 27.26875 150.33125 25.925Q149.95625 25.034374 148.76875 22.9875L150.01875 22.9875Q151.8625 25.440624 152.7375 27.909374Q153.4875 30.034374 153.4875 32.3625Q153.4875 35.003124 152.47188 37.471874Q151.47188 39.925 150.01875 41.753124ZM164.75313 37.55L160.8 27.175L162.65938 27.175L164.89375 33.39375Q165.25313 34.39375 165.55 35.471874Q165.78438 34.659374 166.20625 33.503124L168.50313 27.175L170.31563 27.175L166.39375 37.55L164.75313 37.55ZM170.15938 34.45625L171.90938 34.175Q172.05 35.221874 172.72188 35.784374Q173.39375 36.33125 174.59688 36.33125Q175.8 36.33125 176.37813 35.846874Q176.97188 35.346874 176.97188 34.690624Q176.97188 34.096874 176.45625 33.753124Q176.09688 33.51875 174.65938 33.159374Q172.72188 32.659374 171.97188 32.315624Q171.2375 31.95625 170.84688 31.33125Q170.45625 30.690624 170.45625 29.925Q170.45625 29.2375 170.76875 28.64375Q171.09688 28.05 171.64375 27.659374Q172.05 27.3625 172.75313 27.159374Q173.47188 26.940624 174.28438 26.940624Q175.50313 26.940624 176.425 27.3Q177.34688 27.64375 177.78438 28.253124Q178.22188 28.846874 178.39375 29.846874L176.675 30.08125Q176.55 29.284374 175.9875 28.846874Q175.425 28.39375 174.40938 28.39375Q173.19063 28.39375 172.675 28.8Q172.15938 29.190624 172.15938 29.721874Q172.15938 30.065624 172.37813 30.346874Q172.58125 30.628124 173.05 30.815624Q173.31563 30.909374 174.59688 31.253124Q176.47188 31.753124 177.20625 32.08125Q177.94063 32.39375 178.3625 33.003124Q178.78438 33.596874 178.78438 34.503124Q178.78438 35.378124 178.26875 36.159374Q177.75313 36.940624 176.78438 37.3625Q175.81563 37.784374 174.59688 37.784374Q172.58125 37.784374 171.51875 36.940624Q170.45625 36.096874 170.15938 34.45625ZM181.3625 37.55L181.3625 35.55L183.3625 35.55L183.3625 37.55L181.3625 37.55ZM192.45625 32.95625L194.2375 32.8Q194.3625 33.8625 194.81563 34.55Q195.28438 35.2375 196.25313 35.675Q197.2375 36.096874 198.47188 36.096874Q199.55 36.096874 200.37813 35.784374Q201.20625 35.45625 201.6125 34.89375Q202.01875 34.33125 202.01875 33.659374Q202.01875 32.9875 201.62813 32.4875Q201.2375 31.9875 200.34688 31.64375Q199.76875 31.409374 197.78438 30.940624Q195.81563 30.471874 195.03438 30.05Q194.00313 29.51875 193.50313 28.721874Q193.00313 27.925 193.00313 26.940624Q193.00313 25.846874 193.6125 24.909374Q194.22188 23.971874 195.40938 23.4875Q196.59688 22.9875 198.03438 22.9875Q199.62813 22.9875 200.84688 23.503124Q202.06563 24.01875 202.70625 25.01875Q203.3625 26.003124 203.40938 27.26875L201.59688 27.409374Q201.45625 26.05 200.6125 25.3625Q199.76875 24.659374 198.1125 24.659374Q196.39375 24.659374 195.59688 25.3Q194.81563 25.925 194.81563 26.8Q194.81563 27.58125 195.37813 28.08125Q195.925 28.58125 198.2375 29.096874Q200.55 29.6125 201.40938 30.003124Q202.65938 30.58125 203.25313 31.471874Q203.84688 32.346874 203.84688 33.503124Q203.84688 34.64375 203.19063 35.659374Q202.53438 36.675 201.3 37.2375Q200.08125 37.8 198.55 37.8Q196.6125 37.8 195.3 37.2375Q193.9875 36.659374 193.2375 35.51875Q192.4875 34.378124 192.45625 32.95625ZM205.87813 25.253124L205.87813 23.2375L207.64375 23.2375L207.64375 25.253124L205.87813 25.253124ZM205.87813 37.55L205.87813 27.175L207.64375 27.175L207.64375 37.55L205.87813 37.55ZM208.94063 37.55L208.94063 36.128124L215.55 28.55Q214.425 28.596874 213.56563 28.596874L209.33125 28.596874L209.33125 27.175L217.81563 27.175L217.81563 28.346874L212.19063 34.925L211.1125 36.128124Q212.28438 36.034374 213.33125 36.034374L218.12813 36.034374L218.12813 37.55L208.94063 37.55ZM225.97188 34.20625L227.78438 34.440624Q227.3625 36.01875 226.19063 36.909374Q225.03438 37.784374 223.22188 37.784374Q220.95625 37.784374 219.6125 36.39375Q218.28438 34.9875 218.28438 32.45625Q218.28438 29.83125 219.62813 28.39375Q220.97188 26.940624 223.12813 26.940624Q225.20625 26.940624 226.51875 28.3625Q227.84688 29.76875 227.84688 32.346874Q227.84688 32.503124 227.83125 32.815624L220.09688 32.815624Q220.19063 34.51875 221.06563 35.425Q221.94063 36.33125 223.2375 36.33125Q224.20625 36.33125 224.87813 35.83125Q225.56563 35.315624 225.97188 34.20625ZM220.19063 31.3625L225.9875 31.3625Q225.87813 30.065624 225.33125 29.409374Q224.4875 28.39375 223.14375 28.39375Q221.94063 28.39375 221.1125 29.20625Q220.28438 30.003124 220.19063 31.3625ZM239.22188 41.753124Q237.76875 39.925 236.76875 37.471874Q235.76875 35.003124 235.76875 32.3625Q235.76875 30.034374 236.51875 27.909374Q237.39375 25.440624 239.22188 22.9875L240.4875 22.9875Q239.3 25.01875 238.925 25.89375Q238.33125 27.2375 237.9875 28.70625Q237.56563 30.534374 237.56563 32.378124Q237.56563 37.065624 240.4875 41.753124L239.22188 41.753124ZM243.08125 37.55L243.08125 23.2375L245.01875 23.2375L252.53438 34.471874L252.53438 23.2375L254.34688 23.2375L254.34688 37.55L252.40938 37.55L244.89375 26.3L244.89375 37.55L243.08125 37.55ZM257.01874 41.753124L255.76875 41.753124Q258.675 37.065624 258.675 32.378124Q258.675 30.534374 258.26874 28.7375Q257.925 27.26875 257.33124 25.925Q256.95624 25.034374 255.76875 22.9875L257.01874 22.9875Q258.8625 25.440624 259.7375 27.909374Q260.4875 30.034374 260.4875 32.3625Q260.4875 35.003124 259.47186 37.471874Q258.47186 39.925 257.01874 41.753124Z" fill-rule="nonzero"/></svg>